<svg width="168" height="112" viewBox="0 0 168 112" fill="none" xmlns="http://www.w3.org/2000/svg">
<g clip-path="url(#clip0_102_24770)">
<path d="M124.094 50.2638C118.567 50.6073 121.049 57.8053 127.159 57.4253C133.136 57.0538 129.983 49.8979 124.094 50.2638Z" fill="#F19021"/>
<path d="M121.761 45.818C118.239 45.818 114.797 46.8623 111.868 48.8188C108.94 50.7753 106.658 53.5562 105.31 56.8097C103.963 60.0633 103.61 63.6434 104.297 67.0974C104.984 70.5513 106.68 73.724 109.17 76.2141C111.66 78.7043 114.833 80.4001 118.287 81.0872C121.741 81.7742 125.321 81.4216 128.575 80.0739C131.829 78.7262 134.61 76.4441 136.566 73.5159C138.523 70.5878 139.567 67.1453 139.567 63.6237C139.567 58.9013 137.691 54.3724 134.352 51.0332C131.013 47.694 126.483 45.818 121.761 45.818ZM121.761 79.5632C118.609 79.5638 115.528 78.6296 112.907 76.879C110.286 75.1283 108.243 72.6398 107.036 69.728C105.83 66.8162 105.514 63.6121 106.128 60.5208C106.743 57.4294 108.26 54.5898 110.489 52.3609C112.717 50.132 115.557 48.614 118.648 47.9989C121.74 47.3838 124.944 47.6992 127.856 48.9053C130.768 50.1113 133.257 52.1538 135.008 54.7744C136.759 57.395 137.694 60.476 137.694 63.6279C137.694 67.8537 136.015 71.9065 133.028 74.8949C130.04 77.8832 125.987 79.5625 121.761 79.5632ZM121.224 33.3877C116.997 36.5829 117.731 41.483 117.731 41.483C117.731 41.483 115.075 34.5865 111.624 30.3706C111.159 35.7978 112.859 42.9888 112.859 42.9888C112.859 42.9888 110.699 38.5303 105.405 38.2808C109.796 40.8044 111.499 45.3512 111.889 46.5709C114.506 44.9556 117.499 44.0501 120.572 43.9435C120.226 42.8079 118.995 38.0228 121.224 33.3877Z" fill="#F19021"/>
<path d="M29.8841 65.3693V69.0958H28.3334V59.4948H31.5974C32.7041 59.4948 33.536 59.7579 34.093 60.2841C34.6501 60.8104 34.9305 61.531 34.9343 62.446C34.9343 63.3536 34.6487 64.0677 34.0776 64.5883C33.5065 65.1089 32.6816 65.3693 31.603 65.3693H29.8841ZM33.3513 62.446C33.3513 61.9021 33.1995 61.4871 32.8957 61.2011C32.5919 60.915 32.1049 60.7725 31.4347 60.7734H29.8841V64.1046H31.4347C32.7115 64.1046 33.3504 63.5518 33.3513 62.446ZM41.3347 69.0958L38.9414 65.2613H37.8393V69.0958H36.2887V59.4948H39.676C40.7724 59.4948 41.6043 59.7621 42.1717 60.2968C42.7391 60.8314 43.0223 61.5389 43.0214 62.4194C43.0214 63.1671 42.8106 63.7836 42.389 64.2687C41.9675 64.7538 41.3599 65.0617 40.5663 65.1926L43.0901 69.0958H41.3347ZM37.8393 64.1593H39.5499C40.8024 64.1593 41.4281 63.6064 41.4272 62.5007C41.4272 61.9754 41.2753 61.5651 40.9715 61.2698C40.6673 60.9753 40.1948 60.8281 39.5499 60.8281H37.8393V64.1593ZM50.148 67.0152H46.0947L45.36 69.0958H43.7014L47.2373 59.6448H49.0194L52.5413 69.0958H50.8813L50.148 67.0152ZM49.712 65.8193L48.1206 61.3328L46.5293 65.8193H49.712ZM60.3746 60.2561C61.1358 60.8182 61.6713 61.6336 61.8847 62.5554H60.2527C60.0493 62.0446 59.6896 61.6113 59.225 61.3174C58.7185 61.0004 58.13 60.8395 57.5327 60.8548C56.9669 60.8455 56.4094 60.991 55.9203 61.2754C55.4418 61.5589 55.0549 61.974 54.8057 62.4713C54.5285 63.0399 54.3933 63.6672 54.4117 64.2995C54.3935 64.9536 54.5335 65.6024 54.8197 66.1908C55.0735 66.6976 55.4735 67.1167 55.968 67.3938C56.4954 67.6803 57.0881 67.8253 57.6883 67.8144C58.4417 67.8275 59.1729 67.5596 59.7395 67.0629C60.3097 66.5694 60.6541 65.8917 60.7728 65.03H57.2466V63.8873H62.0739V65.3693C61.9721 66.0599 61.7141 66.7182 61.3196 67.2942C60.9194 67.8756 60.3826 68.3498 59.7563 68.6752C59.0691 69.0281 58.3051 69.2053 57.5327 69.1912C56.6661 69.2089 55.8108 68.9929 55.0566 68.5659C54.3493 68.1582 53.7737 67.5563 53.398 66.8316C53.0132 66.0414 52.8133 65.1741 52.8133 64.2953C52.8133 63.4165 53.0132 62.5492 53.398 61.7591C53.7721 61.0373 54.3453 60.4378 55.0496 60.0318C55.8027 59.6091 56.6552 59.3956 57.5186 59.4135C58.6618 59.4135 59.6138 59.6944 60.3746 60.2561ZM73.0226 59.6448V69.0958H71.4579V62.0114L68.7253 69.0958H67.3653L64.6173 62.0114V69.0958H63.068V59.6448H64.944L68.0719 67.1919L71.1453 59.6448H73.0226ZM80.6106 67.0152H76.5642L75.8295 69.0958H74.1653L77.7013 59.6448H79.4819L83.0053 69.0958H81.3452L80.6106 67.0152ZM80.1759 65.8193L78.5846 61.3328L76.9933 65.8193H80.1759ZM89.6412 59.4948V60.7454H86.9619V69.0958H85.3972V60.7454H82.7333V59.4948H89.6412ZM92.0205 59.4948V69.0958H90.4713V59.4948H92.0205ZM100.793 60.2968C101.58 60.9062 102.136 61.7649 102.371 62.7321H100.725C100.514 62.1718 100.137 61.6897 99.6435 61.3511C99.1052 60.9983 98.4712 60.8201 97.8279 60.8407C97.2883 60.8321 96.7575 60.9781 96.2982 61.2613C95.839 61.5553 95.4713 61.972 95.2369 62.4643C94.9818 63.038 94.8499 63.659 94.8499 64.2869C94.8499 64.9148 94.9818 65.5357 95.2369 66.1095C95.4709 66.6024 95.8386 67.0197 96.2982 67.3138C96.7575 67.5972 97.2883 67.7431 97.8279 67.7345C98.471 67.7555 99.105 67.5778 99.6435 67.2255C100.134 66.8902 100.511 66.4134 100.725 65.8586H102.371C102.137 66.824 101.581 67.6804 100.793 68.2854C100.014 68.8799 99.0346 69.1771 97.8559 69.1771C97.0121 69.1931 96.1798 68.9789 95.4486 68.5574C94.7542 68.1494 94.1924 67.5496 93.8306 66.8302C93.4539 66.0377 93.2585 65.1713 93.2585 64.2939C93.2585 63.4165 93.4539 62.5501 93.8306 61.7577C94.1937 61.0373 94.7551 60.4356 95.4486 60.0234C96.1785 59.5982 97.0113 59.3819 97.8559 59.3981C99.0336 59.399 100.013 59.6986 100.793 60.2968ZM109.685 65.3693V69.0958H108.136V59.4948H111.4C112.505 59.4948 113.337 59.7579 113.895 60.2841C114.454 60.8104 114.735 61.531 114.737 62.446C114.737 63.3536 114.451 64.0677 113.88 64.5883C113.309 65.1089 112.484 65.3693 111.405 65.3693H109.685ZM113.158 62.446C113.158 61.9021 113.006 61.4871 112.702 61.2011C112.399 60.915 111.911 60.7725 111.24 60.7734H109.685V64.1046H111.236C112.517 64.1046 113.158 63.5518 113.158 62.446ZM117.396 67.8859H120.715V69.0958H115.846V59.4948H117.396V67.8859ZM127.814 67.0152H123.762L123.027 69.0958H121.367L124.904 59.6448H126.685L130.208 69.0958H128.548L127.814 67.0152ZM127.379 65.8193L125.788 61.3328L124.196 65.8193H127.379ZM136.432 59.4948L133.237 65.6006V69.0958H131.676V65.6006L128.467 59.4948H130.263L132.467 63.942L134.67 59.4948H136.432Z" fill="white"/>
</g>
<defs>
<clipPath id="clip0_102_24770">
<rect width="111.333" height="51.0615" fill="white" transform="translate(28.3334 30.3706)"/>
</clipPath>
</defs>
</svg>
