<svg width="168" height="112" viewBox="0 0 168 112" fill="none" xmlns="http://www.w3.org/2000/svg">
<g clip-path="url(#clip0_102_24729)">
<g clip-path="url(#clip1_102_24729)">
<path d="M47.6659 40.4304H30.4021C29.8534 40.4304 29.3272 40.6484 28.9392 41.0364C28.5512 41.4244 28.3333 41.9506 28.3333 42.4993V69.4909C28.3333 69.7626 28.3868 70.0316 28.4907 70.2826C28.5947 70.5336 28.7471 70.7617 28.9392 70.9538C29.1313 71.1459 29.3594 71.2983 29.6104 71.4022C29.8614 71.5062 30.1305 71.5597 30.4021 71.5597H47.6659C47.9381 71.5605 48.2078 71.5076 48.4595 71.4039C48.7111 71.3003 48.9399 71.148 49.1327 70.9559C49.3254 70.7637 49.4783 70.5353 49.5826 70.284C49.687 70.0326 49.7407 69.7631 49.7407 69.4909V42.4993C49.7407 42.2271 49.687 41.9576 49.5826 41.7062C49.4783 41.4548 49.3254 41.2265 49.1327 41.0343C48.9399 40.8421 48.7111 40.6898 48.4595 40.5862C48.2078 40.4826 47.9381 40.4297 47.6659 40.4304ZM46.1073 57.0368C46.1077 58.1567 45.7479 59.247 45.0809 60.1467L42.3111 63.8797L45.5223 66.8502C45.5898 66.9134 45.6368 66.9955 45.6572 67.0857C45.6776 67.1759 45.6704 67.2702 45.6366 67.3563C45.6028 67.4424 45.5439 67.5163 45.4676 67.5686C45.3912 67.6208 45.301 67.649 45.2085 67.6493H41.1631C40.9316 67.6506 40.7081 67.5647 40.537 67.4089L40.0399 66.9485L39.6411 66.579L39.037 66.0145L37.5223 64.623C37.4394 64.5456 37.3878 64.4404 37.3772 64.3275C37.3667 64.2145 37.398 64.1016 37.4651 64.0102L41.7554 58.2259C42.2273 57.5898 42.4818 56.8186 42.4812 56.0266V51.1632C42.4812 49.6016 41.8815 48.933 41.6557 48.7556C41.3947 48.5533 40.8419 48.0694 39.037 48.0694C37.232 48.0694 36.6763 48.5533 36.4153 48.7556C36.1866 48.9345 35.5869 49.6016 35.5869 51.1632V56.3154C35.5869 56.7387 35.6744 57.1574 35.844 57.5452C36.0136 57.933 36.2615 58.2816 36.5722 58.569L38.0106 59.9004C38.0949 59.9778 38.1476 60.0837 38.1584 60.1977C38.1692 60.3117 38.1375 60.4257 38.0692 60.5176L36.3478 62.8328C36.3094 62.8847 36.2604 62.9279 36.2042 62.9596C36.1479 62.9914 36.0856 63.0109 36.0213 63.017C35.957 63.0231 35.8921 63.0156 35.8309 62.995C35.7697 62.9743 35.7135 62.9411 35.666 62.8973L33.6353 61.0176C33.1072 60.5288 32.6859 59.9362 32.3978 59.2769C32.1096 58.6176 31.9608 57.9059 31.9608 57.1864V49.6031C31.9608 47.4214 32.6235 46.4361 33.386 45.766C34.2496 45.0065 35.7936 44.3394 39.034 44.3394C42.2745 44.3394 43.8185 45.0065 44.6821 45.766C45.4445 46.4361 46.1073 47.4214 46.1073 49.6031V57.0368Z" fill="#FF7800"/>
<path d="M137.92 56.9709V66.3254V67.3518L132.982 58.3888C132.384 57.3214 131.972 56.9739 131.193 56.9739C130.415 56.9739 129.865 57.512 129.865 58.5867V60.6644V70.0188H131.611V60.6644V59.638L136.544 68.601C137.142 69.6684 137.554 70.0159 138.332 70.0159C139.111 70.0159 139.662 69.4778 139.662 68.4031V66.3254V56.9709H137.92Z" fill="#FF7800"/>
<path d="M103.132 56.9783H100.74L95.928 62.1174V56.9856H94.1831V70.0423H95.928V64.6701L96.4426 64.1202L100.872 70.035H103.136L97.6493 62.8329L103.132 56.9783Z" fill="#FF7800"/>
<path d="M121.315 57.7612C120.343 57.122 119.23 56.9783 118.133 56.9783H114.917V70.035H116.727V65.4457H118.133C119.23 65.4457 120.343 65.2991 121.315 64.6627C122.287 64.0264 123.089 62.9341 123.089 61.2127C123.089 59.4914 122.28 58.3976 121.315 57.7612ZM120.388 63.2112C119.903 63.5953 119.149 63.8328 118.133 63.8328H116.727V58.5911H118.133C119.149 58.5911 119.903 58.8286 120.388 59.2128C120.692 59.4499 120.938 59.7531 121.107 60.0996C121.276 60.446 121.364 60.8264 121.364 61.212C121.364 61.5975 121.276 61.978 121.107 62.3244C120.938 62.6708 120.692 62.9741 120.388 63.2112Z" fill="#FF7800"/>
<path d="M64.1569 68.4983C64.3854 68.2105 64.5821 67.8988 64.7434 67.5687C65.2141 66.5995 65.2112 65.4867 65.2097 64.7506V62.1818C65.2097 61.4487 65.2097 60.3329 64.7434 59.3638C63.9091 57.6453 62.4179 56.7832 60.6482 56.7803H60.6262C58.8579 56.7803 57.3667 57.6453 56.5324 59.3638C56.0617 60.3329 56.0646 61.4458 56.0661 62.1818V64.7506C56.0661 65.4837 56.0661 66.5995 56.5324 67.5687C57.3681 69.2901 58.8637 70.1522 60.6379 70.1522C61.3255 70.1591 62.0061 70.0133 62.6306 69.7255L64.0352 71.5598H66.5088L64.1569 68.4983ZM63.4561 64.8254C63.4561 65.4222 63.4634 66.2374 63.1628 66.8517C62.8476 67.4998 62.0954 68.4807 60.6276 68.4807C59.1599 68.4807 58.4106 67.4998 58.0983 66.8517C57.786 66.2037 57.8051 65.2785 57.8051 64.6817V62.2507C57.8051 61.654 57.7816 60.7288 58.0983 60.0807C58.415 59.4327 59.1658 58.4518 60.6335 58.4518C62.1012 58.4518 62.8534 59.4327 63.1687 60.0807C63.4839 60.7288 63.4619 61.654 63.4619 62.2507V64.8254H63.4561Z" fill="#FF7800"/>
<path d="M86.8122 59.091C88.0057 58.1908 89.3679 58.0969 91.4705 58.5867V57.38C91.4705 57.38 90.4294 56.7803 88.777 56.7803C87.1245 56.7803 86.1611 57.2069 85.3943 57.8902C84.5145 58.6673 83.8474 59.9121 83.6524 61.849C83.5943 62.4022 83.5678 62.9584 83.5732 63.5146C83.5678 64.0704 83.5942 64.626 83.6524 65.1788C83.8474 67.1098 84.5204 68.3546 85.3943 69.1376C86.1611 69.8194 87.1128 70.246 88.777 70.246C90.4412 70.246 91.4705 69.6463 91.4705 69.6463V68.4352C89.3679 68.925 88.0057 68.8311 86.8122 67.9323C85.5952 67.016 85.3532 65.3078 85.3459 63.5146C85.3386 61.7214 85.5952 60.0074 86.8122 59.091Z" fill="#FF7800"/>
<path d="M109.797 58.3066C110.688 58.3428 111.575 58.4344 112.454 58.5807V57.1746C111.305 56.8675 110.115 56.739 108.926 56.7934C108.234 56.8186 107.547 56.9134 106.874 57.0764C105.915 57.3242 105.382 57.7802 105.085 58.2303C104.901 58.5083 104.785 58.8252 104.744 59.156C104.704 59.4869 104.741 59.8225 104.853 60.1364C104.857 60.145 104.859 60.1539 104.862 60.1628C104.882 60.22 104.904 60.2772 104.929 60.3358C105.267 61.2067 105.78 61.8739 106.507 62.6627C107.287 63.5072 108.906 65.0189 109.586 65.8312C110.01 66.3517 110.509 67.0452 110.261 67.6434C109.988 68.2988 108.794 68.7534 107.368 68.7123C106.478 68.6698 105.591 68.5773 104.711 68.4352V69.834C104.711 69.834 105.816 70.3208 108.237 70.224C110.658 70.1272 111.62 69.4791 112.077 68.7871C112.307 68.4029 112.435 67.9673 112.451 67.5203V67.4836C112.453 67.4087 112.45 67.3338 112.443 67.2593C112.407 66.5892 112.27 66.0863 111.416 65.0981C110.459 63.9955 108.742 62.368 107.969 61.5645L107.756 61.3416C107.19 60.7346 106.57 59.978 106.859 59.2567C107.164 58.5001 108.513 58.2802 109.797 58.3066Z" fill="#FF7800"/>
<path d="M81.1861 56.9783H79.3767V70.035H81.1861V56.9783Z" fill="#FF7800"/>
<path d="M127.142 56.9575H125.333V70.0142H127.142V56.9575Z" fill="#FF7800"/>
<path d="M69.4106 56.9783H67.6643V65.5351C67.6643 67.0659 68.1804 70.227 72.1056 70.227C76.0308 70.227 76.5484 67.06 76.5484 65.5351V56.9783H74.8021V65.5351C74.8021 68.2638 72.9341 68.6069 72.1056 68.6069C71.2772 68.6069 69.4106 68.2638 69.4106 65.5351V56.9783Z" fill="#FF7800"/>
</g>
</g>
<defs>
<clipPath id="clip0_102_24729">
<rect width="167" height="111.33" fill="white" transform="translate(0.5 0.330078)"/>
</clipPath>
<clipPath id="clip1_102_24729">
<rect width="111.333" height="31.1293" fill="white" transform="translate(28.3333 40.4304)"/>
</clipPath>
</defs>
</svg>
