<svg width="18" height="19" viewBox="0 0 18 19" fill="none" xmlns="http://www.w3.org/2000/svg">
<path d="M14.3719 4.12813C13.3097 3.06677 11.9566 2.34418 10.4837 2.05169C9.01086 1.75921 7.48434 1.90997 6.09714 2.48491C4.70994 3.05985 3.52434 4.03317 2.69022 5.28181C1.85609 6.53046 1.41089 7.99838 1.41089 9.5C1.41089 11.0016 1.85609 12.4695 2.69022 13.7182C3.52434 14.9668 4.70994 15.9402 6.09714 16.5151C7.48434 17.09 9.01086 17.2408 10.4837 16.9483C11.9566 16.6558 13.3097 15.9332 14.3719 14.8719C15.7947 13.4461 16.5937 11.5142 16.5937 9.5C16.5937 7.48581 15.7947 5.55388 14.3719 4.12813ZM13.1766 13.678C12.3504 14.5035 11.298 15.0656 10.1525 15.2931C9.0069 15.5206 7.81958 15.4034 6.74062 14.9562C5.66166 14.5091 4.7395 13.752 4.09072 12.7809C3.44193 11.8097 3.09565 10.668 3.09565 9.5C3.09565 8.33205 3.44193 7.19032 4.09072 6.21914C4.7395 5.24796 5.66166 4.49094 6.74062 4.04378C7.81958 3.59661 9.0069 3.47938 10.1525 3.70691C11.298 3.93443 12.3504 4.49649 13.1766 5.32203C14.2834 6.43071 14.9051 7.93317 14.9054 9.49971C14.9056 11.0663 14.2844 12.5689 13.178 13.678H13.1766ZM9.03312 8.90305C9.11178 8.98144 9.17419 9.07458 9.21678 9.17714C9.25936 9.2797 9.28128 9.38966 9.28128 9.50071C9.28128 9.61176 9.25936 9.72171 9.21678 9.82427C9.17419 9.92683 9.11178 10.02 9.03312 10.0984L6.78312 12.3484C6.62461 12.5069 6.40963 12.5959 6.18546 12.5959C5.9613 12.5959 5.74631 12.5069 5.58781 12.3484C5.4293 12.1899 5.34025 11.9749 5.34025 11.7507C5.34025 11.5265 5.4293 11.3116 5.58781 11.153L7.24226 9.5L5.58921 7.84555C5.4307 7.68704 5.34166 7.47206 5.34166 7.24789C5.34166 7.1369 5.36352 7.02699 5.40599 6.92444C5.44847 6.8219 5.51073 6.72872 5.58921 6.65024C5.6677 6.57175 5.76087 6.50949 5.86342 6.46702C5.96597 6.42454 6.07587 6.40268 6.18687 6.40268C6.41103 6.40268 6.62602 6.49173 6.78452 6.65024L9.03312 8.90305ZM12.9706 10.0984L10.7206 12.3484C10.5621 12.5069 10.3471 12.5959 10.123 12.5959C9.8988 12.5959 9.68381 12.5069 9.52531 12.3484C9.3668 12.1899 9.27775 11.9749 9.27775 11.7507C9.27775 11.5265 9.3668 11.3116 9.52531 11.153L11.1798 9.5L9.52601 7.84555C9.3675 7.68704 9.27845 7.47206 9.27845 7.24789C9.27845 7.1369 9.30031 7.02699 9.34279 6.92444C9.38527 6.8219 9.44752 6.72872 9.52601 6.65024C9.60449 6.57175 9.69767 6.50949 9.80022 6.46702C9.90276 6.42454 10.0127 6.40268 10.1237 6.40268C10.3478 6.40268 10.5628 6.49173 10.7213 6.65024L12.9713 8.90024C13.0503 8.97851 13.1131 9.07163 13.156 9.17425C13.1989 9.27686 13.2211 9.38694 13.2212 9.49816C13.2214 9.60938 13.1997 9.71953 13.1571 9.8223C13.1146 9.92506 13.0522 10.0184 12.9734 10.097L12.9706 10.0984Z" fill="#19C5C7"/>
</svg>
