<svg width="78" height="78" viewBox="0 0 78 78" fill="none" xmlns="http://www.w3.org/2000/svg">
<path fill-rule="evenodd" clip-rule="evenodd" d="M49.14 20.4561C45.6486 20.4561 16.848 21.2361 16.848 21.2361C16.848 21.2361 16.536 26.683 16.536 30.5961C16.536 34.5092 17.004 53.2161 17.004 53.2161L18.252 67.1001C18.252 67.1001 44.087 71.5316 59.436 64.7601C59.867 52.0129 58.812 33.5601 58.812 33.5601L58.188 21.2361C58.188 21.2361 51.4677 20.4032 49.14 20.4561Z" fill="url(#paint0_linear_102_31285)"/>
<path opacity="0.67" fill-rule="evenodd" clip-rule="evenodd" d="M49.14 20.4561C45.6486 20.4561 16.848 21.2361 16.848 21.2361C16.848 21.2361 16.536 26.683 16.536 30.5961C16.536 34.5092 17.004 53.2161 17.004 53.2161L18.252 67.1001C18.252 67.1001 44.087 71.5316 59.436 64.7601C59.867 52.0129 58.812 33.5601 58.812 33.5601L58.188 21.2361C58.188 21.2361 51.4677 20.4032 49.14 20.4561Z" fill="url(#paint1_linear_102_31285)"/>
<path opacity="0.3" fill-rule="evenodd" clip-rule="evenodd" d="M58.968 39.1761L57.252 23.8881L52.572 21.5481L46.9108 20.4873C47.9496 20.4678 48.7252 20.4561 49.14 20.4561C51.4675 20.4032 58.188 21.2361 58.188 21.2361L58.812 33.5601C58.812 33.5601 58.9438 35.8681 59.0953 39.4132L58.968 39.1761ZM25.272 22.1721L30.264 21.7041L22.932 23.4201L25.272 22.1721ZM19.656 22.4841L18.252 24.3561L16.6408 37.3921C16.58 34.381 16.536 31.7945 16.536 30.5961C16.536 26.683 16.848 21.2361 16.848 21.2361C16.848 21.2361 22.1498 21.0926 28.4787 20.9286L27.456 21.0801L19.656 22.4841ZM20.124 23.1081L22.62 22.4841L20.28 24.0441L17.784 33.0921L19.032 24.5121L20.124 23.1081ZM18.564 34.9641L18.096 40.1121V34.9641L18.876 32.3121L18.564 34.9641ZM56.16 24.9801L57.564 33.2481L55.224 25.1361L53.352 23.7321L49.764 21.5481L53.196 22.6401L56.16 24.9801ZM57.72 41.8281L57.408 39.4881L56.472 33.0921L57.876 39.4881L57.72 41.8281Z" fill="#F28CAF"/>
<path fill-rule="evenodd" clip-rule="evenodd" d="M36.7915 16.0948L32.7957 14.0289L31.9079 9.15969L34.32 5.16811L36.8365 3.94102L39.78 4.54411C40.847 4.58127 41.9008 4.79203 42.9 5.16811C44.6798 5.83782 46.6696 6.35637 46.6696 6.35637L49.8883 8.27516L54.106 6.65276L55.4377 6.50519L60.2104 2.96399L59.4335 4.29202L58.8785 6.06262L56.7697 9.15984L62.9852 12.701L63.762 18.308L59.5452 24.948L61.3211 19.488L61.432 17.2746L58.3236 15.5047L53.884 18.1606L50.2213 19.1934L44.4493 15.2095L43.2284 14.7668L42.4515 15.3569V15.9477C42.4515 15.9477 39.0019 15.3729 36.7915 16.0948Z" fill="#A62020"/>
<path fill-rule="evenodd" clip-rule="evenodd" d="M47.4465 7.97946L49.8888 8.42203L54.1064 6.65143L55.4382 6.50385L60.0998 3.11023L59.434 4.29068L56.6592 8.56961L56.8055 7.22598L55.4382 7.83188L53.8844 7.68431L49.8888 8.71718L47.4465 7.97946Z" fill="#FF1A1A"/>
<path fill-rule="evenodd" clip-rule="evenodd" d="M40.2324 14.6194L39.7885 12.8488V10.4878L41.3424 9.45488L42.5632 9.01215L43.7842 8.422L45.782 7.97943L47.7799 8.71716L49.1116 10.0452L50.5546 10.9305L52.6634 11.0781L55.66 9.60261L52.4411 11.6684L50.2213 11.8159L48.3344 10.4878L46.1147 9.3073L44.1168 9.15988L42.1189 9.89761L40.4541 11.2256L40.2321 13.1444V14.62L40.2324 14.6194Z" fill="#FF1A1A"/>
<path fill-rule="evenodd" clip-rule="evenodd" d="M50.5543 16.0948L53.662 14.4724L57.5463 11.6689H60.9871L62.8739 12.7018L63.7619 18.1618L62.4301 13.734L59.8773 12.9961L57.4356 13.2913L53.662 15.6522L50.5543 16.0948Z" fill="#DB0404"/>
<path fill-rule="evenodd" clip-rule="evenodd" d="M44.1168 12.7012L47.6685 14.0289L50.4433 16.0946L53.662 15.6519L55.8817 14.3239L57.2137 13.5862L59.5452 14.0289L61.654 16.0946L61.987 18.7507L59.8781 23.9143L61.3211 19.3402V17.1277L58.2133 15.5053L53.9957 18.1612L50.1113 19.194L44.3393 15.2101L43.2294 14.7674L42.3414 15.5051L42.4525 15.9477L41.8974 16.0953V14.9145L42.0085 14.0292L43.2294 12.7012H44.1168Z" fill="#760909"/>
<path fill-rule="evenodd" clip-rule="evenodd" d="M48.2235 8.42209L50.7761 10.1927H52.7748L56.5484 8.71724L58.4345 6.06134L59.4329 4.29074L58.5449 6.50407L56.7696 9.01239L54.1059 10.3404L52.4411 10.783H50.4432L48.2235 8.42209Z" fill="#651111"/>
<path fill-rule="evenodd" clip-rule="evenodd" d="M38.7892 14.7669L37.5684 13.2914L37.3464 11.2255L38.4563 8.1269L40.898 7.09402L43.1179 7.38918H44.8937L45.6707 7.97932L41.12 9.45493L39.6772 10.4876L39.5661 12.9961L39.8992 14.6185L38.7892 14.7669Z" fill="#AA1717"/>
<path fill-rule="evenodd" clip-rule="evenodd" d="M50.4432 16.2424L53.662 16.0948L57.1027 14.0289L59.5452 14.3242L61.4328 16.243L61.7659 18.7515L59.8783 23.9151L61.9871 18.8983L61.6542 16.0948L59.6555 14.0289L56.9916 13.5862L53.662 15.6522L50.4432 16.2424Z" fill="#470909"/>
<path fill-rule="evenodd" clip-rule="evenodd" d="M35.3485 13.1437L37.2361 15.2095H35.7933L32.7957 14.0288L31.9079 9.15962L34.2387 5.12125L36.7915 3.9408L39.624 4.38805L43.3399 5.32405L47.0028 6.50388L49.9996 8.42268L45.782 7.83253L44.894 7.24238L41.3424 7.0948L38.4564 5.80905L37.5684 6.54678L35.3485 8.57025V13.1437Z" fill="#FF1A1A"/>
<path fill-rule="evenodd" clip-rule="evenodd" d="M37.2353 11.6683L37.1244 10.3403L37.7904 9.3074L38.5673 7.5368L41.0091 6.79907L43.0069 7.09422L44.0053 7.2418H45.1152L43.3399 7.5368L41.12 7.24164L38.6783 7.97937L38.1233 9.15982L37.4573 10.4877L37.2353 11.6683Z" fill="#470909"/>
<path fill-rule="evenodd" clip-rule="evenodd" d="M41.0091 9.45492L42.1189 9.01219L43.4508 8.27447L45.7816 7.53674L48.0015 8.12689L49.6663 9.74929L50.8872 10.6346H52.7748L54.1067 10.3394L52.6639 10.9296H50.5543L49.2224 10.0443L47.7795 8.56884L45.8927 7.97869L43.7839 8.42126L42.3409 9.15899L41.0091 9.45492Z" fill="#470909"/>
<path fill-rule="evenodd" clip-rule="evenodd" d="M32.5739 9.45497L34.3497 6.39862L37.0135 5.07059L40.3432 5.61862L42.432 7.04009L39.0113 6.54619L37.596 6.57209L35.4596 8.71724V12.9962L37.2353 15.5046L35.6816 15.3571L32.7956 14.029L32.5739 9.45497Z" fill="#C71010"/>
<path fill-rule="evenodd" clip-rule="evenodd" d="M32.5739 9.60254L34.2387 6.54619L37.0135 5.07074L39.156 5.48008L37.0135 5.36574L34.3497 6.84134L32.5739 9.60254Z" fill="#470909"/>
<path fill-rule="evenodd" clip-rule="evenodd" d="M32.9068 14.0289L36.7912 16.0946C37.6668 15.9063 38.5593 15.8074 39.4549 15.7995C40.4599 15.8213 41.4617 15.92 42.4516 16.0946L42.3406 15.3569L43.0065 14.7668L44.3385 15.0619L50.1105 19.1934L53.773 18.1605L58.2125 15.5046L53.5509 17.5701L50.1103 18.0127L44.5608 14.4715L42.8959 14.0289L41.8975 14.9142L42.1195 13.8813L43.2295 12.7009L44.8937 12.9962L42.7849 12.4065L41.12 13.5865L40.2324 14.6193L39.7884 12.8487V10.4877L41.0094 9.45481L39.4555 10.3401L39.3446 13.1436L39.5664 14.766L38.9006 15.3561H38.0127L35.7928 12.8478V8.56967L37.44 6.72809L35.3485 8.56967V13.1437L37.3464 15.3571L35.9035 15.2095L33.2397 14.0289H32.9068ZM45.0047 12.5534L48.0015 12.8486L49.8891 13.8815L52.8857 13.2913L54.1067 12.1109L55.1051 10.6354L56.9927 10.9306H55.2159C55.2159 10.9306 54.3187 12.2469 54.2175 12.406C54.1162 12.5651 52.9966 13.5865 52.9966 13.5865L49.7779 14.3242L48.0012 13.2913L45.0047 12.5534Z" fill="#470909"/>
<path fill-rule="evenodd" clip-rule="evenodd" d="M58.3236 15.3571L61.3203 16.5376L61.5423 18.7509L61.3203 19.6362V17.1277L58.3236 15.3571Z" fill="#470909"/>
<path fill-rule="evenodd" clip-rule="evenodd" d="M36.348 7.68433L35.904 8.56963L36.126 12.5536L38.0136 14.9145H38.4576L37.3464 13.1437L37.2353 11.078L38.5673 8.1269L41.0091 7.09402L43.2289 8.27448L41.0091 7.53675L38.6783 8.56963L37.5684 11.2255L37.7904 13.1443L38.7888 14.7667L39.3438 14.6192V13.4389L39.6767 14.7669L38.8999 15.357H38.0119L35.6816 12.9961L35.5705 8.71705L36.348 7.68433Z" fill="#FF1A1A"/>
<path fill-rule="evenodd" clip-rule="evenodd" d="M14.196 55.2441L20.124 51.3441L22.776 48.2241L54.288 47.6001L59.28 51.6561L62.4 54.9321L62.088 59.7681L62.244 68.0361L55.224 69.5961L51.168 70.5321L46.02 73.1841L43.368 74.9001L30.888 72.4041L23.712 72.5601L14.352 67.2561L14.196 55.2441Z" fill="#96011A"/>
<path fill-rule="evenodd" clip-rule="evenodd" d="M62.244 68.036L55.224 69.596L51.561 70.4414L54.132 56.804L56.8428 49.6758L59.28 51.656L62.4 54.932L62.088 59.768L62.244 68.036Z" fill="url(#paint2_linear_102_31285)"/>
<path fill-rule="evenodd" clip-rule="evenodd" d="M26.4032 48.0597L40.243 47.8474L43.2103 74.8689L31.3502 72.4977L26.4032 48.0597Z" fill="url(#paint3_linear_102_31285)"/>
<path fill-rule="evenodd" clip-rule="evenodd" d="M23.7973 72.5582L23.712 72.5601L14.352 67.2561L14.196 55.2441L20.124 51.3441L20.592 50.7201L23.7973 72.5582Z" fill="url(#paint4_linear_102_31285)"/>
<path fill-rule="evenodd" clip-rule="evenodd" d="M52.728 58.6761L40.716 62.7321L14.2557 59.8428L14.196 55.2441L20.124 51.3441L22.776 48.2241L54.288 47.6001L59.28 51.6561L62.4 54.9321L62.1459 58.8703L52.728 58.6761Z" fill="#CE2041"/>
<path fill-rule="evenodd" clip-rule="evenodd" d="M52.728 58.6761L40.716 62.7321L14.2557 59.8428L14.196 55.2441L20.124 51.3441L22.776 48.2241L54.288 47.6001L59.28 51.6561L62.4 54.9321L62.1459 58.8703L52.728 58.6761Z" fill="url(#paint5_linear_102_31285)"/>
<path opacity="0.4" fill-rule="evenodd" clip-rule="evenodd" d="M21.06 58.6761L23.4 62.2641L38.22 71.6241L53.04 64.1361L56.16 58.5201L56.628 55.5561L21.06 58.6761Z" fill="#3B0912"/>
<path opacity="0.5" fill-rule="evenodd" clip-rule="evenodd" d="M59.436 54.6201L54.6 60.5481L39.312 67.2561C39.312 67.2561 34.1297 65.8554 29.64 63.6681C26.5923 62.1578 23.6243 60.4916 20.748 58.6761L18.876 54.9321L17.472 53.9961L16.068 54.07L20.124 51.3441L22.776 48.2241L54.288 47.6001L59.28 51.6561L61.776 54.3081L59.436 54.6201Z" fill="black"/>
<path fill-rule="evenodd" clip-rule="evenodd" d="M21.216 48.0681L18.72 49.9401L17.94 52.5921C18.6125 53.3503 19.1889 54.1887 19.656 55.0881C20.2092 56.1954 20.6785 57.3426 21.06 58.5201C21.06 58.5201 26.9474 62.3753 32.916 64.7601C38.8846 67.1449 39.156 67.4121 39.156 67.4121L54.444 60.0801L59.748 52.4361L60.06 51.6561L59.592 50.0961L57.72 49.3161L21.216 48.0681Z" fill="#B81330"/>
<path fill-rule="evenodd" clip-rule="evenodd" d="M23.2771 68.6154L21.5791 67.2512L19.7616 68.4515L20.5343 66.4151L18.8312 65.0579L21.0066 65.1635L21.771 63.1241L22.3428 65.2257L24.5187 65.3231L22.6966 66.5163L23.2771 68.6154Z" fill="#470909"/>
<path fill-rule="evenodd" clip-rule="evenodd" d="M51.1101 68.9482L49.5189 67.669L47.8156 68.7939L48.5397 66.8854L46.9435 65.6131L48.9824 65.712L49.6992 63.8008L50.2351 65.7705L52.2743 65.8616L50.5666 66.9799L51.1101 68.9482Z" fill="#470909"/>
<path fill-rule="evenodd" clip-rule="evenodd" d="M60.3266 66.7544L59.0994 66.1484L58.1478 67.1319L58.344 65.7774L57.1143 65.1762L58.4635 64.945L58.656 63.5901L59.2927 64.8019L60.641 64.5656L59.6853 65.5456L60.3266 66.7544Z" fill="#470909"/>
<path fill-rule="evenodd" clip-rule="evenodd" d="M31.2069 71.9644L30.1996 71.4669L29.4185 72.2742L29.5802 71.1625L28.5711 70.6691L29.6787 70.4794L29.8362 69.3671L30.3588 70.3616L31.4652 70.1676L30.681 70.9719L31.2069 71.9644Z" fill="#470909"/>
<path opacity="0.44" fill-rule="evenodd" clip-rule="evenodd" d="M38.9679 67.0908L37.9937 66.6097L37.2382 67.3897L37.3942 66.3145L36.4181 65.8372L37.489 65.6537L37.6413 64.5773L38.1467 65.5392L39.2169 65.352L38.4584 66.1298L38.9679 67.0908Z" fill="#830924"/>
<path opacity="0.44" fill-rule="evenodd" clip-rule="evenodd" d="M18.7529 59.0415L17.7233 58.5331L16.926 59.3582L17.0914 58.222L16.0601 57.7178L17.1915 57.5239L17.3525 56.3873L17.8865 57.4035L19.0174 57.2054L18.2158 58.0272L18.7529 59.0415Z" fill="#6A0315"/>
<path opacity="0.4" fill-rule="evenodd" clip-rule="evenodd" d="M28.5712 63.1679L27.2128 61.7245L25.4233 62.5771L26.3765 60.8392L25.0126 59.4008L26.9601 59.7702L27.9065 58.0285L28.1561 59.9949L30.105 60.3568L28.314 61.2033L28.5712 63.1679Z" fill="#8E0B25"/>
<path opacity="0.67" fill-rule="evenodd" clip-rule="evenodd" d="M49.1632 60.9839L47.8048 59.5404L46.0153 60.3931L46.9685 58.6551L45.6046 57.2168L47.5521 57.5862L48.4985 55.8445L48.7489 57.8109L50.6978 58.1728L48.906 59.0192L49.1632 60.9839Z" fill="#A71531"/>
<path fill-rule="evenodd" clip-rule="evenodd" d="M60.6159 58.9881L59.4509 57.7613L57.9163 58.486L58.7337 57.0089L57.564 55.7865L59.2342 56.1004L60.0459 54.6201L60.2606 56.2913L61.932 56.5989L60.3953 57.3183L60.6159 58.9881Z" fill="#A01533"/>
<path fill-rule="evenodd" clip-rule="evenodd" d="M21.216 48.0681L18.564 50.0961L17.94 52.5921C18.6125 53.3503 19.1889 54.1887 19.656 55.0881C20.2092 56.1954 20.6785 57.3426 21.06 58.5201C21.06 58.5201 26.9474 62.3753 32.916 64.7601C38.8846 67.1449 39.156 67.4121 39.156 67.4121L54.444 60.0801L59.748 52.4361L60.06 51.6561L59.592 50.0961L57.72 49.4721L21.216 48.0681Z" fill="#B81330"/>
<path fill-rule="evenodd" clip-rule="evenodd" d="M54.4894 60.0147L54.444 60.0801L39.2721 67.3564L36.504 61.9521L53.3532 57.014L54.4894 60.0147Z" fill="url(#paint6_linear_102_31285)"/>
<path fill-rule="evenodd" clip-rule="evenodd" d="M21.996 56.0241L36.66 62.7321L39.1618 67.4093L39.156 67.4121C39.156 67.4121 38.8845 67.1449 32.916 64.7601C26.9474 62.3753 20.904 58.4421 20.904 58.4421L20.9594 58.2165L21.996 56.0241Z" fill="#F3153A"/>
<path fill-rule="evenodd" clip-rule="evenodd" d="M46.8 58.0521L36.192 60.3921L26.52 56.6481L21.216 51.1881L20.1636 48.8729L21.216 48.0681H56.238L56.94 50.4081L52.104 56.1801L46.8 58.0521Z" fill="#8F1E32"/>
<path opacity="0.26" fill-rule="evenodd" clip-rule="evenodd" d="M51.8098 56.252L51.324 53.2161L53.898 48.0681H56.238L56.94 50.4081L52.104 56.1801L51.8098 56.252Z" fill="#57010D"/>
<path opacity="0.6" fill-rule="evenodd" clip-rule="evenodd" d="M52.104 56.1801L45.7347 57.737L41.184 56.9601L42.12 55.8681L50.5596 48.0681H56.238L56.94 50.4081L52.104 56.1801ZM52.104 56.1801L45.7347 57.737L41.184 56.9601L42.12 55.8681L50.5596 48.0681H56.238L56.94 50.4081L52.104 56.1801ZM56.94 48.6921L51.792 55.7121L44.616 56.6481L40.404 56.1801L53.196 44.4801L56.16 46.0401L56.94 48.6921Z" fill="#2E1823"/>
<path fill-rule="evenodd" clip-rule="evenodd" d="M41.4732 56.6225L42.12 55.8681L50.5596 48.0681H54.354L51.48 53.5281L43.836 56.9601L41.4732 56.6225Z" fill="#4C0514"/>
<path fill-rule="evenodd" clip-rule="evenodd" d="M41.4732 56.6225L42.12 55.8681L50.5596 48.0681H54.354L51.48 53.5281L43.836 56.9601L41.4732 56.6225Z" fill="#8F0D25"/>
<path fill-rule="evenodd" clip-rule="evenodd" d="M21.216 48.0681L18.564 50.2521L21.996 56.0241L36.816 62.7321L52.26 58.0521L59.592 50.0961L57.876 49.4721L54.834 48.3021L57.096 49.9401L51.636 56.3361L46.956 57.5841L36.036 60.2361L26.208 56.1801L21.528 51.0321L22.308 49.3161L21.216 48.0681Z" fill="url(#paint7_linear_102_31285)"/>
<path opacity="0.6" fill-rule="evenodd" clip-rule="evenodd" d="M36.036 60.2361L39.78 59.9241L47.034 59.7681L49.452 62.2641L52.572 60.7041L58.812 51.1881V49.4721L54.444 54.9321L52.104 57.4281L50.076 57.7401L44.46 58.0521L36.036 60.2361Z" fill="#2F0704"/>
<path fill-rule="evenodd" clip-rule="evenodd" d="M36.036 60.2361L41.34 59.6121H47.112L49.452 62.2641L52.416 60.7041L58.812 50.4081V49.4721L54.444 54.9321L52.104 57.4281L50.076 57.7401L44.46 58.0521L36.036 60.2361Z" fill="#9A021D"/>
<path opacity="0.47" fill-rule="evenodd" clip-rule="evenodd" d="M22.152 50.8761L26.208 55.5561L28.548 56.9601L36.192 59.9241L43.368 59.6121L36.036 60.2361L28.08 56.9601L26.52 58.0521L21.996 56.0241L18.564 50.0961L23.244 46.3521L23.8619 46.6017L22.152 50.8761Z" fill="#190101"/>
<path fill-rule="evenodd" clip-rule="evenodd" d="M23.712 48.2241L28.548 56.8041L41.34 58.5201H47.58L52.416 57.7401L58.812 49.4721L55.224 46.6641L53.82 47.2881L56.472 49.7841L51.948 56.0241L44.772 56.8041L31.2 54.4641L24.648 48.5361L23.712 48.2241Z" fill="url(#paint8_linear_102_31285)"/>
<path fill-rule="evenodd" clip-rule="evenodd" d="M27.456 56.3361L35.256 56.1801L44.772 56.8041L48.672 51.6561L24.024 49.3161L27.456 56.3361Z" fill="#070000"/>
<path fill-rule="evenodd" clip-rule="evenodd" d="M44.304 55.7121H49.92L54.288 47.7561L49.764 48.2241L44.304 55.7121Z" fill="#2E1823"/>
<path opacity="0.5" fill-rule="evenodd" clip-rule="evenodd" d="M45.084 56.4921L51.168 53.6841L54.288 48.0681L51.48 53.8401L51.792 55.8681L51.168 54.1521L45.084 56.4921Z" fill="#FF779E"/>
<path fill-rule="evenodd" clip-rule="evenodd" d="M52.416 57.4281L52.728 60.2361L49.452 62.5761L47.112 59.6121L47.892 58.5201L48.048 57.8961L52.416 57.4281Z" fill="#BE103D"/>
<path opacity="0.6" fill-rule="evenodd" clip-rule="evenodd" d="M31.2 57.1161L41.184 58.5201H47.892L52.416 57.7401L57.408 51.1881L52.104 57.4281L47.736 58.0521L41.34 58.2081L31.2 57.1161ZM34.164 61.4841L36.816 62.7321L43.992 60.5481L36.66 62.2641L34.164 61.4841Z" fill="#FFBCCF"/>
<path opacity="0.4" fill-rule="evenodd" clip-rule="evenodd" d="M23.088 46.3521L18.564 50.2521L17.94 52.7481C18.6036 53.625 19.1784 54.5656 19.656 55.5561C20.1057 56.5641 20.4709 57.6077 20.748 58.6761L28.392 62.8881L28.704 58.9881L31.512 58.3641L34.944 59.7681L33.852 57.5841L37.596 53.3721L23.088 46.3521Z" fill="#A2001D"/>
<path fill-rule="evenodd" clip-rule="evenodd" d="M23.088 46.3521L18.564 50.2521L21.996 56.0241L28.704 58.9881L31.512 58.3641L34.944 59.7681L33.852 57.5841L37.596 53.3721L23.088 46.3521Z" fill="url(#paint9_radial_102_31285)"/>
<g opacity="0.7">
<path fill-rule="evenodd" clip-rule="evenodd" d="M18.564 50.2521L21.7417 55.8509L21.84 56.0241L22.0316 56.1089L31.356 60.2361L21.996 55.7121L18.564 50.2521ZM21.84 55.5561L21.7417 55.8509L20.904 58.3641L22.0316 56.1089L22.152 55.8681L21.84 55.5561Z" fill="#F8153E"/>
<path d="M21.7417 55.8509L21.84 56.0241L22.0316 56.1089L22.152 55.8681L21.84 55.5561L21.7417 55.8509Z" fill="#F8153E"/>
</g>
<path fill-rule="evenodd" clip-rule="evenodd" d="M27.612 61.4841L30.576 63.0441L33.072 63.6681L27.612 61.4841ZM29.64 61.7961L34.944 63.8241L32.604 62.4201L29.64 61.7961Z" fill="#B80C31"/>
<path opacity="0.6" fill-rule="evenodd" clip-rule="evenodd" d="M21.84 57.4281L22.152 56.6481L24.648 57.5841L22.308 57.1161L21.84 57.4281ZM41.028 64.6041L45.864 62.8881L44.148 63.8241L41.028 64.6041ZM32.136 59.7681L36.036 61.4841L34.944 60.7041L32.136 59.7681ZM55.536 54.6201L53.04 57.7401L53.976 57.1161L55.536 54.6201ZM51.636 58.8321V60.0801L50.388 61.0161L51.324 59.9241L51.636 58.8321ZM37.752 56.8041L41.652 57.4281H39.936L37.752 56.8041ZM43.212 57.2721L49.608 56.8041L47.268 57.2721H43.212Z" fill="#830924"/>
<path opacity="0.7" fill-rule="evenodd" clip-rule="evenodd" d="M15.132 62.1081L15.288 66.4761L21.216 69.7521L15.756 66.3201L15.132 62.1081ZM56.472 68.3481L61.308 67.4121V62.1081L60.84 66.9441L56.472 68.3481ZM33.852 71.7801L43.056 73.9641L47.424 71.1561L43.056 73.3401L33.852 71.7801Z" fill="#470909"/>
<path fill-rule="evenodd" clip-rule="evenodd" d="M43.524 15.9321L41.496 15.4641L36.348 15.7761H35.1V17.9601L35.88 18.2721L41.184 17.4921L44.304 19.3641L43.524 15.9321Z" fill="#BAB2C2"/>
<path fill-rule="evenodd" clip-rule="evenodd" d="M41.1301 17.5001L41.5783 15.4832L43.524 15.9321L44.304 19.3641L41.184 17.4921L41.1301 17.5001Z" fill="#9D96AA"/>
<path fill-rule="evenodd" clip-rule="evenodd" d="M36.972 15.7761L36.3806 18.1473C35.9483 18.1303 35.5191 18.0675 35.1 17.9601V15.7761H36.972Z" fill="#D4B3C2"/>
<path fill-rule="evenodd" clip-rule="evenodd" d="M36.504 17.9601H36.348C36.348 17.9601 36.433 16.2753 36.348 16.0881C36.263 15.9009 35.1 15.9321 35.1 15.9321V15.7761H36.972L36.504 17.9601ZM37.908 15.7761H41.34L41.028 17.1801L41.34 17.3361L41.652 15.4641L37.908 15.7761Z" fill="#FDF3FA"/>
<path fill-rule="evenodd" clip-rule="evenodd" d="M36.972 15.7761L36.66 17.8041C36.66 17.8041 39.7309 17.6263 41.028 17.4921C41.499 17.4434 44.148 19.2081 44.148 19.2081L41.028 17.0241L37.596 17.3361L37.284 17.0241L37.596 15.7761H36.972Z" fill="#86758C"/>
<path fill-rule="evenodd" clip-rule="evenodd" d="M35.1 17.9601L22.152 25.7601V34.8081L21.216 35.7441V49.6281H24.492L27.768 55.7121L49.452 55.2441L53.82 48.3801L56.94 48.0681L56.628 34.6521L55.692 33.7161L55.38 28.7241L54.288 27.9441L52.572 23.2641L41.028 17.4921L38.376 17.9601H35.1Z" fill="url(#paint10_linear_102_31285)"/>
<path fill-rule="evenodd" clip-rule="evenodd" d="M55.265 28.642L53.664 27.7881L51.948 25.6041L51.324 22.9521L52.26 23.1081L52.572 23.2641L54.288 27.9441L55.265 28.642Z" fill="#CFC7DE"/>
<path fill-rule="evenodd" clip-rule="evenodd" d="M24.336 37.3041H21.216V35.7441L22.152 34.8081V25.7601L22.4214 25.5978L25.428 24.5121L30.108 22.7961L29.484 32.7801L30.264 34.3401L24.336 37.3041Z" fill="url(#paint11_linear_102_31285)"/>
<path fill-rule="evenodd" clip-rule="evenodd" d="M36.036 17.9601L30.108 22.7961L28.236 53.5281L27.144 54.4641L27.768 55.7121L49.452 55.2441L49.764 52.7481L48.204 37.7721L48.048 22.0161L41.028 17.3361L36.036 17.9601Z" fill="url(#paint12_linear_102_31285)"/>
<path opacity="0.7" fill-rule="evenodd" clip-rule="evenodd" d="M24.18 35.1201L29.172 32.4681L29.796 28.2561L29.952 32.3121L35.412 32.1561L41.028 31.6881L47.58 31.3761L48.048 30.4401L48.204 29.5041L48.672 31.6881L53.976 34.3401L53.508 35.2761L48.048 32.6241L29.952 33.7161L25.272 35.7441L24.18 35.1201Z" fill="#FFF8FD"/>
<path fill-rule="evenodd" clip-rule="evenodd" d="M22.152 25.7601L25.428 24.3561L24.96 34.9641L24.648 35.2761L22.152 34.8081V25.7601Z" fill="url(#paint13_linear_102_31285)"/>
<path fill-rule="evenodd" clip-rule="evenodd" d="M22.152 25.7601L25.428 24.3561L30.108 22.7961L36.036 17.9601H34.944L22.152 25.7601Z" fill="#D4B3C2"/>
<path fill-rule="evenodd" clip-rule="evenodd" d="M47.892 22.1721L30.3108 22.6307L36.036 17.9601L41.028 17.3361L48.048 22.0161L48.0502 22.2395L47.892 22.1721Z" fill="url(#paint14_linear_102_31285)"/>
<path fill-rule="evenodd" clip-rule="evenodd" d="M28.236 53.5281L47.112 52.5921L49.608 52.9041L53.04 47.4441L56.316 46.8201L56.937 47.9378L57.096 48.2241L53.82 48.3801L49.452 55.4001L27.768 55.8681L24.492 49.6281L27.144 54.4641L28.236 53.5281Z" fill="#6E1326"/>
<path opacity="0.3" fill-rule="evenodd" clip-rule="evenodd" d="M34.164 61.4841L36.816 62.7321L43.992 60.5481C43.992 60.5481 40.6246 61.3463 38.376 61.7961C37.5363 61.9641 36.192 62.1081 36.192 62.1081L34.164 61.4841ZM36.972 62.4201L38.376 66.0081L36.504 62.5761L36.972 62.4201Z" fill="#FFE3EB"/>
<path fill-rule="evenodd" clip-rule="evenodd" d="M49.608 52.9041L53.04 47.4441L56.316 46.8201L56.937 47.9378L57.096 48.2241L53.82 48.3801L49.452 55.4001L49.608 52.9041Z" fill="#600B1C"/>
<path fill-rule="evenodd" clip-rule="evenodd" d="M53.04 47.4441L56.316 46.8201L56.937 47.9378L57.096 48.2241L53.82 48.3801L53.04 47.4441Z" fill="#501124"/>
<path opacity="0.4" fill-rule="evenodd" clip-rule="evenodd" d="M41.028 19.0521L43.992 22.0161L43.68 24.2001L42.432 22.1721L41.028 19.0521Z" fill="#FDF3FA"/>
<path fill-rule="evenodd" clip-rule="evenodd" d="M28.236 53.5281L47.112 52.5921L49.608 52.9041L49.452 55.4001L27.768 55.8681L24.492 49.6281L27.144 54.4641L28.236 53.5281ZM28.548 53.9961L27.768 54.9321L28.236 55.4001H40.092L48.36 55.0881L49.14 54.7761L49.452 53.6841L48.828 53.2161L46.02 52.9041L29.796 53.8401L28.548 53.9961Z" fill="#810A24"/>
<path fill-rule="evenodd" clip-rule="evenodd" d="M24.18 35.2761L29.64 32.7801L43.212 31.8441H48.048L53.664 34.4961V39.3321L51.948 39.0201V36.0561L47.58 33.8721L30.576 34.4961L25.74 36.8361L25.584 39.4881H24.336L24.18 35.2761Z" fill="#6B445B"/>
<path fill-rule="evenodd" clip-rule="evenodd" d="M47.989 31.8441L47.5502 33.8732L30.576 34.4961L30.5448 34.5117L29.8055 32.7692L43.212 31.8441H47.989Z" fill="url(#paint15_linear_102_31285)"/>
<path opacity="0.65" fill-rule="evenodd" clip-rule="evenodd" d="M25.7388 36.8571L25.584 39.488H24.336L24.1852 35.4146L25.7388 36.8571ZM53.6433 34.4859L53.664 34.496V39.332L51.948 39.02V36.0755L53.6433 34.4859Z" fill="url(#paint16_linear_102_31285)"/>
<path fill-rule="evenodd" clip-rule="evenodd" d="M21.216 35.4321L22.932 34.0281L24.804 34.9641L24.96 38.8641L21.216 39.9561V35.4321ZM53.508 39.1761L53.352 33.7161L54.912 32.6241L56.784 34.6521L56.004 41.3601L53.508 39.1761Z" fill="#2E0E19"/>
<path fill-rule="evenodd" clip-rule="evenodd" d="M25.584 39.0201L25.428 36.6801L30.42 34.3401L34.944 34.0281L42.588 33.4041L47.58 33.5601L52.26 35.9001V38.7081L51.792 38.5521C51.792 38.5521 51.0054 38.9346 50.7 38.7081C50.6172 38.6573 50.5464 38.5892 50.4926 38.5084C50.4387 38.4276 50.403 38.3361 50.388 38.2401L48.204 37.4601H42.744L32.136 37.7721L29.328 38.0841L25.584 39.0201Z" fill="black"/>
<path fill-rule="evenodd" clip-rule="evenodd" d="M56.784 34.6521L54.912 33.0921L53.664 33.8721V39.0201L51.792 38.5521C51.792 38.5521 51.168 39.0114 50.7 38.7081C50.232 38.4048 50.388 38.0841 50.388 38.0841L48.204 37.4601H42.588L29.484 38.0841L24.648 39.0201L24.336 35.1201L22.932 34.3401L21.216 35.5881V49.6281H24.492L27.144 54.4641L28.236 53.5281L47.112 52.5921L49.608 52.9041L53.04 47.4441L56.316 46.8201L57.096 48.2241L56.784 34.6521Z" fill="#E2DEEA"/>
<path fill-rule="evenodd" clip-rule="evenodd" d="M48.048 32.0001H42.588L29.952 32.9361L24.192 35.4432L24.18 35.1201L30.108 32.6241L43.212 31.6881H48.048L53.664 34.3401V34.5407L48.048 32.0001Z" fill="#441E31"/>
<path fill-rule="evenodd" clip-rule="evenodd" d="M28.236 53.5281L27.144 54.6201L24.492 49.6281L24.648 39.0201L29.1731 38.1443L28.236 53.5281ZM49.6392 52.8557L49.608 52.9041L49.3052 52.8662L49.6392 52.8557Z" fill="url(#paint17_linear_102_31285)"/>
<path fill-rule="evenodd" clip-rule="evenodd" d="M56.316 46.8201L53.04 47.4441L49.7557 52.669L48.204 37.7721L48.2009 37.4601H48.204L50.388 38.0841C50.388 38.0841 50.232 38.4048 50.7 38.7081C51.168 39.0114 51.792 38.5521 51.792 38.5521L53.664 39.0201V33.8721L54.912 33.0921L56.784 34.6521L57.096 48.2241L56.316 46.8201Z" fill="url(#paint18_linear_102_31285)"/>
<path fill-rule="evenodd" clip-rule="evenodd" d="M56.316 46.8201L53.04 47.4441L49.7557 52.669L48.204 37.7721L48.2009 37.4601H48.204L50.388 38.0841C50.388 38.0841 50.232 38.4048 50.7 38.7081C51.168 39.0114 51.792 38.5521 51.792 38.5521L53.664 39.0201V33.8721L54.912 33.0921L56.784 34.6521L57.096 48.2241L56.316 46.8201ZM48.516 37.9281L50.232 38.3961C50.232 38.3961 50.934 39.2284 51.324 39.1761C51.714 39.1238 51.948 38.7081 51.948 38.7081C51.948 38.7081 54.3504 39.3856 54.444 39.6441C54.5376 39.9026 55.848 46.1961 55.848 46.1961C55.848 46.1961 56.1722 46.6068 55.068 46.8201C53.9638 47.0334 52.884 47.1321 52.884 47.1321C52.884 47.1321 50.7936 51.3141 50.232 51.8121C49.6704 52.3101 48.96 43.0192 48.828 41.9841C48.696 40.949 48.516 37.9281 48.516 37.9281Z" fill="#D3BAC9"/>
<path fill-rule="evenodd" clip-rule="evenodd" d="M54.912 39.4881L53.664 39.0201V33.8721L54.912 33.0921L55.0579 33.2136L54.912 39.4881Z" fill="#6B445B"/>
<path fill-rule="evenodd" clip-rule="evenodd" d="M56.1612 46.8496L56.16 46.8201L54.756 39.3321L54.8884 33.1068L54.912 33.0921L56.784 34.6521L57.096 48.2241L56.316 46.8201L56.1612 46.8496Z" fill="#A09AAD"/>
<path fill-rule="evenodd" clip-rule="evenodd" d="M56.1612 46.8496L56.16 46.8201L54.756 39.3321L54.8884 33.1068L54.912 33.0921L56.784 34.6521L57.096 48.2241L56.316 46.8201L56.1612 46.8496ZM55.068 41.6721V33.7161C55.4537 33.8837 55.8198 34.0929 56.16 34.3401C56.689 34.732 57.252 35.5881 57.252 35.5881L57.096 47.7561L55.848 45.8841L55.068 41.6721Z" fill="#CDB4C4"/>
<path fill-rule="evenodd" clip-rule="evenodd" d="M24.5419 49.7192L24.492 49.6281H21.216V35.5881L22.932 34.3401L24.336 35.1201L24.648 39.0201L24.843 38.9823L24.5419 49.7192Z" fill="url(#paint19_linear_102_31285)"/>
<path fill-rule="evenodd" clip-rule="evenodd" d="M24.648 44.1681C24.6541 41.9373 24.6502 39.4232 24.492 39.3321C24.2728 39.2059 23.4 39.3321 23.4 39.3321C23.4 39.3321 22.9041 34.9797 22.776 34.8081C22.6479 34.6365 21.528 35.9001 21.528 35.9001C21.528 35.9001 21.5445 39.2541 21.528 41.2041C21.5115 43.1541 21.3344 48.3361 21.372 48.6921C21.4101 49.0535 22.4348 49.2069 22.4348 49.2069C22.4348 49.2069 23.9242 49.4565 24.18 49.3161C24.3663 49.2142 24.4865 48.3525 24.648 47.6001L24.492 49.6281H21.216V35.5881L22.932 34.3401L24.336 35.1201L24.648 39.0201L24.843 38.9823L24.648 44.1681Z" fill="#FDF3FA"/>
<path fill-rule="evenodd" clip-rule="evenodd" d="M24.492 49.7841L27.144 54.7761L28.236 53.6841V53.0601C28.236 53.0601 27.69 53.8237 27.456 53.8401C27.222 53.8565 26.8944 53.5152 26.676 53.2161C26.4576 52.917 25.272 50.5641 25.272 50.5641L24.492 49.3161V49.7841Z" fill="#C1748A"/>
<path fill-rule="evenodd" clip-rule="evenodd" d="M24.804 39.0202L23.4 39.3322L22.9865 34.3704L24.648 35.1202L24.804 39.0202Z" fill="#6B445B"/>
<path fill-rule="evenodd" clip-rule="evenodd" d="M47.112 52.5921L28.236 53.5281L29.1731 38.1443L29.484 38.0841L42.588 37.4601H48.2009L48.204 37.7721L49.7557 52.669L49.608 52.9041L47.112 52.5921Z" fill="url(#paint20_linear_102_31285)"/>
<path fill-rule="evenodd" clip-rule="evenodd" d="M49.608 52.9041L47.112 52.5921L28.236 53.5281L29.1731 38.1443L29.484 38.0841L30.0637 38.0565C29.8719 38.2363 29.7265 38.4599 29.64 38.7081C29.5715 38.9667 29.2559 39.9417 29.016 43.0761C28.7538 46.5015 28.5792 52.1174 28.86 52.5921C29.4968 53.2674 30.7008 53.3496 32.136 53.2161C33.5712 53.0825 40.7013 52.6952 42.12 52.5921C43.5387 52.489 46.644 52.1241 46.644 52.1241C46.644 52.1241 49.0341 51.5137 49.14 51.3441C49.2459 51.1745 48.7779 45.7073 48.672 44.0121C48.5661 42.3168 48.048 38.8641 48.048 38.8641C47.9649 38.3408 47.7315 37.853 47.3761 37.4601H48.2009L48.204 37.7721L49.7557 52.669L49.608 52.9041Z" fill="#FFFBFC"/>
<path opacity="0.77" fill-rule="evenodd" clip-rule="evenodd" d="M48.36 40.1121L47.736 43.2321L45.24 45.2601L43.992 47.9121L43.524 49.4721L45.24 47.6001L48.984 46.3521L48.36 40.1121Z" fill="#FFFBFC"/>
<path fill-rule="evenodd" clip-rule="evenodd" d="M35.1 37.7721L35.88 46.9761C35.88 46.9761 37.6879 47.3736 39.312 47.2881C40.3636 47.2231 41.4076 47.0665 42.432 46.8201V37.4601L35.1 37.7721Z" fill="#D795A5"/>
<path fill-rule="evenodd" clip-rule="evenodd" d="M34.164 25.2922C34.1626 25.1894 34.1819 25.0873 34.2206 24.9921C34.2593 24.8968 34.3167 24.8103 34.3894 24.7376C34.4621 24.6649 34.5486 24.6075 34.6439 24.5688C34.7391 24.53 34.8412 24.5108 34.944 24.5122C35.6786 24.5122 36.4714 24.6402 36.972 24.5122C37.4703 24.3847 39.3288 23.7487 39.78 23.5762C40.1332 23.4655 40.502 23.4128 40.872 23.4202L41.496 23.5762C41.496 23.5762 43.0419 24.1487 43.056 24.5122C43.07 24.8756 42.695 29.9782 42.588 35.9002C42.5048 40.5022 42.5958 46.0188 42.432 46.1962C42.0588 46.6002 41.0662 46.5018 40.274 46.4818C38.6997 46.4423 36.2032 46.7757 36.036 46.6642C35.8688 46.5526 34.8289 38.1522 34.632 33.8722C34.4351 29.5921 34.164 25.5608 34.164 25.2922Z" fill="url(#paint21_linear_102_31285)"/>
<path fill-rule="evenodd" clip-rule="evenodd" d="M34.476 25.1361C34.487 25.0428 34.5345 24.9576 34.6081 24.8991C34.6817 24.8407 34.7754 24.8137 34.8688 24.8241H36.816L39.936 23.8881L40.716 23.7321H41.028L42.744 24.3561L42.12 46.1961H39.312L36.192 46.3521L34.944 34.8081C34.944 34.8081 34.476 25.2972 34.476 25.1361Z" fill="#FFEAEE"/>
<path fill-rule="evenodd" clip-rule="evenodd" d="M42.12 46.1962H39.312L36.2129 46.3511C36.4172 45.7436 36.6924 45.0326 36.972 44.6362C37.4454 43.9654 41.5531 28.9461 42.7371 24.5941L42.12 46.1962Z" fill="#761D30"/>
<path opacity="0.5" fill-rule="evenodd" clip-rule="evenodd" d="M41.34 44.9481L42.12 46.1961L41.652 44.6361L41.34 44.9481Z" fill="#FFF8FD"/>
<path fill-rule="evenodd" clip-rule="evenodd" d="M40.716 24.0441H39.936C39.936 24.0441 38.4108 24.7565 37.284 24.9801C36.4584 25.1301 35.6251 25.2343 34.788 25.2921L34.632 25.4481C34.632 25.4481 35.3395 37.3606 35.724 39.8001C36.1085 42.2396 36.66 45.2601 36.66 45.2601C36.66 45.2601 38.4659 45.4776 39.468 45.4161C40.2018 45.3575 40.9312 45.2533 41.652 45.1041L42.588 24.8241C42.588 24.8241 41.6166 24.0684 40.716 24.0441Z" fill="#D9D7E8"/>
<path fill-rule="evenodd" clip-rule="evenodd" d="M40.716 24.0441H39.936C39.936 24.0441 38.4108 24.7565 37.284 24.9801C36.4584 25.1301 35.6251 25.2343 34.788 25.2921L34.632 25.4481C34.632 25.4481 35.3395 37.3606 35.724 39.8001C36.1085 42.2396 36.66 45.2601 36.66 45.2601C36.66 45.2601 38.4659 45.4776 39.468 45.4161C40.2018 45.3575 40.9312 45.2533 41.652 45.1041L42.588 24.8241C42.588 24.8241 41.6166 24.0684 40.716 24.0441Z" fill="url(#paint22_linear_102_31285)"/>
<path fill-rule="evenodd" clip-rule="evenodd" d="M41.652 45.1041C40.9312 45.2533 40.2018 45.3575 39.468 45.4161C38.4659 45.4776 36.66 45.2601 36.66 45.2601C36.66 45.2601 36.1085 42.2396 35.724 39.8001C35.3395 37.3606 34.632 25.4481 34.632 25.4481L34.788 25.2921C35.6251 25.2343 36.4584 25.1301 37.284 24.9801C38.4108 24.7565 39.936 24.0441 39.936 24.0441H40.716C41.6166 24.0684 42.588 24.8241 42.588 24.8241L41.652 45.1041ZM42.12 24.9801C41.9247 24.6993 41.028 24.0413 40.092 24.2001C39.5333 24.2938 39.0012 24.5066 38.532 24.8241C37.9722 25.0643 37.3993 25.2726 36.816 25.4481C36.3419 25.5885 35.761 25.773 35.6084 25.9053C34.9861 26.4454 35.5959 36.7115 35.724 38.7081C35.8521 40.7047 36.6756 44.9032 36.972 44.9481C37.2684 44.993 38.4136 45.3252 39.156 45.2601C39.8984 45.195 41.2796 45.195 41.496 44.7921C41.7124 44.3892 41.906 37.3637 42.12 31.8441C42.334 26.3245 42.3152 25.2609 42.12 24.9801Z" fill="#FFF8FD"/>
<path opacity="0.6" fill-rule="evenodd" clip-rule="evenodd" d="M42.12 30.2841L41.028 33.4041L40.248 39.4881L41.808 37.3041L42.12 30.2841ZM36.504 36.8361L36.192 38.5521L37.752 36.9921L37.908 34.4961L36.504 36.8361Z" fill="#FAE8EE"/>
<path fill-rule="evenodd" clip-rule="evenodd" d="M31.98 40.5801L30.732 41.3601L30.888 42.7641L32.292 43.2321L33.228 41.8281L31.98 40.5801ZM32.136 44.6361L30.732 45.4161L31.2 46.6641L32.448 47.1321L33.228 45.8841L32.136 44.6361ZM31.98 48.2241L30.576 49.6281L31.356 51.1881L32.76 50.8761L33.384 49.6281L31.98 48.2241ZM46.332 40.2681L44.928 40.8921L44.772 42.4521L46.176 43.0761L47.112 41.9841V41.3601L46.332 40.2681ZM46.488 44.7921L45.24 45.2601L45.084 46.3521L46.488 47.1321L47.424 46.1961V45.4161L46.488 44.7921ZM46.332 49.0041L45.24 48.8481L44.772 50.0961L45.24 51.1881H46.644L47.112 49.9401L46.332 49.0041Z" fill="#FFFBFC"/>
<path fill-rule="evenodd" clip-rule="evenodd" d="M46.332 49.0041H45.552L44.772 50.0961L45.396 51.0321H46.488L46.956 49.7841L46.332 49.0041Z" fill="url(#paint23_radial_102_31285)"/>
<path fill-rule="evenodd" clip-rule="evenodd" d="M46.488 44.7921L45.24 45.2601V46.3521L46.488 46.9761L47.268 46.1961V45.5721L46.488 44.7921Z" fill="url(#paint24_radial_102_31285)"/>
<path fill-rule="evenodd" clip-rule="evenodd" d="M46.332 40.4241L45.084 41.0481L44.928 42.2961L46.02 42.7641L47.112 41.9841V41.3601L46.332 40.4241Z" fill="url(#paint25_radial_102_31285)"/>
<path fill-rule="evenodd" clip-rule="evenodd" d="M31.98 40.7361L30.888 41.3601L31.2 42.7641L32.292 43.0761L32.916 41.6721L31.98 40.7361Z" fill="url(#paint26_radial_102_31285)"/>
<path fill-rule="evenodd" clip-rule="evenodd" d="M32.136 44.6361L31.044 45.5721L31.356 46.6641L32.292 46.9761L32.916 45.8841L32.136 44.6361Z" fill="url(#paint27_radial_102_31285)"/>
<path fill-rule="evenodd" clip-rule="evenodd" d="M31.98 48.5361L30.732 49.6281L31.512 50.8761H32.76L33.228 49.6281L31.98 48.5361Z" fill="url(#paint28_radial_102_31285)"/>
<path fill-rule="evenodd" clip-rule="evenodd" d="M31.9786 41.2519L31.4309 41.6137L31.5869 42.4274L32.1351 42.6082L32.448 41.7945L31.9786 41.2519ZM32.0911 45.2886L31.512 45.765L31.6774 46.321L32.1738 46.4798L32.5046 45.9238L32.0911 45.2886ZM31.98 49.0388L31.2682 49.6617L31.7131 50.3735H32.4249L32.6918 49.6617L31.98 49.0388ZM46.1726 40.8176L45.4823 41.2318L45.396 42.0601L46 42.3707L46.6039 41.853V41.4382L46.1726 40.8176ZM46.3801 45.2602L45.708 45.5275V46.1515L46.3801 46.5082L46.8 46.0625V45.7059L46.3801 45.2602ZM46.176 49.4722H45.786L45.396 50.0601L45.708 50.5642H46.254L46.488 49.8921L46.176 49.4722Z" fill="black"/>
<path fill-rule="evenodd" clip-rule="evenodd" d="M22.308 25.7601C22.308 25.7601 29.647 22.6488 30.264 22.3281C30.5404 22.1844 35.9834 18.0794 35.9834 18.0794L35.1 17.9601L36.66 17.8041C36.66 17.8041 30.8465 22.1801 31.044 22.3281C31.2415 22.4761 32.136 22.3281 32.136 22.3281L44.772 22.0161C44.772 22.0161 47.0133 22.0822 47.112 21.8601C47.2107 21.638 41.34 17.4921 41.34 17.4921C41.34 17.4921 47.4724 21.482 47.892 21.7041C48.3116 21.9262 52.416 23.2641 52.416 23.2641C52.416 23.2641 48.5575 22.1634 48.36 22.4841C48.2901 22.5977 48.516 23.5761 48.516 23.5761L49.608 25.2921L49.764 27.1641C49.764 27.1641 48.9216 27.6488 48.516 28.1001C48.4397 28.1826 48.3854 28.2831 48.3581 28.3921C48.3308 28.5012 48.3315 28.6154 48.36 28.7241L48.204 31.6881L48.048 28.5681C48.048 28.5681 47.0763 27.661 46.956 27.3201C46.8669 26.9624 46.8146 26.5965 46.8 26.2281C46.8 26.2281 47.9324 24.2279 48.048 23.8881C48.009 22.9989 47.9436 22.5875 47.892 22.4841C47.6862 22.0724 40.716 22.3281 40.716 22.3281L31.356 22.9521C31.0501 23.0427 30.7803 23.2269 30.5845 23.4787C30.3886 23.7305 30.2765 24.0373 30.264 24.3561C30.211 25.4907 29.64 32.6241 29.64 32.6241C29.64 32.6241 30.0887 23.5167 29.796 23.2641C29.5033 23.0115 25.2049 25.0113 22.308 25.7601Z" fill="#FDF3FA"/>
<path opacity="0.5" fill-rule="evenodd" clip-rule="evenodd" d="M51.168 22.9522L51.792 25.6041L53.664 27.7881L54.444 28.2561L53.664 27.6321L51.948 25.4481C51.948 25.4481 51.3185 22.9167 51.48 22.9522C51.6415 22.9876 51.168 22.9522 51.168 22.9522Z" fill="#FDF3FA"/>
<path fill-rule="evenodd" clip-rule="evenodd" d="M48.36 23.8881L46.956 26.2281L47.268 27.7881L48.204 28.7241V28.2561L49.452 26.8521V25.7601L48.516 24.3561L48.36 23.8881Z" fill="url(#paint29_linear_102_31285)"/>
<path fill-rule="evenodd" clip-rule="evenodd" d="M48.36 23.8881L46.956 26.2281L47.268 27.7881L48.204 28.7241V28.2561L49.452 26.8521V25.7601L48.516 24.3561L48.36 23.8881Z" fill="url(#paint30_diamond_102_31285)"/>
<path fill-rule="evenodd" clip-rule="evenodd" d="M31.512 34.6522C31.512 34.6522 30.1494 34.6174 30.108 36.0562C30.0667 37.495 30.108 37.4602 30.108 37.4602L33.072 37.3042V35.7442C33.072 35.7442 32.88 34.6522 31.512 34.6522Z" fill="#A3A1A1"/>
<path fill-rule="evenodd" clip-rule="evenodd" d="M46.878 34.0281C46.878 34.0281 48.3839 33.9927 48.4931 35.58C48.5829 36.8779 48.516 36.9921 48.516 36.9921L45.084 36.9595V35.2351C45.084 35.2351 45.3049 34.0281 46.878 34.0281Z" fill="#A3A1A1"/>
<path fill-rule="evenodd" clip-rule="evenodd" d="M31.98 35.1201H31.2L30.732 35.5881V37.4601L32.136 37.3041H32.604V35.7441L31.98 35.1201ZM45.708 36.9921V34.9641L46.332 34.4961H47.424L47.892 34.9641V36.9921H45.708Z" fill="#495F76"/>
<path opacity="0.5" fill-rule="evenodd" clip-rule="evenodd" d="M31.2 35.7441L30.1165 35.9608C30.2161 34.623 31.512 34.6522 31.512 34.6522C32.88 34.6522 33.072 35.7441 33.072 35.7441H31.2Z" fill="#593145"/>
<path fill-rule="evenodd" clip-rule="evenodd" d="M31.356 35.5881L31.2 35.7441V37.1481L31.356 37.4601H31.98L32.136 37.3041V35.9001L31.98 35.5881H31.356ZM46.488 34.8081L46.332 34.9641V37.3041C46.332 37.3041 47.4034 37.3509 47.424 37.3041C47.4446 37.2573 47.424 35.2761 47.424 35.2761L47.112 34.9641L46.488 34.8081Z" fill="black"/>
<path opacity="0.5" fill-rule="evenodd" clip-rule="evenodd" d="M47.892 34.9641H45.1793C45.3468 34.6083 45.7877 34.0281 46.8784 34.0281C46.8784 34.0281 48.1814 33.9991 48.4503 35.2743L47.892 34.9641Z" fill="#593145"/>
<path fill-rule="evenodd" clip-rule="evenodd" d="M30.576 36.2121L30.888 36.0561L31.044 36.2121V36.9921L30.732 37.1481L30.576 36.9921V36.2121ZM32.448 35.5881L32.292 35.7441V36.2121L32.448 36.3681L32.604 36.2121V35.9001L32.448 35.5881Z" fill="#E9DAE0"/>
<path fill-rule="evenodd" clip-rule="evenodd" d="M48.048 35.4321L47.736 35.2761L47.58 35.4321V36.6801L47.892 36.8361L48.048 36.6801V35.4321ZM45.708 34.9641L45.864 35.1201V35.5881L45.708 35.7441L45.552 35.5881V35.2761L45.708 34.9641Z" fill="#E9DAE0"/>
<defs>
<linearGradient id="paint0_linear_102_31285" x1="38.0372" y1="68.5236" x2="38.0372" y2="20.4561" gradientUnits="userSpaceOnUse">
<stop stop-color="#6C1426"/>
<stop offset="1" stop-color="#C54769"/>
</linearGradient>
<linearGradient id="paint1_linear_102_31285" x1="38.0372" y1="68.5236" x2="38.0372" y2="20.4561" gradientUnits="userSpaceOnUse">
<stop offset="0.089" stop-color="#1C0207"/>
<stop offset="0.435" stop-color="#4C1926"/>
<stop offset="0.848" stop-color="#86344A" stop-opacity="0"/>
<stop offset="1" stop-color="#9B3E57" stop-opacity="0"/>
</linearGradient>
<linearGradient id="paint2_linear_102_31285" x1="56.9813" y1="70.4394" x2="56.9813" y2="49.6767" gradientUnits="userSpaceOnUse">
<stop stop-color="#460703"/>
<stop offset="1" stop-color="#A21B01"/>
</linearGradient>
<linearGradient id="paint3_linear_102_31285" x1="34.8075" y1="74.8708" x2="34.8075" y2="47.8488" gradientUnits="userSpaceOnUse">
<stop stop-color="#52010C"/>
<stop offset="0.628" stop-color="#A60D2C"/>
<stop offset="1" stop-color="#A60D2C"/>
</linearGradient>
<linearGradient id="paint4_linear_102_31285" x1="18.9978" y1="72.5601" x2="18.9978" y2="50.7201" gradientUnits="userSpaceOnUse">
<stop stop-color="#52010C"/>
<stop offset="0.671" stop-color="#A60D2C"/>
<stop offset="1" stop-color="#A60D2C"/>
</linearGradient>
<linearGradient id="paint5_linear_102_31285" x1="38.298" y1="62.7321" x2="38.298" y2="47.6001" gradientUnits="userSpaceOnUse">
<stop stop-color="#FF264D"/>
<stop offset="1" stop-opacity="0"/>
</linearGradient>
<linearGradient id="paint6_linear_102_31285" x1="45.4958" y1="67.3584" x2="45.4958" y2="57.0137" gradientUnits="userSpaceOnUse">
<stop stop-color="#FF3E64"/>
<stop offset="1" stop-color="#FF3D63" stop-opacity="0"/>
</linearGradient>
<linearGradient id="paint7_linear_102_31285" x1="39.078" y1="62.7321" x2="39.078" y2="48.0681" gradientUnits="userSpaceOnUse">
<stop stop-color="#FFBCCF"/>
<stop offset="0.266" stop-color="#FF779E"/>
<stop offset="1" stop-color="#EB4673"/>
</linearGradient>
<linearGradient id="paint8_linear_102_31285" x1="41.262" y1="58.5201" x2="41.262" y2="46.6641" gradientUnits="userSpaceOnUse">
<stop stop-color="#FB2D58"/>
<stop offset="1" stop-color="#FF3661"/>
</linearGradient>
<radialGradient id="paint9_radial_102_31285" cx="0" cy="0" r="1" gradientUnits="userSpaceOnUse" gradientTransform="translate(27.066 46.3521) rotate(55.6457) scale(14.928 10.2984)">
<stop stop-color="#190101"/>
<stop offset="0.499682" stop-color="#190101"/>
<stop offset="0.889781" stop-opacity="0"/>
</radialGradient>
<linearGradient id="paint10_linear_102_31285" x1="51.48" y1="41.9841" x2="39.078" y2="17.4921" gradientUnits="userSpaceOnUse">
<stop stop-color="#DCD7E8"/>
<stop offset="0.706122" stop-color="#A19BAE"/>
<stop offset="0.919" stop-color="#85748B"/>
<stop offset="1" stop-color="#85748B"/>
</linearGradient>
<linearGradient id="paint11_linear_102_31285" x1="25.74" y1="37.3041" x2="25.74" y2="22.7961" gradientUnits="userSpaceOnUse">
<stop stop-color="#805C71"/>
<stop offset="1" stop-color="#623951"/>
</linearGradient>
<linearGradient id="paint12_linear_102_31285" x1="34.944" y1="18.1161" x2="38.376" y2="29.5041" gradientUnits="userSpaceOnUse">
<stop stop-color="#C3C0D3"/>
<stop offset="1" stop-color="#E3E0F0"/>
</linearGradient>
<linearGradient id="paint13_linear_102_31285" x1="23.79" y1="24.3561" x2="23.79" y2="35.2761" gradientUnits="userSpaceOnUse">
<stop stop-color="#C392A1"/>
<stop offset="1" stop-color="#E1AEBE"/>
</linearGradient>
<linearGradient id="paint14_linear_102_31285" x1="39.1803" y1="22.6304" x2="39.1803" y2="17.3361" gradientUnits="userSpaceOnUse">
<stop stop-color="#C2BED4"/>
<stop offset="1" stop-color="#E3E2E7"/>
</linearGradient>
<linearGradient id="paint15_linear_102_31285" x1="29.8057" y1="33.3361" x2="47.9895" y2="33.0188" gradientUnits="userSpaceOnUse">
<stop stop-color="#623951"/>
<stop offset="0.73" stop-color="#623951"/>
<stop offset="1" stop-color="#431F2F"/>
</linearGradient>
<linearGradient id="paint16_linear_102_31285" x1="38.9245" y1="39.488" x2="38.9245" y2="34.4864" gradientUnits="userSpaceOnUse">
<stop stop-color="#3C1B28" stop-opacity="0.996"/>
<stop offset="1" stop-color="#3C1B28"/>
</linearGradient>
<linearGradient id="paint17_linear_102_31285" x1="37.0647" y1="54.6201" x2="37.0647" y2="38.1426" gradientUnits="userSpaceOnUse">
<stop stop-color="#834658"/>
<stop offset="1" stop-color="#7D5E72"/>
</linearGradient>
<linearGradient id="paint18_linear_102_31285" x1="51.324" y1="31.2201" x2="52.6484" y2="52.669" gradientUnits="userSpaceOnUse">
<stop stop-color="#A0879B"/>
<stop offset="0.561393" stop-color="#A0879B"/>
<stop offset="1" stop-color="#F8B2C2"/>
</linearGradient>
<linearGradient id="paint19_linear_102_31285" x1="23.0295" y1="34.3401" x2="23.0295" y2="49.7192" gradientUnits="userSpaceOnUse">
<stop stop-color="#E3C1D0"/>
<stop offset="1" stop-color="#F3B3C0"/>
</linearGradient>
<linearGradient id="paint20_linear_102_31285" x1="38.9959" y1="37.4601" x2="47.736" y2="53.5281" gradientUnits="userSpaceOnUse">
<stop stop-color="#BFB8CB"/>
<stop offset="0.530886" stop-color="#FFD0D6"/>
<stop offset="0.82295" stop-color="#FFD0DB"/>
</linearGradient>
<linearGradient id="paint21_linear_102_31285" x1="38.61" y1="46.6885" x2="38.61" y2="23.4055" gradientUnits="userSpaceOnUse">
<stop stop-color="#18050B"/>
<stop offset="0.463542" stop-color="#785D66"/>
<stop offset="1" stop-color="#4D383F"/>
</linearGradient>
<linearGradient id="paint22_linear_102_31285" x1="38.61" y1="45.4308" x2="38.61" y2="24.0441" gradientUnits="userSpaceOnUse">
<stop stop-color="#C4A3B2"/>
<stop offset="1" stop-color="white" stop-opacity="0"/>
</linearGradient>
<radialGradient id="paint23_radial_102_31285" cx="0" cy="0" r="1" gradientUnits="userSpaceOnUse" gradientTransform="translate(45.864 50.0181) scale(1.014)">
<stop stop-color="#2E1823"/>
<stop offset="0.407" stop-color="#2E1823"/>
<stop offset="1" stop-color="#562E41"/>
</radialGradient>
<radialGradient id="paint24_radial_102_31285" cx="0" cy="0" r="1" gradientUnits="userSpaceOnUse" gradientTransform="translate(46.254 45.8841) scale(1.092)">
<stop stop-color="#2E1823"/>
<stop offset="0.431" stop-color="#2E1823"/>
<stop offset="1" stop-color="#562E41"/>
</radialGradient>
<radialGradient id="paint25_radial_102_31285" cx="0" cy="0" r="1" gradientUnits="userSpaceOnUse" gradientTransform="translate(46.02 41.5941) scale(1.17 1.17)">
<stop stop-color="#2E1823"/>
<stop offset="0.506" stop-color="#2E1823"/>
<stop offset="1" stop-color="#562E41"/>
</radialGradient>
<radialGradient id="paint26_radial_102_31285" cx="0" cy="0" r="1" gradientUnits="userSpaceOnUse" gradientTransform="translate(31.902 41.9061) scale(1.17)">
<stop stop-color="#2E1823"/>
<stop offset="0.293" stop-color="#2E1823"/>
<stop offset="1" stop-color="#663C51"/>
</radialGradient>
<radialGradient id="paint27_radial_102_31285" cx="0" cy="0" r="1" gradientUnits="userSpaceOnUse" gradientTransform="translate(31.98 45.8061) scale(1.17)">
<stop stop-color="#2E1823"/>
<stop offset="0.352" stop-color="#2E1823"/>
<stop offset="1" stop-color="#562E41"/>
</radialGradient>
<radialGradient id="paint28_radial_102_31285" cx="0" cy="0" r="1" gradientUnits="userSpaceOnUse" gradientTransform="translate(31.98 49.7061) scale(1.17)">
<stop stop-color="#2E1823"/>
<stop offset="0.396" stop-color="#2E1823"/>
<stop offset="1" stop-color="#562E41"/>
</radialGradient>
<linearGradient id="paint29_linear_102_31285" x1="46.956" y1="24.5884" x2="49.452" y2="28.0238" gradientUnits="userSpaceOnUse">
<stop stop-color="#8E7F94"/>
<stop offset="0.356" stop-color="#8E7F94"/>
<stop offset="0.628" stop-color="#593145"/>
<stop offset="1" stop-color="#593145"/>
</linearGradient>
<radialGradient id="paint30_diamond_102_31285" cx="0" cy="0" r="1" gradientUnits="userSpaceOnUse" gradientTransform="translate(49.218 27.6321) rotate(-92.7263) scale(4.91957 4.07181)">
<stop stop-color="#8E7F94"/>
<stop offset="0.382004" stop-color="#8E7F94"/>
<stop offset="0.801488" stop-color="#7E576B"/>
<stop offset="1" stop-color="#593145"/>
</radialGradient>
</defs>
</svg>
