<svg width="102" height="26" viewBox="0 0 102 26" fill="none" xmlns="http://www.w3.org/2000/svg">
<path d="M93.814 10.3542L94.7473 7.47181L99.414 5.16592L101.747 8.04828L100.814 14.9659L94.7473 14.3895L93.814 10.3542Z" fill="#191221"/>
<path d="M11.1335 6.42471L5.97695 1.59561L-9.98363 4.58311L-14.0351 7.69337L-14.3625 13.2035L-12.3534 18.5452L-9.90175 20.4209H1.31157L9.94665 18.9067L12.0338 13.7502L11.1335 6.42471ZM5.5268 12.2769L0.41121 14.5278H-5.85025L-6.95521 13.2182V11.704L-6.01394 9.41221L2.3455 8.44143L5.5268 9.41221V12.2769Z" fill="#CE971B"/>
<path d="M-9.84985 20.3345L-9.37366 18.6678L1.81681 17.9535L9.67396 16.0488L9.91205 18.9059L1.34062 20.3345H-9.84985Z" fill="#DA8300"/>
<path d="M5.97713 1.59564L9.62348 5.01047L2.38407 5.41823L0.902498 5.44257L-3.23433 6.73031L-4.07031 3.47827L5.97713 1.59564Z" fill="#DDB808"/>
<path d="M-3.87549 6.89959L-0.526003 5.91887L1.47954 5.16901L-1.19798 5.59657L-3.87549 6.89959Z" fill="#FFE165"/>
<path d="M-2.44678 6.42338L0.902709 5.44266L-0.65719 8.06822L-1.55372 8.16231L-2.44678 6.42338Z" fill="#8E2513"/>
<path d="M-12.7996 10.1161L-11.721 16.6502L-9.31016 18.6378L1.93501 18.0464L9.75601 16.086L10.3465 11.0085L8.22905 10.9208L5.17357 14.1562L0.247194 14.6917L-5.89043 14.937L-7.41147 13.2037L-9.00985 9.93292L-12.7996 10.1161Z" fill="url(#paint0_linear_102_33017)"/>
<path d="M5.12769 13.2036L6.63567 12.6084H10.1609L11.3476 13.7213L11.3625 15.5883L12.0339 13.7503L11.7168 12.5025L10.347 11.0084L8.22953 10.9207L7.24866 11.4011L5.12769 13.2036Z" fill="#B41E07"/>
<path d="M7.24866 11.4011L6.63567 12.6084L5.12769 13.2036L7.24866 11.4011Z" fill="#BD3918"/>
<path d="M1.93504 18.0463L1.31128 20.421L3.21646 17.7251L1.93504 18.0463Z" fill="#FFE885"/>
<path d="M9.75656 16.0859L9.94687 18.9068L9.22266 16.2799L9.75656 16.0859Z" fill="#FFE885"/>
<path opacity="0.2" d="M10.347 11.0083L10.1609 12.6083L11.3476 13.7212L11.7168 12.5024L10.347 11.0083Z" fill="#FDE606"/>
<path d="M-6.03986 14.8584L-11.7542 16.7632L-9.3732 18.6679L1.81728 17.9536L3.24585 17.7155L9.67442 16.0489L5.15061 14.1441L0.150612 14.6203L-6.03986 14.8584Z" fill="#FF881B"/>
<path d="M-11.7207 16.6502L-9.30985 18.6378L2.07657 18.011L6.65787 16.8627L1.93531 17.5184L-9.12883 18.0565L-11.7207 16.6502Z" fill="#FFE165"/>
<path d="M11.7168 12.5025L11.3477 13.7213L11.3625 15.5883L12.034 13.7503L11.7168 12.5025Z" fill="#991B1D"/>
<path d="M63.9904 6.42471L58.8339 1.59561L42.8733 4.58311L38.8218 7.69337L38.4944 13.2035L40.5035 18.5452L42.9552 20.4209H54.1685L62.8036 18.9067L64.8907 13.7502L63.9904 6.42471ZM58.3837 12.2769L53.2681 14.5278H47.0067L45.9017 13.2182V11.704L46.843 9.41221L55.2024 8.44143L58.3837 9.41221V12.2769Z" fill="#CE971B"/>
<path d="M43.0071 20.3345L43.4833 18.6678L54.6737 17.9535L62.5309 16.0488L62.769 18.9059L54.1976 20.3345H43.0071Z" fill="#DA8300"/>
<path d="M58.8341 1.59564L62.4804 5.01047L55.241 5.41823L53.7594 5.44257L49.6226 6.73031L48.7866 3.47827L58.8341 1.59564Z" fill="#DDB808"/>
<path d="M48.981 6.89959L52.3304 5.91887L54.336 5.16901L51.6585 5.59657L48.981 6.89959Z" fill="#FFE165"/>
<path d="M50.4097 6.42338L53.7592 5.44266L52.1993 8.06822L51.3027 8.16231L50.4097 6.42338Z" fill="#8E2513"/>
<path d="M40.0576 10.1161L41.1362 16.6502L43.547 18.6378L54.7922 18.0464L62.6132 16.086L63.2037 11.0085L61.0862 10.9208L58.0307 14.1562L53.1044 14.6917L46.9667 14.937L45.4457 13.2037L43.8473 9.93292L40.0576 10.1161Z" fill="url(#paint1_linear_102_33017)"/>
<path d="M39.6082 16.1649L40.609 13.4558L44.9938 13.5519L46.9668 14.937L45.4458 13.2037V12.0394L45.2138 11.0085L43.8474 9.93292L40.0577 10.1161L38.8976 11.4848L38.4944 13.2037L39.6082 16.1649Z" fill="#B41E07"/>
<path d="M57.9846 13.2036L59.4926 12.6084H63.0178L64.2046 13.7213L64.2195 15.5883L64.8909 13.7503L64.5737 12.5025L63.2039 11.0084L61.0865 10.9207L60.1056 11.4011L57.9846 13.2036Z" fill="#B41E07"/>
<path d="M60.1056 11.4011L59.4926 12.6084L57.9846 13.2036L60.1056 11.4011Z" fill="#BD3918"/>
<path d="M41.1364 16.6502L40.5037 18.5454L42.9553 20.4211L43.5472 18.6378L41.1364 16.6502Z" fill="#BD3918"/>
<path d="M45.2136 11.0083L44.9937 13.5517L46.9667 14.9368L45.4456 13.2035V12.0393L45.2136 11.0083Z" fill="#BD3918"/>
<path d="M54.792 18.0463L54.1682 20.421L56.0734 17.7251L54.792 18.0463Z" fill="#FFE885"/>
<path d="M62.613 16.0859L62.8033 18.9068L62.0791 16.2799L62.613 16.0859Z" fill="#FFE885"/>
<path opacity="0.2" d="M43.8472 9.93292L44.9936 13.5519L45.2135 11.0085L43.8472 9.93292Z" fill="#FDE606"/>
<path opacity="0.2" d="M63.2034 11.0083L63.0173 12.6083L64.2041 13.7212L64.5732 12.5024L63.2034 11.0083Z" fill="#FDE606"/>
<path d="M40.0581 10.116L40.6093 13.4558L39.6085 16.1649L38.8979 11.4847L40.0581 10.116Z" fill="#AA4E17"/>
<path d="M46.8166 14.8584L41.1023 16.7632L43.4832 18.6679L54.6737 17.9536L56.1023 17.7155L62.5309 16.0489L58.0071 14.1441L53.0071 14.6203L46.8166 14.8584Z" fill="#FF881B"/>
<path d="M41.1362 16.6502L43.5471 18.6378L54.9335 18.011L59.5148 16.8627L54.7922 17.5184L43.7281 18.0565L41.1362 16.6502Z" fill="#FFE165"/>
<path d="M64.5732 12.5025L64.2041 13.7213L64.219 15.5883L64.8904 13.7503L64.5732 12.5025Z" fill="#991B1D"/>
<path d="M38.8976 11.4847L39.5465 16.0009L38.4944 13.2036L38.8976 11.4847Z" fill="#991B1D"/>
<path d="M36.7761 6.91583L34.4843 4.01018L26.3403 3.72372H19.0967L12.1196 8.36574L12.9465 16.507L16.2539 21.2137L23.9667 22.2216L35.8348 21.2803L38.0447 18.8249L38.4949 16.1648V11.0492L36.7761 6.91583ZM32.2184 14.9805L24.6661 15.2463L23.0444 15.3224L20.1664 15.4267L18.5931 14.0057L18.263 12.6368L18.2022 11.4846L21.5521 11.4846L29.2509 11.5319L32.6602 12.6454L33.0929 14.3232L32.2184 14.9805Z" fill="#DA8300"/>
<path d="M23.4526 6.42328L26.5223 6.27521L25.307 7.85712L24.0484 7.4408L23.4526 6.42328Z" fill="#A54D17"/>
<path d="M12.9556 10.2307L14.6296 15.4267L17.341 18.6376L24.4394 19.8533L35.5441 18.6376L38.4945 16.1648L38.1501 10.3479L36.3565 9.57532L33.2701 11.3326L33.0925 14.3232L32.218 14.9805L20.166 15.4267L18.5928 14.0057L17.5339 10.8031L14.6296 9.69931L12.9556 10.2307Z" fill="#F9C100"/>
<path d="M20.3886 16.0487L14.6743 15.5726L17.2934 18.6678L24.4362 19.8583L35.6267 18.6678L38.2457 16.0487L37.0553 13.9059H34.9124L32.2934 14.8583L20.3886 16.0487Z" fill="#FF881B"/>
<path d="M12.4363 11.4846L12.9558 10.2307L14.6299 15.4267L12.9464 16.507L12.4363 11.4846Z" fill="#D69F06"/>
<path d="M14.6296 9.69928V15.4267L12.9556 10.2307L14.6296 9.69928Z" fill="#CD8B0B"/>
<path d="M24.4395 19.8534L34.3001 17.2187L36.5822 14.9369L37.4531 12.9554L38.4945 16.1649L35.5441 18.6377L24.4395 19.8534Z" fill="#FDD904"/>
<path d="M17.3417 18.6376L16.2542 21.2137L23.967 22.2216L24.4401 19.8533L17.3417 18.6376Z" fill="#BD3918"/>
<path d="M33.2701 11.3326L33.0925 14.3232L37.0194 12.1936L38.097 12.7662L38.4945 13.2035L38.1501 10.3479L36.3565 9.57532L33.2701 11.3326Z" fill="#B41E07"/>
<path d="M12.9464 16.507L13.7727 12.7662L14.6299 12.2027H17.4541L18.593 14.0057L18.3439 12.9726L17.5342 10.803L14.6299 9.69928L12.9558 10.2307L12.4363 11.4846L12.9464 16.507Z" fill="#B41E07"/>
<path d="M17.3411 18.6377L24.4395 19.8534L34.3002 17.2187L24.7828 19.0654L17.3411 18.6377Z" fill="#FFE165"/>
<path d="M18.5933 14.0057L20.2543 16.0007L32.2185 14.9805L20.1665 15.4267L18.5933 14.0057Z" fill="#FFE165"/>
<path d="M35.5442 18.6376L35.8345 21.2803L35.7935 18.4286L35.5442 18.6376Z" fill="#FFE165"/>
<path opacity="0.2" d="M36.3564 9.57532L37.0193 12.1936L38.0969 12.7662L38.4945 13.2035L38.15 10.3479L36.3564 9.57532Z" fill="#FDE606"/>
<path d="M36.3564 9.57532L38.4945 16.1648V13.2035L38.15 10.3479L36.3564 9.57532Z" fill="#F3D004"/>
<path d="M38.4946 16.1648L35.5442 18.6377L35.8345 21.2804L38.0444 18.8249L38.4946 16.1648Z" fill="#F9C100"/>
<path d="M17.5344 10.8031L17.4543 12.2028L18.5932 14.0058L18.3441 12.9727L17.5344 10.8031Z" fill="#BD3918"/>
<path opacity="0.25" d="M12.9556 10.2307L13.7724 12.7662L14.6296 12.2027V9.69928L12.9556 10.2307Z" fill="#681411"/>
<path d="M12.9558 10.2307L13.7727 12.7662L12.9464 16.507L12.4363 11.4846L12.9558 10.2307Z" fill="#991B1D"/>
<path d="M36.3562 9.57534H39.2751H43.9682L45.5642 10.8031L45.8907 12.1388L45.9016 13.2182L47.0066 14.5278H50.3934L51.6924 8.92113L49.0019 3.68222L47.4877 2.24985H35.9879L27.9307 4.44144L25.3066 7.85712L24.96 14.0272L25.0047 15.2544L26.133 15.1947L32.2178 14.9805L33.0922 14.3232L32.6596 12.6454L32.8777 11.2123L36.3562 9.57534Z" fill="url(#paint2_radial_102_33017)"/>
<path d="M40.5038 18.5453L38.4946 13.2036V16.1649L38.0445 18.825L37.7573 19.144L39.5078 19.3564L41.1365 19.0294L40.5038 18.5453Z" fill="#883913"/>
<path d="M36.2286 9.07074L32.4908 10.6232L31.4783 12.7662L32.1729 13.986L32.6843 12.9726L32.8779 11.2123L36.2286 9.07074Z" fill="#991B1D"/>
<path d="M29.3894 14.6146L27.4748 13.2035V8.44143L30.0708 5.9832H37.7574L46.7498 5.70168L48.3667 4.36619L50.7541 8.85974V12.9726L51.6929 8.9211L49.0024 3.68219L47.4881 2.24982H35.9883L27.9312 4.44141L25.3071 7.85709L25.2935 13.5517L27.0936 14.5221L29.3894 14.6146Z" fill="#F3D004"/>
<path d="M30.6929 5.61656L36.5681 4.36621H48.3663L46.7495 5.7017L44.7609 7.20232L37.757 5.98322L31.0879 6.71639L30.6929 5.61656Z" fill="#EFB103"/>
<path d="M48.367 4.36621L46.7501 5.7017L44.7615 7.20232L48.367 10.2512L50.7544 8.85976L48.367 4.36621Z" fill="#E79702"/>
<path d="M50.7539 8.85968L48.3665 10.2511L45.9019 13.2181L47.1602 14.259L49.5574 14.2351L50.7539 12.9726V8.85968Z" fill="#B41E07"/>
<path d="M30.0708 3.88367L31.0882 6.7164L28.7092 8.69196L27.4748 13.2035L25.2935 13.5517L25.3071 7.85711L27.9312 4.44144L30.0708 3.88367Z" fill="#FF881B"/>
<path d="M28.7096 8.6919L27.4752 13.2034L25.2938 13.5516L25.1475 10.7043L25.3074 7.85706L28.7096 8.6919Z" fill="#B66516"/>
<path d="M25.2935 13.5517L27.4748 13.2035L29.3894 14.6146L27.0936 14.5221L25.2935 13.5517Z" fill="#991B1D"/>
<path d="M30.6929 5.61656L36.5681 4.36621H48.3663L49.4842 6.47022L47.7573 4.86925L36.3563 4.93929L30.6929 5.61656Z" fill="#FFE165"/>
<path d="M47.4878 2.24982L48.3663 4.36619H47.7573L47.4878 2.24982Z" fill="#FFE165"/>
<path d="M44.7615 7.2023L47.7579 4.86923L48.2037 5.28248L44.7615 7.2023Z" fill="#FDE606"/>
<path d="M27.4744 13.2035L31.478 12.7662L32.1727 13.986L31.478 14.6988L29.3889 14.6146L27.4744 13.2035Z" fill="#B41E07"/>
<path d="M12.9458 16.5071L12.6029 13.2036L11.7374 11.9185L11.9755 13.8232L10.5469 17.1566L9.9458 18.896H14.6293L12.9458 16.5071Z" fill="#883913"/>
<path opacity="0.5" d="M10.5473 18.0464H14.0278L14.6297 18.8961H9.93115L10.5473 18.0464Z" fill="#C98942"/>
<path d="M24.2747 9.12572L23.0437 5.08109L18.154 1.44226L2.91728 3.0701L-1.11976 6.71648V10.2124L-1.59595 14.6203H0.785005L2.91728 14.3822L5.22252 13.5048L5.59269 11.9907L5.8474 10.9489L10.4402 9.47077L14.7989 9.16679L18.0237 10.3954L18.2015 11.4847L18.2623 12.6369L18.5925 14.0058L20.1657 15.4268L23.6715 15.3007L24.4391 15.2741L24.2747 9.12572Z" fill="url(#paint3_radial_102_33017)"/>
<path d="M3.60484 10.2124L6.96209 8.31572L16.7573 7.30882L19.9284 9.57606L20.5157 14.947L22.9678 14.8624L23.9272 14.2592L23.5329 9.57546L21.7978 5.98335L17.462 3.07013L5.55272 4.44156L2.25684 7.44092L3.60484 10.2124Z" fill="#E19809"/>
<path d="M2.91765 14.3822L3.60506 10.2124L6.25509 7.20241L16.9122 5.7482L20.7347 6.75326L22.4401 9.93285L23.0441 15.3225L25.005 15.2544L24.7829 9.16679L23.0441 5.08109L18.1543 1.44226L2.91765 3.0701L-1.11938 6.71648V9.93285L0.138201 12.0393L1.02347 14.3822H2.91765Z" fill="#CD8B0B"/>
<path d="M20.7344 6.75328L22.4397 9.93287L24.7825 9.16681L23.0437 5.08112L20.7344 6.75328Z" fill="#DAA815"/>
<path d="M-1.11938 6.71648L2.05187 8.79845L5.2381 5.98332L17.2588 4.70807L20.7347 6.75326L23.0441 5.08109L18.1543 1.44226L2.91765 3.0701L-1.11938 6.71648Z" fill="#FFA31B"/>
<path d="M2.91765 3.07013L2.05187 8.79848L0.885197 14.5398L0.138201 12.0394L-1.11938 10.2124V6.71652L2.91765 3.07013Z" fill="#FF881B"/>
<path d="M18.0239 10.3955L20.5158 14.947L18.5927 14.0059L18.3435 12.9728L18.0239 10.3955Z" fill="#991B1D"/>
<path d="M22.9683 14.8625L24.7831 11.5286V13.7214L22.9683 14.8625Z" fill="#BD3918"/>
<path d="M2.05151 8.79842L5.23774 5.98329L17.2585 4.70804L5.17885 5.33475L2.05151 8.79842Z" fill="#FFE165"/>
<path d="M20.7345 6.75328L23.0439 5.08112L20.2537 6.47034L20.7345 6.75328Z" fill="#FFF0B3"/>
<path opacity="0.75" d="M19.0513 12.2719L20.3432 13.3689L22.7586 13.2035L24.2195 12.5631L22.9679 14.8623L20.5157 14.9469L19.0513 12.2719Z" fill="#B41E07"/>
<path opacity="0.5" d="M0.411697 12.9555C0.435744 13.036 1.10532 13.4558 1.10532 13.4558H3.00554L5.46432 12.5167L5.22273 13.5049L2.68996 14.6203L1.10532 14.3822H-0.405273L0.411697 12.9555Z" fill="#B41E07"/>
<path d="M88.7431 3.91252L85.7965 1.45705L71.5957 0.965942L65.6152 3.49957L64.3521 13.0387L69.0174 19.7912L80.64 20.3232L86.7378 18.7681L89.318 18.0373L91.7715 12.6704L88.7431 3.91252ZM81.4994 14.1027L73.2327 13.939L71.964 11.4221L72.9462 9.72379L78.8393 8.45513L83.674 10.558L84.3232 13.1205L81.4994 14.1027Z" fill="#E19809"/>
<path d="M66.582 3.87165L71.5077 1.38885L85.7967 1.45703L88.7432 3.91251L80.102 4.11712L74.2969 5.6759L66.582 3.87165Z" fill="#F3D004"/>
<path d="M67.0232 11.0991L69.8401 17.0435L75.882 17.6121H81.158L89.0721 16.1257L91.7717 12.6704L90.8406 9.97804L89.9968 9.08539L87.3455 9.25319L85.9641 9.96876L86.9762 12.3945L84.3234 13.5969L73.2328 13.939L71.9642 11.4222L69.1632 11.2789L67.0232 11.0991Z" fill="url(#paint4_linear_102_33017)"/>
<path d="M73.0523 14.0612L68.7666 14.7755L70.9095 16.4422L76.1476 17.1565L81.1476 17.6327L85.1952 16.9184L90.1952 14.5374L91.6237 12.6327L90.4333 11.2041L86.8618 12.3946L84.2428 13.5851L73.0523 14.0612Z" fill="#FF881B"/>
<path d="M65.7971 15.2042L65.6435 13.8839L66.0919 12.7185L67.552 12.2149H71.5077L72.9354 13.3488L71.9643 11.4223L67.0233 11.0992L65.4999 11.4223L64.3523 13.0388L65.7971 15.2042Z" fill="#B41E07"/>
<path d="M84.2297 12.7423L85.1186 11.7499L86.359 10.9584L88.228 10.5014H90.2464L91.2287 11.0991L90.841 9.97804L89.9971 9.08539L87.3459 9.25319L85.9644 9.96876L84.6597 10.6446L83.9797 12.2148L84.2297 12.7423Z" fill="#B41E07"/>
<path d="M68.7371 14.7165L69.8397 17.0434L75.8816 17.612H81.1576L75.6153 17.0434L70.7478 16.3941L68.7371 14.7165Z" fill="#FFE165"/>
<path d="M66.0914 12.7184L68.9299 18.4396L69.0173 19.7912L65.7967 15.2041L65.6431 13.8838L66.0914 12.7184Z" fill="#EB7601"/>
<path d="M81.158 17.612L80.6401 20.3232L86.7379 18.7681L89.072 16.1257L81.158 17.612Z" fill="#DA8300"/>
<path d="M91.7718 12.6705L89.0722 16.1258L86.738 18.7682L89.3183 18.0374L91.7718 12.6705Z" fill="#EB7601"/>
<path d="M67.4214 3.4214L71.5075 1.38885L82.1046 1.43942L71.7202 1.98903L67.4214 3.4214Z" fill="#FFEF8F"/>
<path opacity="0.25" d="M65.4999 11.4223L66.0919 12.7185L65.6435 13.884L64.3523 13.0388L65.4999 11.4223Z" fill="#681411"/>
<path d="M85.1184 16.8307L89.0723 16.1259L90.2233 14.6526L85.1184 16.8307Z" fill="#FFE165"/>
<path d="M64.3523 13.0387L65.6435 13.8838L65.7971 15.2041L64.3523 13.0387Z" fill="#991B1D"/>
<path d="M71.9641 11.4223L71.5076 12.2149L72.9352 13.3489L71.9641 11.4223Z" fill="#BD3918"/>
<path d="M98.2361 4.23987L91.6912 1.98904L82.1726 2.36273L76.8164 6.89999V12.302L77.9219 14.0319L81.2615 13.8231L84.3229 13.1205L83.6737 10.558L84.5283 10.0373C84.7359 9.91885 84.9632 9.78908 85.1988 9.65462L85.3568 9.56447C85.5034 9.48082 85.6495 9.39741 85.7936 9.31515L86.0263 9.18233C86.307 9.02213 86.5642 8.87533 86.7692 8.75837L86.9814 8.63723C87.0649 8.58956 87.1303 8.55222 87.1717 8.52859L87.2288 8.49604L90.2574 8.29255L92.7112 8.12773L94.6012 9.51627L94.3918 10.0622L95.0328 11.7499L99.0957 12.9011L100.106 8.70068L98.2361 4.23987Z" fill="url(#paint5_radial_102_33017)"/>
<path d="M76.8164 6.89999L78.0615 9.96935L83.9112 5.40387L92.067 5.08611L97.2042 6.89999L99.2503 12.2584L100.106 8.70067L98.2361 4.23987L91.6912 1.98904L82.1726 2.36273L76.8164 6.89999Z" fill="#FFA31B"/>
<path d="M95.0323 11.7498L94.6007 9.51624L94.3914 10.0621L95.0323 11.7498Z" fill="#BC7114"/>
<path d="M83.9111 5.404L87.1716 8.52871L92.7111 8.12786L94.601 9.5164L95.0327 11.75L99.0956 12.9012L99.2502 12.2585L97.204 6.90012L92.0669 5.08624L83.9111 5.404Z" fill="#E6AE02"/>
<path d="M78.0613 9.96947L77.5252 13.4117L76.8162 12.1887V6.90012L78.0613 9.96947Z" fill="#BD3918"/>
<path d="M84.6592 10.6446L85.1181 11.7499L84.3571 13.1088L83.9792 12.2148L84.6592 10.6446Z" fill="#991B1D"/>
<path d="M79.6151 11.3141L80.1017 9.98977L84.5485 6.01457L92.0672 5.08624L83.9114 5.404L78.0617 9.96948L77.8354 11.4223L79.6151 11.3141Z" fill="#FCD400"/>
<path d="M79.6146 11.3141L81.1573 12.8959L83.9786 12.2149L84.3564 13.1089L81.2997 13.6446L77.5251 13.4117L77.835 11.4223L79.6146 11.3141Z" fill="#B41E07"/>
<path d="M83.9111 5.40405L92.0669 5.08629L91.7711 2.33966L91.2277 4.38946L83.9111 5.40405Z" fill="#FFEF8F"/>
<path d="M66.5815 16.266L64.8329 13.3468L65.5471 11.4421L64.1186 11.9183V14.5373L63.6892 16.6802L66.5815 16.266Z" fill="#883913"/>
<path d="M74.2966 4.69014L67.4212 3.42148L58.9089 3.78978L52.8521 5.83603L50.7854 9.3146L51.2356 11.8781L52.214 14.2993L57.4521 13.8231L60.1791 11.3141L63.6664 10.3377H67.9942L70.6233 11.4017L71.9638 11.4222L73.2325 13.9391L76.5474 14.0047V7.63671L74.2966 4.69014Z" fill="url(#paint6_radial_102_33017)"/>
<path d="M52.69 14.2993L51.5209 12.2917L51.292 8.46157L52.8519 5.836L53.2254 9.2532L53.8849 11.0167L52.69 14.2993Z" fill="#7D1E10"/>
<path d="M74.2966 4.69022V7.83434L73.5256 9.96888L76.5474 12.5963V8.07323L74.2966 4.69022Z" fill="#ECC108"/>
<path d="M52.8521 5.836L58.9089 3.78975L67.4212 3.42145L74.2965 4.69011V7.83424L73.5256 9.96878L71.4306 8.64317L61.1722 7.90031L53.8851 11.0167L53.2255 9.2532L52.8521 5.836Z" fill="#FFA31B"/>
<path d="M52.8521 5.83604L58.9089 3.78979L61.1722 7.90036L53.8851 11.0167L53.2255 9.25324L52.8521 5.83604Z" fill="#FF881B"/>
<path d="M52.8519 5.836L51.292 8.46157L52.0719 11.0167L53.3146 12.5962L53.8849 11.0167L53.2254 9.2532L52.8519 5.836Z" fill="#B66516"/>
<path d="M53.885 11.0166L61.1721 7.90022L71.4305 8.64308L60.797 7.21896L53.885 11.0166Z" fill="#FFE885"/>
<path d="M71.4302 8.64328L73.1862 7.21916L74.2961 4.69022V7.94395L73.5252 9.96888L71.4302 8.64328Z" fill="#FFE885"/>
<path d="M-178.5 10.0136V5.25165L-171.119 0.489746L-165.881 1.68022L-170.881 1.20403L-177.786 5.72784V9.77546L-171.119 20.0136L-172.786 18.8231L-178.5 10.0136Z" fill="#681411"/>
<path d="M-5.40475 2.15641L-3.97618 3.82308L-2.54761 6.44213L-2.11247 7.74755L-2.30951 12.8707L-3.26189 14.0612L-5.64285 14.2993L-6.83333 13.1088L-7.07141 12.1564L-7.30951 10.7278L-8.97618 9.53736H-16.8333L-19.9286 10.9659L-20.4048 13.3469L-21.5952 14.5374H-25.6429L-27.5476 13.3469V7.8707L-25.1667 4.53736L-16.8333 2.15641L-24.9286 3.58498C-25.7654 4.32884 -28.0238 6.44213 -28.0238 6.44213L-28.9762 5.01356L-33.9762 0.965937L-37.5476 1.68022H-34.6905L-29.9286 5.01356L-28.0238 9.06117L-28.2619 13.3469L-29.9286 14.5374H-32.5476L-34.4524 13.8231L-32.5476 15.4897L-20.4048 15.0136L-19.4524 14.0612V11.3401L-16.3571 10.0136L-14.6905 10.2517L-14.4524 11.204V14.5374L-14.6905 18.585L-16.8333 21.204L-19.2143 21.4421L-16.5952 21.9183L-15.1667 20.2517L-13.5 18.8231L-12.0714 19.5374L-9.69046 21.204L0.0714417 20.2517H-9.69046L-12.5476 18.3469L-13.2619 15.9659L-13.9409 12.7972L-13.7381 11.9183L-12.7857 10.7278L-8.73808 10.4897L-7.78571 11.4421L-7.54761 13.1088L-7.13945 13.585L-6.11903 15.0136H0.785721L5.30954 14.2993L6.50002 12.6326L6.9762 11.6802L8.40477 10.9659H10.0714L11.7381 12.6326L11.9762 13.8231L9.83334 18.8231L2.45239 20.2517L10.3095 19.5374L11.9762 17.3945L15.3095 21.6802L24.1191 23.1088L30.5476 21.6802L24.1191 22.1564L16.5 20.9659L13.1667 16.204L12.6905 13.1088L12.4524 11.4421L12.9286 10.4897L14.5952 9.77546L17.4524 10.7278L18.4048 13.8231L20.3095 15.4897L32.2143 15.0136L33.1667 14.2993L33.3831 11.4854L33.4048 11.4421L36.2619 9.77546L37.4524 10.0136L38.4048 10.9659V15.9659L37.9286 18.8231L35.7857 21.204L31.9762 21.4421L36.2619 22.1564L38.4048 20.0136L39.3572 18.585L42.9286 20.7278L54.1191 20.2517L43.1667 20.0136L40.5476 18.1088L39.5952 15.9659H39.5577L38.881 11.6802L40.0714 10.4897L41.9762 10.0136H43.881L45.0714 11.4421L45.5476 13.8231L46.7381 15.0136L50.3095 14.7755H52.9286L58.1667 14.2993L59.8333 12.1564L62.4308 11.0742L63.1667 11.4421L64.1191 12.6326V14.5374L63.6429 16.6802L62.6905 18.8231L55.0714 20.2517L63.6429 19.5374L64.8333 16.4421L65.0714 15.7278L67.6905 19.2993L69.3572 21.204L80.5476 20.2517L69.1191 19.7755L65.7857 14.7755L65.0714 13.585L65.5476 11.6802L66.9762 11.204L71.7381 11.6802L72.9286 14.2993L81.2619 14.0612L84.3571 13.585L84.8333 13.3469L84.3571 10.9659L87.2143 9.29927L89.8517 9.07949L90.7857 10.0136L91.5 12.6326L89.1191 18.1088C87.2344 18.6473 83.6829 19.6424 82.415 19.9323C82.0664 19.9832 81.8928 20.0136 81.9762 20.0136C82.0341 20.0136 82.1879 19.9843 82.415 19.9323C83.6595 19.7509 87.1351 19.3092 89.1191 19.0612L92.4524 13.8231L90.7857 10.0136L90.3095 8.34689L86.9762 8.58498L83.6429 10.7278L84.1032 12.7993L83.881 12.6326L81.2619 13.585L77.9286 13.3469L76.9762 12.3945L76.7381 6.91832L82.2143 2.39451L88.6181 2.08213L91.7381 2.15641L98.1667 4.29927L100.071 8.58498L98.6429 3.82308L91.9762 1.68022L81.7381 1.91832H81.5L76.9762 5.48975L75.3095 4.29927L67.6905 3.34689L74.3572 4.77546L76.5 8.10879V12.6326L76.0238 13.3469H73.6429L71.9762 11.4421L68.1667 10.4897L63.881 10.2517L62.9286 10.4897L62.8889 10.5162L60.3095 11.204L55.7857 13.3469L52.6905 14.0612L51.5 12.1564L51.2876 8.54469L52.9286 5.96594L58.881 3.82308L65.3095 3.58498L59.1191 3.34689L52.6905 5.48975L51.2619 6.44213L49.5953 3.34689L47.6905 1.68022L44.1191 2.15641L47.4524 2.39451L49.1191 4.06117L50.5476 6.68022L50.7857 9.29927L50.5476 12.8707L49.3572 14.0612H47.2143L46.2619 13.1088L45.7857 10.4897L44.1191 9.29927L36.2619 9.06117L32.6905 11.204V12.8707L31.5 14.5374L27.2143 14.2993L25.3095 13.585L25.2845 13.1088H25.3095V7.8707L27.9286 4.53736L36.2619 2.15641L27.6905 3.58498L24.8333 7.6326L23.4048 4.77546L18.1667 1.44213L22.9286 5.01356L24.8333 9.29927L24.5952 13.1088H24.6328L24.5952 13.8231L22.9286 14.7755H20.3095L18.881 13.585L18.1667 10.4897L15.0714 9.06117L10.5476 9.29927L5.78572 10.9659L5.07144 13.3469L4.6973 13.721L3.16667 14.0612L1.02382 13.585L0.30954 12.8707L-0.880936 10.7278L-1.11903 8.82308V6.91832L2.92859 3.10879L15.5476 1.68022L2.92859 2.39451L-1.59523 6.44213L-3.26189 3.34689L-5.40475 2.15641Z" fill="#681411"/>
<path d="M-118.976 16.204L-118.322 18.3832L-115.643 20.7278H-104.69L-115.643 21.6802L-119.396 18.8651L-119.69 19.0612L-122.786 21.6802L-120.643 19.0612L-120.167 16.9183L-120.596 10.7002L-122.294 9.96872L-125.38 11.7261L-125.558 14.7166L-126.432 15.3739L-133.645 15.6478L-138.484 15.8201L-140.057 14.3992L-138.134 15.3403L-135.682 15.2557L-133.867 14.1146V9.56013L-135.606 5.47443L-140.405 1.91835L-135.167 5.01359L-133.867 7.40321H-133.503L-130.881 4.06121L-122.786 2.63263L-130.405 4.77549L-133.343 8.25055L-133.499 11.0167L-133.357 13.9451L-131.557 14.9156L-127.172 15.0923L-126.477 14.3794L-125.99 13.0388L-125.772 11.6057L-125.414 10.8978L-122.421 9.46417L-117.932 9.25315L-114.522 9.76721L-113.086 11.1965L-112.759 12.5322L-112.748 13.6116L-111.49 14.6524L-109.093 14.6286L-107.896 13.3661L-106.957 9.31455L-109.648 4.07571L-111.162 2.64333L-109.214 3.7898L-106.957 6.68025L-103.024 2.74776L-96.119 2.15641L-98.9762 2.74776L-103.024 3.57022L-106.451 8.46162L-106.222 12.2917L-104.972 14.1027L-101.274 13.1313L-99.5308 12.2497L-97.5053 10.9268L-94.0764 9.08534H-90.72L-88.0238 9.97799L-85.4048 13.939H-82.3095L-81.1954 12.5962V8.07316L-83.4463 4.69015L-87.5764 1.57652H-89.4821L-87.0714 0.965937L-82.8471 4.25614L-81.5952 5.72787L-76.2436 3.10882L-69.6905 2.15644L-75.6429 3.82311L-78.7381 5.48978L-80.2173 7.87073L-80.6429 11.7674L-80.2173 13.4115L-76.4427 13.6445L-74.4524 13.0387L-73.7638 12.2147L-74.0659 10.5233L-69.4524 8.82311L-61.5952 9.5477L-59.9286 10.966L-59.6905 12.8707L-58.5 14.0612L-55.8809 13.8231L-55.4048 12.1564L-54.9769 7.02185L-56.3571 4.53736L-58.0238 2.15644L-56.5952 3.58498L-54.4524 6.20403L-49.9286 3.10879L-45.4048 2.6326L-49.9286 3.58498L-53.9762 6.91832V11.9183L-51.8333 13.8231L-49.9286 14.0612L-47.7857 13.3469L-47.0714 10.966L-45.881 10.5691V10.4897L-42.5476 9.53736L-38.0238 9.06117L-34.6905 10.4897L-34.4524 13.1088L-35.4047 10.9659L-38.2619 9.77546L-39.9285 10.2517L-40.4047 11.4421L-40.1666 14.2993L-39.9285 16.4421L-36.5952 21.204L-28.7381 22.1564L-19.6905 21.4421L-28.9762 22.8707L-37.3095 21.9183L-40.881 16.9183L-41.3571 19.5374L-51.119 20.2517L-43.0238 18.8231L-41.8333 15.9659L-40.8809 13.3469L-41.119 12.3945L-42.5476 10.9659L-45.3681 11.1674L-45.6429 11.4422L-46.3571 12.6326L-47.3095 13.8231L-47.7857 14.0612L-49.9286 14.5374L-58.7381 14.7755L-60.4048 13.1088V11.2041L-61.5952 10.0136H-65.6429L-66.8333 11.4422L-66.948 12.4739L-66.119 16.204L-65.1667 18.3469L-62.7857 20.2517H-51.3571L-62.7857 20.9659L-65.6429 18.8231L-66.5952 17.1564L-67.0714 19.0612L-69.4524 21.4421H-73.7381L-69.9286 21.204L-67.7857 18.8231L-67.3095 16.204V12.8707L-67.2854 12.7744L-68.0238 9.97799L-69.2791 9.5477L-73.0838 10.966V13.0387L-73.5 14.7755L-76.5952 15.0136L-85.4048 15.3302L-87.0714 13.939L-88.0238 11.4017L-90.72 11.0991L-92.2433 11.4222L-92.7857 13.1313V16.4422L-89.4524 20.9659L-81.8333 22.1564L-75.4048 21.6802L-82.0714 22.8707L-89.6905 22.1564L-92.3095 18.8231L-93.7381 16.4421L-95.4048 19.7755L-102.548 20.4897L-95.8809 19.2993L-94.4524 15.7278L-94.0277 14.8785L-93.7593 14.1437L-94.0764 12.8959L-95.4463 11.4017L-97.5637 11.314L-98.4974 11.7674L-101.279 14.1146L-105.546 15.0849L-108.167 15.3302L-111.683 15.3302L-113.204 13.5969V12.4326L-113.436 11.4017L-114.803 10.3261L-118.592 10.5093L-119.752 11.878L-119.933 12.6491L-118.976 16.204Z" fill="#681411"/>
<path d="M-160.958 9.07057L-165.881 1.91835L-160.763 6.73819L-159.335 5.61324L-155.615 3.03791H-148.248L-155.615 3.82497L-159.652 7.47136L-159.69 10.7279L-160.958 9.07057Z" fill="#681411"/>
<path d="M-152.802 11.3423L-153.427 13.8982L-152.359 11.9219L-148.65 10.6242L-146.933 11.7134L-146.421 15.4445L-147.034 18.2621L-147.071 18.3469L-149.69 21.4421L-154.452 22.6326L-148.976 21.9183L-146.833 19.2993L-146.119 17.6326L-143.262 22.3945L-134.69 23.3469L-129.452 22.1564L-134.69 22.3945L-142.31 21.4421L-144.741 18.3154L-144.622 18.4397L-145.704 16.9005L-145.966 14.3795L-146.214 11.8781L-145.695 10.6242L-144.021 10.0928L-141.116 11.1966L-140.306 13.3662L-140.445 11.9438L-140.626 10.7888L-143.851 9.56018L-148.21 9.86417L-152.802 11.3423Z" fill="#681411"/>
<path d="M-168.262 20.4897C-168.341 20.8866 -168.405 21.7278 -168.024 21.9183C-167.643 22.1088 -162.786 24.3786 -160.405 25.4897L-154.69 22.6326L-160.405 24.2993L-167.548 20.9659L-168.262 20.4897Z" fill="#681411"/>
<path d="M-156.595 3.34689C-159.055 3.50563 -164.024 3.82309 -164.214 3.82309L-163.738 4.53737L-156.595 3.34689Z" fill="#681411"/>
<path d="M-132.309 4.06118C-134.055 3.98182 -137.595 3.82309 -137.786 3.82309L-136.833 4.29928L-132.309 4.06118Z" fill="#681411"/>
<path d="M-102.071 2.39451L-109.928 3.34689L-109.214 3.82309L-102.071 2.39451Z" fill="#681411"/>
<path d="M-78.2617 3.58499C-80.2459 3.42626 -84.357 3.1088 -84.9284 3.1088L-84.2141 3.82309L-78.2617 3.58499Z" fill="#681411"/>
<path d="M-48.976 1.91832L-57.3094 3.1088L-56.5951 3.58499L-48.976 1.91832Z" fill="#681411"/>
<path d="M-25.8808 3.82309C-25.4998 3.82309 -29.5316 3.34689 -31.5951 3.1088L-30.8808 3.82309H-25.8808Z" fill="#681411"/>
<path d="M3.16682 2.15642L-4.21413 2.8707L-3.49983 3.58499L3.16682 2.15642Z" fill="#681411"/>
<path d="M26.7383 3.82309L20.7859 3.1088L21.7383 3.82309H26.7383Z" fill="#681411"/>
<path d="M57.2144 1.91832L48.8811 2.8707L49.3573 3.34689L57.2144 1.91832Z" fill="#681411"/>
<path d="M71.5002 0.965942L65.3097 3.58499H67.2144L71.5002 1.44213H84.3573C84.5478 1.44213 75.8652 1.12467 71.5002 0.965942Z" fill="#681411"/>
<path d="M92.6906 8.1088L90.0716 8.3469V8.82309L92.6906 8.58499L94.4049 10.0612L94.643 9.48975L92.6906 8.1088Z" fill="#681411"/>
<defs>
<linearGradient id="paint0_linear_102_33017" x1="-1.22654" y1="9.93292" x2="-1.22654" y2="18.6378" gradientUnits="userSpaceOnUse">
<stop offset="0.348958" stop-color="#EA7500"/>
<stop offset="1" stop-color="#F4E02B"/>
</linearGradient>
<linearGradient id="paint1_linear_102_33017" x1="51.6306" y1="9.93292" x2="51.6306" y2="18.6378" gradientUnits="userSpaceOnUse">
<stop offset="0.348958" stop-color="#EA7500"/>
<stop offset="1" stop-color="#F4E02B"/>
</linearGradient>
<radialGradient id="paint2_radial_102_33017" cx="0" cy="0" r="1" gradientUnits="userSpaceOnUse" gradientTransform="translate(38.9594 2.95344) rotate(92.9467) scale(12.3172 25.3196)">
<stop offset="0.302796" stop-color="#F29100"/>
<stop offset="1" stop-color="#EA5501"/>
</radialGradient>
<radialGradient id="paint3_radial_102_33017" cx="0" cy="0" r="1" gradientUnits="userSpaceOnUse" gradientTransform="translate(11.6597 8.51073) rotate(88.0817) scale(4.6836 8.46772)">
<stop stop-color="#CE7C00"/>
<stop offset="1" stop-color="#EA5501"/>
</radialGradient>
<linearGradient id="paint4_linear_102_33017" x1="79.3974" y1="9.08539" x2="79.3974" y2="17.6121" gradientUnits="userSpaceOnUse">
<stop offset="0.348958" stop-color="#EA7500"/>
<stop offset="1" stop-color="#F4E02B"/>
</linearGradient>
<radialGradient id="paint5_radial_102_33017" cx="0" cy="0" r="1" gradientUnits="userSpaceOnUse" gradientTransform="translate(88.4613 8.04588) rotate(90) scale(6.05684 11.6449)">
<stop offset="0.546875" stop-color="#F29100"/>
<stop offset="1" stop-color="#EA5501"/>
</radialGradient>
<radialGradient id="paint6_radial_102_33017" cx="0" cy="0" r="1" gradientUnits="userSpaceOnUse" gradientTransform="translate(63.6664 9.25323) rotate(90) scale(5.83175 12.881)">
<stop offset="0.354167" stop-color="#F29100"/>
<stop offset="1" stop-color="#EA5501"/>
</radialGradient>
</defs>
</svg>
