<svg width="101" height="25" viewBox="0 0 101 25" fill="none" xmlns="http://www.w3.org/2000/svg">
<path d="M9.01514 9.95143L8.01335 13.0397L3.0044 15.5103L0.499931 12.422L1.50172 5.01025L8.01335 5.6279L9.01514 9.95143Z" fill="#191221"/>
<path d="M90.5272 5.93497L95.693 1.10587L111.682 4.09336L115.741 7.20363L116.069 12.7137L114.056 18.0554L111.6 19.9312H100.367L91.7162 18.417L89.6253 13.2605L90.5272 5.93497ZM96.1439 11.7872L101.269 14.038H107.541L108.648 12.7284V11.2142L107.705 8.92246L99.3309 7.95168L96.1439 8.92246V11.7872Z" fill="#CE971B"/>
<path d="M111.548 19.8447L111.071 18.1781L99.8606 17.4638L91.9894 15.559L91.7508 18.4162L100.338 19.8447H111.548Z" fill="#DA8300"/>
<path d="M95.6929 1.1059L92.04 4.52072L99.2924 4.92848L100.777 4.95282L104.921 6.24056L105.758 2.98852L95.6929 1.1059Z" fill="#DDB808"/>
<path d="M105.563 6.40984L102.208 5.42912L100.199 4.67926L102.881 5.10683L105.563 6.40984Z" fill="#FFE165"/>
<path d="M104.132 5.93363L100.776 4.95291L102.339 7.57848L103.237 7.67256L104.132 5.93363Z" fill="#8E2513"/>
<path d="M114.503 9.62631L113.422 16.1605L111.007 18.1481L99.742 17.5567L91.907 15.5963L91.3155 10.5187L93.4367 10.431L96.4977 13.6664L101.433 14.2019L107.581 14.4472L109.105 12.7139L110.706 9.44318L114.503 9.62631Z" fill="url(#paint0_linear_102_33383)"/>
<path d="M96.5439 12.7139L95.0333 12.1187H91.5017L90.3129 13.2315L90.298 15.0985L89.6253 13.2606L89.9431 12.0128L91.3153 10.5186L93.4366 10.4309L94.4192 10.9113L96.5439 12.7139Z" fill="#B41E07"/>
<path d="M94.4192 10.9113L95.0333 12.1187L96.5439 12.7139L94.4192 10.9113Z" fill="#BD3918"/>
<path d="M99.7421 17.5565L100.367 19.9312L98.4584 17.2354L99.7421 17.5565Z" fill="#FFE885"/>
<path d="M91.9068 15.5962L91.7161 18.417L92.4417 15.7902L91.9068 15.5962Z" fill="#FFE885"/>
<path opacity="0.2" d="M91.3151 10.5186L91.5015 12.1186L90.3126 13.2314L89.9428 12.0127L91.3151 10.5186Z" fill="#FDE606"/>
<path d="M107.731 14.3686L113.456 16.2734L111.071 18.1782L99.8601 17.4639L98.429 17.2258L91.9889 15.5591L96.5208 13.6544L101.53 14.1305L107.731 14.3686Z" fill="#FF881B"/>
<path d="M113.422 16.1605L111.007 18.1481L99.6002 17.5212L95.0107 16.3729L99.7417 17.0286L110.826 17.5668L113.422 16.1605Z" fill="#FFE165"/>
<path d="M89.9429 12.0128L90.3127 13.2315L90.2978 15.0985L89.6252 13.2606L89.9429 12.0128Z" fill="#991B1D"/>
<path d="M37.5756 5.93497L42.7413 1.10587L58.7304 4.09336L62.7892 7.20363L63.1172 12.7137L61.1045 18.0554L58.6484 19.9312H47.415L38.7645 18.417L36.6736 13.2605L37.5756 5.93497ZM43.1923 11.7872L48.317 14.038H54.5897L55.6966 12.7284V11.2142L54.7536 8.92246L46.3792 7.95168L43.1923 8.92246V11.7872Z" fill="#CE971B"/>
<path d="M58.5964 19.8447L58.1194 18.1781L46.9089 17.4638L39.0377 15.559L38.7992 18.4162L47.3859 19.8447H58.5964Z" fill="#DA8300"/>
<path d="M42.7412 1.1059L39.0883 4.52072L46.3407 4.92848L47.8249 4.95282L51.9692 6.24056L52.8066 2.98852L42.7412 1.1059Z" fill="#DDB808"/>
<path d="M52.6121 6.40984L49.2566 5.42912L47.2475 4.67926L49.9298 5.10683L52.6121 6.40984Z" fill="#FFE165"/>
<path d="M51.1807 5.93363L47.8252 4.95291L49.3879 7.57848L50.286 7.67256L51.1807 5.93363Z" fill="#8E2513"/>
<path d="M61.5513 9.62631L60.4708 16.1605L58.0556 18.1481L46.7903 17.5567L38.9554 15.5963L38.3638 10.5187L40.485 10.431L43.546 13.6664L48.4812 14.2019L54.6298 14.4472L56.1535 12.7139L57.7548 9.44318L61.5513 9.62631Z" fill="url(#paint1_linear_102_33383)"/>
<path d="M62.0014 15.6752L60.9988 12.9661L56.6061 13.0621L54.6296 14.4472L56.1533 12.7139V11.5497L56.3858 10.5187L57.7546 9.44318L61.5511 9.62631L62.7133 10.995L63.1172 12.7139L62.0014 15.6752Z" fill="#B41E07"/>
<path d="M43.5923 12.7139L42.0816 12.1187H38.5501L37.3612 13.2315L37.3463 15.0985L36.6737 13.2606L36.9914 12.0128L38.3637 10.5186L40.4849 10.4309L41.4675 10.9113L43.5923 12.7139Z" fill="#B41E07"/>
<path d="M41.4675 10.9113L42.0816 12.1187L43.5923 12.7139L41.4675 10.9113Z" fill="#BD3918"/>
<path d="M60.4706 16.1605L61.1045 18.0556L58.6484 19.9314L58.0555 18.1481L60.4706 16.1605Z" fill="#BD3918"/>
<path d="M56.3859 10.5186L56.6062 13.062L54.6297 14.4471L56.1534 12.7138V11.5495L56.3859 10.5186Z" fill="#BD3918"/>
<path d="M46.7904 17.5565L47.4153 19.9312L45.5067 17.2354L46.7904 17.5565Z" fill="#FFE885"/>
<path d="M38.9556 15.5962L38.765 18.417L39.4905 15.7902L38.9556 15.5962Z" fill="#FFE885"/>
<path opacity="0.2" d="M57.7546 9.44318L56.6062 13.0621L56.3858 10.5187L57.7546 9.44318Z" fill="#FDE606"/>
<path opacity="0.2" d="M38.3639 10.5186L38.5503 12.1186L37.3614 13.2314L36.9916 12.0127L38.3639 10.5186Z" fill="#FDE606"/>
<path d="M61.5509 9.62628L60.9987 12.966L62.0013 15.6752L62.7131 10.995L61.5509 9.62628Z" fill="#AA4E17"/>
<path d="M54.7801 14.3686L60.5046 16.2734L58.1194 18.1782L46.9089 17.4639L45.4778 17.2258L39.0377 15.5591L43.5696 13.6544L48.5786 14.1305L54.7801 14.3686Z" fill="#FF881B"/>
<path d="M60.4705 16.1605L58.0553 18.1481L46.6485 17.5212L42.059 16.3729L46.79 17.0286L57.874 17.5668L60.4705 16.1605Z" fill="#FFE165"/>
<path d="M36.9918 12.0128L37.3616 13.2315L37.3467 15.0985L36.674 13.2606L36.9918 12.0128Z" fill="#991B1D"/>
<path d="M62.7133 10.995L62.0632 15.5111L63.1172 12.7139L62.7133 10.995Z" fill="#991B1D"/>
<path d="M64.8388 6.42609L67.1346 3.52044L75.2932 3.23398H82.5498L89.5393 7.876L88.711 16.0173L85.3977 20.724L77.6711 21.7319L65.7817 20.7906L63.5678 18.3351L63.1169 15.675V10.5595L64.8388 6.42609ZM69.4046 14.4908L76.9704 14.7566L78.595 14.8327L81.4781 14.937L83.0542 13.516L83.3849 12.147L83.4459 10.9949L80.0899 10.9949L72.3774 11.0421L68.962 12.1556L68.5286 13.8334L69.4046 14.4908Z" fill="#DA8300"/>
<path d="M78.186 5.93354L75.1109 5.78546L76.3284 7.36737L77.5892 6.95106L78.186 5.93354Z" fill="#A54D17"/>
<path d="M88.7019 9.74095L87.0249 14.9369L84.3086 18.1479L77.1975 19.3635L66.0729 18.1479L63.1173 15.675L63.4623 9.85815L65.2591 9.08557L68.3511 10.8429L68.529 13.8334L69.405 14.4908L81.4785 14.9369L83.0546 13.516L84.1154 10.3133L87.0249 9.20957L88.7019 9.74095Z" fill="#F9C100"/>
<path d="M81.2557 15.559L86.9802 15.0828L84.3565 18.178L77.2009 19.3685L65.9904 18.178L63.3666 15.559L64.5592 13.4161H66.7059L69.3297 14.3685L81.2557 15.559Z" fill="#FF881B"/>
<path d="M89.2222 10.9948L88.7017 9.74094L87.0247 14.9369L88.7112 16.0172L89.2222 10.9948Z" fill="#D69F06"/>
<path d="M87.0249 9.20953V14.9369L88.7019 9.74091L87.0249 9.20953Z" fill="#CD8B0B"/>
<path d="M77.1975 19.3636L67.3192 16.729L65.033 14.4472L64.1605 12.4656L63.1173 15.6751L66.073 18.148L77.1975 19.3636Z" fill="#FDD904"/>
<path d="M84.308 18.1479L85.3975 20.7239L77.6709 21.7319L77.1969 19.3636L84.308 18.1479Z" fill="#BD3918"/>
<path d="M68.3509 10.8429L68.5288 13.8334L64.595 11.7038L63.5154 12.2764L63.1171 12.7137L63.4622 9.85815L65.259 9.08557L68.3509 10.8429Z" fill="#B41E07"/>
<path d="M88.7112 16.0172L87.8833 12.2764L87.0247 11.713H84.1953L83.0544 13.5159L83.304 12.4829L84.1152 10.3133L87.0247 9.20953L88.7017 9.74091L89.2222 10.9948L88.7112 16.0172Z" fill="#B41E07"/>
<path d="M84.3086 18.1479L77.1975 19.3636L67.3191 16.7289L76.8535 18.5757L84.3086 18.1479Z" fill="#FFE165"/>
<path d="M83.0542 13.516L81.3902 15.511L69.4046 14.4907L81.4781 14.9369L83.0542 13.516Z" fill="#FFE165"/>
<path d="M66.0728 18.1478L65.7825 20.7906L65.8234 17.9388L66.0728 18.1478Z" fill="#FFE165"/>
<path opacity="0.2" d="M65.259 9.08557L64.595 11.7038L63.5155 12.2764L63.1172 12.7137L63.4622 9.85815L65.259 9.08557Z" fill="#FDE606"/>
<path d="M65.259 9.08557L63.1172 15.675V12.7137L63.4622 9.85815L65.259 9.08557Z" fill="#F3D004"/>
<path d="M63.1171 15.6751L66.0728 18.1479L65.782 20.7906L63.5681 18.3352L63.1171 15.6751Z" fill="#F9C100"/>
<path d="M84.1149 10.3134L84.1951 11.7131L83.0541 13.516L83.3037 12.483L84.1149 10.3134Z" fill="#BD3918"/>
<path opacity="0.25" d="M88.7019 9.74091L87.8836 12.2764L87.0249 11.713V9.20953L88.7019 9.74091Z" fill="#681411"/>
<path d="M88.7017 9.74094L87.8833 12.2764L88.7112 16.0172L89.2222 10.9948L88.7017 9.74094Z" fill="#991B1D"/>
<path d="M65.2594 9.0856H62.3353H57.6338L56.0349 10.3133L55.7079 11.6491L55.6969 12.7285L54.59 14.038H51.1971L49.8957 8.43139L52.5911 3.19248L54.108 1.7601H65.6283L73.6999 3.9517L76.3287 7.36737L76.676 13.5374L76.6312 14.7646L75.5008 14.7049L69.4052 14.4908L68.5292 13.8334L68.9626 12.1556L68.7442 10.7226L65.2594 9.0856Z" fill="url(#paint2_radial_102_33383)"/>
<path d="M61.1046 18.0555L63.1173 12.7138V15.6751L63.5683 18.3352L63.856 18.6543L62.1024 18.8666L60.4707 18.5396L61.1046 18.0555Z" fill="#883913"/>
<path d="M65.3871 8.58099L69.1317 10.1334L70.146 12.2764L69.4501 13.4962L68.9378 12.4829L68.7439 10.7225L65.3871 8.58099Z" fill="#991B1D"/>
<path d="M72.2388 14.1249L74.1568 12.7137V7.95168L71.5562 5.49346H63.8558L54.8473 5.21193L53.2275 3.87644L50.8358 8.36999V12.4829L49.8954 8.43136L52.5907 3.19245L54.1077 1.76007H65.628L73.6996 3.95167L76.3284 7.36734L76.342 13.0619L74.5387 14.0324L72.2388 14.1249Z" fill="#F3D004"/>
<path d="M70.9329 5.12682L65.0471 3.87646H53.2278L54.8475 5.21196L56.8397 6.71257L63.856 5.49348L70.5371 6.22665L70.9329 5.12682Z" fill="#EFB103"/>
<path d="M53.2272 3.87646L54.8469 5.21196L56.8391 6.71257L53.2272 9.76144L50.8355 8.37001L53.2272 3.87646Z" fill="#E79702"/>
<path d="M50.836 8.36993L53.2277 9.76136L55.6968 12.7284L54.4361 13.7692L52.0347 13.7454L50.836 12.4828V8.36993Z" fill="#B41E07"/>
<path d="M71.5562 3.39392L70.5369 6.22665L72.9202 8.20222L74.1568 12.7138L76.342 13.0619L76.3284 7.36737L73.6996 3.95169L71.5562 3.39392Z" fill="#FF881B"/>
<path d="M72.9198 8.20216L74.1564 12.7137L76.3416 13.0619L76.4883 10.2146L76.328 7.36731L72.9198 8.20216Z" fill="#B66516"/>
<path d="M76.342 13.0619L74.1568 12.7137L72.2388 14.1249L74.5387 14.0324L76.342 13.0619Z" fill="#991B1D"/>
<path d="M70.9329 5.12682L65.0471 3.87646H53.2278L52.1079 5.98047L53.8379 4.37951L65.2593 4.44954L70.9329 5.12682Z" fill="#FFE165"/>
<path d="M54.1079 1.76007L53.2278 3.87644H53.8379L54.1079 1.76007Z" fill="#FFE165"/>
<path d="M56.8391 6.71255L53.8373 4.37949L53.3907 4.79274L56.8391 6.71255Z" fill="#FDE606"/>
<path d="M74.1572 12.7137L70.1464 12.2764L69.4505 13.4962L70.1464 14.2091L72.2392 14.1249L74.1572 12.7137Z" fill="#B41E07"/>
<path d="M88.7114 16.0173L89.055 12.7138L89.922 11.4287L89.6835 13.3335L91.1146 16.6668L91.7168 18.4063H87.0249L88.7114 16.0173Z" fill="#883913"/>
<path opacity="0.5" d="M91.1144 17.5566H87.6277L87.0248 18.4063H91.7317L91.1144 17.5566Z" fill="#C98942"/>
<path d="M77.3624 8.63597L78.5956 4.59134L83.4941 0.952515L98.758 2.58035L102.802 6.22674V9.72263L103.279 14.1305H100.894L98.758 13.8924L96.4486 13.015L96.0778 11.501L95.8226 10.4591L91.2216 8.98102L86.8551 8.67704L83.6245 9.90568L83.4464 10.9949L83.3855 12.1471L83.0548 13.5161L81.4787 14.9371L77.9666 14.811L77.1976 14.7843L77.3624 8.63597Z" fill="url(#paint3_radial_102_33383)"/>
<path d="M98.0693 9.72266L94.706 7.82598L84.8933 6.81907L81.7165 9.08631L81.1281 14.4572L78.6716 14.3727L77.7105 13.7694L78.1055 9.08571L79.8437 5.4936L84.1874 2.58038L96.1179 3.95181L99.4197 6.95117L98.0693 9.72266Z" fill="#E19809"/>
<path d="M98.7575 13.8924L98.0689 9.72263L95.4141 6.71267L84.7379 5.25845L80.9086 6.26351L79.2001 9.4431L78.5951 14.8328L76.6306 14.7647L76.8532 8.67704L78.5951 4.59134L83.4936 0.952515L98.7575 2.58035L102.802 6.22674V9.4431L101.542 11.5496L100.655 13.8924H98.7575Z" fill="#CD8B0B"/>
<path d="M80.9092 6.26354L79.2008 9.44313L76.8538 8.67706L78.5957 4.59137L80.9092 6.26354Z" fill="#DAA815"/>
<path d="M102.802 6.22674L99.6248 8.3087L96.4329 5.49357L84.3907 4.21832L80.9086 6.26351L78.5951 4.59134L83.4936 0.952515L98.7575 2.58035L102.802 6.22674Z" fill="#FFA31B"/>
<path d="M98.7575 2.58038L99.6248 8.30874L100.794 14.0501L101.542 11.5496L102.802 9.72266V6.22677L98.7575 2.58038Z" fill="#FF881B"/>
<path d="M83.6245 9.90576L81.1282 14.4573L83.0548 13.5162L83.3043 12.4831L83.6245 9.90576Z" fill="#991B1D"/>
<path d="M78.6711 14.3728L76.8531 11.0388V13.2316L78.6711 14.3728Z" fill="#BD3918"/>
<path d="M99.6255 8.30868L96.4336 5.49354L84.3913 4.21829L96.4926 4.84501L99.6255 8.30868Z" fill="#FFE165"/>
<path d="M80.9089 6.26354L78.5954 4.59137L81.3906 5.98059L80.9089 6.26354Z" fill="#FFF0B3"/>
<path opacity="0.75" d="M82.5952 11.7822L81.301 12.8792L78.8812 12.7138L77.4178 12.0733L78.6716 14.3726L81.1281 14.4572L82.5952 11.7822Z" fill="#B41E07"/>
<path opacity="0.5" d="M101.268 12.4657C101.244 12.5462 100.573 12.9661 100.573 12.9661H98.6695L96.2063 12.027L96.4484 13.0151L98.9857 14.1305L100.573 13.8924H102.086L101.268 12.4657Z" fill="#B41E07"/>
<path d="M12.7787 3.42277L15.7306 0.967301L29.9568 0.476196L35.9479 3.00983L37.2134 12.5489L32.5397 19.3015L20.8963 19.8335L14.7876 18.2784L12.2027 17.5475L9.7449 12.1806L12.7787 3.42277ZM20.0353 13.613L28.3169 13.4493L29.5878 10.9324L28.6038 9.23405L22.7002 7.96539L17.8569 10.0683L17.2065 12.6308L20.0353 13.613Z" fill="#E19809"/>
<path d="M34.9792 3.38191L30.0448 0.899109L15.7303 0.967285L12.7784 3.42276L21.4351 3.62737L27.2506 5.18616L34.9792 3.38191Z" fill="#F3D004"/>
<path d="M34.5376 10.6093L31.7156 16.5538L25.6629 17.1223H20.3775L12.4493 15.636L9.74486 12.1806L10.6776 9.4883L11.5229 8.59564L14.179 8.76344L15.5629 9.47902L14.5489 11.9048L17.2065 13.1072L28.3168 13.4493L29.5878 10.9324L32.3938 10.7892L34.5376 10.6093Z" fill="url(#paint4_linear_102_33383)"/>
<path d="M28.4974 13.5715L32.7908 14.2858L30.6441 15.9525L25.3966 16.6667L20.3877 17.1429L16.3328 16.4286L11.3239 14.0477L9.89274 12.1429L11.0853 10.7144L14.6632 11.9048L17.2869 13.0953L28.4974 13.5715Z" fill="#FF881B"/>
<path d="M35.7658 14.7145L35.9196 13.3942L35.4705 12.2288L34.0077 11.7251H30.0449L28.6147 12.8591L29.5876 10.9325L34.5374 10.6094L36.0635 10.9325L37.2131 12.5491L35.7658 14.7145Z" fill="#B41E07"/>
<path d="M17.3004 12.2525L16.4099 11.2601L15.1673 10.4686L13.2949 10.0116H11.2729L10.2889 10.6093L10.6772 9.4883L11.5226 8.59564L14.1786 8.76344L15.5625 9.47902L16.8696 10.1549L17.5508 11.725L17.3004 12.2525Z" fill="#B41E07"/>
<path d="M32.8206 14.2268L31.7159 16.5537L25.6632 17.1222H20.3778L25.9301 16.5537L30.8062 15.9043L32.8206 14.2268Z" fill="#FFE165"/>
<path d="M35.4707 12.2286L32.6272 17.9499L32.5397 19.3015L35.766 14.7143L35.9199 13.3941L35.4707 12.2286Z" fill="#EB7601"/>
<path d="M20.3775 17.1222L20.8962 19.8334L14.7876 18.2783L12.4493 15.6359L20.3775 17.1222Z" fill="#DA8300"/>
<path d="M9.74463 12.1807L12.449 15.6361L14.7874 18.2785L12.2025 17.5476L9.74463 12.1807Z" fill="#EB7601"/>
<path d="M34.1387 2.93166L30.0453 0.899109L19.4292 0.949671L29.8322 1.49928L34.1387 2.93166Z" fill="#FFEF8F"/>
<path opacity="0.25" d="M36.0635 10.9326L35.4705 12.2288L35.9196 13.3942L37.2131 12.5491L36.0635 10.9326Z" fill="#681411"/>
<path d="M16.4099 16.341L12.449 15.6361L11.2959 14.1628L16.4099 16.341Z" fill="#FFE165"/>
<path d="M37.2131 12.549L35.9196 13.3941L35.7658 14.7143L37.2131 12.549Z" fill="#991B1D"/>
<path d="M29.5876 10.9326L30.0449 11.7252L28.6147 12.8591L29.5876 10.9326Z" fill="#BD3918"/>
<path d="M3.26851 3.75013L9.82513 1.4993L19.3608 1.87298L24.7266 6.41025V11.8123L23.6191 13.5421L20.2735 13.3334L17.2066 12.6308L17.857 10.0683L17.0009 9.5476C16.7929 9.4291 16.5652 9.29933 16.3291 9.16488L16.1709 9.07472C16.0241 8.99107 15.8776 8.90766 15.7333 8.82541L15.5002 8.69258C15.219 8.53238 14.9613 8.38558 14.756 8.26862L14.5434 8.14748C14.4597 8.09982 14.3942 8.06247 14.3527 8.03884L14.2956 8.00629L11.2615 7.80281L8.80332 7.63798L6.91 9.02652L7.11969 9.57242L6.47758 11.2601L2.40742 12.4114L1.39516 8.21093L3.26851 3.75013Z" fill="url(#paint5_radial_102_33383)"/>
<path d="M24.7266 6.41025L23.4792 9.4796L17.619 4.91412L9.44864 4.59636L4.30235 6.41025L2.25253 11.7686L1.39516 8.21093L3.26851 3.75013L9.82513 1.4993L19.3608 1.87298L24.7266 6.41025Z" fill="#FFA31B"/>
<path d="M6.47825 11.2601L6.91067 9.02649L7.12036 9.57238L6.47825 11.2601Z" fill="#BC7114"/>
<path d="M17.6194 4.91425L14.3531 8.03897L8.80367 7.63811L6.91035 9.02665L6.47793 11.2603L2.40777 12.4115L2.25288 11.7688L4.30269 6.41038L9.44899 4.5965L17.6194 4.91425Z" fill="#E6AE02"/>
<path d="M23.4795 9.47973L24.0165 12.9219L24.7268 11.6989V6.41037L23.4795 9.47973Z" fill="#BD3918"/>
<path d="M16.8698 10.1549L16.4101 11.2602L17.1725 12.6191L17.551 11.725L16.8698 10.1549Z" fill="#991B1D"/>
<path d="M21.923 10.8244L21.4355 9.50003L16.9807 5.52482L9.44856 4.5965L17.619 4.91425L23.4792 9.47973L23.7058 10.9325L21.923 10.8244Z" fill="#FCD400"/>
<path d="M21.9234 10.8244L20.378 12.4062L17.5516 11.7251L17.1731 12.6192L20.2353 13.1549L24.0166 12.9219L23.7062 10.9325L21.9234 10.8244Z" fill="#B41E07"/>
<path d="M17.6194 4.9143L9.44899 4.59654L9.74535 1.84991L10.2897 3.89971L17.6194 4.9143Z" fill="#FFEF8F"/>
<path d="M34.9797 15.7763L36.7315 12.8571L36.0159 10.9523L37.4471 11.4285V14.0476L37.8772 16.1904L34.9797 15.7763Z" fill="#883913"/>
<path d="M27.251 4.20036L34.1386 2.9317L42.6661 3.30001L48.7338 5.34625L50.8042 8.82482L50.3532 11.3883L49.3731 13.8096L44.1256 13.3334L41.3936 10.8243L37.9002 9.84794H33.5646L30.9309 10.912L29.5879 10.9324L28.3169 13.4493L24.9961 13.5149V7.14694L27.251 4.20036Z" fill="url(#paint6_radial_102_33383)"/>
<path d="M48.8961 13.8096L50.0674 11.802L50.2966 7.97182L48.7339 5.34625L48.3598 8.76345L47.6991 10.5269L48.8961 13.8096Z" fill="#7D1E10"/>
<path d="M27.2509 4.20044V7.34457L28.0232 9.47911L24.996 12.1066V7.58345L27.2509 4.20044Z" fill="#ECC108"/>
<path d="M48.7339 5.34622L42.6662 3.29998L34.1387 2.93167L27.2511 4.20033V7.34446L28.0234 9.479L30.1221 8.1534L40.3989 7.41054L47.699 10.5269L48.3598 8.76342L48.7339 5.34622Z" fill="#FFA31B"/>
<path d="M48.7339 5.3463L42.6662 3.30005L40.3989 7.41061L47.699 10.527L48.3598 8.7635L48.7339 5.3463Z" fill="#FF881B"/>
<path d="M48.7339 5.34625L50.2966 7.97182L49.5153 10.5269L48.2704 12.1065L47.6991 10.5269L48.3598 8.76345L48.7339 5.34625Z" fill="#B66516"/>
<path d="M47.699 10.5268L40.3988 7.41044L30.1221 8.1533L40.7746 6.72919L47.699 10.5268Z" fill="#FFE885"/>
<path d="M30.1226 8.1535L28.3634 6.72939L27.2515 4.20044V7.45417L28.0238 9.47911L30.1226 8.1535Z" fill="#FFE885"/>
<path d="M280.5 9.52381V4.7619L273.106 0L267.858 1.19048L272.867 0.714286L279.784 5.2381V9.28571L273.106 19.5238L274.775 18.3333L280.5 9.52381Z" fill="#681411"/>
<path d="M107.095 1.66667L105.664 3.33333L104.233 5.95238L103.797 7.2578L103.994 12.381L104.948 13.5714L107.334 13.8095L108.526 12.619L108.765 11.6667L109.003 10.2381L110.673 9.04762H118.544L121.645 10.4762L122.122 12.8572L123.315 14.0477H127.369L129.278 12.8572V7.38095L126.892 4.04762L118.544 1.66667L126.654 3.09524C127.492 3.83909 129.755 5.95238 129.755 5.95238L130.709 4.52381L135.718 0.47619L139.295 1.19048H136.433L131.663 4.52381L129.755 8.57143L129.993 12.8571L131.663 14.0477H134.287L136.195 13.3333L134.287 15L122.122 14.5238L121.168 13.5715V10.8503L118.067 9.52381L116.397 9.7619L116.159 10.7143V14.0476L116.397 18.0952L118.544 20.7143L120.929 20.9524L118.306 21.4286L116.874 19.7619L115.205 18.3333L113.774 19.0476L111.388 20.7143L101.609 19.7619H111.388L114.251 17.8571L114.966 15.4762L115.647 12.3075L115.443 11.4286L114.489 10.2381L110.434 10L109.48 10.9524L109.242 12.619L108.833 13.0952L107.811 14.5238H100.894L96.3616 13.8095L95.169 12.1429L94.692 11.1905L93.2609 10.4762H91.5912L89.9216 12.1429L89.683 13.3333L91.8297 18.3333L99.2239 19.7619L91.3527 19.0476L89.683 16.9048L86.3438 21.1905L77.5185 22.619L71.0784 21.1905L77.5185 21.6667L85.1512 20.4762L88.4904 15.7143L88.9675 12.619L89.206 10.9524L88.729 10L87.0593 9.28571L84.1971 10.2381L83.243 13.3333L81.3348 15L69.4088 14.5238L68.4547 13.8095L68.2378 10.9957L68.2161 10.9524L65.3539 9.28571L64.1613 9.52381L63.2072 10.4762V15.4762L63.6842 18.3333L65.8309 20.7143L69.6473 20.9524L65.3539 21.6667L63.2072 19.5238L62.2531 18.0952L58.6753 20.2381L47.4648 19.7619L58.4368 19.5238L61.0605 17.619L62.0146 15.4762H62.0522L62.7301 11.1905L61.5376 10L59.6294 9.52381H57.7212L56.5286 10.9524L56.0516 13.3333L54.859 14.5238L51.2811 14.2857H48.6574L43.4099 13.8095L41.7403 11.6667L39.1382 10.5844L38.401 10.9524L37.4469 12.1429V14.0476L37.924 16.1905L38.878 18.3333L46.5107 19.7619L37.924 19.0476L36.7313 15.9524L36.4928 15.2381L33.8691 18.8095L32.1994 20.7143L20.989 19.7619L32.438 19.2857L35.7773 14.2857L36.4928 13.0952L36.0158 11.1905L34.5847 10.7143L29.8142 11.1905L28.6216 13.8095L20.2734 13.5714L17.1726 13.0952L16.6956 12.8571L17.1726 10.4762L14.3104 8.80952L11.6683 8.58974L10.7325 9.52381L10.017 12.1429L12.4022 17.619C14.2902 18.1575 17.8481 19.1527 19.1183 19.4426C19.4675 19.4934 19.6414 19.5238 19.5578 19.5238C19.4998 19.5238 19.3458 19.4945 19.1183 19.4426C17.8715 19.2611 14.3897 18.8194 12.4022 18.5714L9.0629 13.3333L10.7325 9.52381L11.2096 7.85714L14.5489 8.09524L17.8882 10.2381L17.427 12.3095L17.6497 12.1429L20.2734 13.0952L23.6127 12.8571L24.5668 11.9048L24.8053 6.42857L19.3193 1.90476L12.904 1.59238L9.77844 1.66667L3.33838 3.80952L1.43021 8.09524L2.86133 3.33333L9.53992 1.19048L19.7964 1.42857H20.0349L24.5668 5L26.2364 3.80952L33.8691 2.85714L27.1905 4.28571L25.0438 7.61905V12.1429L25.5208 12.8571H27.9061L29.5757 10.9524L33.392 10L37.6854 9.7619L38.6395 10L38.6793 10.0265L41.2632 10.7143L45.7952 12.8571L48.8959 13.5714L50.0885 11.6667L50.3014 8.05494L48.6574 5.47619L42.6944 3.33333L36.2543 3.09524L42.4559 2.85714L48.8959 5L50.3271 5.95238L51.9967 2.85714L53.9049 1.19048L57.4827 1.66667L54.1434 1.90476L52.4737 3.57143L51.0426 6.19048L50.8041 8.80952L51.0426 12.381L52.2352 13.5714H54.3819L55.336 12.619L55.813 10L57.4827 8.80952L65.3539 8.57143L68.9317 10.7143V12.381L70.1243 14.0476L74.4177 13.8095L76.3259 13.0952L76.351 12.619H76.3259V7.38095L73.7021 4.04762L65.3539 1.66667L73.9406 3.09524L76.8029 7.14286L78.234 4.28571L83.4815 0.952381L78.7111 4.52381L76.8029 8.80952L77.0414 12.619H77.0038L77.0414 13.3333L78.7111 14.2857H81.3348L82.7659 13.0952L83.4815 10L86.5823 8.57143L91.1142 8.80952L95.8846 10.4762L96.6002 12.8571L96.975 13.2313L98.5083 13.5714L100.655 13.0952L101.371 12.381L102.563 10.2381L102.802 8.33333V6.42857L98.7469 2.61905L86.1052 1.19048L98.7469 1.90476L103.279 5.95238L104.948 2.85714L107.095 1.66667Z" fill="#681411"/>
<path d="M220.87 15.7143L220.215 17.8935L217.53 20.2381H206.558L217.53 21.1905L221.291 18.3753L221.585 18.5714L224.686 21.1905L222.539 18.5714L222.062 16.4286L222.492 10.2104L224.193 9.47898L227.285 11.2363L227.463 14.2269L228.339 14.8842L235.565 15.158L240.412 15.3304L241.989 13.9094L240.062 14.8505L237.606 14.766L235.787 13.6248V9.07038L237.529 4.98469L242.337 1.4286L237.089 4.52384L235.787 6.91346H235.423L232.796 3.57146L224.686 2.14289L232.319 4.28574L235.262 7.7608L235.418 10.5269L235.276 13.4554L233.473 14.4258L229.08 14.6025L228.384 13.8897L227.896 12.549L227.678 11.116L227.319 10.4081L224.321 8.97442L219.824 8.7634L216.408 9.27746L214.969 10.7067L214.642 12.0425L214.631 13.1218L213.37 14.1627L210.969 14.1388L209.77 12.8763L208.829 8.8248L211.525 3.58596L213.042 2.15358L211.09 3.30005L208.829 6.19051L204.889 2.25802L197.972 1.66667L200.834 2.25802L204.889 3.08048L208.322 7.97187L208.092 11.802L206.841 13.613L203.136 12.6415L201.389 11.76L199.36 10.437L195.925 8.59559H192.563L189.862 9.48825L187.238 13.4493H184.137L183.021 12.1064V7.58341L185.276 4.2004L189.414 1.08678H191.323L188.908 0.47619L184.676 3.7664L183.422 5.23813L178.061 2.61908L171.496 1.6667L177.459 3.33336L180.56 5.00003L182.041 7.38098L182.468 11.2777L182.041 12.9218L178.26 13.1547L176.266 12.549L175.576 11.725L175.879 10.0335L171.257 8.33336L163.386 9.05795L161.716 10.4762L161.478 12.381L160.285 13.5714L157.662 13.3334L157.185 11.6667L156.756 6.53211L158.139 4.04762L159.808 1.6667L158.377 3.09524L156.23 5.71429L151.699 2.61905L147.167 2.14286L151.699 3.09524L155.753 6.42857V11.4286L153.607 13.3334L151.699 13.5715L149.552 12.8572L148.836 10.4762L147.644 10.0794V10L144.304 9.04762L139.772 8.57143L136.433 10L136.195 12.619L137.149 10.4762L140.011 9.28571L141.681 9.7619L142.158 10.9524L141.919 13.8095L141.681 15.9524L138.341 20.7143L130.47 21.6667L121.406 20.9524L130.709 22.381L139.057 21.4286L142.635 16.4286L143.112 19.0476L152.891 19.7619L144.781 18.3333L143.589 15.4762L142.635 12.8571L142.873 11.9048L144.304 10.4762L147.13 10.6777L147.405 10.9524L148.121 12.1429L149.075 13.3334L149.552 13.5715L151.699 14.0477L160.524 14.2857L162.193 12.6191V10.7143L163.386 9.52384H167.441L168.634 10.9524L168.748 11.9841L167.918 15.7143L166.964 17.8571L164.579 19.7619H153.13L164.579 20.4762L167.441 18.3333L168.395 16.6667L168.872 18.5714L171.257 20.9524H175.551L171.734 20.7143L169.588 18.3333L169.111 15.7143V12.381L169.086 12.2847L169.826 9.48825L171.084 9.05795L174.895 10.4762V12.549L175.312 14.2857L178.413 14.5238L187.238 14.8405L188.908 13.4493L189.862 10.912L192.563 10.6094L194.089 10.9324L194.632 12.6415V15.9524L191.293 20.4762L183.66 21.6667L177.22 21.1905L183.899 22.381L191.532 21.6667L194.155 18.3333L195.586 15.9524L197.256 19.2857L204.412 20L197.733 18.8095L196.302 15.2381L195.877 14.3888L195.608 13.6539L195.925 12.4061L197.298 10.912L199.419 10.8243L200.354 11.2777L203.141 13.6248L207.415 14.5952L210.042 14.8405L213.564 14.8405L215.087 13.1071V11.9429L215.32 10.9119L216.689 9.8364L220.485 10.0195L221.647 11.3882L221.829 12.1593L220.87 15.7143Z" fill="#681411"/>
<path d="M262.926 8.58082L267.858 1.4286L262.732 6.24845L261.301 5.1235L257.574 2.54816H250.194L257.574 3.33523L261.618 6.98161L261.657 10.2381L262.926 8.58082Z" fill="#681411"/>
<path d="M254.756 10.8525L255.382 13.4084L254.312 11.4321L250.597 10.1345L248.876 11.2236L248.364 14.9547L248.977 17.7724L249.015 17.8571L251.639 20.9524L256.409 22.1429L250.923 21.4286L248.777 18.8095L248.061 17.1429L245.199 21.9048L236.612 22.8571L231.365 21.6667L236.612 21.9048L244.245 20.9524L246.681 17.8257L246.562 17.95L247.645 16.4108L247.908 13.8897L248.156 11.3884L247.636 10.1345L245.959 9.60307L243.049 10.7068L242.238 12.8764L242.377 11.4541L242.558 10.2991L245.789 9.07044L250.155 9.37442L254.756 10.8525Z" fill="#681411"/>
<path d="M270.244 20C270.323 20.3968 270.387 21.2381 270.005 21.4286C269.623 21.619 264.758 23.8889 262.372 25L256.648 22.1429L262.372 23.8095L269.528 20.4762L270.244 20Z" fill="#681411"/>
<path d="M258.556 2.85715C261.021 3.01588 265.998 3.33334 266.189 3.33334L265.712 4.04763L258.556 2.85715Z" fill="#681411"/>
<path d="M234.227 3.57143C235.976 3.49207 239.522 3.33334 239.713 3.33334L238.759 3.80953L234.227 3.57143Z" fill="#681411"/>
<path d="M203.935 1.90477L211.806 2.85715L211.09 3.33334L203.935 1.90477Z" fill="#681411"/>
<path d="M180.083 3.09524C182.07 2.93651 186.189 2.61905 186.761 2.61905L186.046 3.33334L180.083 3.09524Z" fill="#681411"/>
<path d="M150.744 1.42858L159.093 2.61905L158.377 3.09524L150.744 1.42858Z" fill="#681411"/>
<path d="M127.608 3.33334C127.226 3.33334 131.265 2.85715 133.332 2.61905L132.617 3.33334H127.608Z" fill="#681411"/>
<path d="M98.5083 1.66667L105.902 2.38096L105.187 3.09524L98.5083 1.66667Z" fill="#681411"/>
<path d="M74.8947 3.33334L80.8578 2.61905L79.9037 3.33334H74.8947Z" fill="#681411"/>
<path d="M44.364 1.42858L52.7123 2.38096L52.2352 2.85715L44.364 1.42858Z" fill="#681411"/>
<path d="M30.0528 0.476196L36.2543 3.09524H34.3462L30.0528 0.952387H17.1726C16.9818 0.952387 25.6799 0.634926 30.0528 0.476196Z" fill="#681411"/>
<path d="M8.8244 7.61905L11.4481 7.85715V8.33334L8.8244 8.09524L7.10706 9.57144L6.86853 9.00001L8.8244 7.61905Z" fill="#681411"/>
<defs>
<linearGradient id="paint0_linear_102_33383" x1="102.909" y1="9.44318" x2="102.909" y2="18.1481" gradientUnits="userSpaceOnUse">
<stop offset="0.348958" stop-color="#EA7500"/>
<stop offset="1" stop-color="#F4E02B"/>
</linearGradient>
<linearGradient id="paint1_linear_102_33383" x1="49.9575" y1="9.44318" x2="49.9575" y2="18.1481" gradientUnits="userSpaceOnUse">
<stop offset="0.348958" stop-color="#EA7500"/>
<stop offset="1" stop-color="#F4E02B"/>
</linearGradient>
<radialGradient id="paint2_radial_102_33383" cx="0" cy="0" r="1" gradientUnits="userSpaceOnUse" gradientTransform="translate(62.6516 2.46369) rotate(87.048) scale(12.3173 25.3648)">
<stop offset="0.302796" stop-color="#F29100"/>
<stop offset="1" stop-color="#EA5501"/>
</radialGradient>
<radialGradient id="paint3_radial_102_33383" cx="0" cy="0" r="1" gradientUnits="userSpaceOnUse" gradientTransform="translate(90 8.02098) rotate(91.9218) scale(4.68361 8.48285)">
<stop stop-color="#CE7C00"/>
<stop offset="1" stop-color="#EA5501"/>
</radialGradient>
<linearGradient id="paint4_linear_102_33383" x1="22.1412" y1="8.59564" x2="22.1412" y2="17.1223" gradientUnits="userSpaceOnUse">
<stop offset="0.348958" stop-color="#EA7500"/>
<stop offset="1" stop-color="#F4E02B"/>
</linearGradient>
<radialGradient id="paint5_radial_102_33383" cx="0" cy="0" r="1" gradientUnits="userSpaceOnUse" gradientTransform="translate(13.0609 7.55614) rotate(90) scale(6.05684 11.6657)">
<stop offset="0.546875" stop-color="#F29100"/>
<stop offset="1" stop-color="#EA5501"/>
</radialGradient>
<radialGradient id="paint6_radial_102_33383" cx="0" cy="0" r="1" gradientUnits="userSpaceOnUse" gradientTransform="translate(37.9002 8.76345) rotate(90) scale(5.83175 12.904)">
<stop offset="0.354167" stop-color="#F29100"/>
<stop offset="1" stop-color="#EA5501"/>
</radialGradient>
</defs>
</svg>
