<svg width="16" height="17" viewBox="0 0 16 17" fill="none" xmlns="http://www.w3.org/2000/svg">
<path d="M13.3719 3.12813C12.3097 2.06677 10.9566 1.34418 9.48373 1.05169C8.01086 0.75921 6.48434 0.909969 5.09714 1.48491C3.70994 2.05985 2.52434 3.03317 1.69022 4.28181C0.856091 5.53046 0.410889 6.99838 0.410889 8.5C0.410889 10.0016 0.856091 11.4695 1.69022 12.7182C2.52434 13.9668 3.70994 14.9402 5.09714 15.5151C6.48434 16.09 8.01086 16.2408 9.48373 15.9483C10.9566 15.6558 12.3097 14.9332 13.3719 13.8719C14.7947 12.4461 15.5937 10.5142 15.5937 8.5C15.5937 6.48581 14.7947 4.55388 13.3719 3.12813ZM12.1766 12.678C11.3504 13.5035 10.298 14.0656 9.15247 14.2931C8.0069 14.5206 6.81958 14.4034 5.74062 13.9562C4.66166 13.5091 3.7395 12.752 3.09072 11.7809C2.44193 10.8097 2.09565 9.66795 2.09565 8.5C2.09565 7.33205 2.44193 6.19032 3.09072 5.21914C3.7395 4.24796 4.66166 3.49094 5.74062 3.04378C6.81958 2.59661 8.0069 2.47938 9.15247 2.70691C10.298 2.93443 11.3504 3.49649 12.1766 4.32203C13.2834 5.43071 13.9051 6.93317 13.9054 8.49971C13.9056 10.0663 13.2844 11.5689 12.178 12.678H12.1766ZM8.03312 7.90305C8.11178 7.98144 8.17419 8.07458 8.21678 8.17714C8.25936 8.2797 8.28128 8.38966 8.28128 8.50071C8.28128 8.61176 8.25936 8.72171 8.21678 8.82427C8.17419 8.92683 8.11178 9.01997 8.03312 9.09836L5.78312 11.3484C5.62461 11.5069 5.40963 11.5959 5.18546 11.5959C4.9613 11.5959 4.74631 11.5069 4.58781 11.3484C4.4293 11.1899 4.34025 10.9749 4.34025 10.7507C4.34025 10.5265 4.4293 10.3116 4.58781 10.153L6.24226 8.5L4.58921 6.84555C4.4307 6.68704 4.34166 6.47206 4.34166 6.24789C4.34166 6.1369 4.36352 6.02699 4.40599 5.92444C4.44847 5.8219 4.51073 5.72872 4.58921 5.65024C4.6677 5.57175 4.76087 5.50949 4.86342 5.46702C4.96597 5.42454 5.07587 5.40268 5.18687 5.40268C5.41103 5.40268 5.62602 5.49173 5.78452 5.65024L8.03312 7.90305ZM11.9706 9.09836L9.72062 11.3484C9.56211 11.5069 9.34713 11.5959 9.12296 11.5959C8.8988 11.5959 8.68381 11.5069 8.52531 11.3484C8.3668 11.1899 8.27775 10.9749 8.27775 10.7507C8.27775 10.5265 8.3668 10.3116 8.52531 10.153L10.1798 8.5L8.52601 6.84555C8.3675 6.68704 8.27845 6.47206 8.27845 6.24789C8.27845 6.1369 8.30031 6.02699 8.34279 5.92444C8.38527 5.8219 8.44752 5.72872 8.52601 5.65024C8.60449 5.57175 8.69767 5.50949 8.80022 5.46702C8.90276 5.42454 9.01267 5.40268 9.12367 5.40268C9.34783 5.40268 9.56281 5.49173 9.72132 5.65024L11.9713 7.90024C12.0503 7.97851 12.1131 8.07163 12.156 8.17425C12.1989 8.27686 12.2211 8.38694 12.2212 8.49816C12.2214 8.60938 12.1997 8.71953 12.1571 8.8223C12.1146 8.92506 12.0522 9.01841 11.9734 9.09696L11.9706 9.09836Z" fill="#19C5C7"/>
</svg>
