<svg width="37" height="36" viewBox="0 0 37 36" preserveAspectRatio="none" fill="none" xmlns="http://www.w3.org/2000/svg">
<g filter="url(#filter0_d_102_33851)">
<path fill-rule="evenodd" clip-rule="evenodd" d="M4.59082 8L5.76729 21.8823L16.8261 28L29.2967 22.1176L32.1202 11.0588L24.1202 0.941176L14.9438 0L4.59082 8Z" fill="#F33600"/>
<path fill-rule="evenodd" clip-rule="evenodd" d="M16.5908 26.3529L16.8261 28L5.76729 22.1177L4.59082 8.00001L7.64964 14.1177L16.5908 26.3529Z" fill="#C62A10"/>
<path fill-rule="evenodd" clip-rule="evenodd" d="M4.59082 8L6.47317 19.2941L16.5908 26.3529L29.0614 20.7059L32.1202 11.0588L24.1202 0.941176L14.9438 0L4.59082 8Z" fill="#FFE400"/>
<path fill-rule="evenodd" clip-rule="evenodd" d="M29.7674 11.7647C29.1636 13.6365 26.9438 18.1176 26.9438 18.1176L9.06149 17.4118H8.8262L7.88502 8.47059L10.4733 6.38612L9.06149 5.17647L6.94385 6.35294L10.9438 3.05882L10.238 4.23529L11.534 5.53129L15.8163 2.08094C16.1556 1.80824 16.5177 1.74329 17.2968 1.88235C18.0758 2.02141 22.5264 3.18282 22.9438 3.29412C23.3229 3.42659 23.6517 3.67318 23.885 4C24.3194 4.49859 25.049 5.34306 25.8493 6.27106L27.4045 5.0909L28.2875 6.21141L26.5116 7.03976C28.1203 8.90729 29.7674 10.8235 29.7674 10.8235C29.8554 11.1311 29.8554 11.4572 29.7674 11.7647ZM24.8262 3.05882C24.2867 2.68518 22.4733 0.941177 22.4733 0.941177C23.0813 1.46682 25.3785 2.53235 25.3785 2.53235L25.7803 3.04064C25.5067 3.26489 25.0998 3.28311 24.8262 3.05882Z" fill="#F3FF00"/>
<path fill-rule="evenodd" clip-rule="evenodd" d="M8.35547 8.70588L16.1202 2.35294L16.8261 2.11765L23.179 3.7647L28.7444 10.4C29.1475 10.8287 29.2706 11.4499 29.0613 12L26.9437 18.3529L16.5908 22.8235L9.06135 17.6471L8.35547 8.70588Z" fill="#CA6A10"/>
<path fill-rule="evenodd" clip-rule="evenodd" d="M28.3983 12.4706C28.0089 13.8306 26.7835 17.0845 26.7835 17.0845C26.7835 17.0845 26.5482 17.8927 25.1686 18.4685C23.7891 19.0442 17.3254 21.9294 17.3254 21.9294C17.3254 21.9294 16.8616 22.2167 15.9411 21.6986C15.0207 21.1805 10.4047 17.7765 10.4047 17.7765C10.4047 17.7765 9.60771 17.2221 9.48183 15.9311C9.35595 14.64 9.02042 9.93317 9.02042 9.93317C8.92301 9.42291 9.09774 8.8987 9.48183 8.54894L16.1719 3.01176C16.1719 3.01176 16.5771 2.84352 17.5559 3.01176C18.5348 3.18 21.939 3.93505 21.939 3.93505C22.4573 4.14717 22.9279 4.46096 23.323 4.85788C23.9228 5.48588 28.1672 10.6252 28.1672 10.6252C28.1672 10.6252 28.7879 11.1108 28.3983 12.4706Z" fill="#FF9D00"/>
<path fill-rule="evenodd" clip-rule="evenodd" d="M28.1672 11.0958C28.1672 11.0958 23.9228 5.95648 23.3232 5.32848C22.9281 4.93156 22.4575 4.61777 21.9392 4.40566C21.9392 4.40566 18.5348 3.6513 17.5555 3.48236C16.5762 3.31342 16.1715 3.48236 16.1715 3.48236L9.48183 9.01954C9.2728 9.22535 9.1212 9.48224 9.04207 9.76471C9.02842 9.57389 9.02042 9.46283 9.02042 9.46283C8.92301 8.95257 9.09774 8.42836 9.48183 8.0786L16.1719 2.54119C16.1719 2.54119 16.5771 2.37295 17.5559 2.54119C18.5348 2.70942 21.939 3.46448 21.939 3.46448C22.4573 3.6766 22.9279 3.99039 23.323 4.3873C23.9228 5.0153 28.1672 10.1546 28.1672 10.1546C28.1672 10.1546 28.6818 10.5619 28.4752 11.6675C28.434 11.4498 28.3264 11.25 28.1672 11.0958Z" fill="#C62A10"/>
<path opacity="0.6" fill-rule="evenodd" clip-rule="evenodd" d="M16.1203 3.7647L10.2379 8.94117C10.2379 8.94117 9.39936 9.35388 9.53206 10.5882C9.66477 11.8226 10.2379 16.2353 10.2379 16.2353C10.2379 16.2353 10.5012 17.1929 11.1791 17.6471C11.857 18.1012 16.1203 21.1765 16.1203 21.1765C16.4243 21.2871 16.7575 21.2871 17.0615 21.1765C17.6055 20.9958 25.0615 17.8823 25.0615 17.8823C25.0615 17.8823 25.5935 17.6125 26.0026 16.4706C26.4118 15.3287 27.4144 12 27.4144 12C27.4815 11.4104 27.3123 10.8182 26.9438 10.3529C26.321 9.5487 22.4732 4.94118 22.4732 4.94118C22.103 4.73423 21.7076 4.57607 21.2968 4.47059C20.5817 4.28023 17.2968 3.52941 17.2968 3.52941C17.2968 3.52941 16.365 3.39788 16.1203 3.7647Z" fill="#FFE400"/>
<path fill-rule="evenodd" clip-rule="evenodd" d="M9.7674 12.9412C9.91613 12.0271 10.2354 11.1491 10.7086 10.353C11.2366 9.53695 12.3556 8.94119 12.3556 8.94119C12.3556 8.94119 15.9695 6.87695 18.238 6.82354C20.5065 6.77013 23.4145 8.70589 23.4145 8.70589C24.3158 9.36326 25.1799 10.0702 26.0027 10.8235C26.238 11.0588 26.4733 11.7647 26.4733 11.7647L26.7086 14.5882L27.4144 12.4706C27.4144 12.4706 27.8552 11.2471 27.1792 10.353C26.5032 9.45884 22.9439 5.41178 22.9439 5.41178C22.9439 5.41178 22.5227 4.80519 21.2968 4.4706C20.0709 4.13601 17.5321 3.52942 17.5321 3.52942C17.5321 3.52942 16.3441 3.32331 15.6497 4.00001C14.9554 4.67672 10.0027 8.94119 10.0027 8.94119C10.0027 8.94119 9.34904 9.94166 9.5321 10.8235C9.65704 11.5235 9.73563 12.2309 9.7674 12.9412Z" fill="#FF9C00"/>
<path fill-rule="evenodd" clip-rule="evenodd" d="M22.9437 22.3529L25.2966 19.7647L25.7672 20.9412L22.9437 22.3529ZM16.1201 1.64706L14.4731 2.82353L13.2966 1.88235L15.179 0.470589L22.4731 1.17647L24.5907 2.82353L25.2966 5.64706L23.4143 3.29412L16.1201 1.64706ZM14.9437 22.1176L16.5907 23.2941L22.0025 20.9412L24.826 19.7647L22.9437 21.6471L18.7084 23.5294L16.5907 24.4706L11.6496 21.4118L13.0613 20.9412L14.2378 22.1176H14.9437ZM8.51685 19.4621L10.0065 19.236L11.5185 20.3816L10.3505 20.5228L8.51685 19.4621ZM8.12015 15.0588L6.70838 14.8235L5.75732 9.49694L6.23779 7.52941L8.12015 5.88235L10.4731 6.35294L7.64956 8.70588L8.12015 15.0588Z" fill="#FFCC00"/>
<path fill-rule="evenodd" clip-rule="evenodd" d="M12.1201 18.3529C12.1222 18.3416 14.2011 19.1887 14.3293 18.3529C14.454 17.54 14.7084 15.0588 14.7084 15.0588L14.0025 15.2941C14.0025 15.2941 12.9392 12.3125 13.5319 9.88235C13.3274 9.78169 13.162 9.61626 13.0613 9.41176L13.2966 4.94118L16.3554 7.05882L17.7672 5.64706L19.4142 7.29412L22.2378 5.41177L22.0025 9.41176H21.2966L22.0025 12.9412L21.2966 13.4118L21.7672 15.0588L21.5319 15.2941L22.2378 16.9412L21.2966 18.1176C21.2966 18.1176 21.0719 18.5802 21.7672 18.5882C22.814 18.4842 24.1201 18.3529 24.1201 18.3529L20.826 19.5294V18.5882L20.1201 19.0588L17.5319 17.4118L16.3554 14.5882L15.4142 15.0588C15.4142 15.0588 15.1514 17.3682 14.9436 18.8235C14.8248 19.6553 14.4731 20 14.4731 20C13.6373 19.5284 12.8493 18.9768 12.1201 18.3529Z" fill="#FF6809"/>
<path fill-rule="evenodd" clip-rule="evenodd" d="M26.7085 15.5294C26.5414 16.0278 26.3306 16.8565 26.0026 17.1765C25.6746 17.4965 22.2379 19.0588 22.2379 19.0588C22.2379 19.0588 24.4812 17.3024 25.532 16.2353C26.0238 15.6315 27.4054 13.2054 27.885 12C27.5156 13.3071 26.8756 15.0311 26.7085 15.5294ZM10.2379 16.4706C10.1242 16.0066 10.0456 15.5346 10.0026 15.0588C9.93957 14.2398 9.76733 12.7059 9.76733 12.7059C9.76733 12.7059 10.5426 15.0861 10.9438 16C11.345 16.9139 12.5909 18.5882 12.5909 18.5882C12.5909 18.5882 12.2191 18.2791 11.6497 17.8824C11.134 17.4591 10.6611 16.9863 10.2379 16.4706Z" fill="#F3FF00"/>
<path fill-rule="evenodd" clip-rule="evenodd" d="M20.8261 9.17647C19.8527 9.43694 15.3835 9.59647 14.7085 9.64706C14.269 9.65447 13.8451 9.48487 13.532 9.17647L13.7673 5.88235L16.3555 7.76471L17.7673 6.35294L19.4143 8L21.7673 6.35294L21.532 8.94118C21.3079 9.04991 21.0706 9.12899 20.8261 9.17647ZM21.0614 15.0588C20.7334 15.2647 19.6496 16.2353 19.6496 16.2353C19.6496 16.2353 19.3437 15.7859 19.6496 15.0588C19.6496 15.0588 20.3447 13.9101 20.8261 13.8824C20.8993 13.842 20.9881 13.842 21.0614 13.8824L21.2967 14.5882C21.3411 14.7812 21.2424 14.9785 21.0614 15.0588ZM19.8849 13.8824L19.4143 14.8235C19.4143 14.8235 19.0873 14.6247 18.4732 13.6471C17.859 12.6694 17.7673 10.1176 17.7673 10.1176L20.5908 9.88235L21.2967 12.7059L20.5908 12.9412L20.8261 13.4118L19.8849 13.8824ZM15.179 10.1176H17.2967C17.3809 11.6073 17.9875 14.2861 18.0014 14.3473C17.9941 14.3106 17.9965 14.1294 19.179 15.2941C19.0552 15.8361 19.0552 16.3992 19.179 16.9412L21.0614 15.5294L21.7673 16.9412L20.3555 18.1176L19.8849 18.3529L18.2379 17.1765L17.2967 15.0588L17.0614 11.5294L16.5908 11.0588C16.5908 11.0588 15.7609 10.7584 15.6496 12C15.5383 13.2416 16.5908 13.4118 16.5908 13.4118V14.1176C16.5908 14.12 15.7623 14.3948 14.9437 14.5882C14.2433 14.7529 14.0026 13.4118 14.0026 13.4118C14.0026 13.4118 13.9699 12.6631 14.0026 11.2941C14.0353 9.92518 15.179 10.1176 15.179 10.1176ZM16.1202 12.2353C16.0322 11.5706 16.3555 11.5294 16.3555 11.5294C16.5689 11.8231 16.7955 12.9534 16.5908 12.9412C16.3861 12.9289 16.2082 12.9 16.1202 12.2353ZM15.4143 15.0588L16.3555 14.5882L17.7673 17.4118L20.1202 19.0588L20.8261 18.3529V19.5294C20.8261 19.5294 18.3774 20.7529 17.532 20.9412C16.6866 21.1294 15.6496 20.7059 15.6496 20.7059L14.4732 20L14.9437 19.0588L15.4143 15.0588Z" fill="#FFD83B"/>
<path fill-rule="evenodd" clip-rule="evenodd" d="M21.2967 7.05883L19.4143 8L21.7673 6.35294L21.532 8.94118L21.2967 7.05883ZM16.3555 7.76471L17.7673 6.35294L19.4143 8L17.7673 6.82353L16.3555 7.76471ZM13.532 9.17647L13.7673 5.88235L16.3555 7.76471L14.2379 6.82353L13.532 9.17647ZM14.7085 10.1176H17.2967C16.9979 10.124 14.7828 10.6226 14.7085 11.0588C14.6341 11.4951 14.4153 13.0353 14.7085 13.6471C14.8959 14.0154 15.2435 14.2761 15.6496 14.3529C15.6496 14.3529 15.5819 14.4419 14.9437 14.5882C14.3056 14.7346 14.0026 13.4118 14.0026 13.4118C14.0026 13.4118 13.952 11.7252 14.0026 11.0588C14.0582 10.6437 14.3255 10.2873 14.7085 10.1176ZM16.5908 20.2353L20.8261 19.5294L17.2967 21.1765C17.2967 21.1765 16.2927 21.3678 15.6496 20.9412C15.233 20.6593 14.8396 20.3446 14.4732 20L14.7085 19.7647L16.5908 20.2353ZM19.8849 18.3529L18.2379 17.1765C18.2379 17.1765 17.4995 15.4807 17.2967 15.0588C17.0939 14.6369 17.1241 12.4706 17.1241 12.4706L17.7673 15.0588L18.4732 16.7059L19.8849 17.6471L21.7673 16.9412L19.8849 18.3529ZM21.0614 15.0588C20.9045 15.1896 19.6496 16.2353 19.6496 16.2353C19.4603 16.0049 19.4769 15.2979 19.7332 14.928C20.0101 14.5282 20.2937 14.1751 20.5406 14C20.7477 13.8531 20.9437 13.8521 20.9437 13.8521C21.1163 13.8188 21.104 14.0904 21.2015 14.2971C21.5029 14.8868 21.2183 14.9281 21.0614 15.0588ZM21.2967 12.7059L20.1202 13.1765L20.8261 12.4706L20.5908 9.88235L21.2967 12.7059Z" fill="#F3FF00"/>
<path fill-rule="evenodd" clip-rule="evenodd" d="M9.21924 4.42273L11.2027 6.37647L11.4608 6.1653L9.53209 4.18182L9.21924 4.42273Z" fill="#FF6809"/>
<path fill-rule="evenodd" clip-rule="evenodd" d="M9.06006 4.55L11.1517 6.42728L11.2026 6.37648L9.23638 4.41027L9.06006 4.55ZM27.6431 5.40909L26.2379 6.58825L27.9912 5.83681L27.6431 5.40909Z" fill="#7E0E01"/>
<path fill-rule="evenodd" clip-rule="evenodd" d="M6.70847 6.35294L5.06141 8L6.94376 19.0588L16.5908 25.4118L28.5908 20.2353L31.4143 11.0588L29.532 7.76471L32.1202 11.0588L29.2967 20.7059L16.5908 26.3529L6.47317 19.2941L4.59082 8L6.70847 6.35294Z" fill="#F3FF00"/>
<path fill-rule="evenodd" clip-rule="evenodd" d="M11.4465 22.75L12.5909 21.1765L10.9497 22.4172L11.4465 22.75ZM12.5909 23.5622L14.0027 21.6471L13.0374 23.8636L12.5909 23.5622ZM10.9497 22.4172L11.1283 24.9773L11.6056 25.2318L11.4465 22.75L10.9497 22.4172ZM12.5909 23.5622V25.7474L13.0374 25.9795V23.8636L12.5909 23.5622Z" fill="#821101"/>
<path fill-rule="evenodd" clip-rule="evenodd" d="M22.7085 0.941186L23.6497 1.88236L25.3784 2.53236L24.1203 0.941186L22.6951 0.794998L22.7085 0.941186Z" fill="#FFA200"/>
<path fill-rule="evenodd" clip-rule="evenodd" d="M18.7085 11.0588C19.1731 10.9479 19.6448 10.8693 20.1202 10.8235C20.3074 10.8146 20.4857 10.9037 20.5908 11.0588L19.4143 11.7647C19.4143 11.7647 18.3913 11.352 18.4732 11.0588" fill="#E27B1B"/>
<path fill-rule="evenodd" clip-rule="evenodd" d="M25.2966 18.8235L25.7672 18.5882L26.4731 21.1765L25.2966 18.8235ZM22.4731 17.647L22.7084 16.7059L22.4731 15.7647L23.4142 16.7059L22.4731 17.647ZM22.7084 12.7059L22.2378 10.5882L23.4142 12.7059L22.7084 13.8823L22.4731 15.7647L22.0025 13.647L22.7084 12.7059ZM22.7084 6.58823L23.4142 8.23529L22.7084 9.88234V6.58823ZM18.7084 5.41176L19.6495 5.64705L21.7672 4.94117L19.6495 6.35293L18.7084 5.41176ZM14.4731 4.47058L16.3554 5.17646L17.7672 4.94117L16.3554 6.11764L14.4731 4.47058ZM12.1201 16.9412C12.1201 16.9412 12.9528 17.272 13.0613 17.1765C13.1698 17.0809 13.5319 15.7647 13.5319 15.7647C13.6962 16.5404 13.6962 17.3419 13.5319 18.1176C12.9851 18.047 12.1201 16.9412 12.1201 16.9412ZM12.1201 12.4706L12.826 10.8235C12.826 10.8235 12.8514 14.3151 13.2966 15.0588C12.3427 14.1551 12.1201 12.4706 12.1201 12.4706Z" fill="#CA6A10"/>
<path fill-rule="evenodd" clip-rule="evenodd" d="M26.4731 8.00001L27.6496 7.52942L26.9437 8.4706L26.4731 8.00001Z" fill="#CA6A10"/>
<path fill-rule="evenodd" clip-rule="evenodd" d="M24.5909 21.8823L28.5909 20L30.2379 15.2941L29.0615 20.2353L22.2379 23.2941L24.5909 21.8823ZM8.59089 15.2941L7.88501 8.70588L10.6926 6.1323L11.088 6.47583L8.3556 8.94117L8.59089 15.2941ZM11.1791 5.64706L11.4144 6.11764L16.3556 2.11764L20.3556 3.05882L16.1203 1.64706L11.1791 5.64706ZM17.2968 15.0588L18.2379 16.9412C18.2379 16.9412 19.6309 18.3426 19.885 18.3529C20.1391 18.3633 21.2968 17.1765 21.2968 17.1765L19.885 18.1176L18.2379 16.7059L17.2968 15.0588ZM21.0615 13.8823L21.2968 14.8235L19.6497 16.2353L21.0615 14.5882V13.8823ZM15.1791 9.41176L21.0615 8.70588L21.5321 8.23529V8.94117L15.1791 9.41176Z" fill="#FBFFB2"/>
<path fill-rule="evenodd" clip-rule="evenodd" d="M14.4731 20L16.1202 21.1765C16.1202 21.1765 17.5023 21.2372 18.0026 20.9412C18.5028 20.6452 20.8261 19.5294 20.8261 19.5294C20.8261 19.5294 17.5449 20.7969 16.5908 20.7059C15.6367 20.6148 14.4731 20 14.4731 20Z" fill="#FBFFB0"/>
</g>
<defs>
<filter id="filter0_d_102_33851" x="0.59082" y="0" width="35.5293" height="36" filterUnits="userSpaceOnUse" color-interpolation-filters="sRGB">
<feFlood flood-opacity="0" result="BackgroundImageFix"/>
<feColorMatrix in="SourceAlpha" type="matrix" values="0 0 0 0 0 0 0 0 0 0 0 0 0 0 0 0 0 0 127 0" result="hardAlpha"/>
<feOffset dy="4"/>
<feGaussianBlur stdDeviation="2"/>
<feComposite in2="hardAlpha" operator="out"/>
<feColorMatrix type="matrix" values="0 0 0 0 0 0 0 0 0 0 0 0 0 0 0 0 0 0 0.25 0"/>
<feBlend mode="normal" in2="BackgroundImageFix" result="effect1_dropShadow_102_33851"/>
<feBlend mode="normal" in="SourceGraphic" in2="effect1_dropShadow_102_33851" result="shape"/>
</filter>
</defs>
</svg>
