<svg width="116" height="36" viewBox="0 0 116 36" preserveAspectRatio="none"  fill="none" xmlns="http://www.w3.org/2000/svg">
<g filter="url(#filter0_d_102_33890)">
<path d="M6 14L12 22V0L9 9V12.5L6 14Z" fill="url(#paint0_linear_102_33890)"/>
<g clip-path="url(#clip0_102_33890)">
<rect width="92" height="22" transform="translate(12)" fill="#3D2D52"/>
<rect width="92" height="22" transform="translate(12)" fill="#5C5380"/>
<path d="M12 0H25L14.2694 2.30879L12 12V0Z" fill="url(#paint1_linear_102_33890)"/>
<path d="M104 0L93.0002 0L101.579 2.52468L104 12V0Z" fill="url(#paint2_linear_102_33890)"/>
</g>
<path d="M104 22V0L106.5 8L107 13.5L108.5 17L110 21L104 22Z" fill="url(#paint3_linear_102_33890)"/>
</g>
<defs>
<filter id="filter0_d_102_33890" x="0" y="0" width="116" height="36" filterUnits="userSpaceOnUse" color-interpolation-filters="sRGB">
<feFlood flood-opacity="0" result="BackgroundImageFix"/>
<feColorMatrix in="SourceAlpha" type="matrix" values="0 0 0 0 0 0 0 0 0 0 0 0 0 0 0 0 0 0 127 0" result="hardAlpha"/>
<feMorphology radius="10" operator="erode" in="SourceAlpha" result="effect1_dropShadow_102_33890"/>
<feOffset dy="8"/>
<feGaussianBlur stdDeviation="8"/>
<feComposite in2="hardAlpha" operator="out"/>
<feColorMatrix type="matrix" values="0 0 0 0 0.0980392 0 0 0 0 0.0705882 0 0 0 0 0.129412 0 0 0 0.25 0"/>
<feBlend mode="normal" in2="BackgroundImageFix" result="effect1_dropShadow_102_33890"/>
<feBlend mode="normal" in="SourceGraphic" in2="effect1_dropShadow_102_33890" result="shape"/>
</filter>
<linearGradient id="paint0_linear_102_33890" x1="10.8095" y1="-0.458333" x2="10.8095" y2="24.75" gradientUnits="userSpaceOnUse">
<stop stop-color="#E84A11"/>
<stop offset="1" stop-color="#F4E02B"/>
</linearGradient>
<linearGradient id="paint1_linear_102_33890" x1="12" y1="-8" x2="12" y2="12" gradientUnits="userSpaceOnUse">
<stop stop-color="#EDF02B"/>
<stop offset="0.625" stop-color="#F48F6B"/>
<stop offset="1" stop-color="#E84A11"/>
</linearGradient>
<linearGradient id="paint2_linear_102_33890" x1="104" y1="-8" x2="104" y2="12" gradientUnits="userSpaceOnUse">
<stop stop-color="#EDF02B"/>
<stop offset="0.625" stop-color="#F48F6B"/>
<stop offset="1" stop-color="#E84A11"/>
</linearGradient>
<linearGradient id="paint3_linear_102_33890" x1="108.81" y1="-0.458333" x2="108.81" y2="24.75" gradientUnits="userSpaceOnUse">
<stop stop-color="#E84A11"/>
<stop offset="1" stop-color="#F4E02B"/>
</linearGradient>
<clipPath id="clip0_102_33890">
<rect width="92" height="22" fill="white" transform="translate(12)"/>
</clipPath>
</defs>
</svg>
