<svg width="40" height="41" viewBox="0 0 40 41" fill="none" xmlns="http://www.w3.org/2000/svg">
<g opacity="0.5">
<path fill-rule="evenodd" clip-rule="evenodd" d="M20 13.9102C20.3107 13.9102 20.5625 14.162 20.5625 14.4727V26.8477C20.5625 27.1583 20.3107 27.4102 20 27.4102C19.6893 27.4102 19.4375 27.1583 19.4375 26.8477V14.4727C19.4375 14.162 19.6893 13.9102 20 13.9102Z" fill="white"/>
<path fill-rule="evenodd" clip-rule="evenodd" d="M14.5398 21.3874C14.7594 21.1677 15.1156 21.1677 15.3352 21.3874L20 26.0522L24.6648 21.3874C24.8844 21.1677 25.2406 21.1677 25.4602 21.3874C25.6799 21.6071 25.6799 21.9632 25.4602 22.1829L20.3977 27.2454C20.1781 27.4651 19.8219 27.4651 19.6023 27.2454L14.5398 22.1829C14.3201 21.9632 14.3201 21.6071 14.5398 21.3874Z" fill="white"/>
</g>
</svg>
