<svg width="14" height="14" viewBox="0 0 14 14" fill="none" xmlns="http://www.w3.org/2000/svg">
<path d="M13.0813 5.32056C13.0283 5.15726 12.9284 5.01315 12.7941 4.90618C12.6598 4.79921 12.497 4.73412 12.326 4.719L9.07813 4.439L7.805 1.4115C7.73872 1.25264 7.62691 1.11694 7.48366 1.0215C7.34042 0.926052 7.17213 0.875122 7 0.875122C6.82787 0.875122 6.65958 0.926052 6.51634 1.0215C6.37309 1.11694 6.26128 1.25264 6.195 1.4115L4.9257 4.439L1.67398 4.72064C1.50229 4.73507 1.33867 4.79987 1.20365 4.90691C1.06863 5.01396 0.968223 5.15849 0.915016 5.32237C0.861809 5.48625 0.858172 5.6622 0.904562 5.82814C0.950951 5.99408 1.0453 6.14264 1.17578 6.25517L3.64273 8.41095L2.90336 11.6124C2.86426 11.7799 2.87542 11.9552 2.93543 12.1165C2.99545 12.2777 3.10165 12.4176 3.24078 12.5188C3.3799 12.62 3.54577 12.678 3.71764 12.6854C3.88951 12.6928 4.05977 12.6494 4.20711 12.5606L6.99617 10.8653L9.79125 12.5606C9.93859 12.6494 10.1088 12.6928 10.2807 12.6854C10.4526 12.678 10.6185 12.62 10.7576 12.5188C10.8967 12.4176 11.0029 12.2777 11.0629 12.1165C11.1229 11.9552 11.1341 11.7799 11.095 11.6124L10.3562 8.40767L12.8226 6.25517C12.953 6.14225 13.0472 5.99327 13.0932 5.82698C13.1393 5.66068 13.1351 5.48449 13.0813 5.32056ZM12.2489 5.594L9.7825 7.7465C9.66246 7.85091 9.57316 7.98608 9.52421 8.13747C9.47526 8.28885 9.46851 8.45071 9.50469 8.60564L10.2457 11.8125L7.45281 10.1172C7.31655 10.0342 7.16009 9.99033 7.00055 9.99033C6.84101 9.99033 6.68454 10.0342 6.54828 10.1172L3.75922 11.8125L4.49531 8.60783C4.53149 8.45289 4.52474 8.29103 4.47579 8.13965C4.42684 7.98827 4.33754 7.8531 4.2175 7.74869L1.75 5.59728C1.7498 5.59564 1.7498 5.59399 1.75 5.59236L5.00063 5.31126C5.15933 5.29727 5.3112 5.24022 5.43986 5.14626C5.56852 5.05229 5.66908 4.92498 5.7307 4.77806L7 1.75439L8.26875 4.77806C8.33037 4.92498 8.43093 5.05229 8.55959 5.14626C8.68825 5.24022 8.84012 5.29727 8.99883 5.31126L12.25 5.59236C12.25 5.59236 12.25 5.59564 12.25 5.59619L12.2489 5.594Z" fill="#F4E02B"/>
</svg>
