<svg width="121" height="81" viewBox="0 0 121 81" fill="none" xmlns="http://www.w3.org/2000/svg">
<path d="M48.6129 51.2815V33.8942H44.5936V29.4377H54.1594V51.2815H48.6129Z" fill="#E6ECF1"/>
<path d="M75.0094 35.0782C75.0077 36.0099 74.7514 36.9233 74.2681 37.7198C73.7848 38.5163 73.093 39.1655 72.2674 39.5971C73.397 40.0164 74.3735 40.7675 75.0685 41.7518C75.7635 42.7361 76.1446 43.9075 76.1618 45.1124C76.1618 49.038 72.6719 51.5317 67.2205 51.5317C61.7691 51.5317 58.2792 49.0692 58.2792 45.206C58.3143 43.9597 58.7303 42.7541 59.4712 41.7513C60.2121 40.7485 61.2424 39.9968 62.4234 39.5971C61.5488 39.1582 60.8073 38.4934 60.2758 37.6717C59.7444 36.85 59.4421 35.9012 59.4004 34.9235C59.4004 31.4336 62.4546 29.2209 67.1907 29.2209C71.9863 29.2195 75.0094 31.4946 75.0094 35.0782ZM63.5134 44.6454C63.5134 46.4905 64.8219 47.5123 67.2219 47.5123C69.6219 47.5123 70.9616 46.5188 70.9616 44.6454C70.9616 42.8387 69.6219 41.8069 67.2219 41.8069C64.8219 41.8069 63.5105 42.8373 63.5105 44.644L63.5134 44.6454ZM64.0811 35.3905C64.0811 36.9516 65.2023 37.8216 67.2276 37.8216C69.2529 37.8216 70.3741 36.9488 70.3741 35.3905C70.3741 33.7711 69.2529 32.867 67.2276 32.867C65.2023 32.867 64.0726 33.7697 64.0726 35.3933L64.0811 35.3905Z" fill="#E6ECF1"/>
<path d="M85.3902 31.9047C87.2972 37.5436 87.2411 43.6617 85.231 49.2647C83.2209 54.8677 79.3749 59.6261 74.3182 62.7668C69.2615 65.9074 63.2913 67.2455 57.3778 66.5637C51.4644 65.8819 45.9553 63.2202 41.746 59.0113C37.5367 54.8023 34.8745 49.2935 34.1922 43.3801C33.5099 37.4667 34.8476 31.4964 37.9877 26.4394C41.1279 21.3824 45.8861 17.5361 51.4889 15.5255C57.0916 13.5149 63.2097 13.4582 68.8488 15.3647V9.48901C62.0402 7.62525 54.8064 8.06511 48.2738 10.7401C41.7413 13.4151 36.2765 18.1751 32.7305 24.2789C29.1845 30.3826 27.7563 37.4877 28.6682 44.4876C29.5802 51.4875 32.7811 57.9894 37.7726 62.9809C42.7642 67.9724 49.2661 71.1733 56.266 72.0853C63.2659 72.9973 70.3709 71.569 76.4747 68.023C82.5785 64.477 87.3385 59.0123 90.0134 52.4797C92.6884 45.9471 93.1283 38.7133 91.2645 31.9047H85.3902Z" fill="#E6ECF1"/>
<path d="M83.7902 16.942V10.8022H79.3748V16.942H73.272V21.3573H79.3748V27.497H83.7902V21.3573H89.9298V16.942H83.7902Z" fill="#E6ECF1"/>
</svg>
