<svg width="121" height="81" viewBox="0 0 121 81" fill="none" xmlns="http://www.w3.org/2000/svg">
<circle cx="59.5905" cy="39.6993" r="28.2881" stroke="#E6ECF1" stroke-width="2"/>
<path d="M77.3942 39.6986C77.3942 49.5321 69.4226 57.5037 59.5891 57.5037C49.7557 57.5037 41.7841 49.5321 41.7841 39.6986C41.7841 29.8652 49.7557 21.8936 59.5891 21.8936C69.4226 21.8936 77.3942 29.8652 77.3942 39.6986Z" stroke="#E6ECF1"/>
<path d="M32.4374 29.9365H24.2001L26.6408 39.6992L24.2001 49.4619H32.4374M86.7424 29.9365H96.2001L93.7594 39.6992L96.2001 49.4619H86.7424" stroke="#E6ECF1" stroke-width="2"/>
<path d="M44.4627 23.1357C44.5537 23.263 44.5174 23.4814 44.1355 23.7545C43.7026 24.064 43.3967 23.7439 42.9893 24.0352C42.6073 24.3084 42.5565 24.6141 42.7568 24.8942C43.0117 25.2507 43.8852 25.3958 44.8274 24.7221C45.9478 23.921 46.1075 22.9602 45.6341 22.2981C44.7965 21.1267 43.0214 22.6269 42.7665 22.2704C42.6936 22.1685 42.7227 21.9939 42.9773 21.8118C43.3593 21.5387 43.6651 21.8587 44.0725 21.5674C44.4545 21.2943 44.5053 20.9886 44.305 20.7085C44.0501 20.352 43.1767 20.2069 42.2854 20.8441C41.2668 21.5724 41.1217 22.4459 41.5951 23.108C42.4691 24.3303 44.2442 22.8301 44.4627 23.1357Z" fill="#E6ECF1"/>
<path d="M41.4424 56.409C40.8102 57.2653 40.9816 58.4035 42.0141 59.1659C42.9459 59.8539 43.8215 59.7221 44.0818 59.3695C44.2863 59.0925 44.2402 58.786 43.8624 58.5071C43.4595 58.2096 43.1488 58.525 42.7207 58.2089C42.3933 57.9672 42.334 57.5732 42.5757 57.2458L43.0964 56.5406C43.3381 56.2132 43.7321 56.1539 44.0595 56.3957C44.4372 56.6746 44.2273 57.0643 44.6302 57.3618C45.008 57.6408 45.3144 57.5946 45.5189 57.3176C45.7793 56.965 45.6475 56.0895 44.766 55.4387C43.7335 54.6763 42.5953 54.8476 41.9631 55.7039L41.4424 56.409Z" fill="#E6ECF1"/>
<path d="M49.3519 60.8733L49.982 60.0964L50.0412 60.1167L50.0627 61.1167L49.3519 60.8733ZM48.7201 61.8481L49.964 62.2742L49.9903 62.6803C50.0166 63.0864 50.1724 63.4045 50.4981 63.5161C50.8831 63.648 51.241 63.4727 51.3526 63.147C51.4134 62.9693 51.3871 62.5632 51.3871 62.5632L51.2916 59.7509C51.272 59.2478 51.0909 58.8879 50.4986 58.685C49.9063 58.4821 49.5485 58.6574 49.2186 59.0407L47.4187 61.2037C47.4187 61.2037 47.1489 61.5084 47.088 61.6861C46.9764 62.0118 47.1517 62.3697 47.5367 62.5015C47.8624 62.6131 48.1805 62.4574 48.4503 62.1527L48.7201 61.8481Z" fill="#E6ECF1"/>
<path d="M57.2139 63.6209C57.2139 63.7774 57.0574 63.934 56.5878 63.934C56.0556 63.934 55.993 63.4957 55.4922 63.4957C55.0226 63.4957 54.8035 63.7148 54.8035 64.0592C54.8035 64.4974 55.4296 65.1235 56.5878 65.1235C57.9652 65.1235 58.6539 64.4348 58.6539 63.6209C58.6539 62.1809 56.3374 62.3687 56.3374 61.9305C56.3374 61.8053 56.4626 61.68 56.7756 61.68C57.2452 61.68 57.3078 62.1183 57.8087 62.1183C58.2782 62.1183 58.4974 61.8992 58.4974 61.5548C58.4974 61.1166 57.8713 60.4905 56.7756 60.4905C55.5235 60.4905 54.8974 61.1166 54.8974 61.9305C54.8974 63.4331 57.2139 63.2453 57.2139 63.6209Z" fill="#E6ECF1"/>
<path d="M63.8149 61.1793C63.8149 60.8037 63.5645 60.5532 63.1262 60.5532C62.6879 60.5532 62.4375 60.8037 62.4375 61.1793V64.435C62.4375 64.8106 62.6879 65.061 63.1262 65.061C63.5645 65.061 63.8149 64.8106 63.8149 64.435V61.1793Z" fill="#E6ECF1"/>
<path d="M68.8179 61.7031L70.2915 62.7205C70.6899 63.0142 70.9682 63.1505 71.3236 63.0287C71.7382 62.8867 71.8919 62.5627 71.7722 62.2132L70.7171 59.1333C70.5954 58.7779 70.2773 58.6221 69.8627 58.7642C69.4481 58.9062 69.2923 59.2243 69.4141 59.5797L69.8808 60.942L69.8215 60.9622L68.348 59.9449C67.9495 59.6512 67.6712 59.5149 67.3158 59.6367C66.9012 59.7787 66.7475 60.1027 66.8672 60.4522L67.9223 63.5321C68.0441 63.8875 68.3621 64.0432 68.7767 63.9012C69.1913 63.7592 69.3471 63.4411 69.2254 63.0857L68.7587 61.7234L68.8179 61.7031Z" fill="#E6ECF1"/>
<path d="M76.3057 55.3195C75.6735 54.4632 74.5353 54.2919 73.5027 55.0542C72.4702 55.8166 72.2989 56.9548 72.9311 57.8111L73.4517 58.5162C74.0839 59.3725 75.2221 59.5438 76.2547 58.7814C77.2872 58.0191 77.4585 56.8808 76.8263 56.0246L76.3057 55.3195ZM75.6931 56.8613C75.9906 57.2643 75.9247 57.7021 75.6225 57.9252C75.3203 58.1483 74.8825 58.0824 74.585 57.6795L74.0643 56.9743C73.7668 56.5714 73.8327 56.1336 74.1349 55.9105C74.4371 55.6874 74.8749 55.7532 75.1724 56.1562L75.6931 56.8613Z" fill="#E6ECF1"/>
<path d="M52.5414 17.3846L53.3729 18.8258C53.6217 19.2057 54.0223 19.4045 54.6176 19.2106C55.2129 19.0168 55.4196 18.6202 55.397 18.1667L55.2674 15.4434C55.2674 15.4434 55.2701 15.0474 55.2119 14.8688C55.1053 14.5414 54.7502 14.3608 54.3632 14.4868C53.9465 14.6225 53.7859 14.9382 53.8129 15.3244L53.9765 17.4441L53.9169 17.4634L52.929 15.744C52.6883 15.3285 52.3391 15.1459 51.8331 15.3107C51.3271 15.4755 51.1524 15.8287 51.2026 16.3062L51.4166 18.2777L51.3571 18.2971L50.2411 16.4876C50.0354 16.1595 49.7198 15.9989 49.303 16.1346C48.9161 16.2607 48.7354 16.6158 48.8421 16.9432C48.9002 17.1218 49.1356 17.4402 49.1356 17.4402L50.6345 19.7176C50.8833 20.0975 51.2838 20.2963 51.8791 20.1024C52.4744 19.9085 52.6811 19.512 52.6585 19.0585L52.4819 17.404L52.5414 17.3846Z" fill="#E6ECF1"/>
<path d="M66.3127 16.2599C66.4399 15.9064 66.289 15.586 65.8766 15.4377C65.4642 15.2894 65.1438 15.4402 65.0166 15.7937L63.9147 18.8572C63.7876 19.2107 63.9385 19.5311 64.3509 19.6795C64.7633 19.8278 65.0837 19.6769 65.2108 19.3234L66.3127 16.2599Z" fill="#E6ECF1"/>
<path d="M73.9186 21.6696L73.8923 23.4601C73.8696 23.9545 73.9111 24.2616 74.2099 24.4894C74.5584 24.755 74.9132 24.7027 75.1371 24.4089L77.1106 21.8195C77.3383 21.5207 77.2909 21.1698 76.9424 20.9041C76.5938 20.6384 76.2428 20.6858 76.0151 20.9846L75.1422 22.1299L75.0924 22.0919L75.1188 20.3015C75.1414 19.807 75.0999 19.4999 74.8012 19.2722C74.4526 19.0065 74.0978 19.0589 73.8739 19.3527L71.9004 21.942C71.6727 22.2408 71.7201 22.5918 72.0687 22.8574C72.4172 23.1231 72.7682 23.0757 72.9959 22.777L73.8688 21.6317L73.9186 21.6696Z" fill="#E6ECF1"/>
<path fill-rule="evenodd" clip-rule="evenodd" d="M74.2334 39.7005C74.2334 47.7882 67.6771 54.3445 59.5894 54.3445C51.5017 54.3445 44.9453 47.7882 44.9453 39.7005C44.9453 31.6128 51.5017 25.0564 59.5894 25.0564C67.6771 25.0564 74.2334 31.6128 74.2334 39.7005ZM57.1495 39.7005C57.1495 42.3964 56.0568 44.5818 54.7088 44.5818C53.3609 44.5818 52.2681 42.3964 52.2681 39.7005C52.2681 37.0046 53.3609 34.8191 54.7088 34.8191C56.0568 34.8191 57.1495 37.0046 57.1495 39.7005ZM64.47 44.5818C65.818 44.5818 66.9107 42.3964 66.9107 39.7005C66.9107 37.0046 65.818 34.8191 64.47 34.8191C63.1221 34.8191 62.0293 37.0046 62.0293 39.7005C62.0293 42.3964 63.1221 44.5818 64.47 44.5818Z" fill="#E6ECF1"/>
</svg>
