<svg width="121" height="81" viewBox="0 0 121 81" fill="none" xmlns="http://www.w3.org/2000/svg">
<path fill-rule="evenodd" clip-rule="evenodd" d="M58.5042 52.759V47.0486C59.6398 47.2389 60.5861 47.2389 61.7217 47.2389C68.1567 47.2389 73.8347 45.5258 77.9986 42.6706L69.8601 43.0513C68.9138 43.2416 68.346 42.8609 67.7782 42.2899C67.2104 41.7189 66.8319 41.1478 67.0211 40.1961C67.0211 38.6733 68.1567 37.7216 69.6709 37.7216H89.1653C90.1117 37.7216 90.8687 38.1023 91.6258 39.054C92.1936 39.8154 92.3829 40.7671 92.0043 41.7189L88.9761 53.1396C88.4083 54.8528 86.7049 55.9948 84.8122 55.6141L83.8659 55.4238C82.9195 55.2335 82.1625 54.6624 81.5947 53.7107C81.0269 52.9493 80.8376 51.8072 81.2161 50.8555L82.541 47.4293C77.2415 50.6651 69.8601 52.759 61.9109 52.759C60.7754 52.759 59.6398 52.759 58.5042 52.759ZM58.5042 17.5449V13.5476C59.6398 13.5476 60.7754 13.5476 61.9109 13.5476C68.9138 13.5476 75.5381 15.0704 80.6483 17.9256C81.4054 18.3063 81.7839 18.8773 81.7839 19.6387C81.9732 20.4001 81.7839 20.9711 81.2161 21.5422L80.8376 21.7325C80.0805 22.4939 78.9449 22.6842 77.9986 22.1132C73.8347 19.258 68.1567 17.3545 61.7217 17.3545C60.5861 17.3545 59.6398 17.5449 58.5042 17.5449Z" fill="#E6ECF1"/>
<path fill-rule="evenodd" clip-rule="evenodd" d="M33.1425 4.41113H58.5042V61.1343H33.1425C30.682 61.1343 28.6001 59.2309 28.6001 56.7564V8.97944C28.6001 6.50494 30.682 4.41113 33.1425 4.41113ZM58.5042 13.5478V17.545C47.5267 18.4968 39.0098 24.7782 39.0098 32.392C39.0098 39.8156 47.5267 46.097 58.5042 47.0487V52.7591C43.5521 51.617 32.0069 43.2418 32.0069 33.1534C32.0069 23.0651 43.5521 14.6898 58.5042 13.5478Z" fill="#E6ECF1"/>
<path fill-rule="evenodd" clip-rule="evenodd" d="M39.0095 71.0329H32.953V72.5557H37.3061C37.1168 73.1268 36.549 73.8881 35.9812 74.2688C35.4134 74.6495 34.6564 75.0302 33.71 74.8399C30.114 74.4592 29.3569 69.5102 32.3852 67.7971C33.3315 67.226 34.8456 67.226 35.9812 67.9874C37.3061 68.7488 35.6027 68.7488 38.4417 68.7488C38.2524 67.7971 37.1168 66.655 36.1705 66.2743C34.8456 65.8936 33.3315 65.8936 32.0066 66.2743C30.114 67.226 28.4106 69.5102 29.1677 72.5557C29.7355 74.8399 32.0066 76.7433 34.8456 76.3626C36.7383 75.9819 38.0632 74.6495 38.631 73.1268C38.8202 72.7461 39.1988 71.604 39.0095 71.0329ZM81.7837 70.8426V68.3681C82.9193 68.3681 84.0549 68.3681 84.0549 69.5102C84.0549 70.8426 82.9193 70.8426 81.7837 70.8426ZM79.3233 76.1723H81.7837V72.9364C81.973 73.1268 83.4871 75.7916 83.6764 76.1723H86.7047C86.5154 75.9819 84.6227 73.3171 84.2442 72.7461C84.6227 72.5557 85.0013 72.5557 85.5691 71.9847C85.7583 71.7943 86.1369 71.4136 86.3261 70.8426C86.8939 68.9391 86.1369 66.2743 83.2979 66.2743C82.1623 66.0839 80.6481 66.0839 79.3233 66.0839V76.1723ZM69.86 72.3654C66.4532 72.3654 67.5888 72.175 66.8317 73.1268C66.0746 73.6978 65.3176 74.0785 64.182 73.6978C61.7215 72.9364 61.7215 69.1295 64.3712 68.5584C65.3176 68.3681 66.0746 68.5584 66.8317 69.3198C67.5888 70.0812 66.4532 69.8909 69.86 69.8909C69.86 69.3198 69.4814 68.5584 69.1029 68.1778C68.1566 66.655 66.4532 65.8936 64.3712 66.0839C61.9108 66.2743 59.8288 68.3681 59.8288 71.0329C59.8288 73.8881 61.7215 75.9819 64.182 76.3626C66.2639 76.553 67.9673 75.7916 69.1029 74.0785C69.2922 73.6978 69.86 72.9364 69.86 72.3654ZM48.6621 76.1723H49.987V67.6067C50.1762 67.7971 52.0689 73.1268 52.2582 74.0785C52.4474 74.4592 53.0152 75.9819 53.2045 76.1723H54.1508C54.5294 75.2206 55.2864 72.9364 55.665 71.7943C56.0435 71.2233 56.2328 70.4619 56.6113 69.7005L57.3684 67.6067L57.1791 76.1723H58.6932V66.0839H56.422C56.2328 67.0357 54.7186 70.8426 54.3401 71.9847C54.3401 72.175 53.7723 73.6978 53.583 73.8881L50.744 66.2743L48.6621 66.0839V76.1723ZM74.2131 69.5102C74.2131 69.7005 75.1594 72.5557 75.1594 72.5557H73.2667L74.2131 69.5102ZM69.4814 76.1723H71.9419L72.5097 74.6495H75.7272L76.295 76.1723H78.9447C78.9447 75.9819 77.2413 71.604 77.0521 71.2233C76.6735 70.2716 76.4843 69.5102 76.1057 68.7488C75.9165 68.1778 75.3487 66.4646 75.1594 66.0839H73.2667L71.3741 71.2233C70.9955 71.7943 69.4814 75.7916 69.4814 76.1723ZM92.9505 69.8909L90.1115 70.0812V68.3681H92.9505C92.9505 68.1778 92.9505 66.4646 92.9505 66.2743H87.651V76.1723H92.9505V73.8881H90.1115V72.175H92.9505V69.8909ZM43.3626 68.1778C43.3626 68.3681 44.6875 71.604 44.6875 71.7943H41.8485C41.8485 71.604 43.1734 68.3681 43.3626 68.1778ZM38.631 76.1723H40.1451L41.2807 73.3171H45.2553C45.4446 73.6978 45.6338 74.2688 45.8231 74.6495C45.8231 75.0302 46.2016 75.9819 46.3909 76.1723H47.905C47.905 75.7916 46.2016 71.7943 46.0124 71.2233C45.6338 70.6523 44.1197 66.4646 43.9304 66.0839H42.6056L38.631 76.1723ZM92.9505 69.8909V72.175H90.1115V73.8881H92.9505V76.1723H87.651V66.2743H92.9505C92.9505 66.4646 92.9505 68.1778 92.9505 68.3681C93.1397 68.3681 93.1397 68.3681 93.1397 67.7971C93.1397 67.4164 93.1397 66.4646 92.9505 66.0839H87.651C87.651 66.2743 87.4617 75.7916 87.651 76.1723C88.0295 76.1723 92.7612 76.1723 92.9505 76.1723L93.1397 73.8881H90.1115V72.175H92.9505C93.1397 71.9847 93.1397 71.4136 93.1397 71.0329C93.1397 70.8426 93.1397 70.0812 92.9505 69.8909Z" fill="#E6ECF1"/>
</svg>
