<svg width="121" height="81" viewBox="0 0 121 81" fill="none" xmlns="http://www.w3.org/2000/svg">
<path d="M15.4 36.5485C15.4 37.1611 15.2 38.999 13.8 40.2242C12.2 41.4494 9.40002 41.8578 7.60002 41.8578C6.80002 41.8578 6.00002 41.8578 5.40002 41.6536C3.80002 41.4494 2.00002 41.041 1.20002 39.6116C0.600024 38.7948 0.400024 37.7737 0.400024 36.7527H5.40002C5.40002 36.9569 5.40002 37.5695 5.80002 37.9779C6.20002 38.1822 6.80002 38.5906 7.60002 38.5906C7.80002 38.5906 8.80002 38.5906 9.40002 37.9779C10.2 37.3653 10.2 36.3443 10.2 36.1401C10.2 35.5275 10.2 34.9149 10.2 34.3023C10 34.7107 9.80002 34.9149 9.60002 34.9149C8.80002 35.7317 7.60002 35.9359 6.60002 35.9359C5.20002 35.9359 3.80002 35.5275 2.80002 34.7107C1.80002 33.8939 0.400024 32.2602 0.400024 28.993C0.400024 28.3803 0.400024 25.7257 2.20002 23.8879C3.40002 22.6626 5.20002 22.05 6.80002 22.05C7.20002 22.05 8.80002 22.05 10 23.071C10.2 23.2752 10.4 23.2752 10.6 23.8879V22.4584H15.4V35.7317C15.4 35.9359 15.4 36.3443 15.4 36.5485ZM8.80002 26.1341C8.80002 26.1341 8.40002 25.9299 7.80002 25.9299C7.60002 25.9299 7.20002 26.1341 7.00002 26.1341C6.20002 26.5425 5.60002 27.3593 5.60002 29.1972C5.60002 30.4224 5.80002 31.2392 6.20002 31.4434C6.40002 31.6476 6.60002 31.8518 6.80002 32.056C7.00002 32.056 7.40002 32.056 7.80002 32.056C8.00002 32.056 8.40002 32.056 8.80002 31.8518C9.80002 31.4434 10 30.014 10 28.993C10 27.9719 10 26.7467 8.80002 26.1341Z" fill="#E6ECF1"/>
<path d="M25.8001 36.5485V35.5275C25.6001 35.5275 25.4001 35.7317 24.8001 36.1401C24.2001 36.3443 23.0001 36.7527 21.4001 36.7527C21.0001 36.7527 20.0001 36.7527 19.2001 36.5485C17.4001 35.7317 16.4001 34.3023 16.4001 32.2602C16.4001 31.6476 16.6001 29.8098 18.2001 28.5845C19.4001 27.9719 20.8001 27.7677 22.2001 27.5635C23.0001 27.3593 23.8001 27.3593 24.6001 27.1551C25.0001 26.9509 25.2001 26.9509 25.6001 26.9509C25.6001 26.7467 25.6001 26.3383 25.6001 26.1341C25.4001 25.7257 25.0001 25.3173 23.8001 25.3173C23.4001 25.3173 23.2001 25.3173 23.0001 25.3173C22.2001 25.5215 22.0001 26.3383 22.0001 26.5425L16.8001 26.7467C16.8001 26.3383 17.0001 26.1341 17.0001 25.9299C17.2001 25.3173 17.4001 24.2963 18.6001 23.4794C19.6001 22.6626 21.2001 22.05 24.2001 22.05C26.4001 22.05 29.4001 22.2542 30.4001 24.7047C30.8001 25.3173 30.8001 25.7257 30.8001 27.1551V34.7107C30.8001 35.7317 31.0001 35.9359 31.2001 36.5485H25.8001ZM23.6001 30.6266C23.0001 30.8308 22.2001 31.035 21.6001 31.4434C21.6001 31.6476 21.4001 31.8518 21.4001 32.056C21.4001 32.6686 21.8001 33.2812 22.8001 33.2812C23.2001 33.2812 23.8001 33.077 24.2001 32.8728C25.6001 32.056 25.6001 30.6266 25.6001 30.014C25.0001 30.2182 24.2001 30.4224 23.6001 30.6266Z" fill="#E6ECF1"/>
<path d="M51.2002 36.5485V29.1972C51.2002 28.5845 51.4002 26.7467 49.2002 26.7467C48.8002 26.7467 47.6002 26.7467 47.4002 28.1761C47.2002 28.3803 47.2002 28.5845 47.2002 28.993V36.5485H41.8002V28.993C41.8002 28.5845 41.8002 28.3803 41.8002 27.9719C41.4002 26.9509 40.4002 26.7467 39.8002 26.7467C39.6002 26.7467 38.4002 26.9509 38.0002 27.9719C38.0002 28.1761 37.8002 28.3803 37.8002 28.7888V36.5485H32.4002V22.4584H37.6002V24.5005C38.0002 23.8879 38.2002 23.6836 38.4002 23.4794C39.0002 22.8668 40.0002 22.05 42.0002 22.05C42.4002 22.05 44.8002 22.05 46.0002 23.6836C46.2002 23.8879 46.4002 24.0921 46.8002 24.7047C47.0002 24.0921 47.2002 23.8879 47.4002 23.6836C48.2002 23.071 49.2002 22.05 51.4002 22.05C51.8002 22.05 52.4002 22.05 53.4002 22.2542C54.0002 22.4584 55.8002 23.071 56.4002 25.1131C56.6002 25.9299 56.6002 26.7467 56.6002 27.5635V36.5485H51.2002Z" fill="#E6ECF1"/>
<path d="M70.1998 35.9361C69.1998 36.5487 68.1998 36.9571 66.9998 36.9571C65.5998 36.9571 64.5998 36.3445 64.1998 36.1403C63.9998 35.9361 63.7998 35.7319 63.5998 35.5277V36.5487H58.3998V17.3535H63.7998V23.4796C63.9998 23.2754 64.1998 23.0712 64.3998 22.867C65.1998 22.2544 66.1998 22.0502 67.1998 22.0502C68.9998 22.0502 70.3998 22.6628 71.5998 23.888C72.3998 24.9091 73.1998 26.3385 73.1998 29.1974C73.1998 30.0142 73.1998 34.0983 70.1998 35.9361ZM67.1998 26.9511C66.7998 26.1343 65.9998 26.1343 65.7998 26.1343C65.5998 26.1343 64.9998 26.1343 64.5998 26.5427C63.7998 27.1553 63.5998 28.3805 63.5998 29.4016C63.5998 30.4226 63.7998 31.6478 64.5998 32.4646C64.5998 32.4646 65.1998 32.873 65.7998 32.873C65.9998 32.873 66.5998 32.6688 67.1998 32.2604C67.5998 31.6478 67.7998 30.831 67.7998 29.4016C67.7998 28.5847 67.7998 27.5637 67.1998 26.9511Z" fill="#E6ECF1"/>
<path d="M74.2005 17.3535H79.8005V36.5487H74.2005V17.3535Z" fill="#E6ECF1"/>
<path d="M81.3999 17.3535H86.7999V21.0292H81.3999V17.3535ZM81.3999 22.4586H86.7999V36.5487H81.3999V22.4586Z" fill="#E6ECF1"/>
<path d="M97.7998 36.5485V28.7888C97.7998 28.5845 97.7998 28.1761 97.5998 27.9719C97.5998 27.3593 97.1998 26.7467 95.7998 26.7467C93.7998 26.7467 93.7998 28.3803 93.7998 28.993V36.5485H88.3998V22.4584H93.5998V24.2963C93.9998 23.8879 93.9998 23.6836 94.1998 23.4794C95.1998 22.4584 96.7998 22.05 98.1998 22.05C98.5998 22.05 100.4 22.05 101.6 23.2752C102.4 23.8879 102.8 24.7047 103 25.7257C103.2 26.1341 103.2 26.5425 103.2 27.5635V36.5485H97.7998Z" fill="#E6ECF1"/>
<path d="M119.2 36.5485C119.2 37.1611 119.2 38.999 117.6 40.2242C116 41.4494 113.4 41.8578 111.4 41.8578C110.8 41.8578 110 41.8578 109.2 41.6536C107.8 41.4494 106 41.041 105 39.6116C104.4 38.7948 104.4 37.7737 104.4 36.7527H109.4C109.4 36.9569 109.2 37.5695 109.8 37.9779C110 38.1822 110.6 38.5906 111.4 38.5906C111.6 38.5906 112.8 38.5906 113.4 37.9779C114.2 37.3653 114 36.3443 114 36.1401C114 35.5275 114 34.9149 114 34.3023C113.8 34.7107 113.8 34.9149 113.6 34.9149C112.8 35.7317 111.6 35.9359 110.6 35.9359C109 35.9359 107.8 35.5275 106.6 34.7107C105.6 33.8939 104.4 32.2602 104.4 28.993C104.4 28.3803 104.4 25.7257 106 23.8879C107.2 22.6626 109.2 22.05 110.8 22.05C111.2 22.05 112.8 22.05 113.8 23.071C114.2 23.2752 114.2 23.2752 114.6 23.8879V22.4584H119.4V35.7317C119.2 35.9359 119.2 36.3443 119.2 36.5485ZM112.8 26.1341C112.6 26.1341 112.2 25.9299 111.8 25.9299C111.4 25.9299 111.2 26.1341 110.8 26.1341C110 26.5425 109.6 27.3593 109.6 29.1972C109.6 30.4224 109.8 31.2392 110.2 31.4434C110.4 31.6476 110.6 31.8518 110.8 32.056C111 32.056 111.2 32.056 111.6 32.056C111.8 32.056 112.2 32.056 112.8 31.8518C113.8 31.4434 114 30.014 114 28.993C114 27.9719 113.8 26.7467 112.8 26.1341Z" fill="#E6ECF1"/>
<path d="M28.4004 57.7854C25.4004 57.7854 24.4004 56.7644 24.0004 55.335C23.8004 54.7223 23.8004 54.3139 23.8004 53.7013V46.9626H22.0004V43.8995H24.0004V39.407H29.4004V43.8995H31.8004V46.9626H29.4004L29.2004 52.2719C29.2004 52.8845 29.4004 53.7013 30.8004 53.7013C31.2004 53.7013 31.2004 53.7013 31.8004 53.7013V57.5812C31.4004 57.5812 29.8004 57.7854 28.4004 57.7854Z" fill="#E6ECF1"/>
<path d="M53.8002 51.6601C53.8002 51.6601 53.8001 52.2727 54.0001 52.6811C54.2001 53.2937 54.6001 54.3147 56.2001 54.3147C57.0001 54.3147 57.4002 53.9063 57.8002 53.7021C58.2001 53.2937 58.6001 52.6811 58.6001 52.4769L63.2001 54.3147C63.0001 54.5189 62.8001 54.9274 62.4001 55.3358C61.6001 56.3568 60.4002 56.9694 60.0001 57.3778C59.2001 57.582 57.8002 58.1946 55.8002 58.1946C54.8002 58.1946 53.6001 57.9904 52.6001 57.582C49.8001 56.3568 48.2002 53.4979 48.2002 50.4349C48.2002 47.576 49.6002 45.7382 50.4002 45.1256C52.4002 43.0835 55.0002 42.8793 55.8002 42.8793C56.8002 42.8793 59.6001 43.0835 61.6001 45.3298C62.2001 45.9424 62.8001 46.9634 63.0001 47.9844C63.4002 49.2096 63.4001 50.2307 63.4001 51.6601H53.8002ZM57.8002 47.7802C57.4002 46.7592 56.4002 46.555 56.0001 46.555C55.6002 46.555 55.2001 46.7592 55.0001 46.7592C54.0001 47.1676 54.0002 48.3928 53.8002 48.597H57.8002C57.8002 48.3928 57.8002 48.1886 57.8002 47.7802Z" fill="#E6ECF1"/>
<path d="M73.3995 47.9841C72.7995 47.9841 70.5995 47.7799 69.7995 49.6177C69.7995 50.2303 69.7995 50.4345 69.7995 51.0471V57.5817H64.1995V43.4916H69.5995V44.7168C69.7995 44.5126 69.9995 44.3084 70.1995 44.1042C71.5995 43.2874 72.5995 43.2874 74.1995 43.2874V47.9841C73.7995 47.9841 73.5995 47.9841 73.3995 47.9841Z" fill="#E6ECF1"/>
<path d="M83.6005 57.5826V56.5616C83.4005 56.7658 83.2005 56.97 82.6005 57.1742C82.0005 57.5826 80.8005 57.991 79.0005 57.991C78.8005 57.991 77.8005 57.991 76.8005 57.5826C75.0005 56.97 74.2005 55.3363 74.2005 53.4985C74.2005 52.6817 74.2005 51.048 76.0005 49.8228C77.2005 49.006 78.6005 48.8018 80.0005 48.5976C80.8005 48.5976 81.6005 48.3934 82.4005 48.1892C82.6005 48.1892 83.0005 47.985 83.4005 47.985C83.4005 47.985 83.4005 47.5766 83.2005 47.3724C83.2005 46.7597 82.8005 46.3513 81.6005 46.3513C81.2005 46.3513 80.8005 46.3513 80.8005 46.3513C79.8005 46.5555 79.8005 47.3724 79.8005 47.5766L74.6005 47.7808C74.6005 47.5766 74.8005 47.1682 74.8005 46.964C74.8005 46.3513 75.2005 45.5345 76.2005 44.5135C77.4005 43.6967 79.0005 43.0841 82.0005 43.0841C84.2005 43.0841 87.0005 43.4925 88.2005 45.7387C88.4005 46.3513 88.6005 46.964 88.6005 48.1892V55.9489C88.6005 56.97 88.6005 57.1742 89.0005 57.5826H83.6005ZM81.2005 51.6607C80.6005 51.8649 79.8005 52.0691 79.4005 52.6817C79.4005 52.6817 79.2005 52.8859 79.2005 53.2943C79.2005 53.7027 79.6005 54.3153 80.6005 54.3153C81.0005 54.3153 81.4005 54.1111 81.8005 53.9069C83.4005 53.0901 83.4005 51.6607 83.4005 51.048C82.6005 51.2522 82.0005 51.4564 81.2005 51.6607Z" fill="#E6ECF1"/>
<path d="M98.9999 57.9901C98.5999 57.9901 97.1999 57.9901 95.9999 57.1733C95.7999 56.9691 95.7999 56.9691 95.3999 56.7649V62.6868H90.1999V43.4916H95.3999V44.7168C95.7999 44.3084 95.7999 44.3084 95.9999 44.1042C96.5999 43.6958 97.5999 43.2874 99.1999 43.2874C103.4 43.2874 105.2 46.7589 105.2 50.6387C105.2 54.5186 103.4 57.9901 98.9999 57.9901ZM99.1999 47.9841C98.5999 47.3715 97.9999 47.1673 97.5999 47.1673C97.3999 47.1673 96.9999 47.3715 96.5999 47.5757C95.3999 48.1883 95.3999 49.6177 95.3999 50.6387C95.3999 51.864 95.5999 53.2934 96.5999 53.7018C96.9999 54.1102 97.3999 54.1102 97.5999 54.1102C97.7999 54.1102 98.1999 54.1102 98.5999 53.7018C99.5999 53.0892 99.7999 51.864 99.7999 50.6387C99.7999 49.8219 99.5999 48.8009 99.1999 47.9841Z" fill="#E6ECF1"/>
<path d="M115.4 58.3991C115 59.6243 114.4 61.0537 113.4 61.8705C112.4 62.6873 111.2 62.6873 110 62.6873C109.4 62.6873 109 62.6873 108.6 62.6873L107 62.4831V58.6033C107.6 58.6033 108 58.6033 108.6 58.6033C109.4 58.6033 109.8 58.3991 109.8 57.9906C109.8 57.7864 109.6 57.1738 109.4 56.5612L105 43.4921H110.6L112.6 52.6813C112.6 52.6813 114.6 43.6964 114.8 43.4921H120.4L115.4 58.3991Z" fill="#E6ECF1"/>
<path d="M47.2002 46.5543C47.0002 45.5333 46.4002 44.7164 46.0002 44.308C45.0002 43.287 43.6002 42.8786 42.2002 42.8786C40.2002 42.8786 39.0002 43.6954 38.4002 44.308C38.2002 44.5122 38.2002 44.5122 37.8002 44.9206V38.3861H32.4002V57.5813H37.8002V47.5753H42.6002V57.5813H47.4002V48.3921C47.4002 47.7795 47.2002 47.3711 47.2002 46.5543Z" fill="#E6ECF1"/>
<path d="M37.8002 47.5753L40.7996 48.5968V56.1524L37.8002 57.5813V47.5753Z" fill="#E6ECF1"/>
</svg>
