<svg width="120" height="81" viewBox="0 0 120 81" fill="none" xmlns="http://www.w3.org/2000/svg">
<path d="M6.4 21.3533H113.6C115.4 21.3533 117 22.1426 118.2 23.1293C119.2 24.3134 120 25.8921 120 27.6682V52.1383C120 53.9144 119.2 55.4931 118.2 56.6772C117 57.8612 115.4 58.4532 113.6 58.4532H6.4C4.6 58.4532 3 57.8612 1.8 56.6772C0.8 55.4931 0 53.9144 0 52.1383V27.6682C0 25.8921 0.8 24.3134 1.8 23.1293C3 22.1426 4.6 21.3533 6.4 21.3533ZM113.6 22.932H6.4C5 22.932 3.8 23.524 3 24.3134C2.2 25.1027 1.6 26.2868 1.6 27.6682V52.1383C1.6 53.5197 2.2 54.7038 3 55.4931C3.8 56.4798 5 56.8745 6.4 56.8745H113.6C115 56.8745 116.2 56.4798 117 55.4931C117.8 54.7038 118.4 53.5197 118.4 52.1383V27.6682C118.4 26.2868 117.8 25.1027 117 24.3134C116.2 23.524 115 22.932 113.6 22.932ZM43.6 35.5618H44.8V32.0096H45.8C46.8 32.0096 47.2 32.6017 47.4 33.5884C47.6 34.7724 47.8 35.3644 48 35.5618H49.2C49 35.3644 48.8 34.5751 48.4 33.391C48.2 32.6017 48 32.0096 47.2 31.615C48.2 31.4176 48.8 30.6283 48.8 29.4442C48.8 28.8522 48.6 28.2602 48.2 27.8655C47.6 27.4708 47 27.2735 45.8 27.2735C45 27.2735 44.2 27.2735 43.6 27.4708V35.5618ZM44.8 28.2602C45 28.0628 45.2 28.0628 45.8 28.0628C47 28.0628 47.8 28.6549 47.8 29.6416C47.8 30.6283 47 31.2203 45.8 31.2203H44.8V28.2602ZM54.8 30.8256H51.4V28.2602H55V27.2735H50.4V35.5618H55.2V34.7724H51.4V31.8123H54.8V30.8256ZM56 35.1671C56.6 35.5618 57.4 35.7591 58.2 35.7591C60.2 35.7591 61.2 34.5751 61.2 33.391C61.2 32.207 60.4 31.4176 59 31.0229C57.8 30.4309 57.4 30.0362 57.4 29.2469C57.4 28.8522 57.8 28.0628 59 28.0628C59.8 28.0628 60.2 28.2602 60.6 28.4575L60.8 27.6682C60.4 27.4708 59.8 27.2735 59 27.2735C57.4 27.2735 56.2 28.2602 56.2 29.4442C56.2 30.6283 57.2 31.4176 58.4 31.8123C59.6 32.207 60 32.6017 60 33.391C60 34.3777 59.4 34.9697 58.4 34.9697C57.6 34.9697 56.8 34.5751 56.4 34.3777L56 35.1671ZM62.6 35.5618H63.8V32.4043C64 32.4043 64.4 32.4043 64.6 32.4043C65.6 32.4043 66.6 32.0096 67.2 31.4176C67.6 31.0229 67.8 30.4309 67.8 29.6416C67.8 29.0495 67.6 28.4575 67.2 28.0628C66.6 27.4708 65.8 27.2735 64.8 27.2735C63.8 27.2735 63.2 27.2735 62.6 27.4708V35.5618ZM63.8 28.2602C64 28.2602 64.4 28.0628 64.8 28.0628C66 28.0628 66.8 28.6549 66.8 29.8389C66.8 30.8256 66 31.615 64.6 31.615C64.2 31.615 64 31.4176 63.8 31.4176V28.2602ZM72.8 27.2735C70.4 27.2735 68.8 28.8522 68.8 31.615C68.8 34.1804 70.4 35.7591 72.6 35.7591C74.8 35.7591 76.6 34.1804 76.6 31.4176C76.6 28.8522 75 27.2735 72.8 27.2735ZM72.6 28.0628C74.4 28.0628 75.4 29.8389 75.4 31.4176C75.4 33.391 74.4 34.9697 72.6 34.9697C71 34.9697 70 33.391 70 31.615C70 29.6416 70.8 28.0628 72.6 28.0628ZM79 35.5618V32.0096C79 30.6283 79 29.6416 78.8 28.6549C79.4 29.6416 79.8 30.4309 80.4 31.4176L83.2 35.5618H84.2V27.2735H83.2V30.8256C83.2 32.207 83.2 33.1937 83.4 34.1804C83 33.391 82.4 32.6017 81.8 31.615L79.2 27.2735H78V35.5618H79ZM85.8 35.1671C86.2 35.5618 87 35.7591 87.8 35.7591C89.8 35.7591 90.8 34.5751 90.8 33.391C90.8 32.207 90 31.4176 88.6 31.0229C87.4 30.4309 87 30.0362 87 29.2469C87 28.8522 87.4 28.0628 88.6 28.0628C89.4 28.0628 89.8 28.2602 90.2 28.4575L90.4 27.6682C90 27.4708 89.4 27.2735 88.6 27.2735C87 27.2735 85.8 28.2602 85.8 29.4442C85.8 30.6283 86.8 31.4176 88.2 31.8123C89.2 32.207 89.6 32.6017 89.6 33.391C89.6 34.3777 89 34.9697 88 34.9697C87.2 34.9697 86.4 34.5751 86 34.3777L85.8 35.1671ZM92.2 27.2735V35.5618H93.4V27.2735H92.2ZM95.2 35.5618C95.6 35.7591 96.2 35.7591 97 35.7591C98.4 35.7591 99.2 35.5618 99.8 34.9697C100.2 34.5751 100.6 33.983 100.6 33.1937C100.6 32.0096 99.6 31.4176 98.8 31.2203C99.8 30.8256 100.2 30.2336 100.2 29.4442C100.2 28.6549 100 28.2602 99.6 27.8655C99 27.4708 98.4 27.2735 97.2 27.2735C96.4 27.2735 95.8 27.2735 95.2 27.4708V35.5618ZM96.4 28.2602C96.6 28.0628 96.8 28.0628 97.4 28.0628C98.4 28.0628 99.2 28.4575 99.2 29.4442C99.2 30.2336 98.4 30.8256 97.4 30.8256H96.4V28.2602ZM96.4 31.615H97.2C98.4 31.615 99.4 32.207 99.4 33.1937C99.4 34.3777 98.4 34.9697 97.2 34.9697C96.8 34.9697 96.6 34.7724 96.4 34.7724V31.615ZM102 35.5618H106.8V34.7724H103.2V27.2735H102V35.5618ZM112.2 30.8256H109V28.2602H112.4V27.2735H108V35.5618H112.6V34.7724H109V31.8123H112.2V30.8256ZM53.4 44.2447H48.6V46.8102H50.6V49.7703C50.4 49.9676 49.8 49.9676 49.2 49.9676C46.8 49.9676 45.2 48.1915 45.2 45.4288C45.2 42.2713 47 40.6926 49.4 40.6926C50.8 40.6926 51.6 41.0873 52.4 41.482L53 38.9165C52.4 38.5219 51 38.1272 49.4 38.1272C45.2 38.1272 42.2 40.8899 42.2 45.4288C42.2 47.5995 42.8 49.3756 44 50.757C45.2 51.941 46.8 52.533 49.2 52.533C50.8 52.533 52.6 52.1383 53.4 51.7437V44.2447ZM62.2 48.7836L63.2 52.3357H66.2L62.4 38.3245H58.6L54.8 52.3357H57.6L58.6 48.7836H62.2ZM59 46.4155L59.8 43.4554C60 42.666 60.2 41.482 60.4 40.6926C60.6 41.482 60.8 42.4687 61 43.4554L61.8 46.4155H59ZM78.8 52.3357H81.6L81 38.3245H77.2L75.8 43.0607C75.4 44.6394 75 46.4155 74.6 47.9942C74.4 46.4155 74 44.6394 73.6 43.0607L72.4 38.3245H68.4L67.6 52.3357H70.4L70.6 47.0075C70.6 45.2314 70.8 43.0607 70.8 41.2846C71.2 43.0607 71.6 45.0341 72 46.8102L73.4 52.1383H75.6L77.2 46.6128C77.6 45.0341 78.2 43.0607 78.6 41.2846C78.6 43.258 78.6 45.2314 78.6 47.0075L78.8 52.3357ZM83.8 38.3245V52.3357H86.8V38.3245H83.8ZM91.8 52.3357V48.1915C91.8 45.8235 91.8 43.8501 91.8 42.074C92.4 43.6527 93.2 45.4288 94 47.0075L96.8 52.3357H99.8V38.3245H97.2V42.4687C97.2 44.4421 97.2 46.4155 97.4 48.3889C96.8 46.8102 96 45.0341 95.2 43.4554L92.6 38.3245H89.2V52.3357H91.8ZM112.8 44.2447H108.2V46.8102H110V49.7703C109.8 49.9676 109.4 49.9676 108.6 49.9676C106.4 49.9676 104.6 48.1915 104.6 45.4288C104.6 42.2713 106.4 40.6926 108.8 40.6926C110.2 40.6926 111.2 41.0873 111.8 41.482L112.4 38.9165C111.8 38.5219 110.6 38.1272 109 38.1272C104.8 38.1272 101.6 40.8899 101.6 45.4288C101.6 47.5995 102.2 49.3756 103.4 50.757C104.6 51.941 106.2 52.533 108.6 52.533C110.2 52.533 112 52.1383 112.8 51.7437V44.2447ZM21.6 52.1383H16.6V42.4687H15.2C13.2 42.666 12.2 43.4554 11.6 46.4155C11 49.3756 10.4 51.5463 10 52.1383H5C5.4 51.1516 6.2 47.9942 6.8 45.2314C7.4 43.0607 8.2 41.2846 9.8 40.6926V40.4953C7.8 39.9032 5.8 37.7325 5.8 34.5751C5.8 32.207 6.6 30.6283 7.8 29.4442C9.4 28.0628 11.8 27.4708 15 27.4708C17.6 27.4708 20 27.6682 21.6 28.0628V30.2336C23.8 28.4575 26.6 27.4708 30 27.4708C32.8 27.4708 35 28.0628 36 28.6549L35 32.9963C33.8 32.4043 32.4 32.0096 29.8 32.0096C25.8 32.0096 22.6 34.5751 22.6 39.9032C22.6 45.0341 25.4 47.9942 29.6 47.9942C30.6 47.9942 31.6 47.7969 32 47.5995V42.4687H28.6V38.1272H36.8V50.9543C35.2 51.5463 32.4 52.3357 29.4 52.3357C26 52.3357 23.6 51.5463 21.6 50.1649V52.1383ZM16.6 31.8123C16.4 31.8123 15.6 31.615 14.4 31.615C12.2 31.615 10.8 32.799 10.8 34.9697C10.8 37.1405 12.2 38.5219 14.8 38.5219H16.6V31.8123Z" fill="#E6ECF1"/>
</svg>
