<svg width="48" height="48" viewBox="0 0 48 48" fill="none" xmlns="http://www.w3.org/2000/svg">
<rect x="1.5" y="1.5" width="45" height="45" fill="#312442"/>
<rect x="1.5" y="1.5" width="45" height="45" stroke="#F4E02B" stroke-width="3" stroke-linejoin="bevel"/>
<path d="M28.5 26.6251C28.5 26.8476 28.434 27.0651 28.3104 27.2501C28.1868 27.4351 28.0111 27.5793 27.8055 27.6644C27.6 27.7496 27.3738 27.7718 27.1555 27.7284C26.9373 27.685 26.7368 27.5779 26.5795 27.4206C26.4222 27.2632 26.315 27.0628 26.2716 26.8445C26.2282 26.6263 26.2505 26.4001 26.3356 26.1945C26.4208 25.989 26.565 25.8133 26.75 25.6897C26.935 25.566 27.1525 25.5001 27.375 25.5001C27.6734 25.5001 27.9595 25.6186 28.1705 25.8296C28.3815 26.0405 28.5 26.3267 28.5 26.6251ZM20.625 25.5001C20.4025 25.5001 20.185 25.566 20 25.6897C19.815 25.8133 19.6708 25.989 19.5856 26.1945C19.5005 26.4001 19.4782 26.6263 19.5216 26.8445C19.565 27.0628 19.6722 27.2632 19.8295 27.4206C19.9868 27.5779 20.1873 27.685 20.4055 27.7284C20.6238 27.7718 20.85 27.7496 21.0555 27.6644C21.2611 27.5793 21.4368 27.4351 21.5604 27.2501C21.684 27.0651 21.75 26.8476 21.75 26.6251C21.75 26.3267 21.6315 26.0405 21.4205 25.8296C21.2095 25.6186 20.9234 25.5001 20.625 25.5001ZM34.5 27.7501V30.0001C34.5 30.3979 34.342 30.7794 34.0607 31.0607C33.7794 31.342 33.3978 31.5001 33 31.5001H15C14.6022 31.5001 14.2206 31.342 13.9393 31.0607C13.658 30.7794 13.5 30.3979 13.5 30.0001V27.856C13.4987 26.4102 13.7923 24.9793 14.3629 23.6509C14.9336 22.3225 15.7692 21.1244 16.8188 20.1301L14.4694 17.7807C14.3286 17.64 14.2496 17.4491 14.2496 17.2501C14.2496 17.051 14.3286 16.8602 14.4694 16.7194C14.6101 16.5787 14.801 16.4996 15 16.4996C15.199 16.4996 15.3899 16.5787 15.5306 16.7194L17.9831 19.1719C19.7441 17.9246 21.8481 17.2531 24.0061 17.25C26.1641 17.2468 28.2701 17.912 30.0347 19.1541L32.4722 16.7166C32.6129 16.5759 32.8038 16.4968 33.0028 16.4968C33.2018 16.4968 33.3927 16.5759 33.5334 16.7166C33.6742 16.8573 33.7532 17.0482 33.7532 17.2472C33.7532 17.4463 33.6742 17.6371 33.5334 17.7779L31.2019 20.1094C31.2722 20.176 31.3425 20.2435 31.4119 20.3129C32.3938 21.286 33.1725 22.4446 33.7027 23.7214C34.2328 24.9982 34.5039 26.3676 34.5 27.7501ZM33 27.7501C33 25.3631 32.0518 23.0739 30.364 21.3861C28.6761 19.6983 26.387 18.7501 24 18.7501H23.9681C19.0228 18.7669 15 22.8516 15 27.856V30.0001H33V27.7501Z" fill="white"/>
<path d="M0 0H25L6.70732 6.12903L0 19V0Z" fill="#F4E02B"/>
<path d="M48 0H13L40.8814 4.85714L48 17V0Z" fill="#F4E02B"/>
<path d="M48 48H21L41.4 42.0625L48 29V48Z" fill="#F4E02B"/>
<path d="M0 48H27.9608L6.68627 42.5357L0 31V48Z" fill="#F4E02B"/>
</svg>
