<svg width="48" height="48" viewBox="0 0 48 48" fill="none" xmlns="http://www.w3.org/2000/svg">
<rect x="1.5" y="1.5" width="45" height="45" fill="#312442"/>
<rect x="1.5" y="1.5" width="45" height="45" stroke="#F4E02B" stroke-width="3" stroke-linejoin="bevel"/>
<g clip-path="url(#clip0_102_23936)">
<path d="M32.9343 27.8991C32.8781 27.7705 32.7872 27.6602 32.6718 27.5803C31.0809 26.4872 30.75 24.6225 30.75 23.25C30.75 21.5934 32.0128 20.1506 32.7656 19.4372C32.8396 19.3671 32.8986 19.2826 32.9389 19.189C32.9792 19.0953 33 18.9945 33 18.8925C33 18.7905 32.9792 18.6897 32.9389 18.596C32.8986 18.5024 32.8396 18.4179 32.7656 18.3478C31.5768 17.2256 29.6081 16.5 27.75 16.5C26.4152 16.501 25.1105 16.8967 24 17.6372C22.7045 16.7685 21.1467 16.3783 19.5947 16.5338C18.0426 16.6894 16.5933 17.3809 15.4959 18.4894C14.8399 19.1591 14.3251 19.9539 13.9823 20.8264C13.6394 21.699 13.4754 22.6316 13.5 23.5688C13.5371 25.1506 13.889 26.7092 14.5351 28.1535C15.1812 29.5978 16.1086 30.899 17.2631 31.9809C17.9585 32.638 18.8798 33.0028 19.8365 33H28.0565C28.568 33.001 29.0742 32.8969 29.5439 32.6942C30.0135 32.4915 30.4364 32.1945 30.7865 31.8216C31.4351 31.1236 31.9961 30.3491 32.4572 29.5153C33.1153 28.3125 33.0309 28.125 32.9343 27.8991ZM29.6878 30.7997C29.4784 31.022 29.2256 31.1989 28.9449 31.3194C28.6643 31.4398 28.3619 31.5013 28.0565 31.5H19.8365C19.2635 31.5018 18.7117 31.2833 18.2953 30.8897C17.2847 29.9436 16.4728 28.8056 15.907 27.5421C15.3412 26.2787 15.0329 24.9152 15 23.5313C14.9795 22.7959 15.1071 22.064 15.3752 21.379C15.6434 20.6941 16.0466 20.07 16.5609 19.5441C17.0414 19.0532 17.6154 18.6636 18.2491 18.3984C18.8827 18.1332 19.5631 17.9977 20.25 18H20.3231C21.4915 18.0123 22.6216 18.4179 23.5312 19.1513C23.6642 19.2578 23.8296 19.3158 24 19.3158C24.1704 19.3158 24.3357 19.2578 24.4687 19.1513C25.3978 18.4021 26.5565 17.9956 27.75 18C28.9418 18.0138 30.1078 18.3491 31.125 18.9703C29.9062 20.3316 29.25 21.8269 29.25 23.25C29.25 25.4784 29.9662 27.2559 31.3293 28.4344C30.9001 29.2984 30.3471 30.0953 29.6878 30.7997ZM24.0215 14.8125C24.2295 14.0069 24.6995 13.2934 25.3575 12.7842C26.0156 12.275 26.8242 11.9992 27.6562 12H27.75C27.9489 12 28.1396 12.079 28.2803 12.2197C28.4209 12.3603 28.5 12.5511 28.5 12.75C28.5 12.9489 28.4209 13.1397 28.2803 13.2803C28.1396 13.421 27.9489 13.5 27.75 13.5H27.6562C27.1574 13.5 26.6726 13.6657 26.2783 13.9712C25.8839 14.2766 25.6022 14.7045 25.4775 15.1875C25.4277 15.3802 25.3035 15.5452 25.1321 15.6463C24.9607 15.7474 24.7561 15.7763 24.5634 15.7266C24.3707 15.6768 24.2057 15.5526 24.1046 15.3812C24.0035 15.2098 23.9746 15.0052 24.0243 14.8125H24.0215Z" fill="white"/>
</g>
<path d="M0 0H25L6.70732 6.12903L0 19V0Z" fill="#F4E02B"/>
<path d="M48 0H13L40.8814 4.85714L48 17V0Z" fill="#F4E02B"/>
<path d="M48 48H21L41.4 42.0625L48 29V48Z" fill="#F4E02B"/>
<path d="M0 48H27.9608L6.68627 42.5357L0 31V48Z" fill="#F4E02B"/>
<defs>
<clipPath id="clip0_102_23936">
<rect width="24" height="24" fill="white" transform="translate(12 12)"/>
</clipPath>
</defs>
</svg>
