<svg width="157" height="52" preserveAspectRatio="none" viewBox="0 0 157 52" fill="none" xmlns="http://www.w3.org/2000/svg">
<path d="M8.5 52L3.5 46L0.5 6L5.23172 0H30V52H8.5Z" fill="#7E93A8"/>
<path d="M8.5 52L3.5 46L0.5 6L5.23172 0H30V52H8.5Z" fill="url(#paint0_linear_102_23581)" fill-opacity="0.85"/>
<path opacity="0.3" d="M1.5 11L3.5 7.49996L30 7.40015V49H9.5L4.5 44.5L1.5 11Z" fill="#312442"/>
<path d="M6.5 40L12.5 49H30V3H9.5L3.5 8.5L5.28653 21.5582V33.1326V34.5138L6.5 40Z" fill="#E84A11"/>
<path d="M16 46L12.5 49H30V46H16Z" fill="url(#paint1_linear_102_23581)"/>
<path d="M16 46L12.5 49H30V46H16Z" fill="#A1330C"/>
<path d="M6.5 40L8 38L30 38.0836V4H9.5L3.5 7.5L5.28653 23.5582V35.5L6.5 40Z" fill="#A1330C"/>
<path d="M8 38L16 46H30V2H12L5.00647 9L6.57117 19.5582L7 33.1326L8 38Z" fill="#FAE425"/>
<path d="M11.5 39L20.1296 44H30V4H29L11 5L10 10.4368L8 19.8961L11.5 39Z" fill="url(#paint2_linear_102_23581)"/>
<g clip-path="url(#clip0_102_23581)">
<rect width="100" height="52" transform="translate(28.5)" fill="#7E93A8"/>
<rect width="100" height="52" transform="translate(28.5)" fill="url(#paint3_linear_102_23581)" fill-opacity="0.85"/>
<rect x="28.5" width="100" height="2" fill="#7E93A8"/>
<mask id="path-10-inside-1_102_23581" fill="white">
<path d="M28.5 2H128.5V46H28.5V2Z"/>
</mask>
<path d="M28.5 2H128.5V46H28.5V2Z" fill="url(#paint4_linear_102_23581)"/>
<path d="M28.5 4H128.5V0H28.5V4ZM128.5 44H28.5V48H128.5V44Z" fill="#FAE425" mask="url(#path-10-inside-1_102_23581)"/>
<path d="M28.5 46H128.5V49H28.5V46Z" fill="url(#paint5_linear_102_23581)"/>
<path d="M28.5 46H128.5V49H28.5V46Z" fill="url(#paint6_linear_102_23581)"/>
<rect x="28.5" y="49" width="100" height="3" fill="url(#paint7_radial_102_23581)" fill-opacity="0.65"/>
</g>
<path d="M155.758 43L150.5 52H127.5V0H150.797L156.758 6.07175L155.258 27.0359L155.758 43Z" fill="#7E93A8"/>
<path d="M155.758 43L150.5 52H127.5V0H150.797L156.758 6.07175L155.258 27.0359L155.758 43Z" fill="url(#paint8_linear_102_23581)" fill-opacity="0.85"/>
<path opacity="0.3" d="M155 40L150 49H127.5V7.58663L150.5 7.5L154.5 11L155 20V40Z" fill="#312442"/>
<path d="M152.5 8.5L148 4H127.5V49H147.5L153.5 40.0386L152.949 28.4642L154.421 17.271L152.5 8.5Z" fill="#E84A11"/>
<path d="M147.5 49L146 46H127.5V49H147.5Z" fill="url(#paint9_linear_102_23581)"/>
<path d="M147.5 49L146 46H127.5V49H147.5Z" fill="#A1330C"/>
<path d="M152.5 39L153.5 40L153 29.5L154.5 17L152.5 7.5L148 4H127.5V38.9049L152.5 39Z" fill="#A1330C"/>
<path d="M151.941 7L145.5 2H127.5V46H146L152.506 39L151.723 26.4642L152.506 15.271L151.941 7Z" fill="#FAE425"/>
<path d="M149.5 8.5L139 4H127.5V44H143L150 38L149.5 21.2334V8.5Z" fill="url(#paint10_linear_102_23581)"/>
<path opacity="0.6" d="M92 44H126L133.5 38L126 36.5L92 44Z" fill="url(#paint11_linear_102_23581)"/>
<path opacity="0.7" d="M106.57 4.09998L55.5 4.09999L81 10.4L110 4.09998H106.57Z" fill="url(#paint12_linear_102_23581)"/>
<path opacity="0.7" d="M111 4H122.5L133 8.5L123 9.39995L111 4Z" fill="url(#paint13_linear_102_23581)"/>
<path d="M97 7L79.5 4H111L97 7Z" fill="#FAE425"/>
<path d="M126 44H71L92 42.5L113.5 41.7L126 44Z" fill="#FAE425"/>
<path d="M93.0704 4H63L73 7.79999L97.5 4H93.0704Z" fill="#FAE425"/>
<path opacity="0.7" d="M27.5 5L26.5 10.4368L45 4L27.5 5Z" fill="url(#paint14_linear_102_23581)"/>
<path opacity="0.7" d="M63 4L73 7.79999L63.5 9.29999L46 4H63Z" fill="url(#paint15_linear_102_23581)"/>
<path opacity="0.6" d="M43.4 38L28 39L36.4 44H61L43.4 38Z" fill="url(#paint16_linear_102_23581)"/>
<path d="M45 44H93L67.5 41.8L51.5 42.8L45 44Z" fill="#FAE425"/>
<defs>
<linearGradient id="paint0_linear_102_23581" x1="15.25" y1="114.156" x2="15.25" y2="0.406246" gradientUnits="userSpaceOnUse">
<stop stop-color="#E84A11"/>
<stop offset="1" stop-color="#7E93A8"/>
</linearGradient>
<linearGradient id="paint1_linear_102_23581" x1="12.5" y1="44" x2="12.5" y2="49" gradientUnits="userSpaceOnUse">
<stop stop-color="#EDF02B"/>
<stop offset="0.625" stop-color="#F48F6B"/>
<stop offset="1" stop-color="#E84A11"/>
</linearGradient>
<linearGradient id="paint2_linear_102_23581" x1="25.6349" y1="3.16667" x2="25.6349" y2="49" gradientUnits="userSpaceOnUse">
<stop stop-color="#E84A11"/>
<stop offset="1" stop-color="#F4E02B"/>
</linearGradient>
<linearGradient id="paint3_linear_102_23581" x1="50" y1="114.156" x2="50" y2="0.406246" gradientUnits="userSpaceOnUse">
<stop stop-color="#E84A11"/>
<stop offset="1" stop-color="#7E93A8"/>
</linearGradient>
<linearGradient id="paint4_linear_102_23581" x1="108.659" y1="1.08333" x2="108.659" y2="51.5" gradientUnits="userSpaceOnUse">
<stop stop-color="#E84A11"/>
<stop offset="1" stop-color="#F4E02B"/>
</linearGradient>
<linearGradient id="paint5_linear_102_23581" x1="28.5" y1="44" x2="28.5" y2="49" gradientUnits="userSpaceOnUse">
<stop stop-color="#EDF02B"/>
<stop offset="0.625" stop-color="#F48F6B"/>
<stop offset="1" stop-color="#E84A11"/>
</linearGradient>
<linearGradient id="paint6_linear_102_23581" x1="31.5556" y1="48.9998" x2="126.833" y2="48.9998" gradientUnits="userSpaceOnUse">
<stop stop-color="#A1330C"/>
<stop offset="0.5" stop-color="#E53936"/>
<stop offset="1" stop-color="#A1330C"/>
</linearGradient>
<radialGradient id="paint7_radial_102_23581" cx="0" cy="0" r="1" gradientUnits="userSpaceOnUse" gradientTransform="translate(78.4999 49) scale(50.0001 90.0002)">
<stop stop-color="#BB1B18"/>
<stop offset="1" stop-color="#BB1B18" stop-opacity="0"/>
</radialGradient>
<linearGradient id="paint8_linear_102_23581" x1="142.129" y1="114.156" x2="142.129" y2="0.406246" gradientUnits="userSpaceOnUse">
<stop stop-color="#E84A11"/>
<stop offset="1" stop-color="#7E93A8"/>
</linearGradient>
<linearGradient id="paint9_linear_102_23581" x1="127.5" y1="44" x2="127.5" y2="49" gradientUnits="userSpaceOnUse">
<stop stop-color="#EDF02B"/>
<stop offset="0.625" stop-color="#F48F6B"/>
<stop offset="1" stop-color="#E84A11"/>
</linearGradient>
<linearGradient id="paint10_linear_102_23581" x1="145.536" y1="3.16667" x2="145.536" y2="49" gradientUnits="userSpaceOnUse">
<stop stop-color="#E84A11"/>
<stop offset="1" stop-color="#F4E02B"/>
</linearGradient>
<linearGradient id="paint11_linear_102_23581" x1="133.5" y1="39.375" x2="92" y2="39.375" gradientUnits="userSpaceOnUse">
<stop stop-color="#A1330C"/>
<stop offset="0.520833" stop-color="#F48F6B"/>
<stop offset="1" stop-color="#A1330C"/>
</linearGradient>
<linearGradient id="paint12_linear_102_23581" x1="82.75" y1="3.639" x2="82.75" y2="10.7073" gradientUnits="userSpaceOnUse">
<stop stop-color="#F4E02B"/>
<stop offset="1" stop-color="#F48F6B"/>
</linearGradient>
<linearGradient id="paint13_linear_102_23581" x1="122" y1="3.60488" x2="122" y2="9.66336" gradientUnits="userSpaceOnUse">
<stop stop-color="#FFC700"/>
<stop offset="1" stop-color="#FFA800"/>
</linearGradient>
<linearGradient id="paint14_linear_102_23581" x1="35.75" y1="3.52901" x2="35.75" y2="10.7508" gradientUnits="userSpaceOnUse">
<stop stop-color="#FFC700"/>
<stop offset="1" stop-color="#FFA800"/>
</linearGradient>
<linearGradient id="paint15_linear_102_23581" x1="59.5" y1="3.6122" x2="59.5" y2="9.55852" gradientUnits="userSpaceOnUse">
<stop stop-color="#FFC700"/>
<stop offset="1" stop-color="#FFA800"/>
</linearGradient>
<linearGradient id="paint16_linear_102_23581" x1="61" y1="40.3" x2="28" y2="40.3" gradientUnits="userSpaceOnUse">
<stop stop-color="#A1330C"/>
<stop offset="0.520833" stop-color="#F48F6B"/>
<stop offset="1" stop-color="#A1330C"/>
</linearGradient>
<clipPath id="clip0_102_23581">
<rect width="100" height="52" fill="white" transform="translate(28.5)"/>
</clipPath>
</defs>
</svg>
