<svg width="48" height="48" viewBox="0 0 48 48" fill="none" xmlns="http://www.w3.org/2000/svg">
<rect x="1.5" y="1.5" width="45" height="45" fill="#312442"/>
<rect x="1.5" y="1.5" width="45" height="45" stroke="#F4E02B" stroke-width="3" stroke-linejoin="bevel"/>
<path d="M32.25 24.7501H24.75C24.5511 24.7501 24.3603 24.8291 24.2197 24.9697C24.079 25.1104 24 25.3011 24 25.5001V30.886C23.9998 31.0618 24.0614 31.2321 24.174 31.3671C24.2865 31.5021 24.443 31.5933 24.6159 31.6247L32.1159 32.9879C32.1601 32.9961 32.205 33.0002 32.25 33.0001C32.4489 33.0001 32.6397 32.921 32.7803 32.7804C32.921 32.6397 33 32.449 33 32.2501V25.5001C33 25.3011 32.921 25.1104 32.7803 24.9697C32.6397 24.8291 32.4489 24.7501 32.25 24.7501ZM31.5 31.351L25.5 30.2607V26.2501H31.5V31.351ZM21.75 24.7501H15.75C15.5511 24.7501 15.3603 24.8291 15.2197 24.9697C15.079 25.1104 15 25.3011 15 25.5001V29.2501C15 29.4257 15.0617 29.5958 15.1743 29.7306C15.2868 29.8654 15.4431 29.9565 15.6159 29.9879L21.6159 31.0791C21.6602 31.0869 21.705 31.091 21.75 31.0913C21.9489 31.0913 22.1397 31.0123 22.2803 30.8716C22.421 30.731 22.5 30.5402 22.5 30.3413V25.5001C22.5 25.3011 22.421 25.1104 22.2803 24.9697C22.1397 24.8291 21.9489 24.7501 21.75 24.7501ZM21 29.4422L16.5 28.6238V26.2501H21V29.4422ZM32.7309 15.1744C32.6466 15.104 32.5478 15.0529 32.4415 15.0249C32.3352 14.9969 32.2241 14.9926 32.1159 15.0122L24.6159 16.3763C24.4431 16.4077 24.2868 16.4988 24.1743 16.6336C24.0617 16.7684 24 16.9385 24 17.1141V22.5001C24 22.699 24.079 22.8897 24.2197 23.0304C24.3603 23.171 24.5511 23.2501 24.75 23.2501H32.25C32.4489 23.2501 32.6397 23.171 32.7803 23.0304C32.921 22.8897 33 22.699 33 22.5001V15.7501C33 15.6403 32.9759 15.5318 32.9294 15.4323C32.8829 15.3329 32.8152 15.2448 32.7309 15.1744ZM31.5 21.7501H25.5V17.7394L31.5 16.6491V21.7501ZM22.2309 17.0832C22.1466 17.0127 22.0478 16.9617 21.9415 16.9337C21.8352 16.9056 21.7241 16.9013 21.6159 16.921L15.6159 18.0122C15.4431 18.0436 15.2868 18.1347 15.1743 18.2695C15.0617 18.4044 15 18.5744 15 18.7501V22.5001C15 22.699 15.079 22.8897 15.2197 23.0304C15.3603 23.171 15.5511 23.2501 15.75 23.2501H21.75C21.9489 23.2501 22.1397 23.171 22.2803 23.0304C22.421 22.8897 22.5 22.699 22.5 22.5001V17.6588C22.5 17.549 22.4759 17.4406 22.4294 17.3411C22.3829 17.2416 22.3152 17.1536 22.2309 17.0832ZM21 21.7501H16.5V19.3763L21 18.5626V21.7501Z" fill="white"/>
<path d="M0 0H25L6.70732 6.12903L0 19V0Z" fill="#F4E02B"/>
<path d="M48 0H13L40.8814 4.85714L48 17V0Z" fill="#F4E02B"/>
<path d="M48 48H21L41.4 42.0625L48 29V48Z" fill="#F4E02B"/>
<path d="M0 48H27.9608L6.68627 42.5357L0 31V48Z" fill="#F4E02B"/>
</svg>
