<svg width="167" height="112" viewBox="0 0 167 112" fill="none" xmlns="http://www.w3.org/2000/svg">
<g clip-path="url(#clip0_102_24656)">
<path fill-rule="evenodd" clip-rule="evenodd" d="M59.9165 46.2312H59.0055V65.8432H59.9165V46.2312ZM75.5976 46.2312H74.6866V65.8432H75.5976V46.2312ZM91.3204 46.2312H90.4291V65.8432H91.3204V46.2312ZM138.466 46.2312H137.554V65.8432H138.466V46.2312ZM122.801 46.2312H121.891V65.8432H122.801V46.2312ZM107.032 46.2312H106.12V65.8432H107.032V46.2312ZM28.406 46.2312H44.0254V65.8432H28.406V46.2312Z" fill="#FACA29"/>
<path fill-rule="evenodd" clip-rule="evenodd" d="M37.3494 60.0777C37.078 60.3682 36.6712 60.5233 36.1283 60.5233H34.3264V56.8026H36.3031C36.8066 56.8026 37.1747 56.9577 37.4074 57.3065C37.6209 57.6363 37.7372 58.1204 37.7372 58.7406C37.7372 59.3412 37.6012 59.7676 37.3494 60.0777ZM34.3264 51.5319H35.6245C36.2061 51.5319 36.6325 51.6672 36.9229 51.9576C37.2137 52.2487 37.3494 52.6942 37.3494 53.2951C37.3494 53.8569 37.2137 54.2641 36.9426 54.5548C36.6712 54.8453 36.2641 55.0004 35.7409 55.0201H34.3264V51.5319ZM39.9657 56.861C39.6362 56.3185 39.1324 55.9697 38.4345 55.8146C38.9967 55.5622 39.4038 55.2138 39.6943 54.7289C39.9657 54.2448 40.1014 53.6825 40.1014 53.0627C40.1014 51.8806 39.7139 50.989 38.9576 50.3881C38.2021 49.7876 37.1557 49.4968 35.7992 49.4968H31.9619V62.5776H36.3224C37.6596 62.5776 38.6672 62.2482 39.3841 61.6089C40.1014 60.9497 40.4695 60.0001 40.4695 58.76C40.4695 58.0234 40.2951 57.4035 39.9657 56.861Z" fill="#0C0A09"/>
<path fill-rule="evenodd" clip-rule="evenodd" d="M134.396 60.7175V55.9502H130.327V57.2873H132.575V60.2524C132.4 60.5818 132.148 60.8529 131.799 61.0663C131.45 61.2794 130.966 61.3761 130.346 61.3761C129.494 61.3761 128.834 61.0856 128.33 60.5041C127.846 59.9229 127.594 59.0703 127.594 57.9462V54.0512C127.594 52.9655 127.827 52.1322 128.292 51.551C128.757 50.9891 129.377 50.6984 130.172 50.6984C130.966 50.6984 131.548 50.9118 131.955 51.3376C132.342 51.7641 132.574 52.3843 132.594 53.2179H134.319L134.338 53.1596C134.28 51.9389 133.912 51.0085 133.215 50.3303C132.497 49.652 131.47 49.3222 130.152 49.3222C128.834 49.3222 127.768 49.7294 126.974 50.5627C126.179 51.3956 125.773 52.578 125.773 54.0895V57.9655C125.773 59.4964 126.199 60.6788 127.032 61.5121C127.866 62.3454 128.989 62.7522 130.346 62.7522C131.392 62.7522 132.265 62.5585 132.924 62.132C133.602 61.7059 134.086 61.2407 134.396 60.7175ZM118.761 49.5065H116.958V59.1768L116.901 59.1961L111.94 49.5065H110.118V62.568H111.94V52.8589H111.997L116.958 62.568H118.761V49.5065ZM101.742 51.3087V49.5065H95.6025V51.3087H97.7711V60.766H95.6025V62.568H97.7711H99.5732H101.742V60.766H99.5732V51.3087H101.742ZM77.6 49.5065V62.568H79.4019V57.5489L79.2469 52.5295H79.2855L82.4253 62.568H83.6267L86.7661 52.5102L86.8241 52.5295L86.6694 57.5489V62.568H88.4718V49.5065H86.1266L83.0645 60.1651H83.0065L79.9448 49.5065H77.6ZM65.6531 57.8397L67.3 52.1227H67.3583L68.9862 57.8397H65.6531ZM68.2109 49.5065H66.4666L62.4359 62.568H64.2963L65.2459 59.2735H69.4123L70.362 62.568H72.203L68.2109 49.5065ZM55.7215 60.7076C55.4307 61.2312 54.9462 61.7153 54.268 62.1225C53.5897 62.5486 52.7368 62.7617 51.6904 62.7617C50.3146 62.7617 49.2099 62.3356 48.3766 61.5023C47.5434 60.6884 47.1172 59.4869 47.1172 57.9557V54.0801C47.1172 52.5682 47.524 51.3862 48.3186 50.5725C49.1132 49.7392 50.1596 49.3127 51.4774 49.3127C52.8145 49.3127 53.8415 49.6616 54.5394 50.3205C55.2563 50.9987 55.6244 51.9483 55.6828 53.1497L55.6631 53.2078H53.9386C53.8999 52.3941 53.6864 51.774 53.2796 51.3474C52.8918 50.9017 52.2913 50.6886 51.4967 50.6886C50.7021 50.6886 50.0819 50.9793 49.617 51.5609C49.1519 52.1227 48.9388 52.956 48.9388 54.0607V57.9557C48.9388 59.0604 49.1716 59.9131 49.6751 60.4946C50.1596 61.0951 50.8382 61.3859 51.6904 61.3859C52.3106 61.3859 52.7951 61.2695 53.1443 61.0565C53.4734 60.8434 53.7448 60.572 53.8999 60.2428V57.2775H51.6714V55.9597H55.7215V60.7076Z" fill="white"/>
</g>
<defs>
<clipPath id="clip0_102_24656">
<rect width="167" height="111.33" fill="white"/>
</clipPath>
</defs>
</svg>
