<svg width="167" height="112" viewBox="0 0 167 112" fill="none" xmlns="http://www.w3.org/2000/svg">
<g clip-path="url(#clip0_102_24669)">
<g clip-path="url(#clip1_102_24669)">
<path d="M86.1423 35.5415H84.9812V75.7887H86.1423V68.0448H100.809V63.3561H89.5242V57.9565H99.171V53.2325H89.5242V48.0095H100.809V43.2854H86.1423V35.5415Z" fill="white"/>
<path d="M40.4912 58.4686L36.3234 51.7225L30.9812 43.3693L30.9283 43.2854H26.5V68.0448H31.4139V52.8262L35.0784 58.7556L40.9724 68.0448H45.436V43.2854H40.4912V58.4686Z" fill="white"/>
<path d="M48.1997 68.0448H64.4293V63.356H53.1445V57.9565H62.7913V53.2324H53.1445V48.0095H64.4293V43.2854H48.1997V68.0448Z" fill="white"/>
<path d="M66.4204 48.0448H72.0937V68.0448H77.0385V48.0448H82.6765V43.2854H66.4204V48.0448Z" fill="white"/>
<path d="M117.273 58.5084L113.105 51.7667L107.763 43.4135L107.71 43.3252H103.281V68.0846H108.191V52.866L111.855 58.7954L117.754 68.0846H122.217V43.3252H117.273V58.5084Z" fill="white"/>
<path d="M124.24 43.3252V48.0846H129.913V68.0846H134.858V48.0846H140.496V43.3252H124.24Z" fill="white"/>
</g>
</g>
<defs>
<clipPath id="clip0_102_24669">
<rect width="167" height="111.33" fill="white"/>
</clipPath>
<clipPath id="clip1_102_24669">
<rect width="114" height="40.2472" fill="white" transform="translate(26.5 35.5415)"/>
</clipPath>
</defs>
</svg>
