<svg width="167" height="112" viewBox="0 0 167 112" fill="none" xmlns="http://www.w3.org/2000/svg">
<g clip-path="url(#clip0_102_24679)">
<g clip-path="url(#clip1_102_24679)">
<path d="M140.5 35.491V72.3809C140.5 73.982 139.219 75.3269 137.554 75.3269H29.4461C27.7809 75.3269 26.5 73.982 26.5 72.3809V44.9696C26.5 43.3685 27.7809 42.0876 29.4461 42.0876H133.839L139.924 35.491H140.5Z" fill="#FF4040"/>
<path d="M48.4674 54.9607C48.4674 58.355 45.9056 60.8528 42.4471 60.8528H40.0134V65.3359H35.5303V49.1326H42.4471C45.9056 49.1326 48.4674 51.5663 48.4674 54.9607ZM43.8561 54.9607C43.8561 53.8078 43.0876 53.0393 41.9348 53.0393H40.0134V56.9461H41.9348C43.0876 56.9461 43.8561 56.1135 43.8561 54.9607Z" fill="white"/>
<path d="M50.2607 48.3H54.6158V65.336H50.2607V48.3Z" fill="white"/>
<path d="M70.6269 52.7832V65.336H67.2966L66.9123 64.4394C65.8876 65.272 64.6067 65.7203 63.1337 65.7203C59.355 65.7203 56.6011 62.9663 56.6011 59.0596C56.6011 55.1529 59.355 52.3989 63.1337 52.3989C64.6067 52.3989 65.9516 52.9113 66.9764 53.7439L67.4247 52.7832H70.6269ZM66.528 59.0596C66.528 57.4585 65.3752 56.2416 63.7741 56.2416C62.1089 56.2416 60.9561 57.4585 60.9561 59.0596C60.9561 60.7248 62.173 61.9416 63.7741 61.9416C65.3752 61.9416 66.528 60.7248 66.528 59.0596Z" fill="white"/>
<path d="M81.7709 61.5573V65.3359H78.8248C76.0709 65.3359 74.4057 63.6708 74.4057 60.8528V56.1135H72.1001V55.1528L77.7361 49.1326H78.5686V52.8472H81.7068V56.1135H78.6967V60.1483C78.6967 61.0449 79.2091 61.5573 80.1698 61.5573H81.7709Z" fill="white"/>
<path d="M83.8203 52.8471H88.1113V65.3359H83.8203V52.8471ZM83.8203 47.5955H88.1113V51.246H83.8203V47.5955Z" fill="white"/>
<path d="M104.699 59.0596C104.699 62.9663 102.009 65.7843 98.1662 65.7843C97.0134 65.7843 95.9887 65.4641 95.092 64.9517V69.8832H90.801V52.8472H93.7471L94.3235 53.8079C95.3482 52.9113 96.6291 52.3989 98.1662 52.3989C102.009 52.3989 104.699 55.1529 104.699 59.0596ZM100.408 59.0596C100.408 57.4585 99.1909 56.2416 97.5898 56.2416C95.9887 56.2416 94.7718 57.4585 94.7718 59.0596C94.7718 60.7248 95.9887 61.9416 97.5898 61.9416C99.1909 61.9416 100.408 60.7248 100.408 59.0596Z" fill="white"/>
<path d="M106.556 59.9562V52.8472H110.847V59.764C110.847 61.109 111.552 61.8775 112.704 61.8775C113.857 61.8775 114.562 61.109 114.562 59.764V52.8472H118.917V59.9562C118.917 63.4786 116.419 65.7842 112.704 65.7842C108.99 65.7202 106.556 63.4786 106.556 59.9562Z" fill="white"/>
<path d="M126.282 65.7203C122.824 65.7203 120.774 63.927 120.71 61.2371H124.873C124.873 62.1338 125.514 62.5821 126.346 62.5821C126.987 62.5821 127.563 62.2618 127.563 61.6214C127.563 60.8529 126.602 60.6607 125.385 60.4686C123.464 60.1484 120.902 59.572 120.902 56.5618C120.902 54.0001 123.016 52.3989 126.282 52.3989C129.42 52.3989 131.534 54.1281 131.534 56.6259H127.499C127.499 55.8574 126.987 55.4731 126.154 55.4731C125.514 55.4731 125.001 55.7933 125.001 56.3697C125.001 57.0742 125.962 57.2663 127.179 57.4585C129.164 57.8427 131.79 58.227 131.79 61.4293C131.79 64.0551 129.548 65.7203 126.282 65.7203Z" fill="white"/>
</g>
</g>
<defs>
<clipPath id="clip0_102_24679">
<rect width="167" height="111.33" fill="white"/>
</clipPath>
<clipPath id="clip1_102_24679">
<rect width="114" height="40.3483" fill="white" transform="translate(26.5 35.491)"/>
</clipPath>
</defs>
</svg>
