<svg width="167" height="112" viewBox="0 0 167 112" fill="none" xmlns="http://www.w3.org/2000/svg">
<g clip-path="url(#clip0_102_24692)">
<g clip-path="url(#clip1_102_24692)">
<path d="M33.1022 69.8599C33.1022 71.1804 32.7721 72.0607 32.0018 72.7209C31.5617 73.1611 30.9014 73.2711 30.0211 73.2711C28.9207 73.2711 28.1505 72.831 27.4902 72.0607C26.94 71.2904 26.72 70.5202 26.72 69.6399C26.72 68.5395 26.94 67.6592 27.6003 66.8889C27.9304 66.5588 28.2605 66.2287 28.5906 66.0086C29.0308 65.7885 29.4709 65.6785 30.0211 65.6785C30.5713 65.6785 31.0115 65.7885 31.5617 65.8985C32.0018 66.0086 32.3319 66.2287 32.552 66.5588C32.6621 66.6688 32.6621 66.7789 32.6621 66.8889C32.6621 66.9989 32.6621 67.109 32.552 67.219C32.442 67.329 32.3319 67.329 32.2219 67.329C32.1119 67.329 32.0018 67.329 31.8918 67.219C31.5617 66.9989 31.3416 66.7789 31.1215 66.6688C30.7914 66.5588 30.5713 66.4487 30.1312 66.4487C29.3609 66.4487 28.7007 66.7789 28.2605 67.4391C27.9304 67.9893 27.7103 68.6495 27.7103 69.4198C27.7103 70.5202 28.0404 71.2904 28.5906 71.9507C28.9207 72.2808 29.3609 72.5009 29.9111 72.5009C30.2412 72.5009 30.6814 72.3908 31.0115 72.2808C31.7817 71.9507 32.2219 71.1804 32.2219 70.1901V69.8599H30.9014C30.6814 69.8599 30.4613 69.7499 30.4613 69.4198C30.4613 69.0897 30.5713 68.9796 30.9014 68.9796H32.552C32.8821 68.9796 33.1022 69.3097 33.1022 69.7499V69.8599Z" fill="white"/>
<path d="M140.39 69.8599C140.39 71.1804 140.06 72.0607 139.289 72.7209C138.849 73.1611 138.189 73.2711 137.309 73.2711C136.208 73.2711 135.438 72.831 134.778 72.0607C134.228 71.2904 134.008 70.5202 134.008 69.6399C134.008 68.5395 134.228 67.6592 134.888 66.8889C135.218 66.5588 135.548 66.2287 135.878 66.0086C136.318 65.7885 136.759 65.6785 137.309 65.6785C137.859 65.6785 138.299 65.7885 138.849 65.8985C139.289 66.0086 139.62 66.2287 139.84 66.5588C139.95 66.6688 139.95 66.7789 139.95 66.8889C139.95 66.9989 139.95 67.109 139.84 67.219C139.73 67.329 139.62 67.329 139.509 67.329C139.399 67.329 139.289 67.329 139.179 67.219C138.849 66.9989 138.629 66.7789 138.409 66.6688C138.079 66.5588 137.859 66.4487 137.419 66.4487C136.649 66.4487 135.988 66.7789 135.548 67.4391C135.218 67.9893 134.998 68.6495 134.998 69.4198C134.998 70.5202 135.328 71.2904 135.878 71.9507C136.208 72.2808 136.648 72.5009 137.199 72.5009C137.529 72.5009 137.969 72.3908 138.299 72.2808C139.069 71.9507 139.509 71.1804 139.509 70.1901V69.8599H138.189C137.969 69.8599 137.749 69.7499 137.749 69.4198C137.749 69.0897 137.859 68.9796 138.189 68.9796H139.84C140.28 68.9796 140.5 69.1997 140.5 69.6399V69.8599H140.39Z" fill="white"/>
<path d="M78.5482 72.7209C78.5482 73.161 78.4382 73.3811 78.108 73.3811C77.888 73.3811 77.6679 73.2711 77.6679 72.9409L76.7876 66.8888L75.027 72.9409C74.9169 73.161 74.8069 73.2711 74.5868 73.2711C74.3667 73.2711 74.1467 73.161 74.1467 72.9409L72.386 66.8888L71.5057 72.9409C71.5057 73.2711 71.2857 73.3811 70.9555 73.3811C70.7355 73.3811 70.5154 73.161 70.5154 72.8309C70.5154 72.7209 70.5154 72.7209 70.5154 72.6108L71.6158 66.3386C71.6158 66.1186 71.7258 66.0085 71.8358 65.8985C71.9459 65.7884 72.166 65.6784 72.276 65.6784C72.4961 65.6784 72.6061 65.6784 72.7162 65.7884C72.8262 65.8985 72.9362 66.0085 72.9362 66.1186L74.4768 71.5104L76.0173 66.0085C76.0173 65.8985 76.1274 65.7884 76.2374 65.6784C76.3474 65.5684 76.4575 65.5684 76.6775 65.5684C76.8976 65.5684 77.0077 65.5684 77.1177 65.6784C77.2277 65.7884 77.3378 65.8985 77.3378 66.1186L78.5482 72.7209Z" fill="white"/>
<path d="M95.7143 72.8309C95.7143 73.161 95.6043 73.3811 95.2741 73.3811C94.944 73.3811 94.834 73.271 94.834 72.9409V66.3386C94.834 66.0085 94.944 65.8984 95.2741 65.8984C95.6043 65.8984 95.7143 66.0085 95.7143 66.3386V72.8309Z" fill="white"/>
<path d="M117.832 72.831C117.832 73.1611 117.722 73.2711 117.392 73.2711C117.172 73.2711 117.062 73.1611 116.842 72.941L112.88 67.329V72.7209C112.88 73.0511 112.77 73.1611 112.44 73.1611C112.11 73.1611 112 73.0511 112 72.7209V66.1186C112 65.7885 112.11 65.6785 112.33 65.6785C112.55 65.6785 112.66 65.7885 112.88 66.0086L116.732 71.6206V66.2287C116.732 66.1186 116.732 66.0086 116.842 65.8985C116.952 65.7885 117.062 65.7885 117.172 65.7885C117.502 65.7885 117.612 65.8985 117.612 66.2287V72.831H117.832Z" fill="white"/>
<path d="M54.8899 72.9409C54.8899 73.161 54.7798 73.271 54.4497 73.271C54.3397 73.271 54.2296 73.271 54.1196 73.161C54.0096 73.161 54.0096 73.161 54.0096 73.0509L53.5694 71.7305H50.1582L49.498 73.0509C49.3879 73.271 49.2779 73.3811 49.0578 73.3811C48.8378 73.3811 48.6177 73.271 48.6177 73.0509V72.9409V72.8309L51.0385 66.4486C51.1486 66.2286 51.1486 66.1185 51.2586 66.0085C51.3686 65.8984 51.4787 65.8984 51.5887 65.8984C51.6988 65.8984 51.8088 65.8984 52.0289 66.0085C52.1389 66.1185 52.2489 66.2286 52.2489 66.4486L54.6698 72.8309C54.8899 72.8309 54.8899 72.9409 54.8899 72.9409ZM53.2393 70.8502L51.8088 66.7787L50.2683 70.8502H53.2393Z" fill="white"/>
<path d="M122.014 43.7807C123.654 43.7807 124.985 42.4505 124.985 40.8097C124.985 39.1688 123.654 37.8386 122.014 37.8386C120.373 37.8386 119.042 39.1688 119.042 40.8097C119.042 42.4505 120.373 43.7807 122.014 43.7807Z" fill="white"/>
<path d="M140.5 40.8097C140.5 42.4602 139.179 43.7807 137.529 43.7807C135.878 43.7807 134.558 42.4602 134.558 40.8097C134.558 39.1591 135.878 37.8386 137.529 37.8386C139.179 37.8386 140.5 39.1591 140.5 40.8097Z" fill="white"/>
<path d="M122.014 58.3059C123.654 58.3059 124.985 56.9757 124.985 55.3348C124.985 53.694 123.654 52.3638 122.014 52.3638C120.373 52.3638 119.042 53.694 119.042 55.3348C119.042 56.9757 120.373 58.3059 122.014 58.3059Z" fill="white"/>
<path d="M140.5 55.3348C140.5 56.9854 139.179 58.3059 137.529 58.3059C135.878 58.3059 134.558 56.9854 134.558 55.3348C134.558 53.6842 135.878 52.3638 137.529 52.3638C139.179 52.3638 140.5 53.6842 140.5 55.3348Z" fill="white"/>
<path d="M132.797 48.0721C132.797 49.7227 131.477 51.0432 129.826 51.0432C128.176 51.0432 126.855 49.7227 126.855 48.0721C126.855 46.4215 128.176 45.1011 129.826 45.1011C131.477 45.1011 132.797 46.4215 132.797 48.0721Z" fill="white"/>
<path d="M114.091 57.6456L105.838 38.1687C105.728 37.9487 105.618 37.8386 105.398 37.8386H103.747H103.527H101.876C101.656 37.8386 101.546 37.9487 101.436 38.1687L93.0732 57.6456V57.7556C93.0732 57.9757 93.1833 58.0857 93.4034 58.0857H97.1447C97.3647 58.0857 97.4748 57.9757 97.5848 57.7556L99.3454 53.244H108.149L109.909 57.7556C110.019 57.9757 110.129 58.0857 110.349 58.0857H114.091C114.311 58.0857 114.421 57.9757 114.421 57.7556C114.201 57.7556 114.201 57.6456 114.091 57.6456ZM100.556 49.7228L103.637 41.9101L106.718 49.7228H100.556Z" fill="white"/>
<path d="M55.4402 44.1108C55.6603 43.3406 55.9904 43.0104 55.9904 43.0104C55.9904 43.0104 56.4305 42.2402 57.4209 41.8C58.4112 41.3599 59.2915 41.3599 59.2915 41.3599H66.6641C66.8842 41.3599 67.1043 41.1398 67.1043 40.9197V38.2788C67.1043 38.0587 66.8842 37.8386 66.6641 37.8386H58.5213C54.0097 37.8386 50.3784 41.8 50.3784 46.6417V47.8521V47.9622V48.1823V48.2923V49.5027C50.3784 54.3444 54.0097 58.3058 58.5213 58.3058H66.6641C66.8842 58.3058 67.1043 58.0857 67.1043 57.8657V55.1147C67.1043 54.8946 66.8842 54.6745 66.6641 54.6745H59.2915C59.2915 54.6745 58.3012 54.6745 57.4209 54.2344C56.4305 53.7942 55.9904 53.024 55.9904 53.024C55.9904 53.024 55.6603 52.5838 55.4402 51.9236C55.2201 51.1533 55.2201 50.1629 55.2201 50.1629V49.7228H66.6641C66.8842 49.7228 67.1043 49.5027 67.1043 49.2826V46.5317C67.1043 46.3116 66.8842 46.0915 66.6641 46.0915H55.2201V45.8714C55.2201 45.8714 55.3302 44.8811 55.4402 44.1108Z" fill="white"/>
<path d="M80.7492 58.0857H87.4615C87.6816 58.0857 87.7916 57.8657 87.7916 57.6456V54.8946C87.7916 54.6745 87.6816 54.4545 87.4615 54.4545H81.4094C81.4094 54.4545 80.6391 54.4545 79.8688 54.0143C79.0986 53.5741 78.6584 52.8039 78.6584 52.8039C78.6584 52.8039 78.2183 52.3637 78.2183 51.5935C78.2183 50.9332 78.2183 50.0529 78.2183 50.0529V48.0722V38.1687C78.2183 37.9487 78.1082 37.8386 77.8882 37.8386H74.3669C74.1468 37.8386 73.9268 38.0587 73.9268 38.2788C73.9268 38.2788 73.9268 38.2788 73.9268 38.3888V48.1823V49.5027V51.5935V51.7035C74.0368 55.2247 77.0078 58.0857 80.7492 58.0857Z" fill="white"/>
<path d="M44.6564 57.6456L39.9247 49.7228C42.3456 49.1726 43.9961 47.522 43.9961 43.8907C44.1062 39.049 40.805 37.9487 36.7336 37.8386H35.7432H26.9402C26.7201 37.8386 26.5 38.0587 26.5 38.2788V57.7556C26.5 57.9757 26.7201 58.1958 26.9402 58.1958H30.4614C30.6815 58.1958 30.9015 57.9757 30.9015 57.7556V50.1629H35.8533L40.2548 57.8657C40.3649 58.0857 40.5849 58.1958 40.805 58.1958H44.5463C44.7664 58.1958 44.8764 58.0857 44.8764 57.8657C44.6564 57.7556 44.6564 57.6456 44.6564 57.6456ZM36.8436 46.5317L35.7432 46.6417H30.7915V41.4699H35.8533H36.8436C39.1544 41.4699 39.8147 42.5703 39.8147 44.0008C39.7046 45.4313 39.0444 46.5317 36.8436 46.5317Z" fill="white"/>
</g>
</g>
<defs>
<clipPath id="clip0_102_24692">
<rect width="167" height="111.33" fill="white"/>
</clipPath>
<clipPath id="clip1_102_24692">
<rect width="114" height="35.6525" fill="white" transform="translate(26.5 37.8386)"/>
</clipPath>
</defs>
</svg>
