<svg width="167" height="112" viewBox="0 0 167 112" fill="none" xmlns="http://www.w3.org/2000/svg">
<g clip-path="url(#clip0_102_24663)">
<g clip-path="url(#clip1_102_24663)">
<path d="M60.8403 84.5942L56.2347 84.7495C56.1542 84.7528 56.0789 84.7902 56.0259 84.8547C55.9728 84.9196 55.9454 85.0028 55.9506 85.0898L56.0344 86.4435C56.0447 86.6137 56.1765 86.7453 56.3322 86.7414L57.5833 86.7249L57.8657 93.0896C57.8691 93.175 57.9051 93.2565 57.9633 93.3138C58.0232 93.3711 58.1019 93.3986 58.1789 93.3931L59.5926 93.2896C59.7501 93.2769 59.8716 93.1343 59.8682 92.9624L59.7039 86.6935L60.943 86.677C61.0234 86.677 61.1005 86.6379 61.1552 86.5751C61.2117 86.5101 61.2391 86.4253 61.234 86.3367L61.145 84.8916C61.1347 84.7197 60.9995 84.5881 60.8403 84.5942ZM66.2042 85.0083L64.811 84.9251C64.6501 84.9213 64.5218 85.0562 64.5132 85.2264L64.4926 88.5467L63.8868 88.6877L63.7327 84.9213C63.7259 84.7511 63.5975 84.6178 63.4418 84.6162L62.0692 84.6531C61.9887 84.6531 61.9117 84.6883 61.857 84.7473C61.8005 84.8084 61.7697 84.8916 61.7714 84.9769L62.023 93.3507C62.0247 93.5225 62.1547 93.6635 62.3156 93.6651L63.6865 93.6283C63.767 93.6283 63.8423 93.5947 63.8988 93.5357C63.9552 93.4746 63.9861 93.3914 63.9843 93.3083L63.8337 90.504L64.3728 90.5447L64.4687 93.0549C64.4653 93.1398 64.4943 93.2251 64.5491 93.2879C64.6039 93.3507 64.6809 93.3859 64.7596 93.3876L66.1922 93.495C66.1973 93.495 66.2042 93.495 66.2093 93.495C66.3616 93.4878 66.4848 93.3523 66.4899 93.186L66.4968 85.3354C66.5002 85.2506 66.4695 85.1675 66.4147 85.1047C66.3599 85.0436 66.2829 85.0083 66.2042 85.0083ZM71.366 84.3034L70.0995 84.4069C69.9472 84.4179 69.8274 84.5567 69.8274 84.7236C69.8274 84.7236 69.8394 89.9621 69.8223 90.6483C69.812 91.0553 69.8616 91.7376 69.4509 91.758C69.1684 91.7712 69.0675 91.3213 69.0623 90.689C69.0555 89.9769 69.1103 85.1025 69.112 85.0529C69.1137 84.8883 68.999 84.7495 68.8484 84.7324L67.409 84.5661C67.3252 84.5567 67.2413 84.5865 67.1797 84.6476C67.1181 84.7087 67.0821 84.7957 67.0838 84.886C67.0838 84.886 67.1386 91.0255 67.1421 91.242C67.1592 92.0372 67.7274 93.4674 69.3242 93.419C71.1161 93.3672 71.4396 92.2151 71.5492 90.8686C71.5954 90.3079 71.6793 85.1912 71.6844 84.6234C71.6844 84.5347 71.6501 84.4477 71.5902 84.3887C71.5303 84.3276 71.4482 84.2979 71.366 84.3034ZM76.9353 84.6382L75.6208 84.7065C75.5421 84.712 75.4685 84.7495 75.4137 84.8139C75.3624 84.8789 75.335 84.9621 75.3401 85.0491L75.5575 88.9818L74.1934 84.9174C74.1472 84.7809 74.0188 84.6955 73.8853 84.7104L72.5675 84.8679C72.4169 84.886 72.3022 85.0248 72.3039 85.1895L72.5213 92.942C72.523 93.1084 72.6411 93.2472 72.7951 93.2582L74.1164 93.3639C74.2002 93.3711 74.2841 93.3375 74.344 93.273C74.4039 93.208 74.4365 93.1194 74.4313 93.0291L74.2259 89.6366L75.3658 93.1601C75.4069 93.2785 75.5078 93.36 75.626 93.3672L77.0174 93.3656C77.0277 93.3672 77.0379 93.3672 77.0482 93.3656C77.1184 93.3617 77.1851 93.3303 77.2382 93.2785C77.2964 93.2174 77.3306 93.1326 77.3289 93.0434L77.245 84.9543C77.2433 84.8679 77.2108 84.7842 77.1526 84.7252C77.0944 84.6663 77.0157 84.6344 76.9353 84.6382ZM78.6964 84.4736C78.604 84.4736 78.5115 84.4736 78.414 84.4774C78.2582 84.4813 78.1316 84.6162 78.1264 84.7864L77.8903 92.8402C77.8851 93.0103 78.0049 93.1546 78.1624 93.1695C78.1692 93.1695 78.337 93.1844 78.5988 93.1844C79.5247 93.1844 81.7326 93.0032 82.2426 91.3235C82.667 89.9268 82.6003 88.018 82.4925 87.1115C82.2837 85.3376 81.0411 84.4736 78.6964 84.4736ZM80.6663 89.7809C80.5089 91.1423 80.1152 91.2271 79.6822 91.3901L79.8859 86.3306C80.0364 86.3736 80.2264 86.3697 80.4695 86.7194C80.8221 87.2299 80.8203 88.4509 80.6663 89.7809ZM86.8072 91.7486L85.0803 91.8951L84.9998 90.1504L86.1174 90.0838C86.2612 90.0728 86.3775 89.9527 86.393 89.7991L86.4974 88.7262C86.5059 88.6337 86.4768 88.5396 86.4186 88.4729C86.3588 88.4046 86.2749 88.371 86.1876 88.3732L84.9758 88.4393V86.547H86.7678H86.7695C86.9355 86.5509 87.0656 86.4049 87.0656 86.2271C87.0656 86.2034 87.0621 86.1791 87.057 86.1571L86.9578 85.021C86.9424 84.8547 86.8123 84.7291 86.6548 84.7324L83.3739 84.8194C83.213 84.8249 83.0846 84.9676 83.0864 85.1416L83.1908 93.1084C83.1925 93.2824 83.3243 93.4228 83.4868 93.4228L86.8055 93.4245C86.9646 93.4245 87.0947 93.2879 87.0998 93.1139L87.1255 92.0741C87.1289 91.9838 87.0947 91.8968 87.0331 91.834C86.9732 91.7745 86.8893 91.7431 86.8072 91.7486ZM92.1744 87.0763C92.1008 85.9589 91.7431 84.4736 89.4925 84.4736C89.0098 84.4736 88.4417 84.5418 87.8101 84.6751C87.6698 84.7049 87.5688 84.8398 87.5722 84.9934L87.6749 92.7867C87.6783 92.9514 87.7947 93.0863 87.947 93.1012L88.9808 93.1877C89.0629 93.197 89.1433 93.1656 89.2033 93.1045C89.2649 93.0456 89.2974 92.9602 89.2974 92.8699V90.3558L89.8245 90.3245L90.4081 93.0158C90.4338 93.1673 90.557 93.2747 90.6974 93.2747C90.7043 93.2747 90.7128 93.2747 90.7213 93.2747L91.7534 93.1877C91.8356 93.1805 91.9143 93.1359 91.9639 93.066C92.0135 92.9955 92.0358 92.9029 92.0204 92.8143L91.2879 89.8194C91.8013 89.3976 92.2771 88.6299 92.1744 87.0763ZM90.3089 88.1766C90.0436 88.4856 89.5866 88.5781 89.2974 88.604V86.3069C89.3898 86.2843 89.4874 86.2733 89.5798 86.2733C89.9752 86.2733 90.4578 86.4661 90.5228 87.3797C90.5467 87.7201 90.4766 87.9806 90.3089 88.1766ZM96.1143 89.3623C96.5404 88.7538 97.6221 87.3445 97.5092 84.8734C97.5057 84.788 97.4698 84.7065 97.4099 84.6492C97.3517 84.5942 97.273 84.5644 97.1942 84.5699L95.9654 84.6586C95.8028 84.6696 95.6796 84.8216 95.6916 84.9989C95.7343 85.6984 95.3064 87.1908 94.6921 88.1309L94.7793 85.0931C94.781 85.0067 94.7502 84.9229 94.6938 84.8602C94.6373 84.799 94.5603 84.7643 94.4798 84.766L92.8966 84.7919C92.8179 84.7935 92.7426 84.8271 92.6879 84.8883C92.6348 84.9488 92.6057 85.0303 92.6057 85.1157L92.7649 93.1822C92.7666 93.273 92.8042 93.3578 92.8676 93.4173C92.9309 93.4763 93.0165 93.5021 93.0969 93.4911L94.3309 93.3154C94.4764 93.2934 94.5859 93.1618 94.5859 93.0032L94.6048 90.6373C94.8563 90.7997 95.5889 91.9502 95.7138 93.0863C95.7309 93.2472 95.8575 93.3694 96.0082 93.3672L97.3089 93.3617C97.3158 93.3617 97.3209 93.36 97.3277 93.36C97.3996 93.3545 97.4681 93.3209 97.5194 93.2637C97.5742 93.2025 97.605 93.1216 97.6033 93.0346C97.6016 92.7476 97.1566 90.271 96.1143 89.3623ZM99.7991 84.4014L98.3923 84.5975C98.2451 84.6178 98.1356 84.7528 98.1339 84.9141L98.1201 92.8181C98.1201 92.9068 98.1544 92.9916 98.2143 93.0527C98.2725 93.11 98.3495 93.1414 98.4282 93.1381C98.4316 93.1381 98.4351 93.1381 98.4368 93.1381L99.9668 93.0142C100.123 93.0032 100.242 92.8605 100.241 92.692L100.129 84.7142C100.128 84.6234 100.092 84.5363 100.027 84.4774C99.9668 84.4163 99.883 84.3887 99.7991 84.4014ZM102.793 84.6327C102.366 84.6625 100.966 84.9323 100.85 87.1616C100.835 87.4442 100.821 87.7146 100.805 87.9696C100.72 89.4846 100.66 90.5816 100.84 91.5289C100.948 92.0945 101.387 93.4135 103.123 93.4135C103.231 93.4135 103.344 93.408 103.457 93.3986C104.181 93.3342 104.718 93.0825 105.053 92.6513C105.529 92.0394 105.466 91.2552 105.432 90.8333L105.425 90.7502C105.413 90.5778 105.278 90.45 105.118 90.4561L104.023 90.5078C103.939 90.5111 103.861 90.5541 103.807 90.624C103.754 90.6962 103.732 90.7871 103.746 90.8774C103.77 91.0365 103.795 91.5454 103.604 91.7916C103.556 91.856 103.465 91.9414 103.26 91.9447L103.244 91.9469C103.087 91.9469 102.967 91.8968 102.875 91.7877C102.714 91.6065 102.534 91.1627 102.585 90.075C102.597 89.8233 102.608 89.527 102.62 89.2147C102.649 88.4008 102.683 87.4794 102.753 86.9006L102.755 86.8802C102.808 86.4402 102.887 86.2529 103.227 86.2364C103.472 86.2254 103.641 86.2788 103.73 86.3956C103.843 86.5454 103.831 86.7987 103.818 86.8819C103.801 86.9744 103.823 87.0708 103.878 87.1446C103.934 87.2189 104.016 87.2613 104.104 87.263L105.423 87.2834C105.581 87.2834 105.718 87.1484 105.723 86.9766C105.724 86.9392 105.745 86.0679 105.137 85.3911C104.622 84.8161 103.831 84.5589 102.793 84.6327ZM111.565 92.7162C111.545 92.6237 110.975 90.2044 109.817 89.0611C110.385 88.4839 111.542 87.3406 111.157 84.744C111.131 84.5754 110.987 84.4587 110.833 84.4774L109.308 84.6625C109.228 84.6718 109.154 84.7159 109.106 84.7864C109.058 84.8563 109.038 84.9433 109.05 85.0303C109.053 85.0562 109.365 86.9336 108.182 88.0604L108.211 84.8602C108.211 84.7698 108.175 84.6828 108.114 84.6217C108.05 84.5606 107.966 84.533 107.883 84.5418L106.358 84.7252C106.205 84.744 106.092 84.8844 106.096 85.0507L106.274 93.0621C106.277 93.1508 106.311 93.2361 106.375 93.2951C106.431 93.349 106.503 93.3766 106.578 93.3727C106.585 93.3727 106.592 93.3727 106.601 93.3711L107.891 93.2158C108.035 93.197 108.144 93.0693 108.153 92.9162L108.261 90.4131C108.666 90.8686 109.351 92.0339 109.461 93.012C109.479 93.186 109.625 93.3099 109.786 93.2918L111.31 93.1084C111.395 93.099 111.47 93.0511 111.518 92.9773C111.568 92.8974 111.585 92.8033 111.565 92.7162Z" fill="white"/>
<path d="M107.872 57.608L109.682 45.1102L102.111 29.4277L96.9677 31.1693L90.2542 24.0547L78.3956 17.665L75.8006 27.1421L73.9682 22.1665L64.8581 30.9629L59.7631 39.7645L59.5388 48.885L55.95 47.1963L58.3966 61.8093L63.9454 71.2198L77.0377 75.6563L87.761 76.0419L106.252 69.3605L111.573 56.3543L107.872 57.608ZM99.8715 50.6691L89.388 50.9489L89.0102 62.6075L88.4442 69.5106L79.31 69.4168V62.7952L78.5543 51.2286L67.5998 51.6943L67.222 40.5013L83.3561 40.4075L100.058 39.9419L100.341 41.4344L99.8715 50.6691Z" fill="white"/>
</g>
</g>
<defs>
<clipPath id="clip0_102_24663">
<rect width="167" height="111.33" fill="white"/>
</clipPath>
<clipPath id="clip1_102_24663">
<rect width="55.6232" height="76" fill="white" transform="translate(55.95 17.665)"/>
</clipPath>
</defs>
</svg>
