<svg width="104" height="59" viewBox="0 0 104 59" fill="none" xmlns="http://www.w3.org/2000/svg">
<g clip-path="url(#clip0_102_24138)">
<path d="M18.1289 25.7666H38.0648V23.1129L28.0959 18.7588L18.1289 23.1129V25.7666Z" fill="#E6ECF1"/>
<path d="M19.317 26.4707H23.5819V27.5852H22.9054V35.4692H23.5819V36.5443H19.317V35.4692H20.0741L20.0472 27.5727H19.29L19.317 26.4707Z" fill="#E6ECF1"/>
<path d="M25.9683 26.4707H30.235V27.5852H29.5568V35.4692H30.235V36.5443H25.9683V35.4692H26.7255L26.6986 27.5727H25.9414L25.9683 26.4707Z" fill="#E6ECF1"/>
<path d="M32.6136 26.4707H36.8785V27.5852H36.2021V35.4692H36.8785V36.5443H32.6136V35.4692H33.3707L33.3438 27.5727H32.5867L32.6136 26.4707Z" fill="#E6ECF1"/>
<path d="M38.0648 37.3398H18.1289V38.2429H38.0648V37.3398Z" fill="#E6ECF1"/>
<path d="M39.5272 39.0403H16.6667V39.9433H39.5272V39.0403Z" fill="#E6ECF1"/>
<path d="M45.32 25.4902H43.8804L43.8727 24.6973H45.0813C45.2943 24.6973 45.4688 24.6703 45.6048 24.6164C45.7408 24.56 45.8422 24.4792 45.9089 24.3739C45.9782 24.2662 46.0128 24.1353 46.0128 23.9813C46.0128 23.8068 45.9794 23.6657 45.9127 23.5579C45.8486 23.4501 45.7472 23.3719 45.6087 23.3231C45.4726 23.2744 45.2969 23.25 45.0813 23.25H44.2807V27.9497H43.126V22.3455H45.0813C45.4072 22.3455 45.6985 22.3763 45.9551 22.4378C46.2143 22.4994 46.4337 22.5931 46.6133 22.7188C46.7929 22.8445 46.9302 23.0036 47.0251 23.1961C47.12 23.386 47.1675 23.6118 47.1675 23.8736C47.1675 24.1045 47.1149 24.3175 47.0097 24.5125C46.9071 24.7075 46.7441 24.8666 46.5209 24.9898C46.3002 25.113 46.0115 25.181 45.6548 25.1938L45.32 25.4902ZM45.2699 27.9497H43.5648L44.0151 27.0491H45.2699C45.4727 27.0491 45.6382 27.017 45.7665 26.9528C45.8948 26.8861 45.9897 26.7963 46.0513 26.6834C46.1129 26.5705 46.1437 26.4409 46.1437 26.2946C46.1437 26.1304 46.1155 25.988 46.059 25.8674C46.0051 25.7468 45.9179 25.6544 45.7973 25.5903C45.6767 25.5235 45.5176 25.4902 45.32 25.4902H44.2076L44.2153 24.6973H45.601L45.8666 25.009C46.2078 25.0039 46.4824 25.0642 46.6903 25.1899C46.9007 25.3131 47.0533 25.4735 47.1483 25.6711C47.2458 25.8687 47.2946 26.0803 47.2946 26.3062C47.2946 26.6654 47.2163 26.9682 47.0598 27.2146C46.9032 27.4583 46.6736 27.6418 46.3708 27.765C46.0705 27.8881 45.7036 27.9497 45.2699 27.9497ZM50.4393 23.3039L48.915 27.9497H47.6871L49.7695 22.3455H50.5509L50.4393 23.3039ZM51.7056 27.9497L50.1775 23.3039L50.0544 22.3455H50.8434L52.9373 27.9497H51.7056ZM51.6363 25.8635V26.7681H48.6764V25.8635H51.6363ZM58.0182 22.3455V27.9497H56.8635L54.6116 24.193V27.9497H53.4569V22.3455H54.6116L56.8673 26.106V22.3455H58.0182ZM60.1772 22.3455V27.9497H59.0226V22.3455H60.1772ZM63.5339 22.3455L61.313 25.113L60.0311 26.4909L59.8234 25.3978L60.6895 24.2123L62.1172 22.3455H63.5339ZM62.2212 27.9497L60.5699 25.3593L61.4246 24.6434L63.5878 27.9497H62.2212ZM45.6317 31.0744V36.6786H44.4809V31.0744H45.6317ZM47.3562 31.0744V31.9789H42.7834V31.0744H47.3562ZM48.0143 31.0744H50.1044C50.5329 31.0744 50.9011 31.1385 51.209 31.2668C51.5196 31.3952 51.7582 31.585 51.925 31.8365C52.0918 32.088 52.1752 32.3972 52.1752 32.7641C52.1752 33.0643 52.1239 33.3222 52.0212 33.5378C51.9211 33.7508 51.7787 33.9291 51.594 34.0728C51.4118 34.2139 51.1975 34.3268 50.9512 34.4116L50.5855 34.604H48.7687L48.761 33.7033H50.1121C50.3148 33.7033 50.4829 33.6674 50.6163 33.5955C50.7498 33.5237 50.8498 33.4236 50.9165 33.2953C50.9858 33.167 51.0204 33.0182 51.0204 32.8488C51.0204 32.6692 50.9871 32.5139 50.9204 32.3831C50.8537 32.2522 50.7523 32.1521 50.6163 32.0828C50.4803 32.0135 50.3097 31.9789 50.1044 31.9789H49.1691V36.6786H48.0143V31.0744ZM51.1475 36.6786L49.8696 34.1806L51.0897 34.1729L52.383 36.6248V36.6786H51.1475ZM55.3428 32.0328L53.8187 36.6786H52.5909L54.6734 31.0744H55.4544L55.3428 32.0328ZM56.6091 36.6786L55.0812 32.0328L54.9582 31.0744H55.7472L57.8409 36.6786H56.6091ZM56.54 34.5924V35.497H53.5801V34.5924H56.54ZM62.9218 31.0744V36.6786H61.7671L59.5154 32.922V36.6786H58.3607V31.0744H59.5154L61.7709 34.8349V31.0744H62.9218ZM66.8442 35.2121C66.8442 35.1121 66.8286 35.0223 66.7978 34.9427C66.7697 34.8606 66.7158 34.7862 66.6361 34.7195C66.5567 34.6502 66.4451 34.5822 66.3012 34.5155C66.1576 34.4487 65.9716 34.3795 65.743 34.3076C65.489 34.2255 65.2479 34.1331 65.0197 34.0305C64.7937 33.9278 64.5936 33.8085 64.419 33.6725C64.2473 33.5339 64.111 33.3736 64.0112 33.1914C63.9136 33.0092 63.865 32.7975 63.865 32.5563C63.865 32.3228 63.9162 32.1111 64.0187 31.9212C64.1213 31.7287 64.2652 31.5645 64.4497 31.4285C64.6346 31.2899 64.8526 31.1834 65.1043 31.109C65.3584 31.0346 65.6367 30.9974 65.9393 30.9974C66.3528 30.9974 66.7132 31.0718 67.0211 31.2206C67.329 31.3695 67.5675 31.5735 67.7368 31.8327C67.9089 32.0918 67.995 32.3882 67.995 32.7218H66.8479C66.8479 32.5575 66.8134 32.4139 66.7439 32.2907C66.6771 32.165 66.5746 32.0662 66.436 31.9943C66.3 31.9225 66.128 31.8865 65.9203 31.8865C65.7202 31.8865 65.5531 31.9173 65.4199 31.9789C65.2866 32.0379 65.1863 32.1188 65.1195 32.2214C65.0531 32.3215 65.0197 32.4344 65.0197 32.5601C65.0197 32.6551 65.0428 32.741 65.0888 32.818C65.1377 32.895 65.2095 32.9668 65.3044 33.0336C65.3994 33.1003 65.5159 33.1631 65.6545 33.2222C65.7931 33.2812 65.9537 33.3389 66.1356 33.3954C66.4413 33.4878 66.7094 33.5917 66.9402 33.7072C67.1737 33.8226 67.3689 33.9522 67.5253 34.0959C67.6818 34.2396 67.7999 34.4025 67.8796 34.5847C67.959 34.7669 67.9988 34.9735 67.9988 35.2045C67.9988 35.4482 67.9514 35.6663 67.8564 35.8588C67.7615 36.0512 67.6241 36.2142 67.4445 36.3476C67.2649 36.4811 67.0507 36.5824 66.8016 36.6517C66.5529 36.721 66.2742 36.7556 65.9663 36.7556C65.6895 36.7556 65.4161 36.7197 65.1465 36.6478C64.8773 36.5734 64.632 36.4618 64.4114 36.313C64.1934 36.1641 64.0187 35.9743 63.8877 35.7433C63.7571 35.5124 63.6914 35.2391 63.6914 34.9235H64.8503C64.8503 35.0979 64.8773 35.2455 64.9312 35.3661C64.9851 35.4867 65.0607 35.5842 65.1582 35.6586C65.2581 35.733 65.3762 35.7869 65.5121 35.8203C65.6507 35.8536 65.8022 35.8703 65.9663 35.8703C66.1668 35.8703 66.3308 35.8421 66.4591 35.7856C66.5901 35.7292 66.6862 35.651 66.7477 35.5509C66.8119 35.4508 66.8442 35.3379 66.8442 35.2121ZM69.9388 31.0744V36.6786H68.7841V31.0744H69.9388ZM72.1711 33.4685V34.3692H69.6232V33.4685H72.1711ZM72.4407 31.0744V31.9789H69.6232V31.0744H72.4407ZM76.8707 35.778V36.6786H73.8877V35.778H76.8707ZM74.2652 31.0744V36.6786H73.1105V31.0744H74.2652ZM76.4823 33.3569V34.2345H73.8877V33.3569H76.4823ZM76.8669 31.0744V31.9789H73.8877V31.0744H76.8669ZM77.5443 31.0744H79.6346C80.0629 31.0744 80.4312 31.1385 80.7392 31.2668C81.0498 31.3952 81.2882 31.585 81.4553 31.8365C81.622 32.088 81.7051 32.3972 81.7051 32.7641C81.7051 33.0643 81.6539 33.3222 81.5514 33.5378C81.4511 33.7508 81.3087 33.9291 81.1242 34.0728C80.9419 34.2139 80.7278 34.3268 80.4813 34.4116L80.1157 34.604H78.2988L78.2912 33.7033H79.6422C79.845 33.7033 80.0132 33.6674 80.1464 33.5955C80.2797 33.5237 80.38 33.4236 80.4468 33.2953C80.5159 33.167 80.5505 33.0182 80.5505 32.8488C80.5505 32.6692 80.5174 32.5139 80.4506 32.3831C80.3838 32.2522 80.2824 32.1521 80.1464 32.0828C80.0105 32.0135 79.8396 31.9789 79.6346 31.9789H78.699V36.6786H77.5443V31.0744ZM80.6777 36.6786L79.3996 34.1806L80.6199 34.1729L81.9132 36.6248V36.6786H80.6777ZM85.5121 35.2121C85.5121 35.1121 85.4965 35.0223 85.4658 34.9427C85.4377 34.8606 85.3838 34.7862 85.3044 34.7195C85.2247 34.6502 85.113 34.5822 84.9695 34.5155C84.8256 34.4487 84.6395 34.3795 84.4113 34.3076C84.1573 34.2255 83.9158 34.1331 83.6876 34.0305C83.4617 33.9278 83.2616 33.8085 83.0873 33.6725C82.9153 33.5339 82.7793 33.3736 82.6791 33.1914C82.5815 33.0092 82.5329 32.7975 82.5329 32.5563C82.5329 32.3228 82.5842 32.1111 82.6867 31.9212C82.7896 31.7287 82.9331 31.5645 83.118 31.4285C83.3026 31.2899 83.5209 31.1834 83.7723 31.109C84.0263 31.0346 84.3046 30.9974 84.6076 30.9974C85.0208 30.9974 85.3811 31.0718 85.689 31.2206C85.997 31.3695 86.2358 31.5735 86.4052 31.8327C86.5768 32.0918 86.663 32.3882 86.663 32.7218H85.5159C85.5159 32.5575 85.4813 32.4139 85.4119 32.2907C85.3454 32.165 85.2425 32.0662 85.1039 31.9943C84.968 31.9225 84.796 31.8865 84.5883 31.8865C84.3882 31.8865 84.2215 31.9173 84.0878 31.9789C83.9545 32.0379 83.8543 32.1188 83.7878 32.2214C83.721 32.3215 83.6876 32.4344 83.6876 32.5601C83.6876 32.6551 83.7108 32.741 83.7567 32.818C83.8057 32.895 83.8775 32.9668 83.9724 33.0336C84.0673 33.1003 84.1843 33.1631 84.3229 33.2222C84.4614 33.2812 84.6217 33.3389 84.8039 33.3954C85.1092 33.4878 85.3773 33.5917 85.6082 33.7072C85.8417 33.8226 86.0369 33.9522 86.1933 34.0959C86.3497 34.2396 86.4678 34.4025 86.5476 34.5847C86.6269 34.7669 86.6668 34.9735 86.6668 35.2045C86.6668 35.4482 86.6193 35.6663 86.5244 35.8588C86.4295 36.0512 86.292 36.2142 86.1124 36.3476C85.9328 36.4811 85.7187 36.5824 85.4696 36.6517C85.2209 36.721 84.9425 36.7556 84.6346 36.7556C84.3574 36.7556 84.084 36.7197 83.8148 36.6478C83.5452 36.5734 83.3003 36.4618 83.0793 36.313C82.8614 36.1641 82.6867 35.9743 82.5561 35.7433C82.4251 35.5124 82.3598 35.2391 82.3598 34.9235H83.5183C83.5183 35.0979 83.5452 35.2455 83.5991 35.3661C83.653 35.4867 83.7286 35.5842 83.8262 35.6586C83.9261 35.733 84.0441 35.7869 84.1805 35.8203C84.3187 35.8536 84.4702 35.8703 84.6346 35.8703C84.8347 35.8703 84.9987 35.8421 85.1271 35.7856C85.2581 35.7292 85.3541 35.651 85.4156 35.5509C85.4798 35.4508 85.5121 35.3379 85.5121 35.2121Z" fill="#E6ECF1"/>
</g>
<defs>
<clipPath id="clip0_102_24138">
<rect width="70" height="35" fill="white" transform="translate(16.6667 12)"/>
</clipPath>
</defs>
</svg>
