<svg width="104" height="59" viewBox="0 0 104 59" fill="none" xmlns="http://www.w3.org/2000/svg">
<g clip-path="url(#clip0_102_24217)">
<path opacity="0.5" d="M79.9651 42.595C84.0346 42.595 87.3335 39.296 87.3335 35.2266C87.3335 31.1571 84.0346 27.8582 79.9651 27.8582C75.8956 27.8582 72.5967 31.1571 72.5967 35.2266C72.5967 39.296 75.8956 42.595 79.9651 42.595Z" fill="#E6ECF1"/>
<path fill-rule="evenodd" clip-rule="evenodd" d="M81.0225 35.5C81.0525 35.4983 81.0719 35.4973 81.081 35.4973C82.6778 35.4233 83.8829 35.1483 83.8829 34.8099C83.8829 34.4715 82.688 34.1966 81.081 34.1225V35.2118C81.0713 35.2118 81.0509 35.2129 81.0198 35.2145C80.912 35.2202 80.6727 35.2329 80.2879 35.2329C79.8651 35.2329 79.5689 35.2224 79.4632 35.2118V34.1225C77.8563 34.1966 76.6615 34.4715 76.6615 34.8099C76.6615 35.1483 77.8563 35.4233 79.4632 35.4973C79.5689 35.5079 79.8544 35.5184 80.2777 35.5184C80.6807 35.5184 80.9173 35.5057 81.0225 35.5ZM81.081 33.0333V34.0062C82.8892 34.0908 84.2531 34.4609 84.2633 34.884C84.2633 35.3175 82.8994 35.677 81.081 35.7617V38.8919H79.4632V35.7617C77.6448 35.677 76.2809 35.3175 76.2809 34.884C76.2809 34.4504 77.6448 34.0908 79.4632 34.0062V33.0333H77.2219V31.5422H83.312V33.0333H81.081Z" fill="black"/>
<path opacity="0.5" d="M24.7019 42.5951C28.7714 42.5951 32.0703 39.2962 32.0703 35.2267C32.0703 31.1572 28.7714 27.8583 24.7019 27.8583C20.6325 27.8583 17.3335 31.1572 17.3335 35.2267C17.3335 39.2962 20.6325 42.5951 24.7019 42.5951Z" fill="#E6ECF1"/>
<path fill-rule="evenodd" clip-rule="evenodd" d="M24.1468 32.7224C24.1468 32.0906 24.4813 31.4914 25.0461 31.1595C25.3109 30.9945 25.6455 30.9265 25.9438 30.9283C26.2438 30.9283 26.5756 30.9945 26.8422 31.1612C27.4087 31.4931 27.7415 32.0923 27.7415 32.7241C27.7415 33.356 27.407 33.9552 26.8422 34.287C26.5421 34.4538 26.1759 34.52 25.844 34.52C25.4459 34.52 25.1458 34.8184 25.1458 35.2181C25.1458 35.7176 25.5439 35.9162 25.844 35.9162C26.2094 35.9162 26.5421 35.9824 26.8422 36.1491C27.4087 36.4819 27.7415 37.081 27.7415 37.7129C27.7415 38.3448 27.4069 38.944 26.8421 39.2758C26.2772 39.6077 25.6109 39.6077 25.046 39.2758C24.4786 38.944 24.1467 38.3457 24.1467 37.7129C24.1467 37.3811 24.2465 37.0483 24.4133 36.7483C24.5784 36.4165 24.4786 35.9824 24.1467 35.7838C23.6816 35.5173 23.3154 35.8173 23.1821 36.0503C23.017 36.3503 22.7841 36.6151 22.484 36.7819C21.9192 37.1137 21.2528 37.1137 20.688 36.7819C20.1215 36.4491 19.7897 35.8502 19.7897 35.2181C19.7897 34.5861 20.1233 33.9853 20.6881 33.6535C21.253 33.3216 21.9193 33.3216 22.4842 33.6535C22.7842 33.8521 23.0172 34.1186 23.2158 34.3851C23.4144 34.7178 23.8486 34.8501 24.1804 34.6516C24.6455 34.4186 24.5802 33.9535 24.4469 33.687C24.2801 33.3887 24.1468 33.0543 24.1468 32.7224Z" fill="black"/>
<path opacity="0.8" d="M67.0704 43.8231C71.8181 43.8231 75.6669 39.9743 75.6669 35.2266C75.6669 30.4789 71.8181 26.6301 67.0704 26.6301C62.3227 26.6301 58.4739 30.4789 58.4739 35.2266C58.4739 39.9743 62.3227 43.8231 67.0704 43.8231Z" fill="#E6ECF1"/>
<path fill-rule="evenodd" clip-rule="evenodd" d="M67.0856 35.2663L66.5272 37.3688H70.9449L70.4912 39.0586H63.4146L64.1373 36.3434L63.1144 36.7171L63.4526 35.4432L64.4763 35.0693L65.7025 30.4622H68.3614L67.4238 33.9925L68.7251 33.5171L68.7363 33.5477L68.4076 34.7834L67.0856 35.2663Z" fill="black"/>
<path opacity="0.8" fill-rule="evenodd" clip-rule="evenodd" d="M36.9826 43.8231C41.7303 43.8231 45.5791 39.9743 45.5791 35.2266C45.5791 30.4789 41.7303 26.6301 36.9826 26.6301C32.2349 26.6301 28.3861 30.4789 28.3861 35.2266C28.3861 39.9743 32.2349 43.8231 36.9826 43.8231Z" fill="#E6ECF1"/>
<path d="M37.1736 29.6455L33.8137 35.0731L37.1736 36.8822L40.5335 35.0731L37.1736 29.6455Z" fill="black"/>
<path d="M37.1736 37.6576L33.8137 35.8484L37.1736 40.5006L40.5335 35.8484L37.1736 37.6576Z" fill="black"/>
<path d="M52.9475 45.0515C58.3734 45.0515 62.772 40.6529 62.772 35.2269C62.772 29.801 58.3734 25.4023 52.9475 25.4023C47.5215 25.4023 43.1229 29.801 43.1229 35.2269C43.1229 40.6529 47.5215 45.0515 52.9475 45.0515Z" fill="#E6ECF1"/>
<path fill-rule="evenodd" clip-rule="evenodd" d="M55.327 31.6071C56.6933 32.0753 57.6835 32.7816 57.4916 34.0865C57.3535 35.0383 56.8238 35.5066 56.11 35.6678C57.0772 36.1744 57.5684 36.9497 57.1002 38.2853C56.5245 39.951 55.1427 40.0892 53.3005 39.7438L52.8553 41.5323L51.7806 41.2636L52.2182 39.4982C51.9418 39.4291 51.6501 39.3523 51.3585 39.2755L50.9132 41.0487L49.8386 40.7801L50.2838 38.9915C50.1386 38.9519 49.9934 38.9149 49.8467 38.8774C49.7376 38.8495 49.6276 38.8214 49.5162 38.7919L48.1115 38.4389L48.6488 37.203C48.6488 37.203 49.4394 37.4102 49.4317 37.3949C49.7311 37.4717 49.8693 37.2721 49.923 37.1416L50.6292 34.3168C50.6676 34.3321 50.706 34.3398 50.7444 34.3474C50.7039 34.3273 50.6693 34.3188 50.6407 34.3119C50.6368 34.311 50.6329 34.31 50.6292 34.3091L51.1358 32.2903C51.1512 32.06 51.0744 31.7683 50.6369 31.6608C50.6522 31.6532 49.8539 31.4689 49.8539 31.4689L50.138 30.3175L51.6271 30.686V30.6937C51.8497 30.7474 52.08 30.8011 52.3179 30.8548L52.7555 29.0894L53.8302 29.358L53.4003 31.0928C53.692 31.1542 53.9837 31.2233 54.2677 31.2924L54.6976 29.5653L55.7722 29.8339L55.327 31.6071ZM51.9079 38.0221C52.7802 38.2547 54.7232 38.7725 55.0276 37.5407C55.3443 36.2877 53.4875 35.8683 52.5751 35.6622C52.4702 35.6385 52.3778 35.6177 52.3026 35.5987L51.7116 37.9706C51.7683 37.9849 51.8343 38.0025 51.9079 38.0221ZM52.7512 34.5543C53.4806 34.7514 55.0834 35.1844 55.3654 34.0635C55.6475 32.9279 54.1031 32.5821 53.3437 32.4121C53.2561 32.3925 53.179 32.3752 53.1163 32.3594L52.579 34.5087C52.6285 34.5212 52.6864 34.5368 52.7512 34.5543Z" fill="black"/>
<path d="M38.2114 19.3267H36.4474C36.4238 19.6816 36.3471 19.978 36.2173 20.2159C36.0914 20.4538 35.9086 20.6333 35.6686 20.7542C35.4287 20.8752 35.1239 20.9357 34.7542 20.9357C34.4395 20.9357 34.1701 20.8772 33.9459 20.7602C33.7257 20.6393 33.5448 20.4619 33.4032 20.228C33.2655 19.9901 33.1633 19.6997 33.0964 19.357C33.0295 19.0102 32.9961 18.609 32.9961 18.1533V17.5303C32.9961 17.0626 33.0315 16.6553 33.1023 16.3085C33.177 15.9577 33.2891 15.6674 33.4385 15.4375C33.588 15.2077 33.7729 15.0363 33.9931 14.9234C34.2134 14.8105 34.471 14.754 34.766 14.754C35.1593 14.754 35.474 14.8185 35.7099 14.9476C35.9498 15.0726 36.1288 15.2601 36.2468 15.5101C36.3648 15.7561 36.4336 16.0565 36.4533 16.4113H38.2232C38.1681 15.8145 38.0029 15.2823 37.7276 14.8145C37.4562 14.3467 37.0727 13.9798 36.5772 13.7137C36.0855 13.4475 35.4818 13.3145 34.766 13.3145C34.2272 13.3145 33.7394 13.4132 33.3029 13.6108C32.8663 13.8084 32.4907 14.0907 32.176 14.4576C31.8653 14.8246 31.6254 15.2702 31.4563 15.7944C31.2911 16.3146 31.2085 16.8972 31.2085 17.5424V18.1533C31.2085 18.7985 31.2891 19.3812 31.4504 19.9014C31.6117 20.4215 31.8457 20.8651 32.1525 21.2321C32.4632 21.599 32.8368 21.8813 33.2734 22.0789C33.71 22.2724 34.2036 22.3692 34.7542 22.3692C35.4582 22.3692 36.06 22.2401 36.5594 21.9821C37.0629 21.724 37.4543 21.3651 37.7335 20.9054C38.0167 20.4457 38.176 19.9195 38.2114 19.3267Z" fill="#E6ECF1"/>
<path fill-rule="evenodd" clip-rule="evenodd" d="M42.5771 13.4416H39.3736V22.2483H41.1435V18.9881H42.5492L44.1759 22.2483H46.0697V22.1637L44.2105 18.5499C44.4506 18.4389 44.6672 18.3068 44.8602 18.1534C45.1434 17.9276 45.3617 17.6474 45.5151 17.3127C45.6724 16.974 45.7511 16.5687 45.7511 16.0969C45.7511 15.5203 45.6233 15.0344 45.3676 14.6392C45.112 14.244 44.7462 13.9456 44.2703 13.744C43.7983 13.5424 43.2339 13.4416 42.5771 13.4416ZM41.1435 17.5728H42.5889C42.8996 17.5728 43.1572 17.5163 43.3617 17.4034C43.5663 17.2905 43.7197 17.1332 43.8219 16.9316C43.9281 16.73 43.9812 16.4961 43.9812 16.23C43.9812 15.9477 43.9301 15.7037 43.8278 15.4981C43.7256 15.2924 43.5702 15.1352 43.3617 15.0263C43.1533 14.9174 42.8918 14.863 42.5771 14.863H41.1435V17.5728Z" fill="#E6ECF1"/>
<path d="M48.0106 13.4416L49.8041 17.4578L51.5976 13.4416H53.5268L50.7009 19.0426V22.2483H48.9074V19.0426L46.0756 13.4416H48.0106Z" fill="#E6ECF1"/>
<path fill-rule="evenodd" clip-rule="evenodd" d="M56.0814 19.1091H57.6565C58.3291 19.1091 58.9053 18.9962 59.3851 18.7704C59.8689 18.5446 60.2386 18.224 60.4942 17.8087C60.7499 17.3933 60.8777 16.9014 60.8777 16.3328C60.8777 15.7723 60.7499 15.2743 60.4942 14.8388C60.2386 14.4033 59.8689 14.0626 59.3851 13.8166C58.9053 13.5666 58.3291 13.4416 57.6565 13.4416H54.3115V22.2483H56.0814V19.1091ZM56.0814 17.6937V14.863H57.6565C57.9947 14.863 58.2701 14.9315 58.4825 15.0687C58.6949 15.2058 58.8502 15.3872 58.9485 15.613C59.0469 15.8388 59.096 16.0828 59.096 16.3449C59.096 16.603 59.0469 16.8348 58.9485 17.0405C58.8502 17.2461 58.6949 17.4074 58.4825 17.5244C58.2701 17.6373 57.9947 17.6937 57.6565 17.6937H56.0814Z" fill="#E6ECF1"/>
<path d="M65.9396 14.863V22.2483H64.1756V14.863H61.5739V13.4416H68.5826V14.863H65.9396Z" fill="#E6ECF1"/>
<path fill-rule="evenodd" clip-rule="evenodd" d="M76.4822 18.0565V17.6391C76.4822 16.9657 76.3917 16.3649 76.2108 15.8367C76.0338 15.3044 75.7821 14.8507 75.4557 14.4757C75.1331 14.1007 74.7477 13.8144 74.2994 13.6168C73.8549 13.4192 73.3613 13.3204 72.8185 13.3204C72.2797 13.3204 71.7861 13.4192 71.3377 13.6168C70.8933 13.8144 70.5079 14.1007 70.1814 14.4757C69.8589 14.8507 69.6092 15.3044 69.4321 15.8367C69.2552 16.3649 69.1667 16.9657 69.1667 17.6391V18.0565C69.1667 18.7259 69.2552 19.3267 69.4321 19.859C69.6131 20.3912 69.8668 20.8449 70.1932 21.2199C70.5197 21.5909 70.9051 21.8752 71.3495 22.0728C71.7979 22.2704 72.2915 22.3692 72.8303 22.3692C73.3731 22.3692 73.8667 22.2704 74.3111 22.0728C74.7595 21.8752 75.1449 21.5909 75.4675 21.2199C75.79 20.8449 76.0397 20.3912 76.2167 19.859C76.3937 19.3267 76.4822 18.7259 76.4822 18.0565ZM74.6946 17.627V18.0565C74.6946 18.5202 74.6533 18.9315 74.5708 19.2904C74.4882 19.6452 74.3682 19.9457 74.2109 20.1917C74.0535 20.4336 73.8588 20.6171 73.6268 20.7421C73.3947 20.8671 73.1292 20.9295 72.8303 20.9295C72.5314 20.9295 72.266 20.8671 72.0339 20.7421C71.8018 20.6171 71.6052 20.4336 71.444 20.1917C71.2827 19.9457 71.1608 19.6452 71.0782 19.2904C70.9955 18.9315 70.9543 18.5202 70.9543 18.0565V17.627C70.9543 17.1593 70.9955 16.748 71.0782 16.3931C71.1608 16.0383 71.2807 15.7399 71.438 15.4979C71.5993 15.256 71.794 15.0745 72.0221 14.9536C72.2541 14.8286 72.5196 14.7661 72.8185 14.7661C73.1175 14.7661 73.383 14.8286 73.615 14.9536C73.847 15.0745 74.0437 15.256 74.205 15.4979C74.3662 15.7399 74.4882 16.0383 74.5708 16.3931C74.6533 16.748 74.6946 17.1593 74.6946 17.627Z" fill="#E6ECF1"/>
</g>
<defs>
<clipPath id="clip0_102_24217">
<rect width="70" height="35" fill="white" transform="translate(17.3335 12)"/>
</clipPath>
</defs>
</svg>
