<svg width="104" height="59" viewBox="0 0 104 59" fill="none" xmlns="http://www.w3.org/2000/svg">
<path opacity="0.5" d="M67.074 12H37.7041C36.1494 12 34.889 13.2571 34.889 14.8077V44.1923C34.889 45.7429 36.1494 47 37.7041 47H67.074C68.6287 47 69.889 45.7429 69.889 44.1923V14.8077C69.889 13.2571 68.6287 12 67.074 12Z" fill="#E6ECF1"/>
<path d="M68.9697 22.5224C68.9654 22.0255 68.9373 21.5927 68.7694 21.2597C68.6074 20.9381 68.3813 20.7171 67.9982 20.5999C67.6285 20.4868 67.1702 20.4951 66.6279 20.611C66.2204 20.698 65.8336 20.813 65.4951 20.9929C65.1567 21.1728 64.8481 21.4258 64.601 21.7306C64.3551 22.034 64.1909 22.4219 64.0581 22.8806C63.9252 23.3394 63.8985 23.8904 63.9031 24.534C63.9076 25.1634 63.9877 25.6661 64.1004 26.0689C64.2131 26.4718 64.3734 26.7704 64.5949 26.976C64.8154 27.1807 65.0427 27.317 65.3744 27.3557C65.7041 27.3941 66.0908 27.3618 66.5327 27.263C67.1538 27.1242 67.6056 26.9116 67.9808 26.6155C68.8478 25.9313 68.9631 25.0432 68.9613 24.0527L67.3161 24.432C67.2912 24.9498 67.3705 25.4617 66.8952 25.7974C66.8075 25.8594 66.7003 25.8946 66.5847 25.9199C66.3218 25.9777 66.1236 25.9485 65.9851 25.8272C65.8456 25.7051 65.7869 25.481 65.7349 25.1683C65.6829 24.8556 65.6751 24.6663 65.6706 24.1496C65.6674 23.7875 65.6753 23.469 65.6985 23.1944C65.7217 22.9179 65.7769 22.683 65.8469 22.4906C65.9663 22.1627 66.2779 21.8469 66.6273 21.7814C67.1135 21.6904 67.2362 21.9823 67.2895 22.3951C67.3098 22.5525 67.3175 22.7079 67.3095 22.7853C67.3056 22.8249 67.3097 22.8653 67.3095 22.9055L68.9697 22.5224Z" fill="#E6ECF1"/>
<path fill-rule="evenodd" clip-rule="evenodd" d="M60.0241 24.2954V24.1232C60.0241 23.9607 60.0481 23.792 60.1089 23.6593C60.1697 23.5266 60.258 23.4131 60.3775 23.3222C60.4971 23.2313 60.621 23.1539 60.7997 23.1316C61.1262 23.0911 61.3467 23.0865 61.4595 23.465C61.477 23.5237 61.477 23.5913 61.477 23.6635V23.6691C61.477 23.806 61.456 23.9269 61.4119 24.029C61.3679 24.1311 61.2938 24.2235 61.1936 24.3052C61.0925 24.3877 61.0109 24.4632 60.8374 24.5387L59.8438 24.9704C59.5433 25.1009 59.2876 25.2519 59.0714 25.402C58.8553 25.5519 58.6767 25.7173 58.5383 25.8973C58.3999 26.0773 58.2881 26.2881 58.2222 26.5154C58.1561 26.7435 58.1425 27.0439 58.1425 27.3379C58.1425 27.5508 58.1966 27.7521 58.255 27.9487C58.314 28.1471 58.4289 28.2927 58.5569 28.4398C58.6849 28.587 58.857 28.7203 59.0665 28.7814C59.2766 28.8426 59.5682 28.882 59.8704 28.8204C60.1453 28.7644 60.3887 28.6917 60.5966 28.6017C60.8063 28.5109 60.9933 28.3885 61.1549 28.2365C61.3165 28.0844 61.4766 27.8682 61.6089 27.6256L61.6321 27.6222C61.6553 27.7238 61.6695 27.8013 61.7009 27.9088C61.7325 28.0162 61.7765 28.1134 61.8311 28.2025L63.4176 27.8296C63.3588 27.724 63.3034 27.6457 63.272 27.5401C63.2405 27.4345 63.2204 27.3131 63.209 27.18C63.1974 27.0453 63.1704 26.8665 63.1695 26.6751L63.1543 23.4072C63.1531 23.1259 63.0901 22.8693 63.0241 22.6512C62.9581 22.4329 62.8222 22.2571 62.648 22.1236C62.4739 21.9901 62.3149 21.913 61.9917 21.8883C61.6685 21.8636 61.2602 21.8871 60.748 21.9925C60.4186 22.0604 60.099 22.1779 59.8131 22.3046C59.5262 22.432 59.2889 22.6227 59.0707 22.8176C58.8524 23.0124 58.6966 23.3134 58.5737 23.5854C58.4512 23.8564 58.4172 24.1795 58.4172 24.5358V24.6847L60.0241 24.2954ZM61.4392 26.3253C61.4362 26.4978 61.3659 26.6598 61.3005 26.7952C61.2666 26.8654 61.2281 26.9304 61.1832 26.9896C60.9379 27.3134 60.3875 27.5827 60.0247 27.3049C59.9683 27.2616 59.9256 27.2022 59.8955 27.1258C59.7846 26.8449 59.8404 26.4479 60.0108 26.2081L60.0273 26.1847C60.0463 26.1579 60.0654 26.131 60.0844 26.1043C60.2843 25.8971 60.5379 25.7436 60.8286 25.6272C60.8368 25.624 60.91 25.5869 61.0029 25.5308C61.1883 25.419 61.4548 25.2475 61.4581 25.2316L61.4392 26.3253Z" fill="#E6ECF1"/>
<path d="M54.5143 29.9149L56.2352 29.5134V26.1317C56.2557 25.5444 56.3694 25.0324 56.795 24.687C56.9041 24.5986 57.1268 24.4878 57.3318 24.4155C57.5669 24.3325 57.7476 24.3317 57.9917 24.3115C58.0014 24.3107 58.011 24.3088 58.0207 24.3071L58.0205 24.2847L58.0131 22.699C57.5058 22.6742 57.0607 22.8739 56.6954 23.2592C56.4929 23.4728 56.3102 23.7353 56.1626 24.0667L56.1377 24.0725L56.1453 23.2478L54.5143 23.6395V29.9149Z" fill="#E6ECF1"/>
<path fill-rule="evenodd" clip-rule="evenodd" d="M53.8661 27.2533C53.8807 26.1365 53.945 24.4428 52.5111 24.1734C52.188 24.1128 51.8107 24.1044 51.3162 24.2221C50.8579 24.3312 50.4733 24.4823 50.1603 24.6724C49.8466 24.8631 49.6547 25.0913 49.4627 25.3434C49.2707 25.5954 49.1237 25.8706 49.0246 26.1681C48.9257 26.4649 48.8493 26.7687 48.8171 27.094C48.785 27.4187 48.7454 27.749 48.7517 28.0857L48.7518 28.089C48.7576 28.4024 48.7635 28.7153 48.7929 29.0243C48.8395 29.5133 49.0583 30.2385 49.4447 30.5622C49.6609 30.7435 49.876 30.8599 50.1434 30.9133C50.4657 30.9775 50.8757 30.9394 51.3661 30.8228C51.9007 30.6955 52.3944 30.5075 52.7403 30.2491C53.0868 29.9903 53.3696 29.6725 53.5404 29.293C53.7114 28.9136 53.7573 28.4411 53.7667 27.9501L52.1869 28.323C52.2535 28.6707 52.0654 29.4507 51.3488 29.5336C50.494 29.6324 50.4707 28.7104 50.503 28.0233L53.8661 27.2533ZM50.5587 26.3944C50.5129 26.6619 50.501 26.6749 50.5067 26.9788L52.2109 26.5786C52.2145 26.4325 52.2124 26.2935 52.2057 26.1653C52.193 25.921 52.1471 25.5871 51.9143 25.4389C51.7863 25.3576 51.6137 25.3342 51.3809 25.3907C51.2116 25.4317 51.0702 25.5036 50.9582 25.6043C50.8461 25.7049 50.7581 25.8224 50.6935 25.9593C50.6286 26.0966 50.5848 26.2422 50.5587 26.3944Z" fill="#E6ECF1"/>
<path d="M45.6076 25.7417L44.7464 25.9227V27.2251L45.5968 27.0136C45.6216 28.4415 45.4819 30.356 45.7556 31.6873C45.7731 31.7725 45.7992 31.848 45.8315 31.9144L47.6785 31.4796C47.6699 31.4696 47.6616 31.4581 47.6542 31.4447C47.4069 30.9938 47.3473 30.4409 47.3468 29.9387L47.343 26.6119L48.5723 26.3205V25.0334L47.343 25.3174L47.3468 23.9161L45.5968 24.3329L45.6076 25.7417Z" fill="#E6ECF1"/>
<path d="M41.0271 32.0513V29.0136C41.0287 28.7361 41.1161 28.3866 41.3081 28.1332C41.6099 27.7349 42.3062 27.499 42.4947 28.0862C42.5787 28.348 42.5683 28.4976 42.5683 28.7614V32.6828L44.2887 32.2777V27.7481C44.2887 27.3207 44.2191 26.9861 44.081 26.7423C43.9438 26.5 43.7438 26.3406 43.4854 26.268C43.2248 26.1948 42.912 26.1932 42.5466 26.2792C41.8768 26.4368 41.2995 26.9029 40.9573 27.5238L40.9319 27.5294L40.9319 26.8384L39.2951 27.2236L39.2792 31.7715C39.4785 31.6829 39.7098 31.6377 39.9412 31.6377C40.2964 31.6377 40.7227 31.7981 41.0271 32.0513Z" fill="#E6ECF1"/>
<path d="M38.2845 33.6917V23.6728L36.4848 24.0488V34.1154L38.2845 33.6917Z" fill="#E6ECF1"/>
<path d="M67.7564 18.3147H67.874C67.9305 18.3147 67.9732 18.3296 68.0025 18.3595C68.032 18.3895 68.0469 18.4346 68.0469 18.4946C68.0469 18.5409 68.0395 18.5784 68.025 18.6072C68.0107 18.6357 67.9893 18.6565 67.9616 18.6696C67.934 18.6826 67.9 18.6893 67.8602 18.6889H67.7564V18.3147ZM67.5074 19.4192H67.7564V18.8706H67.8896C67.9395 18.8709 67.9761 18.8855 67.9994 18.9142C68.0227 18.9427 68.0351 18.9826 68.0366 19.0341L68.0435 19.283C68.044 19.3087 68.0463 19.3332 68.0507 19.3565C68.0548 19.3798 68.0628 19.4007 68.0747 19.4192H68.3444V19.4083C68.3291 19.3998 68.3176 19.3862 68.3098 19.3668C68.302 19.3478 68.2966 19.3223 68.2936 19.2908C68.2911 19.2593 68.2894 19.2212 68.2891 19.1758C68.2885 19.1074 68.2856 19.0492 68.2804 19.0014C68.2752 18.9536 68.2657 18.9145 68.2519 18.8836C68.238 18.853 68.2181 18.8294 68.1922 18.8131C68.1663 18.7964 68.1322 18.7855 68.0902 18.7798V18.7762C68.1368 18.7655 68.1754 18.7462 68.2058 18.718C68.2363 18.6895 68.2588 18.6532 68.2738 18.609C68.2887 18.5652 68.296 18.5143 68.296 18.4564C68.2957 18.3826 68.2825 18.3208 68.2562 18.2712C68.2299 18.2218 68.1922 18.1846 68.1432 18.1594C68.0942 18.1346 68.0357 18.1222 67.9674 18.1222H67.5074V19.4192Z" fill="#E6ECF1"/>
<path fill-rule="evenodd" clip-rule="evenodd" d="M67.9029 17.668C67.3113 17.668 66.8319 18.1491 66.8319 18.7428C66.8319 19.3363 67.3113 19.8175 67.9029 19.8175C68.4944 19.8175 68.9739 19.3363 68.9739 18.7428C68.9739 18.1491 68.4944 17.668 67.9029 17.668ZM67.9029 17.7989C67.3834 17.7989 66.9623 18.2214 66.9623 18.7427C66.9623 19.264 67.3834 19.6865 67.9029 19.6865C68.4223 19.6865 68.8434 19.264 68.8434 18.7427C68.8434 18.2214 68.4223 17.7989 67.9029 17.7989Z" fill="#E6ECF1"/>
<path fill-rule="evenodd" clip-rule="evenodd" d="M45.0048 45.7522H41.6764C41.6435 45.7548 41.6073 45.7559 41.5678 45.7563C41.2202 45.7597 40.742 45.5809 40.3178 45.3687C39.0028 44.7108 38.7751 43.3371 38.7751 42.0509V33.3161C38.7751 32.6916 39.286 32.1806 39.9104 32.1806C40.5349 32.1806 41.0317 32.6917 41.0458 33.3161C41.0812 34.8754 40.9325 37.3451 41.0469 38.6959C41.0632 38.8875 41.1956 38.9581 41.3048 38.9538C41.4066 38.9499 41.5051 38.8875 41.5214 38.7307C41.6108 37.8696 41.4642 35.414 41.5229 34.2814C42.4132 34.89 43.2996 35.48 44.1972 36.0752C44.7662 36.4526 45.0391 36.7494 45.0391 37.797L45.0048 45.7522Z" fill="#E6ECF1"/>
<path fill-rule="evenodd" clip-rule="evenodd" d="M38.3067 34.2352L35.9994 34.7749C35.9147 34.7959 35.861 34.8654 35.8236 34.9527C35.6508 35.3562 35.7893 35.8815 36.129 36.1542C36.3514 36.3327 36.6641 36.4075 37.0466 36.3181L38.3066 36.0253L38.3067 34.2352Z" fill="#E6ECF1"/>
<path fill-rule="evenodd" clip-rule="evenodd" d="M38.3067 36.5504L35.9995 37.0901C35.9147 37.1112 35.861 37.1806 35.8237 37.2678C35.6509 37.6713 35.7894 38.1967 36.129 38.4693C36.3514 38.6479 36.6642 38.7226 37.0467 38.6332L38.3067 38.3405L38.3067 36.5504Z" fill="#E6ECF1"/>
<path fill-rule="evenodd" clip-rule="evenodd" d="M38.3067 38.851L35.9995 39.3906C35.9147 39.4117 35.861 39.4812 35.8237 39.5683C35.6509 39.9718 35.7894 40.4972 36.129 40.7699C36.3514 40.9485 36.6642 41.0232 37.0467 40.9337L38.3067 40.6411L38.3067 38.851Z" fill="#E6ECF1"/>
</svg>
