<svg width="104" height="59" viewBox="0 0 104 59" fill="none" xmlns="http://www.w3.org/2000/svg">
<g clip-path="url(#clip0_102_24203)">
<path d="M37.337 46.9224V44.5889C37.337 43.6944 36.7938 43.111 35.8626 43.111C35.3971 43.111 34.8926 43.2665 34.5434 43.7722C34.2718 43.3444 33.8838 43.111 33.3017 43.111C32.9138 43.111 32.5258 43.2277 32.2153 43.6554V43.1888H31.4005V46.9224H32.2153V44.8612C32.2153 44.2 32.5646 43.8888 33.1078 43.8888C33.651 43.8888 33.9226 44.2388 33.9226 44.8612V46.9224H34.7374V44.8612C34.7374 44.2 35.1254 43.8888 35.6298 43.8888C36.173 43.8888 36.4446 44.2388 36.4446 44.8612V46.9224H37.337ZM49.4041 43.1888H48.0849V42.061H47.2701V43.1888H46.5329V43.9277H47.2701V45.6389C47.2701 46.4945 47.6192 47.0001 48.5505 47.0001C48.8997 47.0001 49.2877 46.8835 49.5593 46.7279L49.3265 46.0278C49.0936 46.1834 48.822 46.2223 48.6281 46.2223C48.2401 46.2223 48.0849 45.989 48.0849 45.6001V43.9277H49.4041V43.1888ZM56.3106 43.111C55.845 43.111 55.5346 43.3444 55.3406 43.6554V43.1888H54.5258V46.9224H55.3406V44.8223C55.3406 44.2 55.6122 43.85 56.1166 43.85C56.2718 43.85 56.4659 43.8888 56.6211 43.9277L56.8538 43.1499C56.6986 43.111 56.4659 43.111 56.3106 43.111ZM45.8732 43.5C45.4853 43.2276 44.942 43.111 44.36 43.111C43.4288 43.111 42.808 43.5777 42.808 44.3166C42.808 44.9389 43.2736 45.289 44.0884 45.4056L44.4763 45.4445C44.9032 45.5223 45.136 45.6389 45.136 45.8334C45.136 46.1056 44.8256 46.3002 44.2824 46.3002C43.7391 46.3002 43.3123 46.1056 43.0407 45.9112L42.6528 46.5334C43.0796 46.8446 43.6616 47.0001 44.2436 47.0001C45.33 47.0001 45.9508 46.4945 45.9508 45.7945C45.9508 45.1333 45.4464 44.7833 44.6704 44.6666L44.2824 44.6277C43.9332 44.5889 43.6616 44.5111 43.6616 44.2777C43.6616 44.0055 43.9332 43.85 44.36 43.85C44.8256 43.85 45.2912 44.0444 45.524 44.1611L45.8732 43.5ZM67.5241 43.111C67.0585 43.111 66.748 43.3444 66.5541 43.6554V43.1888H65.7393V46.9224H66.5541V44.8223C66.5541 44.2 66.8256 43.85 67.3301 43.85C67.4853 43.85 67.6793 43.8888 67.8345 43.9277L68.0673 43.1499C67.9121 43.111 67.6793 43.111 67.5241 43.111ZM57.1255 45.0555C57.1255 46.1834 57.9015 47.0001 59.1043 47.0001C59.6476 47.0001 60.0355 46.8835 60.4235 46.5723L60.0355 45.9112C59.7251 46.1445 59.4147 46.2613 59.0655 46.2613C58.4059 46.2613 57.9403 45.7945 57.9403 45.0555C57.9403 44.3555 58.4059 43.8889 59.0655 43.85C59.4147 43.85 59.7251 43.9666 60.0355 44.2L60.4235 43.5389C60.0355 43.2276 59.6476 43.111 59.1043 43.111C57.9015 43.111 57.1255 43.9277 57.1255 45.0555ZM64.6528 45.0555V43.1888H63.8381V43.6554C63.5664 43.3054 63.1784 43.111 62.6739 43.111C61.6263 43.111 60.8116 43.9277 60.8116 45.0555C60.8116 46.1834 61.6263 47.0001 62.6739 47.0001C63.2172 47.0001 63.6052 46.8057 63.8381 46.4556V46.9224H64.6528V45.0555ZM61.6651 45.0555C61.6651 44.3944 62.092 43.85 62.7903 43.85C63.45 43.85 63.9156 44.3555 63.9156 45.0555C63.9156 45.7167 63.45 46.2613 62.7903 46.2613C62.092 46.2223 61.6651 45.7167 61.6651 45.0555ZM51.9261 43.111C50.8398 43.111 50.0637 43.8888 50.0637 45.0555C50.0637 46.2223 50.8398 47.0001 51.9649 47.0001C52.5082 47.0001 53.0514 46.8446 53.4782 46.4945L53.0902 45.9112C52.7798 46.1445 52.3917 46.3002 52.0038 46.3002C51.4993 46.3002 50.995 46.0667 50.8785 45.4056H53.6334C53.6334 45.289 53.6334 45.2112 53.6334 45.0944C53.6722 43.8888 52.9737 43.111 51.9261 43.111ZM51.9261 43.8111C52.4306 43.8111 52.7798 44.1222 52.8573 44.7055H50.9173C50.995 44.2 51.3441 43.8111 51.9261 43.8111ZM72.1414 45.0555V41.7109H71.3265V43.6554C71.0549 43.3054 70.667 43.111 70.1625 43.111C69.1149 43.111 68.3001 43.9277 68.3001 45.0555C68.3001 46.1834 69.1149 47.0001 70.1625 47.0001C70.7057 47.0001 71.0937 46.8057 71.3265 46.4556V46.9224H72.1414V45.0555ZM69.1537 45.0555C69.1537 44.3944 69.5805 43.85 70.2789 43.85C70.9385 43.85 71.4042 44.3555 71.4042 45.0555C71.4042 45.7167 70.9385 46.2613 70.2789 46.2613C69.5805 46.2223 69.1537 45.7167 69.1537 45.0555ZM41.9156 45.0555V43.1888H41.1007V43.6554C40.8291 43.3054 40.4411 43.111 39.9367 43.111C38.8891 43.111 38.0742 43.9277 38.0742 45.0555C38.0742 46.1834 38.8891 47.0001 39.9367 47.0001C40.4799 47.0001 40.8679 46.8057 41.1007 46.4556V46.9224H41.9156V45.0555ZM38.8891 45.0555C38.8891 44.3944 39.3159 43.85 40.0143 43.85C40.6739 43.85 41.1395 44.3555 41.1395 45.0555C41.1395 45.7167 40.6739 46.2613 40.0143 46.2613C39.3159 46.2223 38.8891 45.7167 38.8891 45.0555Z" fill="#E6ECF1"/>
<path opacity="0.7" d="M46.3776 26.0009C46.3776 21.5284 48.4728 17.5615 51.6933 14.9946C49.3265 13.1279 46.3388 12 43.0795 12C35.3582 12 29.1112 18.2615 29.1112 26.0009C29.1112 33.7403 35.3582 40.0019 43.0795 40.0019C46.3388 40.0019 49.3265 38.8739 51.6933 37.0071C48.4728 34.4793 46.3776 30.4734 46.3776 26.0009Z" fill="#E6ECF1"/>
<path opacity="0.5" d="M74.3126 26.0009C74.3126 33.7403 68.0657 40.0019 60.3444 40.0019C57.0851 40.0019 54.0975 38.8739 51.7306 37.0071C54.9899 34.4404 57.0463 30.4734 57.0463 26.0009C57.0463 21.5284 54.951 17.5615 51.7306 14.9946C54.0975 13.1279 57.0851 12 60.3444 12C68.0657 12 74.3126 18.3004 74.3126 26.0009Z" fill="#E6ECF1"/>
<path fill-rule="evenodd" clip-rule="evenodd" d="M51.6932 14.9946C48.4728 17.5615 46.3776 21.5284 46.3776 26.0009C46.3776 30.4293 48.4317 34.4003 51.5984 36.932H51.8251C55.0296 34.3633 57.0463 30.43 57.0463 26.0009C57.0463 21.5284 54.951 17.5615 51.7305 14.9946C51.7625 14.9694 51.7946 14.9444 51.8268 14.9194H51.597C51.6292 14.9444 51.6613 14.9694 51.6932 14.9946Z" fill="#E6ECF1"/>
</g>
<defs>
<clipPath id="clip0_102_24203">
<rect width="70" height="35" fill="white" transform="translate(16.6667 12)"/>
</clipPath>
</defs>
</svg>
