<svg width="104" height="59" viewBox="0 0 104 59" fill="none" xmlns="http://www.w3.org/2000/svg">
<g clip-path="url(#clip0_102_24199)">
<path d="M44.9423 23.4258H46.2822L48.9399 29.6635L51.5316 23.4258H52.8717V33.0023H51.4658V27.0282H51.4222L49.3793 32.0358H48.5005L46.3699 27.0282H46.3481V33.0023H44.9423V23.4258ZM56.1881 26.1711H54.8703V32.9799H56.1881V26.1717V26.1711ZM58.1426 23.4258H63.3923V24.7876H59.5488V27.6211H63.3923V28.8947H59.5488V33.0023H58.1426V23.4258ZM66.0938 26.1711H64.7765V32.9799H66.0938V26.1717V26.1711ZM67.917 26.1711H69.2351V26.8964H69.2568C69.6961 26.347 70.2669 26.0835 70.9698 26.0835C71.5193 26.0835 72.0244 26.2811 72.4638 26.6764C72.9035 27.0717 73.1446 27.6647 73.1663 28.4558V32.9805H71.8486V28.9394C71.8486 28.4558 71.7168 28.1041 71.4753 27.8405C71.2337 27.577 70.9262 27.467 70.5305 27.467C70.1575 27.467 69.8279 27.5988 69.5864 27.8405C69.3452 28.0817 69.2127 28.4558 69.2127 28.9388V33.0023H67.895L67.917 26.1711ZM76.2415 26.1711H74.9234V32.9799H76.2415V26.1717V26.1711ZM78.2181 23.4476H79.5362V26.1711H80.5027V27.2258H79.5362V31.2011C79.5362 31.5529 79.6896 31.7064 79.9972 31.7064H80.5027V33.0023H79.8214C79.3604 33.0023 78.9651 32.8482 78.6791 32.5629C78.3715 32.2776 78.2181 31.8599 78.2181 31.3335V27.2258H77.5592V26.1711H78.2181V23.4476ZM81.3811 26.1711H82.7861L84.3461 30.9376H84.3682L85.9282 26.1711H87.3333L84.5003 34.4082C84.3238 34.9129 84.0602 35.2646 83.7533 35.4623C83.4237 35.6599 83.0504 35.7475 82.6551 35.7475H82.2157V34.4517H82.6111C82.7861 34.4517 82.9403 34.4082 83.0937 34.2981C83.2479 34.1881 83.3356 34.057 83.4017 33.8587L83.7533 32.7164L81.3811 26.1711ZM55.5292 25.0511C55.6378 25.0541 55.7458 25.0352 55.8471 24.9957C55.948 24.9561 56.0405 24.8967 56.1183 24.821C56.1961 24.7453 56.2578 24.6547 56.3 24.5546C56.3422 24.4546 56.3643 24.3471 56.3643 24.2385C56.3643 24.1299 56.3422 24.0224 56.3 23.9224C56.2578 23.8223 56.1961 23.7317 56.1183 23.656C56.0405 23.5802 55.948 23.5208 55.8471 23.4813C55.7458 23.4418 55.6378 23.4229 55.5292 23.4258C55.3174 23.4315 55.1163 23.5197 54.9687 23.6714C54.8208 23.8232 54.7382 24.0267 54.7382 24.2385C54.7382 24.4503 54.8208 24.6538 54.9687 24.8055C55.1163 24.9573 55.3174 25.0454 55.5292 25.0511ZM65.435 25.0511C65.5436 25.0541 65.6519 25.0352 65.7528 24.9957C65.8542 24.9561 65.9463 24.8967 66.0241 24.821C66.1019 24.7453 66.1636 24.6547 66.2058 24.5546C66.248 24.4546 66.27 24.3471 66.27 24.2385C66.27 24.1299 66.248 24.0224 66.2058 23.9224C66.1636 23.8223 66.1019 23.7317 66.0241 23.656C65.9463 23.5802 65.8542 23.5208 65.7528 23.4813C65.6519 23.4418 65.5436 23.4229 65.435 23.4258C65.2235 23.4315 65.0224 23.5197 64.8745 23.6714C64.7266 23.8232 64.644 24.0267 64.644 24.2385C64.644 24.4503 64.7266 24.6538 64.8745 24.8055C65.0224 24.9573 65.2235 25.0454 65.435 25.0511ZM75.5826 25.0511C75.6913 25.054 75.7992 25.0351 75.9005 24.9956C76.0015 24.956 76.094 24.8966 76.1714 24.8208C76.2492 24.745 76.3113 24.6544 76.3535 24.5544C76.3957 24.4543 76.4173 24.3468 76.4173 24.2382C76.4173 24.1296 76.3953 24.0221 76.3531 23.9221C76.3109 23.822 76.2489 23.7315 76.171 23.6558C76.0932 23.58 76.0011 23.5207 75.8998 23.4812C75.7988 23.4417 75.6906 23.4229 75.5823 23.4258C75.3705 23.4316 75.1693 23.5198 75.0214 23.6717C74.8739 23.8235 74.7913 24.027 74.7913 24.2388C74.7913 24.4506 74.8742 24.654 75.0221 24.8058C75.1697 24.9575 75.3708 25.0455 75.5826 25.0511ZM27.3929 26.9623C27.4978 26.9623 27.5984 26.9206 27.6727 26.8464C27.7468 26.7723 27.7885 26.6716 27.7885 26.5667C27.7885 26.4618 27.7468 26.3612 27.6727 26.287C27.5984 26.2128 27.4978 26.1711 27.3929 26.1711C27.288 26.1711 27.1874 26.2128 27.1132 26.287C27.039 26.3612 26.9973 26.4618 26.9973 26.5667C26.9973 26.6716 27.039 26.7723 27.1132 26.8464C27.1874 26.9206 27.288 26.9623 27.3929 26.9623ZM26.4047 26.1711C26.4637 26.1733 26.5226 26.1635 26.5777 26.1424C26.6329 26.1213 26.6832 26.0893 26.7257 26.0483C26.7683 26.0073 26.8021 25.9582 26.8252 25.9039C26.8483 25.8495 26.8602 25.7911 26.8602 25.732C26.8602 25.673 26.8483 25.6145 26.8252 25.5602C26.8021 25.5058 26.7683 25.4567 26.7257 25.4157C26.6832 25.3747 26.6329 25.3427 26.5777 25.3216C26.5226 25.3005 26.4637 25.2907 26.4047 25.2929C26.291 25.2971 26.1834 25.3451 26.1044 25.427C26.0254 25.5089 25.9814 25.6183 25.9814 25.732C25.9814 25.8458 26.0254 25.9551 26.1044 26.037C26.1834 26.1189 26.291 26.167 26.4047 26.1711ZM25.2629 25.4464C25.3852 25.4464 25.5025 25.3979 25.589 25.3113C25.6755 25.2249 25.7241 25.1075 25.7241 24.9852C25.7241 24.8629 25.6755 24.7456 25.589 24.6591C25.5025 24.5727 25.3852 24.5241 25.2629 24.5241C25.1406 24.5241 25.0233 24.5727 24.9368 24.6591C24.8504 24.7456 24.8018 24.8629 24.8018 24.9852C24.8018 25.1075 24.8504 25.2249 24.9368 25.3113C25.0233 25.3979 25.1406 25.4464 25.2629 25.4464ZM23.9229 24.9411C24.0452 24.9411 24.1626 24.8926 24.249 24.806C24.3355 24.7196 24.3841 24.6023 24.3841 24.48C24.3841 24.3576 24.3355 24.2403 24.249 24.1539C24.1626 24.0674 24.0452 24.0188 23.9229 24.0188C23.8006 24.0188 23.6833 24.0674 23.5968 24.1539C23.5103 24.2403 23.4618 24.3576 23.4618 24.48C23.4618 24.6023 23.5103 24.7196 23.5968 24.806C23.6833 24.8926 23.8006 24.9411 23.9229 24.9411ZM22.4512 24.8752C22.5248 24.8777 22.5982 24.8653 22.6669 24.8387C22.7356 24.8122 22.7983 24.7722 22.8512 24.7209C22.9042 24.6697 22.9462 24.6083 22.975 24.5405C23.0038 24.4727 23.0186 24.3998 23.0186 24.3261C23.0186 24.2525 23.0038 24.1796 22.975 24.1118C22.9462 24.0439 22.9042 23.9826 22.8512 23.9313C22.7983 23.8801 22.7356 23.8401 22.6669 23.8136C22.5982 23.787 22.5248 23.7746 22.4512 23.777C22.3087 23.7817 22.1735 23.8416 22.0743 23.944C21.9752 24.0465 21.9197 24.1836 21.9197 24.3261C21.9197 24.4687 21.9752 24.6057 22.0743 24.7082C22.1735 24.8107 22.3087 24.8706 22.4512 24.8752ZM20.8477 25.2711C21.0108 25.2711 21.1673 25.2063 21.2827 25.0909C21.3981 24.9755 21.4629 24.819 21.4629 24.6558C21.4629 24.4927 21.3981 24.3361 21.2827 24.2208C21.1673 24.1054 21.0108 24.0405 20.8477 24.0405C20.6845 24.0405 20.528 24.1054 20.4126 24.2208C20.2972 24.3361 20.2324 24.4927 20.2324 24.6558C20.2324 24.819 20.2972 24.9755 20.4126 25.0909C20.528 25.2063 20.6845 25.2711 20.8477 25.2711ZM19.31 26.4129C19.4906 26.4129 19.6638 26.3412 19.7915 26.2135C19.9192 26.0858 19.9909 25.9126 19.9909 25.732C19.9909 25.5514 19.9192 25.3782 19.7915 25.2506C19.6638 25.1229 19.4906 25.0511 19.31 25.0511C19.1294 25.0511 18.9563 25.1229 18.8286 25.2506C18.7009 25.3782 18.6291 25.5514 18.6291 25.732C18.6291 25.9126 18.7009 26.0858 18.8286 26.2135C18.9563 26.3412 19.1294 26.4129 19.31 26.4129ZM18.2124 27.9946C18.4046 27.9946 18.5891 27.9183 18.725 27.7823C18.861 27.6463 18.9374 27.4619 18.9374 27.2697C18.9374 27.0774 18.861 26.8929 18.725 26.757C18.5891 26.621 18.4046 26.5446 18.2124 26.5446C18.0201 26.5446 17.8357 26.621 17.6997 26.757C17.5638 26.8929 17.4874 27.0774 17.4874 27.2697C17.4874 27.4619 17.5638 27.6463 17.6997 27.7823C17.8357 27.9183 18.0201 27.9946 18.2124 27.9946ZM18.1241 30.257C18.3339 30.257 18.535 30.1737 18.6833 30.0253C18.8317 29.877 18.915 29.6759 18.915 29.4661C18.915 29.2564 18.8317 29.0552 18.6833 28.9069C18.535 28.7586 18.3339 28.6752 18.1241 28.6752C17.9144 28.6752 17.7132 28.7586 17.5649 28.9069C17.4166 29.0552 17.3333 29.2564 17.3333 29.4661C17.3333 29.6759 17.4166 29.877 17.5649 30.0253C17.7132 30.1737 17.9144 30.257 18.1241 30.257ZM19.3759 32.2993C19.6148 32.2993 19.8438 32.2045 20.0127 32.0356C20.1816 31.8667 20.2765 31.6376 20.2765 31.3988C20.2765 31.1599 20.1816 30.9308 20.0127 30.762C19.8438 30.593 19.6148 30.4982 19.3759 30.4982C19.137 30.4982 18.908 30.593 18.7391 30.762C18.5702 30.9308 18.4753 31.1599 18.4753 31.3988C18.4753 31.6376 18.5702 31.8667 18.7391 32.0356C18.908 32.2045 19.137 32.2993 19.3759 32.2993ZM28.9747 29.2246C29.1844 29.2246 29.3856 29.1413 29.5339 28.993C29.6822 28.8447 29.7655 28.6435 29.7655 28.4338C29.7655 28.224 29.6822 28.0229 29.5339 27.8745C29.3856 27.7262 29.1844 27.6429 28.9747 27.6429C28.7649 27.6429 28.5638 27.7262 28.4154 27.8745C28.2671 28.0229 28.1838 28.224 28.1838 28.4338C28.1838 28.6435 28.2671 28.8447 28.4154 28.993C28.5638 29.1413 28.7649 29.2246 28.9747 29.2246ZM30.6876 27.5111C30.909 27.5111 31.1213 27.4232 31.2778 27.2667C31.4344 27.1101 31.5223 26.8978 31.5223 26.6764C31.5223 26.455 31.4344 26.2427 31.2778 26.0862C31.1213 25.9296 30.909 25.8417 30.6876 25.8417C30.4662 25.8417 30.2539 25.9296 30.0974 26.0862C29.9409 26.2427 29.8529 26.455 29.8529 26.6764C29.8529 26.8978 29.9409 27.1101 30.0974 27.2667C30.2539 27.4232 30.4662 27.5111 30.6876 27.5111ZM26.9982 31.0035C27.1155 31.0065 27.2322 30.9859 27.3414 30.9431C27.4507 30.9003 27.5502 30.836 27.6342 30.7541C27.7182 30.6722 27.7849 30.5743 27.8305 30.4662C27.876 30.3581 27.8995 30.2419 27.8995 30.1246C27.8994 30.0073 27.8759 29.8912 27.8303 29.7831C27.7846 29.675 27.7178 29.5772 27.6338 29.4953C27.5497 29.4135 27.4501 29.3493 27.3409 29.3065C27.2316 29.2638 27.1149 29.2433 26.9976 29.2464C26.7686 29.2523 26.5509 29.3475 26.391 29.5116C26.231 29.6757 26.1416 29.8958 26.1416 30.1249C26.1416 30.3541 26.231 30.5742 26.391 30.7383C26.5509 30.9024 26.7686 30.9975 26.9976 31.0035H26.9982ZM24.757 32.5629C25.0367 32.5629 25.3049 32.4518 25.5026 32.254C25.7003 32.0563 25.8115 31.7881 25.8115 31.5085C25.8115 31.2288 25.7003 30.9606 25.5026 30.7629C25.3049 30.5651 25.0367 30.4541 24.757 30.4541C24.4774 30.4541 24.2092 30.5651 24.0115 30.7629C23.8137 30.9606 23.7026 31.2288 23.7026 31.5085C23.7026 31.7881 23.8137 32.0563 24.0115 32.254C24.2092 32.4518 24.4774 32.5629 24.757 32.5629ZM21.9682 33.3758C22.2887 33.3758 22.596 33.2485 22.8226 33.0219C23.0492 32.7953 23.1765 32.488 23.1765 32.1676C23.1765 31.8471 23.0492 31.5398 22.8226 31.3132C22.596 31.0867 22.2887 30.9594 21.9682 30.9594C21.6478 30.9594 21.3405 31.0867 21.1139 31.3132C20.8873 31.5398 20.76 31.8471 20.76 32.1676C20.76 32.488 20.8873 32.7953 21.1139 33.0219C21.3405 33.2485 21.6478 33.3758 21.9682 33.3758ZM32.9941 26.2594C33.2621 26.2594 33.5191 26.1529 33.7087 25.9634C33.8982 25.7739 34.0047 25.5168 34.0047 25.2488C34.0047 24.9808 33.8982 24.7237 33.7087 24.5342C33.5191 24.3447 33.2621 24.2382 32.9941 24.2382C32.726 24.2382 32.469 24.3447 32.2795 24.5342C32.09 24.7237 31.9835 24.9808 31.9835 25.2488C31.9835 25.5168 32.09 25.7739 32.2795 25.9634C32.469 26.1529 32.726 26.2594 32.9941 26.2594ZM35.7835 25.6223C36.0747 25.6223 36.3541 25.5066 36.56 25.3007C36.766 25.0947 36.8817 24.8153 36.8817 24.5241C36.8817 24.2328 36.766 23.9535 36.56 23.7475C36.3541 23.5416 36.0747 23.4258 35.7835 23.4258C35.4922 23.4258 35.2129 23.5416 35.0069 23.7475C34.8009 23.9535 34.6853 24.2328 34.6853 24.5241C34.6853 24.8153 34.8009 25.0947 35.0069 25.3007C35.2129 25.5066 35.4922 25.6223 35.7835 25.6223ZM38.2652 26.2153C38.5041 26.2153 38.7332 26.1204 38.902 25.9515C39.0709 25.7826 39.1658 25.5535 39.1658 25.3147C39.1658 25.0758 39.0709 24.8468 38.902 24.6779C38.7332 24.5089 38.5041 24.4141 38.2652 24.4141C38.0264 24.4141 37.7973 24.5089 37.6284 24.6779C37.4595 24.8468 37.3647 25.0758 37.3647 25.3147C37.3647 25.5535 37.4595 25.7826 37.6284 25.9515C37.7973 26.1204 38.0264 26.2153 38.2652 26.2153ZM39.517 28.1923C39.6209 28.1923 39.7237 28.1719 39.8197 28.1321C39.9156 28.0923 40.0028 28.0341 40.0762 27.9606C40.1497 27.8872 40.2079 27.8 40.2477 27.7041C40.2874 27.6081 40.3079 27.5053 40.3079 27.4014C40.3079 27.2976 40.2874 27.1947 40.2477 27.0988C40.2079 27.0028 40.1497 26.9156 40.0762 26.8422C40.0028 26.7687 39.9156 26.7105 39.8197 26.6707C39.7237 26.631 39.6209 26.6105 39.517 26.6105C39.3072 26.6105 39.1061 26.6939 38.9578 26.8422C38.8094 26.9905 38.7261 27.1917 38.7261 27.4014C38.7261 27.6112 38.8094 27.8123 38.9578 27.9606C39.1061 28.109 39.3072 28.1923 39.517 28.1923ZM39.4734 30.257C39.654 30.257 39.8272 30.1853 39.9549 30.0576C40.0826 29.9299 40.1543 29.7567 40.1543 29.5761C40.1543 29.3955 40.0826 29.2223 39.9549 29.0947C39.8272 28.967 39.654 28.8952 39.4734 28.8952C39.2929 28.8952 39.1197 28.967 38.992 29.0947C38.8643 29.2223 38.7926 29.3955 38.7926 29.5761C38.7926 29.7567 38.8643 29.9299 38.992 30.0576C39.1197 30.1853 39.2929 30.257 39.4734 30.257ZM38.3311 31.7282C38.4141 31.7318 38.497 31.7186 38.5747 31.6893C38.6524 31.6601 38.7235 31.6154 38.7835 31.558C38.8435 31.5005 38.8912 31.4315 38.9238 31.3551C38.9565 31.2787 38.9733 31.1965 38.9733 31.1134C38.9733 31.0304 38.9565 30.9482 38.9238 30.8718C38.8912 30.7954 38.8435 30.7264 38.7835 30.669C38.7235 30.6115 38.6524 30.5668 38.5747 30.5376C38.497 30.5083 38.4141 30.4951 38.3311 30.4988C38.1727 30.5057 38.0231 30.5735 37.9135 30.688C37.8039 30.8025 37.7427 30.9549 37.7427 31.1134C37.7427 31.272 37.8039 31.4244 37.9135 31.5389C38.0231 31.6534 38.1727 31.7212 38.3311 31.7282ZM36.8817 32.7164C37.0447 32.7164 37.2011 32.6516 37.3164 32.5363C37.4317 32.4211 37.4964 32.2647 37.4964 32.1017C37.4964 31.9387 37.4317 31.7823 37.3164 31.667C37.2011 31.5518 37.0447 31.487 36.8817 31.487C36.7187 31.487 36.5623 31.5518 36.4471 31.667C36.3318 31.7823 36.267 31.9387 36.267 32.1017C36.267 32.2647 36.3318 32.4211 36.4471 32.5363C36.5623 32.6516 36.7187 32.7164 36.8817 32.7164ZM35.2564 32.9805C35.3285 32.9805 35.4 32.9663 35.4666 32.9387C35.5332 32.9111 35.5937 32.8707 35.6447 32.8197C35.6957 32.7687 35.7361 32.7082 35.7637 32.6415C35.7913 32.5749 35.8055 32.5035 35.8055 32.4314C35.8055 32.3593 35.7913 32.2879 35.7637 32.2213C35.7361 32.1546 35.6957 32.0941 35.6447 32.0431C35.5937 31.9921 35.5332 31.9517 35.4666 31.9241C35.4 31.8965 35.3285 31.8823 35.2564 31.8823C35.1108 31.8823 34.9711 31.9401 34.8681 32.0431C34.7652 32.1461 34.7073 32.2858 34.7073 32.4314C34.7073 32.577 34.7652 32.7167 34.8681 32.8197C34.9711 32.9227 35.1108 32.9805 35.2564 32.9805ZM33.7188 32.7823C33.8411 32.7823 33.9584 32.7337 34.0449 32.6472C34.1314 32.5607 34.18 32.4434 34.18 32.3211C34.18 32.1988 34.1314 32.0815 34.0449 31.995C33.9584 31.9085 33.8411 31.8599 33.7188 31.8599C33.5964 31.8599 33.4792 31.9085 33.3927 31.995C33.3062 32.0815 33.2576 32.1988 33.2576 32.3211C33.2576 32.4434 33.3062 32.5607 33.3927 32.6472C33.4792 32.7337 33.5964 32.7823 33.7188 32.7823ZM32.4452 32.2117C32.5618 32.2117 32.6736 32.1654 32.756 32.083C32.8384 32.0006 32.8847 31.8888 32.8847 31.7723C32.8847 31.6557 32.8384 31.544 32.756 31.4616C32.6736 31.3792 32.5618 31.3329 32.4452 31.3329C32.3287 31.3329 32.2169 31.3792 32.1345 31.4616C32.0521 31.544 32.0058 31.6557 32.0058 31.7723C32.0058 31.8888 32.0521 32.0006 32.1345 32.083C32.2169 32.1654 32.3287 32.2117 32.4452 32.2117ZM31.2805 31.5082C31.3337 31.5102 31.3867 31.5015 31.4364 31.4826C31.4862 31.4637 31.5315 31.4349 31.5699 31.398C31.6082 31.3611 31.6387 31.3169 31.6595 31.2679C31.6803 31.219 31.6911 31.1664 31.6911 31.1132C31.6911 31.06 31.6803 31.0073 31.6595 30.9584C31.6387 30.9094 31.6082 30.8652 31.5699 30.8283C31.5315 30.7914 31.4862 30.7627 31.4364 30.7437C31.3867 30.7248 31.3337 30.7161 31.2805 30.7182C31.1757 30.7182 31.0752 30.7598 31.001 30.8339C30.9269 30.9081 30.8853 31.0086 30.8853 31.1134C30.8853 31.2183 30.9269 31.3189 31.001 31.393C31.0752 31.4671 31.1757 31.5088 31.2805 31.5088V31.5082Z" fill="#E6ECF1"/>
</g>
<defs>
<clipPath id="clip0_102_24199">
<rect width="70" height="35" fill="white" transform="translate(17.3333 12)"/>
</clipPath>
</defs>
</svg>
