<svg width="104" height="59" viewBox="0 0 104 59" fill="none" xmlns="http://www.w3.org/2000/svg">
<path d="M17.0003 37.2056V24.5529C17.0003 23.4078 17.9337 22.576 19.1936 22.576C20.4536 22.576 21.1886 23.0481 21.7485 24.0915L25.05 30.4122H25.0966V22.8141H28.7948V35.3431C28.8095 35.6048 28.7704 35.8667 28.6798 36.1139C28.5892 36.3611 28.4489 36.5886 28.2669 36.7836C28.0849 36.9786 27.8647 37.1371 27.619 37.2502C27.3733 37.3632 27.1068 37.4286 26.8349 37.4425C25.8782 37.4425 25.1791 37.0159 24.1978 35.1861L20.7569 28.7745H20.7102V37.1944H17L17.0003 37.2056ZM35.515 33.2537L34.1265 31.1206L37.1008 29.2121C36.6874 28.9465 36.1976 28.8129 35.7008 28.8303C34.2075 28.8303 33.3909 30.3234 33.3909 31.604C33.3909 32.94 34.3721 34.3319 35.8409 34.3319C37.206 34.3319 38.5359 33.1531 39.0841 31.907L41.6859 33.2206C40.6476 35.668 38.3259 37.4419 35.5839 37.4419C32.5508 37.4419 29.8907 34.8822 29.8907 31.7836C29.8907 28.6739 32.5391 26.1254 35.5839 26.1254C38.1272 26.1254 39.7955 27.4615 40.9855 29.5718L35.515 33.2537ZM45.1864 31.7831C45.1864 30.537 46.1198 29.4927 47.3913 29.4927C48.6629 29.4927 49.5964 30.5367 49.5964 31.7831C49.5964 33.0294 48.6629 34.0734 47.3913 34.0734C46.1198 34.0734 45.1864 33.0294 45.1864 31.7831ZM41.6865 31.7831C41.6865 34.8928 44.3465 37.4414 47.3913 37.4414C50.4362 37.4414 53.0963 34.8825 53.0963 31.7842C53.0963 28.6745 50.4362 26.126 47.3913 26.126C44.3465 26.126 41.6865 28.6733 41.6865 31.7842V31.7831ZM53.8431 34.1183H57.2843C57.7048 34.1183 57.9148 33.9161 57.9148 33.6355C57.9148 32.6252 53.9593 33.0067 53.9593 29.4818C53.9593 27.4724 55.744 26.4618 57.4471 26.4618H60.9243V29.3021H58.1244C57.7043 29.3021 57.3883 29.5155 57.3883 29.8073C57.3883 30.6606 61.5651 30.874 61.5651 33.7367C61.5651 35.9034 60.1765 37.0822 57.8317 37.0822H53.8304V34.1183H53.8431ZM66.209 32.6028C66.209 33.5234 66.6874 34.0958 67.4692 34.0958C68.251 34.0958 68.7289 33.5234 68.7289 32.6028V26.473H72.2644V32.6028C72.2644 35.3764 70.5958 37.4525 67.4697 37.4525C64.3543 37.4525 62.6745 35.3871 62.6745 32.6028V26.473H66.209V32.6028ZM76.464 28.2469H76.5107C77.0469 26.7421 78.0742 26.4733 79.6256 26.4733V29.6597C77.1524 29.7483 76.9307 30.2661 76.9307 32.1071V37.0917H73.3607V26.473H76.464V28.2469ZM80.3724 37.0934V25.6981C80.3724 23.4978 82.1455 21.8699 84.9454 21.8699H87V25.0469H85.2721C84.3387 25.0469 84.1068 25.5521 84.1068 26.439H86.2771V29.6161H84.1058V37.0929L80.3724 37.0934Z" fill="#E6ECF1"/>
</svg>
