<svg width="104" height="59" viewBox="0 0 104 59" fill="none" xmlns="http://www.w3.org/2000/svg">
<g clip-path="url(#clip0_102_24191)">
<path d="M85.3904 24.3463C84.4924 23.7347 83.1455 23.4255 81.3773 23.4255H76.7438L75.0206 32.7945H68.9478L69.3384 30.6687H72.9966L73.4313 28.282H69.7752L70.1658 26.1652H73.934L74.4347 23.4255H66.784L65.1473 32.3122H62.3408L63.9876 23.4255H59.9884L58.3538 32.3122H55.6171L57.2664 23.4255H53.2701L51.5439 32.7945H45.4273L45.8145 30.6687H49.4862L49.9206 28.2955H46.2523L46.6373 26.1708H50.4538L50.9477 23.4255H27.1059L25.7522 30.8452L23.0492 23.4255H18.896L16.6667 35.5409H20.6291L21.9761 27.9133L24.5994 35.5409H38.8057L40.532 26.1708H42.7535L41.0248 35.5409H78.3928L79.4759 29.6254L81.229 35.5409H85.1938L83.3777 30.7069L83.7918 30.6203C84.7066 30.4247 85.4206 30.002 85.9179 29.3702C86.4151 28.7384 86.6667 27.9088 86.6667 26.9274C86.6701 25.7785 86.2522 24.9353 85.3904 24.3463ZM35.3562 32.7945H29.2948L29.6865 30.6687H33.4918L33.924 28.2741H30.1501L30.5138 26.1708H36.5753L35.3562 32.7945ZM82.1215 28.7092C81.7229 28.988 81.145 29.124 80.3546 29.124H79.5692L80.1693 25.8729H80.7464C81.4033 25.8729 81.8813 25.9785 82.2114 26.1944C82.4697 26.3619 82.7725 26.6958 82.7725 27.3276C82.7817 28.0932 82.4222 28.5024 82.1215 28.7092Z" fill="#E6ECF1"/>
</g>
<defs>
<clipPath id="clip0_102_24191">
<rect width="70" height="35" fill="white" transform="translate(16.6667 12)"/>
</clipPath>
</defs>
</svg>
