<svg width="104" height="59" viewBox="0 0 104 59" fill="none" xmlns="http://www.w3.org/2000/svg">
<g clip-path="url(#clip0_102_24183)">
<path d="M75.4905 26.4858C75.581 25.9604 75.6535 25.6886 75.6716 25.3987C75.6897 23.6957 75.2369 22.1738 73.6426 21.3404C71.9934 20.4707 70.2723 20.6882 68.8958 21.8658C66.5403 23.8949 65.5436 26.5763 66.0694 29.6563C66.4859 32.0841 68.8596 33.2979 71.0516 32.1746C72.2294 31.5767 73.2979 30.6528 74.2403 29.7107C75.7984 28.1526 77.2297 26.4858 78.6972 24.837C79.6934 23.7138 80.8892 22.9529 82.393 22.7536C84.5669 22.4456 86.5235 23.6052 87.0306 25.743C87.665 28.3699 87.339 30.8884 85.7084 33.153C84.0779 35.4358 80.5995 36.7584 77.7187 34.2219C77.284 36.2692 76.8494 38.244 76.4141 40.255C75.3094 40.255 74.2403 40.255 73.0987 40.255C73.3885 38.8418 73.6607 37.5012 73.9505 36.1424C73.9867 35.9793 74.0773 35.7981 74.1859 35.6713C75.5267 34.1675 76.8856 32.6819 78.262 31.1781C78.3531 31.2869 78.4075 31.3231 78.4256 31.3775C78.8784 32.374 79.5304 33.153 80.7262 33.1349C81.9765 33.0986 82.7734 32.3196 83.281 31.2506C83.8606 30.0005 84.2228 28.6961 84.0422 27.3011C83.9149 26.2502 83.0999 25.6524 82.1938 26.1778C81.0522 26.8481 79.9475 27.6996 79.0414 28.6599C77.8274 29.9462 76.7769 31.4137 75.6897 32.8087C73.479 35.617 70.4902 36.0518 67.2834 35.3271C64.4388 34.6749 62.6272 32.374 62.518 29.0765C62.3917 25.5074 63.4603 22.2644 66.3592 19.9091C69.0769 17.6988 73.3704 17.3365 76.0157 19.0939C76.632 19.5106 77.2116 20.036 77.6644 20.6157C79.0595 22.3551 79.0232 22.8442 77.5376 24.4929C77.1029 24.982 76.6501 25.4894 76.1968 25.9604C76.0519 26.1053 75.8346 26.2321 75.4905 26.4858Z" fill="#E6ECF1"/>
<path d="M18.656 35.1642C19.8517 29.4572 21.0476 23.8226 22.2252 18.1882C25.0877 18.1882 27.9321 18.0069 30.7404 18.2425C33.7116 18.478 35.0885 20.96 34.2551 24.022C33.4036 27.12 31.4288 28.5331 27.6604 28.6419C26.3016 28.6781 24.9609 28.6419 23.5478 28.6419C23.294 29.8013 23.0585 30.8703 22.823 31.9574C22.5874 33.0082 22.3701 34.0771 22.1527 35.1642C21.0293 35.1642 19.9242 35.1642 18.656 35.1642ZM24.0913 25.9424C25.7399 25.8156 27.1712 25.7793 28.6025 25.5619C30.0338 25.3445 31.0302 23.9857 30.9577 22.5906C30.9034 21.721 30.4866 21.1232 29.617 21.0507C28.1495 20.9239 26.682 20.8876 25.1964 20.8333C24.8159 22.5725 24.4717 24.1669 24.0913 25.9424Z" fill="#E6ECF1"/>
<path d="M36.1213 26.0147C36.6286 24.511 37.5526 23.5507 38.9114 23.0253C40.6326 22.355 42.3899 22.3368 44.1473 22.8804C45.7417 23.3695 46.5751 24.6921 46.3396 26.3771C46.1221 27.9171 45.7235 29.457 45.488 30.997C45.2888 32.3196 45.2163 33.6603 45.0713 35.1096C44.2923 35.1096 43.2958 35.1096 42.1726 35.1096C42.082 34.7835 41.9732 34.3849 41.8465 33.9139C41.5928 34.1132 41.3391 34.3125 41.0855 34.4937C39.9079 35.3633 38.5853 35.6894 37.1541 35.3089C35.6865 34.9104 34.7625 33.6059 34.7081 31.9935C34.6356 30.3266 35.4872 28.8229 37.0091 28.3699C38.386 27.9714 39.8354 27.8627 41.2667 27.6091C41.5566 27.5547 41.8646 27.4822 42.1544 27.4822C42.8972 27.4822 43.1328 27.0474 43.1872 26.3952C43.2233 25.7429 42.9516 25.3081 42.3356 25.0545C41.303 24.6196 40.1434 24.982 39.473 25.906C39.3462 26.0691 39.147 26.1959 38.9477 26.2684C38.8208 26.3227 38.6578 26.2321 38.5128 26.214C37.7519 26.1596 36.9728 26.0872 36.1213 26.0147ZM42.4806 29.3483C41.2305 29.6382 40.071 29.8194 38.9658 30.1636C38.0237 30.4535 37.6976 31.1782 37.9512 31.9935C38.1867 32.7363 38.9658 33.1168 39.8535 32.9356C41.4841 32.6276 42.1907 31.6855 42.4806 29.3483Z" fill="#E6ECF1"/>
<path d="M48.2239 40.2007C49.1117 38.6244 49.945 37.2113 50.6879 35.7438C50.9234 35.2727 51.014 34.6567 50.9415 34.1313C50.3618 30.526 49.7095 26.9387 49.0754 23.3514C49.0573 23.2065 49.0573 23.0616 49.0392 22.8804C50.1263 22.8804 51.177 22.8804 52.3363 22.8804C52.7353 25.8698 53.1338 28.8773 53.5322 31.8666C54.7643 29.5295 56.1051 27.2648 57.1561 24.8734C57.8805 23.2065 58.8772 22.4999 60.6526 22.8261C60.9786 22.8804 61.3046 22.8261 61.7212 22.8261C61.6487 23.0253 61.6306 23.2065 61.5582 23.3333C58.3876 28.7323 55.199 34.1313 52.0284 39.5303C51.7568 40.0014 51.4489 40.2188 50.8871 40.1825C50.0357 40.1644 49.2023 40.2007 48.2239 40.2007Z" fill="#E6ECF1"/>
<path d="M17.3335 41.505C17.5328 40.5811 17.7139 39.7296 17.8951 38.878C28.1134 38.4251 38.2591 37.9903 48.5135 37.5374C48.0607 38.3889 47.6983 39.1497 47.2454 39.8382C47.1004 40.0557 46.7199 40.2187 46.4482 40.2368C40.7775 40.5086 35.1067 40.7622 29.436 41.0158C25.7219 41.1789 22.0259 41.342 18.3119 41.505C18.0219 41.505 17.7139 41.505 17.3335 41.505Z" fill="#E6ECF1"/>
</g>
<defs>
<clipPath id="clip0_102_24183">
<rect width="70" height="35" fill="white" transform="translate(17.3335 12)"/>
</clipPath>
</defs>
</svg>
