<svg width="104" height="59" viewBox="0 0 104 59" fill="none" xmlns="http://www.w3.org/2000/svg">
<g clip-path="url(#clip0_102_24177)">
<path d="M29.6057 29.2801C29.5988 29.0485 29.4814 28.9294 29.2603 28.9228H28.0723C27.789 28.936 27.644 29.0882 27.6371 29.3661V31.4108C27.644 31.6954 27.8029 31.841 28.1137 31.8542H29.1982C29.3087 31.8542 29.4054 31.8145 29.4814 31.7351C29.5574 31.6755 29.5988 31.5961 29.5988 31.4969L29.6057 29.2801ZM26.1174 28.9889C26.1243 28.4794 26.2418 28.089 26.4766 27.8243C26.5941 27.7118 26.746 27.6192 26.9325 27.5397C27.1259 27.4603 27.3055 27.4206 27.4851 27.4206H29.661C30.6211 27.4272 31.1115 27.9301 31.1254 28.9294V32.0064C31.1184 32.3637 30.9734 32.6681 30.6902 32.9262C30.4139 33.1975 30.0823 33.3365 29.6955 33.3431H27.6371V35.5599H26.1174V28.9889ZM33.8814 31.5498C33.8814 31.6358 33.9229 31.702 34.0058 31.7549C34.0748 31.8145 34.1715 31.8476 34.282 31.8476H35.4494C35.7119 31.8476 35.8501 31.7483 35.857 31.5498V31.1329C35.857 30.9013 35.7188 30.7888 35.4356 30.7888H34.2752C34.1232 30.7888 34.0196 30.8153 33.9574 30.8616C33.9021 30.9146 33.8745 31.0204 33.8745 31.1793L33.8814 31.5498ZM35.8639 29.2404C35.8708 29.0154 35.7326 28.9095 35.4563 28.9161H32.3894V27.4206H35.8431C36.8516 27.4339 37.3628 27.9037 37.3766 28.8235V31.9601C37.3697 32.3571 37.2385 32.6814 36.9967 32.9461C36.7411 33.2174 36.4096 33.3497 36.002 33.3497H33.916C32.9006 33.3431 32.3825 32.8997 32.3687 32.013V30.802C32.3756 29.8756 32.866 29.4058 33.8469 29.3926H35.8708L35.8639 29.2404ZM41.6523 34.0644C41.7698 34.0577 41.8803 34.018 41.9632 33.9387C42.046 33.8658 42.0875 33.7865 42.0875 33.7004V33.3431H40.1396C39.884 33.3431 39.6837 33.31 39.5317 33.2504C39.3729 33.1975 39.214 33.0916 39.0482 32.9394C38.8962 32.7806 38.7857 32.6152 38.7167 32.4432C38.6476 32.2843 38.613 32.0858 38.613 31.841V27.4206H40.1396V31.3711C40.1396 31.6888 40.2777 31.8476 40.5471 31.8476H41.6247C41.7559 31.8476 41.8664 31.8079 41.9562 31.7285C42.046 31.6557 42.0875 31.5763 42.0875 31.477V27.4206H43.6002V33.9519C43.5933 34.4349 43.4621 34.8254 43.2134 35.1165C42.9578 35.4077 42.6125 35.5599 42.1704 35.5665H38.613V34.0644H41.6523ZM44.7952 31.8476H47.5099C47.7585 31.841 47.8898 31.7417 47.8967 31.563V31.4307C47.8967 31.391 47.8829 31.3513 47.8621 31.305C47.8 31.1925 47.724 31.1329 47.6411 31.1329H46.2872C45.8866 31.1263 45.5482 30.9939 45.258 30.7359C44.9679 30.4977 44.8229 30.2131 44.809 29.869V28.7507C44.8229 27.8772 45.3202 27.4339 46.2942 27.4206H49.444V28.9228H46.7777C46.4668 28.9228 46.3079 29.0154 46.3079 29.2007V29.3462C46.3079 29.5381 46.4668 29.6308 46.7915 29.6308H48.1315C48.4907 29.6374 48.7946 29.7698 49.0502 30.0278C49.3058 30.2859 49.437 30.5903 49.4508 30.9476V32.0395C49.444 32.3439 49.292 32.6549 49.0088 32.9593C48.8706 33.1115 48.7256 33.2107 48.5874 33.2703C48.4423 33.3232 48.242 33.3497 47.9865 33.3497H44.8021L44.7952 31.8476ZM52.0551 31.5498C52.0551 31.6358 52.0966 31.702 52.1792 31.7549C52.2483 31.8145 52.338 31.8476 52.4557 31.8476H53.6299C53.8923 31.8476 54.0305 31.7483 54.0373 31.5498V31.1329C54.0373 30.9013 53.8994 30.7888 53.6161 30.7888H52.4557C52.3036 30.7888 52.2001 30.8153 52.1377 30.8616C52.0828 30.9146 52.0551 31.0204 52.0551 31.1793V31.5498ZM54.0373 29.2404C54.0444 29.0154 53.9061 28.9095 53.6228 28.9161H50.556V27.4206H54.0096C55.0182 27.4339 55.5295 27.9037 55.5433 28.8235V31.9601C55.5362 32.3571 55.405 32.6814 55.1633 32.9461C54.9076 33.2174 54.5762 33.3497 54.1688 33.3497H52.0757C51.0603 33.3431 50.5422 32.8997 50.5284 32.013V30.802C50.5353 29.8756 51.0258 29.4058 52.0065 29.3926H54.0373V29.2404ZM56.7866 26.567C56.7934 26.1634 56.9522 25.8391 57.2564 25.5943C57.5535 25.3494 57.9403 25.2171 58.4235 25.2104H59.3906V26.6597H58.8036C58.4788 26.6662 58.32 26.8119 58.3132 27.103V27.4206H59.3906V28.9228H58.3132V33.3497H56.7866V26.567ZM63.7216 29.2139V29.1808C63.7216 29.1014 63.6872 29.0352 63.6251 28.9889C63.556 28.9426 63.466 28.9161 63.3624 28.9161H62.2988C62.1606 28.9161 62.05 28.9558 61.967 29.0286C61.8635 29.0948 61.8082 29.1874 61.8082 29.2999V29.9021L63.7216 29.2139ZM61.8358 31.3381V31.4307C61.8358 31.5498 61.8706 31.6491 61.9326 31.7152C61.9808 31.8013 62.0432 31.8476 62.1329 31.8476H65.262V33.3497H61.9326C61.6288 33.3497 61.3937 33.3232 61.2282 33.2703C61.0484 33.2107 60.8829 33.1181 60.7375 32.9858C60.5719 32.8269 60.4546 32.6681 60.3993 32.4961C60.3369 32.324 60.3025 32.0924 60.3025 31.8079L60.2887 28.8036C60.3025 27.8971 60.7999 27.4339 61.7738 27.4206H63.8322C64.7784 27.4339 65.262 27.9169 65.2758 28.8566V30.0411L61.8358 31.3381ZM68.5017 33.3497C68.2737 33.3497 68.0596 33.3299 67.866 33.2902C67.6657 33.2571 67.4654 33.171 67.2651 33.0188C67.058 32.8468 66.913 32.6483 66.8301 32.4299C66.7471 32.2182 66.7056 31.9733 66.7056 31.7086V28.9095C66.6989 28.6845 66.7195 28.4794 66.7748 28.3073C66.823 28.1353 66.9336 27.9633 67.0995 27.7978C67.286 27.6258 67.4725 27.5067 67.6728 27.4471C67.866 27.4008 68.0802 27.3743 68.3219 27.3743H70.6569V27.725H68.3772C67.9766 27.725 67.659 27.8044 67.4239 27.9633C67.1892 28.1353 67.0648 28.4331 67.0648 28.8566V31.6557C67.0648 31.8542 67.0995 32.0461 67.1616 32.2314C67.2236 32.41 67.3342 32.5755 67.4863 32.7144C67.6519 32.8336 67.8178 32.913 67.9766 32.9394C68.1425 32.9725 68.3219 32.9924 68.5155 32.9924H70.6912V33.3431H68.5017V33.3497ZM76.6661 29.7168H73.6062C73.2403 29.7235 72.9499 29.8359 72.7429 30.0411C72.5288 30.2528 72.4252 30.544 72.4252 30.9146V31.8079C72.4252 31.9799 72.4458 32.1388 72.4802 32.2843C72.5217 32.4365 72.6117 32.5689 72.7635 32.6814C73.0262 32.8931 73.3229 32.9924 73.6409 32.9924H75.5057C76.2793 32.9858 76.6732 32.5954 76.6732 31.8145L76.6661 29.7168ZM77.0324 31.7351C77.0324 31.9601 77.0118 32.1586 76.9841 32.3307C76.9356 32.5225 76.832 32.7012 76.6799 32.8733C76.3623 33.1975 75.9617 33.3563 75.4919 33.3431H73.6686C73.1917 33.3431 72.812 33.2107 72.5149 32.9394C72.2111 32.6747 72.059 32.3042 72.059 31.8277V30.9278C72.0728 29.9087 72.6046 29.3859 73.6477 29.3661H76.6799V28.9691C76.6799 28.6448 76.5835 28.3603 76.3832 28.1155C76.2588 27.9566 76.1138 27.8508 75.9478 27.7978C75.7823 27.7581 75.5887 27.7316 75.3813 27.7316H72.0728V27.3809H75.2087C75.499 27.3809 75.7546 27.4008 75.9893 27.4405C76.1067 27.4603 76.2173 27.5067 76.3208 27.5728C76.4314 27.6324 76.5282 27.725 76.6179 27.8441C76.9012 28.1948 77.0394 28.5919 77.0324 29.0419V31.7351ZM80.4585 27.7316C79.6087 27.7449 79.1875 28.1882 79.2081 29.0617V33.3431H78.8422V29.0683C78.8213 27.9434 79.3807 27.3809 80.5206 27.3809H80.9283V27.7316H80.4585ZM86.627 27.7316H83.7397C83.5323 27.7316 83.3458 27.7515 83.1799 27.7978C83.0072 27.8375 82.8346 27.9368 82.6757 28.1022C82.5236 28.2544 82.4272 28.4066 82.3857 28.5522C82.3304 28.7044 82.3095 28.883 82.3166 29.0948V31.8277C82.3166 32.2843 82.4549 32.5887 82.731 32.7541C82.8693 32.8336 83.021 32.8865 83.187 32.9262C83.3525 32.9659 83.5461 32.9924 83.7464 32.9924H85.0103C85.4801 32.9924 85.8668 32.8865 86.1639 32.6814C86.461 32.4829 86.6131 32.1453 86.627 31.6623V27.7316ZM86.9928 31.6888C86.9584 32.8203 86.3366 33.3762 85.1209 33.3497H83.767C83.4841 33.3497 83.2284 33.3232 83.0005 33.2835C82.7654 33.224 82.5446 33.0916 82.3304 32.8799C82.1716 32.688 82.0681 32.4961 82.0266 32.2975C81.9713 32.099 81.9436 31.8807 81.9575 31.6424V29.0948C81.9713 27.95 82.5789 27.3743 83.767 27.3875H86.6337V25.4487H86.9999V31.6888" fill="#E6ECF1"/>
<path d="M17.6559 27.1944C17.7733 27.1415 17.8977 27.1017 18.0151 27.0819C18.2361 26.0761 19.1686 25.3217 20.2807 25.3217C21.3997 25.3217 22.3253 26.0761 22.5464 27.0819C22.8917 27.1415 23.175 27.2738 23.3891 27.4723C23.396 27.2804 23.3891 27.0951 23.3684 26.9164C23.2302 25.3945 21.8971 24.2034 20.2738 24.2034C18.6022 24.2034 17.2414 25.4739 17.1724 27.0554C17.1655 27.1944 17.1586 27.3333 17.1655 27.4855C17.3036 27.373 17.4625 27.2738 17.6559 27.1944Z" fill="#E6ECF1"/>
<path d="M22.0908 27.4197H18.3677C18.1881 27.4197 18.0016 27.4594 17.8151 27.5388C17.6286 27.6182 17.4766 27.7109 17.3592 27.8233C17.1312 28.088 17.0069 28.4784 17 28.988V31.7739C17.0069 32.2834 17.1243 32.6738 17.3592 32.9385C17.4835 33.051 17.6286 33.1436 17.8151 33.223C18.0085 33.3024 18.195 33.3421 18.3677 33.3421H22.0908C23.0509 33.3355 23.5414 32.826 23.5552 31.8268V28.9284C23.5414 27.9292 23.0509 27.4263 22.0908 27.4197Z" fill="#E6ECF1"/>
</g>
<defs>
<clipPath id="clip0_102_24177">
<rect width="70" height="35" fill="white" transform="translate(17 12)"/>
</clipPath>
</defs>
</svg>
