<svg width="104" height="59" viewBox="0 0 104 59" fill="none" xmlns="http://www.w3.org/2000/svg">
<g clip-path="url(#clip0_102_24160)">
<path d="M24.7565 14.8701L16.6667 43.9192H19.6998L22.7845 32.603H24.2383L22.6669 43.9192H25.5655C25.5655 43.9192 26.6446 35.8342 26.9819 32.2051C28.331 31.5388 29.0044 29.3956 29.0044 29.3956L31.9211 17.9735C32.3062 16.4638 31.514 14.8701 30.3781 14.8701H24.7565ZM26.2065 29.3956H23.5095L26.6446 18.4426H29.1737L26.2065 29.3956Z" fill="#E6ECF1"/>
<path d="M36.3446 18.5193L29.4773 43.9192H32.3759L35.4387 32.6815H38.0401L35.0057 43.9192H37.938L44.7109 18.5467C45.1852 16.7687 44.2548 14.8701 42.9108 14.8701H40.0974C38.4317 14.8701 36.939 16.3214 36.3446 18.5193ZM36.081 29.3956L39.0429 18.2984H41.8743L38.7896 29.3956H36.081Z" fill="#E6ECF1"/>
<path d="M50.396 34.9779C52.0719 34.9797 53.3141 33.2691 53.9095 31.0585L57.3458 18.2983C57.8202 16.5202 57.1495 14.8718 55.8056 14.8718H50.2267L42.3721 43.9209H45.2707L47.7429 34.9797H50.3443L50.396 34.9779ZM48.5751 31.5879L51.9378 18.3001H54.3813L50.8961 31.5879H48.5751Z" fill="#E6ECF1"/>
<path d="M62.3795 14.8718H65.1101L57.7789 43.9191H54.7947L62.3795 14.8718Z" fill="#E6ECF1"/>
<path d="M69.9654 14.8718L62.4146 43.9209H68.3966C69.7045 43.9209 70.8741 42.7709 71.3286 41.0385L77.2929 18.2965C77.7282 16.6371 76.8587 14.8718 75.6061 14.8718H69.9654ZM68.8193 40.7282H66.2229L71.9544 18.2983H74.5503L68.8193 40.7282Z" fill="#E6ECF1"/>
<path d="M78.2579 43.9212V26.2285L73.4548 43.9194L78.2579 43.9212Z" fill="#E6ECF1"/>
<path d="M86.2173 16.2446V14.9558H86.5973V18.0993H86.2173V16.8269H80.9863V16.2446H86.2173Z" fill="#E6ECF1"/>
<path d="M83.683 19.2891H80.9863V18.7068H86.5973V19.8787C86.5973 21.0599 86.2184 21.5582 85.3473 21.5582H85.0619C84.3693 21.5582 83.992 21.2625 83.873 20.7513C83.7555 21.2826 83.4659 21.4943 82.7227 21.4943C82.2384 21.4943 81.3506 21.4834 80.9863 21.5747V21.0033C81.3428 20.9065 82.3015 20.9192 82.6841 20.9192C83.4403 20.9192 83.6819 20.7605 83.6819 19.9226V19.2891H83.683ZM84.0462 19.2891V19.9718C84.0462 20.7988 84.4481 20.9668 85.0415 20.9668H85.3306C85.8969 20.9668 86.234 20.7203 86.234 19.8568V19.2891H84.0462Z" fill="#E6ECF1"/>
<path d="M82.9764 23.2579L80.9849 22.8089V22.2229L86.5958 23.5427V24.3806L80.9849 25.757V25.1473L82.9764 24.6727V23.2579ZM83.3548 24.5887C84.7854 24.2455 85.7754 24.0301 86.2342 23.9644V23.937C85.8208 23.9114 84.5155 23.5956 83.3548 23.3438V24.5887Z" fill="#E6ECF1"/>
<path d="M80.9863 26.5034H86.5973V27.2263C85.3875 27.7301 82.3276 28.9405 81.7587 29.1011V29.123C82.5573 29.0828 83.3469 29.0646 84.2571 29.0646H86.5973V29.6287H80.9863V28.9259C82.3041 28.3855 85.3995 27.1934 85.9924 26.9945V26.9835C85.3192 27.0329 84.3291 27.0712 83.3135 27.0712H80.9863V26.5034Z" fill="#E6ECF1"/>
<path d="M82.5161 31.0876H82.206C81.6012 31.0876 81.2833 31.4016 81.2833 32.0204C81.2833 32.6502 81.5547 32.9442 82.3417 32.9442C83.0354 32.9442 83.3381 32.7269 83.7879 31.9018C84.2529 31.0566 84.5202 30.644 85.3448 30.644C86.0363 30.644 86.6735 30.9342 86.6667 32.0497C86.6605 33.0336 86.2299 33.406 85.4455 33.406H85.2117V32.8255H85.434C85.9523 32.8255 86.2972 32.6721 86.2972 32.0351C86.2972 31.3906 85.8954 31.2263 85.4084 31.2263C84.7994 31.2263 84.6005 31.4016 84.1908 32.1482C83.6251 33.1887 83.3187 33.5264 82.3918 33.5264C81.6074 33.5264 80.9138 33.26 80.9138 32.0204C80.9138 30.8704 81.4602 30.5034 82.1993 30.5034H82.515V31.0876H82.5161Z" fill="#E6ECF1"/>
<path d="M86.5973 34.4769V37.0089H86.2173V35.0574H84.1485V36.8848H83.7686V35.0574H80.9863V34.4751H86.5973V34.4769Z" fill="#E6ECF1"/>
<path d="M83.8084 40.1219V38.3201H81.3632V40.3446L80.9849 40.2588V37.7378H86.5958V40.2259H86.2159V38.3183H84.1857V40.1201H83.8084V40.1219Z" fill="#E6ECF1"/>
<path d="M83.683 41.6551H80.9863V41.0728H86.5973V42.2447C86.5973 43.4258 86.2184 43.9242 85.3473 43.9242H85.0619C84.3693 43.9242 83.992 43.6285 83.873 43.1173C83.7555 43.6486 83.4659 43.8621 82.7227 43.8621C82.2384 43.8621 81.3506 43.8493 80.9863 43.9424V43.3674C81.3428 43.2706 82.3015 43.2834 82.6841 43.2834C83.4403 43.2834 83.6819 43.1246 83.6819 42.2867V41.6551H83.683ZM84.0462 41.6551V42.3378C84.0462 43.1648 84.4481 43.3346 85.0415 43.3346H85.3306C85.8969 43.3346 86.234 43.0881 86.234 42.2246V41.6569H84.0462V41.6551Z" fill="#E6ECF1"/>
</g>
<defs>
<clipPath id="clip0_102_24160">
<rect width="70" height="35" fill="white" transform="translate(16.6667 12)"/>
</clipPath>
</defs>
</svg>
