<svg width="104" height="59" viewBox="0 0 104 59" fill="none" xmlns="http://www.w3.org/2000/svg">
<g clip-path="url(#clip0_102_24156)">
<path d="M67.6118 23.2265C69.1993 23.2265 70.4847 21.8784 70.4847 20.2162C70.4847 18.554 69.1985 17.2034 67.6118 17.2034C66.0251 17.2034 64.7414 18.5531 64.7414 20.2162C64.7412 20.6116 64.8154 21.0031 64.9596 21.3684C65.1038 21.7338 65.3152 22.0657 65.5818 22.3454C65.8483 22.625 66.1648 22.8467 66.5131 22.9981C66.8614 23.1494 67.2348 23.2273 67.6118 23.2273V23.2265ZM45.6075 24.85C45.4778 25.201 44.5447 27.9567 42.2877 30.8204V18.5725L36.2749 19.8186V42.0223H42.2885V35.1594C44.0308 37.8975 44.8911 42.0223 44.8911 42.0223H52.0939C51.3827 38.9156 48.2653 33.1891 48.2653 33.1891C50.1174 30.6839 51.545 27.8634 52.4856 24.8509L45.6075 24.85ZM61.4157 24.6183C56.0306 24.8 53.2957 27.3337 53.2957 32.3712V42.0214H59.1721V34.1527C59.1721 31.1372 59.5487 29.8524 62.9614 29.7208V24.7096C62.3873 24.5815 61.4157 24.6218 61.4157 24.6218V24.6183ZM26.1908 27.2986C25.4543 27.2485 23.7488 27.1318 23.7488 25.5223C23.7488 23.5801 26.2034 23.5801 27.1247 23.5801C28.744 23.5801 30.8403 24.0803 32.3383 24.5517C32.8485 24.7742 33.3641 24.9826 33.8848 25.1765L33.9518 25.1958V19.874L33.8614 19.8459C32.0939 19.1964 30.0395 18.5733 26.2292 18.5733C19.66 18.5733 17.3335 22.5858 17.3335 26.0243C17.3335 28.006 18.1436 32.6704 25.6661 33.2084C26.3037 33.2497 27.9959 33.3515 27.9959 35.0163C27.9959 36.3898 26.6101 37.1998 24.2802 37.1998C21.7278 37.1998 19.2482 36.5171 17.7444 35.8693V41.3483C19.9972 41.967 22.5362 42.2768 25.5129 42.2768C31.9358 42.2768 34.8121 38.4803 34.8121 34.7171C34.8121 30.4501 31.5935 27.6786 26.1924 27.2986H26.1908ZM64.7012 42.0249H70.5291V24.8711H64.6995L64.7012 42.0249ZM81.5039 19.6677V42.0249H87.3335V18.5751L81.5039 19.6677ZM72.9986 19.6677L78.8214 18.5751V42.0249H72.9986V19.6659V19.6677Z" fill="#E6ECF1"/>
</g>
<defs>
<clipPath id="clip0_102_24156">
<rect width="70" height="35" fill="white" transform="translate(17.3335 12)"/>
</clipPath>
</defs>
</svg>
