<svg width="104" height="59" viewBox="0 0 104 59" fill="none" xmlns="http://www.w3.org/2000/svg">
<g clip-path="url(#clip0_102_24148)">
<path d="M47.3348 40.3078H41.6628L45.2095 18.3774H50.8798L47.3348 40.3078Z" fill="#E6ECF1"/>
<path d="M67.8896 18.915C66.2672 18.2902 64.5423 17.9735 62.8038 17.9813C57.2041 17.9813 53.2606 20.9673 53.2365 25.2369C53.19 28.3868 56.06 30.1359 58.2061 31.1866C60.4001 32.2598 61.1456 32.9601 61.1456 33.917C61.1234 35.3864 59.3727 36.0634 57.7401 36.0634C55.8975 36.115 54.0703 35.7145 52.4182 34.8968L51.6713 34.5465L50.8779 39.4694C52.2077 40.0753 54.6583 40.6132 57.2019 40.6368C63.152 40.6368 67.0254 37.697 67.0705 33.1472C67.0931 30.6508 65.5779 28.7378 62.3125 27.1747C60.3292 26.1713 59.1147 25.4946 59.1147 24.4679C59.138 23.5346 60.1421 22.5784 62.3808 22.5784C63.8342 22.5359 65.2783 22.8229 66.6049 23.4179L67.1178 23.6508L67.8889 18.9154L67.8896 18.915Z" fill="#E6ECF1"/>
<path d="M75.426 32.5385C75.8929 31.2785 77.6892 26.4026 77.6892 26.4026C77.666 26.4495 78.1553 25.1195 78.4359 24.3032L78.8317 26.1926C78.8317 26.1926 79.9053 31.442 80.1387 32.5385H75.426ZM82.4251 18.3774H78.0393C76.6866 18.3774 75.6588 18.7736 75.0752 20.1971L66.6519 40.3075H72.6012C72.6012 40.3075 73.5807 37.6007 73.7914 37.0177H81.0717C81.2348 37.7878 81.7487 40.3075 81.7487 40.3075H86.9999L82.4251 18.3774Z" fill="#E6ECF1"/>
<path d="M36.9263 18.3774L31.3725 33.3318L30.7656 30.299C29.7389 26.7996 26.519 22.9974 22.9258 21.1065L28.0123 40.2845H34.0089L42.9218 18.3774H36.9263Z" fill="#E6ECF1"/>
<path d="M26.2165 18.3779H17.0934L17 18.821C24.1166 20.641 28.8299 25.0276 30.7666 30.3003L28.7835 20.2203C28.4571 18.8196 27.4537 18.4227 26.2168 18.377L26.2165 18.3779Z" fill="#E6ECF1"/>
</g>
<defs>
<clipPath id="clip0_102_24148">
<rect width="70" height="35" fill="white" transform="translate(17 12)"/>
</clipPath>
</defs>
</svg>
