<svg width="1504" height="321" viewBox="0 0 1504 321" fill="none" xmlns="http://www.w3.org/2000/svg">
<g clip-path="url(#clip0_102_24240)">
<path d="M452.125 121.409L471.555 102.736L484.908 85.0824L494.453 94.4997L495.535 100.996L482.794 120.871L460.903 142.711L444.014 155.442L434.468 146.025L439.216 137.898L452.125 121.409Z" fill="#FEEA14"/>
<path d="M461.505 142.111L454.139 134.112L457.711 128.494L463.968 121.426L472.698 114.281L474.812 114.036L482.452 121.213L461.505 142.111Z" fill="#F3911B"/>
<path d="M446.519 119.416L467.18 97.6065L484.908 85.0824L485.99 91.579L473.248 111.454L451.358 133.293L434.468 146.025L433.619 139.03L446.519 119.416Z" fill="#FEEA14"/>
<path d="M446.519 119.416L467.18 97.6065L484.908 85.0824L485.99 91.579L473.248 111.454L451.358 133.293L434.468 146.025L433.619 139.03L446.519 119.416Z" fill="#F9F08D"/>
<path d="M446.992 119.74L467.388 98.2513L482.072 87.7057L484.521 86.5154L485.336 91.0391L484.277 93.418L474.094 108.826L468.817 115.144L453.011 130.9L449.654 133.54L436.608 143.707L434.863 143.974L434.602 138.86L446.992 119.74Z" fill="url(#paint0_linear_102_24240)"/>
<path d="M470.337 108.089L448.211 129.929L442.95 133.419L450.013 122.221L470.247 101.06L477.738 95.8021L470.337 108.089Z" fill="#FEEA14"/>
<path d="M476.607 97.0015L469.37 108.316L448.101 129.536L443.534 132.979L450.415 122.516L470.439 101.378L476.615 97.0147" fill="#FEC905"/>
<path d="M470.439 101.378L472.43 103.46L476.607 97.0016L470.439 101.378Z" fill="#FEC905"/>
<path d="M484.908 85.0825L485.99 91.5791L473.248 111.454L482.794 120.871L495.535 100.996L494.453 94.4998L484.908 85.0825Z" fill="#FEEA14"/>
<path d="M484.907 85.0824L486.668 90.6473L488.195 92.837L495.535 100.996L494.453 94.4997L484.907 85.0824Z" fill="#D03017"/>
<path d="M487.277 93.6459L485.152 93.9815L475.856 109.575L476.157 112.732L483.157 120.304L495.535 100.996L487.277 93.6459Z" fill="#E9521E"/>
<path d="M434.469 146.025L444.014 155.442L460.903 142.711L451.358 133.293L434.469 146.025Z" fill="#FEEA14"/>
<path d="M436.217 146.21L444.014 155.442L460.903 142.711L451.176 135.178L436.217 146.21Z" fill="#FEC905"/>
<path opacity="0.75" d="M436.217 146.21L451.176 135.178L455.698 146.086L444.535 154.198L443.005 154.248L436.217 146.21Z" fill="url(#paint1_linear_102_24240)"/>
<path d="M470.439 101.378L472.43 103.46L472.293 103.756L452.482 124.384L450.415 122.516L470.439 101.378Z" fill="#F3911B"/>
<path d="M469.002 102.895L471.147 104.95L469.37 108.316L476.607 97.0015L470.439 101.378L469.002 102.895Z" fill="url(#paint2_linear_102_24240)"/>
<path d="M452.482 124.384L450.466 127.176L448.101 129.536L443.534 132.979L450.415 122.516L452.482 124.384Z" fill="#E9540D"/>
<path opacity="0.75" d="M448.211 129.929L442.95 133.419L450.013 122.221L450.478 121.735L450.976 115.544L446.992 119.741L434.602 138.86L434.863 143.974L436.608 143.707L449.654 133.54L450.336 133.003L450.359 127.809L448.211 129.929Z" fill="url(#paint3_linear_102_24240)"/>
<path d="M481.881 87.8212L474.341 93.2582L474.535 98.0504L477.738 95.8021L474.652 100.926L474.921 107.573L484.277 93.4179L485.336 91.0391L484.521 86.5153L481.881 87.8212Z" fill="url(#paint4_linear_102_24240)"/>
</g>
<g clip-path="url(#clip1_102_24240)">
<path d="M1141.85 80.6028L1127 97.2696L1127.16 120.279L1140.78 132.932L1149.43 137.745L1169.36 131.38L1182.63 115.341L1181.2 92.0767L1172.65 81.1928L1163.99 78.3799L1141.85 80.6028Z" fill="#FEEA14"/>
<path d="M1149.38 83.5292L1134.36 99.8266L1134.53 123.092L1149.43 137.745L1176.36 135.38L1189.63 118.341L1188.2 95.0768L1172.65 81.1929L1149.38 83.5292Z" fill="#FEEA14"/>
<path d="M1127.16 120.279L1134.53 123.092L1149.43 137.744L1140.78 132.931L1127.16 120.279Z" fill="#F9F08D"/>
<path d="M1127.16 120.279L1134.06 123.367L1149.43 137.744L1140.78 132.931L1127.16 120.279Z" fill="#E9521E"/>
<path d="M1127.16 120.279L1134.53 123.092L1134.36 99.8264L1127 97.2695L1127.16 120.279Z" fill="#F9F08D"/>
<path d="M1127.16 120.279L1132.23 122.014L1134.21 121.708L1134.06 111.264L1133.79 100.245L1131.42 98.8038L1127.84 97.9338L1127.16 98.9538V100.946V120.279Z" fill="#F3911B"/>
<path d="M1149.38 83.5292L1134.36 99.8266L1134.53 123.092L1149.43 137.745L1176.36 135.38L1189.63 118.341L1188.2 95.0768L1172.65 81.1929L1149.38 83.5292Z" fill="#FCEB40"/>
<path d="M1153.82 83.4672L1148.02 86.0319L1135.11 99.8265L1134.78 108.801L1135.26 121.465L1137.98 125.95L1146.74 134.083L1151.08 137.1L1174.05 134.966L1177.2 133.459L1187.85 119.767L1188.93 113.218L1187.57 96.1657L1183.91 91.4678L1173.42 82.7461L1167.13 81.9365L1153.82 83.4672Z" fill="url(#paint5_linear_102_24240)"/>
<path opacity="0.65" d="M1188.9 113.435L1188.93 113.218L1187.57 96.1657L1183.91 91.4678L1173.42 82.7462L1167.13 81.9365L1154.36 83.4059L1188.9 113.435Z" fill="url(#paint6_linear_102_24240)"/>
<path opacity="0.7" d="M1134.82 107.675L1134.78 108.801L1135.26 121.465L1137.98 125.95L1146.74 134.083L1151.08 137.1L1169.27 135.41L1134.82 107.675Z" fill="url(#paint7_linear_102_24240)"/>
<path d="M1170.39 90.258L1179.94 98.8039L1180.97 115.774L1172.12 127.316L1155.04 129.254L1152.44 129.012L1147.26 124.472L1142.99 119.768L1142.5 103.119L1153.43 91.6166L1168.63 89.7034L1170.39 90.258Z" fill="#FCEB40"/>
<path d="M1169.61 90.5432L1179.45 99.3236L1180.44 115.496L1171.67 126.758L1152.78 128.416L1143.5 119.292L1143.39 103.314L1153.68 92.1425L1169.61 90.5432Z" fill="#FAB513"/>
<path d="M1169.61 90.5432L1179.45 99.3236L1180.44 115.496L1171.67 126.758L1152.78 128.416L1143.5 119.292L1143.39 103.314L1153.68 92.1425L1169.61 90.5432Z" fill="#D03017"/>
<path d="M1179.45 99.3235L1169.61 90.5432L1168.93 90.6118L1176.45 97.3235L1177.2 112.347L1180.44 115.496L1179.45 99.3235Z" fill="#E9521E"/>
<path d="M1167.81 90.7258L1175.38 97.8582L1176.18 112.828L1167.96 123.711L1149.98 125.693L1143.47 119.297L1143.36 103.319L1153.65 92.1477L1167.81 90.7258Z" fill="#F3911B"/>
<path opacity="0.45" d="M1165.79 90.9287L1173.9 98.5657L1174.6 112.136L1167.01 122.477L1148.73 124.472L1143.47 119.297L1143.36 103.319L1153.65 92.1476L1165.79 90.9287Z" fill="url(#paint8_linear_102_24240)"/>
<path d="M1175.77 105.245L1175.38 97.8582L1167.81 90.7258L1161.02 91.4082L1175.77 105.245Z" fill="url(#paint9_linear_102_24240)"/>
<path opacity="0.25" d="M1150.67 126.338L1154.34 126.015L1146.32 118.123V104.202L1155.07 94.9609L1170.76 93.506L1171.67 92.3803L1169.61 90.5432L1153.65 92.1475L1143.36 103.319L1143.47 119.297L1150.67 126.338Z" fill="#D03017"/>
<path opacity="0.25" d="M1143.38 112.655L1156.18 125.01L1149.98 125.693L1143.5 119.292L1143.38 112.655Z" fill="#D03017"/>
<path d="M1168.93 124.124L1171.67 126.758L1180.44 115.496L1177.18 113.323L1168.93 124.124Z" fill="#FEEA14"/>
<path d="M1150.67 126.338L1168.06 124.811L1171.67 126.758L1152.78 128.416L1150.67 126.338Z" fill="#F3911B"/>
<path d="M1141.85 80.6028L1149.38 83.5292L1134.36 99.8266L1127 97.2697L1141.85 80.6028Z" fill="#F9F08D"/>
<path d="M1141.85 80.6028L1147.64 83.3689V84.3829L1146.76 85.6254L1136.21 97.2697L1133.41 98.8038L1127 97.2697L1141.85 80.6028Z" fill="#FEEA14"/>
</g>
<g clip-path="url(#clip2_102_24240)">
<path d="M971.738 99.3799L951.627 104.98L946 117.367L958.869 134.855L983.98 150.886L1012.25 156.203L1032.65 152.926L1038 141.705L1024.64 120.428L1002.49 106.146L971.738 99.3799Z" fill="#FEC905"/>
<path d="M971.738 99.3799L951.627 104.98L963.022 123.53L987.211 139.299L1015.68 145.773L1038 141.705L1024.64 120.428L1002.49 106.146L971.738 99.3799Z" fill="#F9F08D"/>
<path d="M971.654 99.856L953.146 105.417L963.673 123.035L985.797 137.368L990.651 139.178L1015.46 144.94L1037.11 141.374L1024.21 120.938L1002.13 106.563L971.654 99.856Z" fill="#FEC905"/>
<path d="M974.486 104.48L964.947 110.214L970.277 120.938L988.326 132.348L1008.43 137.585L1024.21 134.921L1018.91 121.033L995.901 109.156L974.486 104.48Z" fill="#F9F08D"/>
<path d="M965.752 110.58L974.362 105.417L995.784 110.081L1017.94 121.885L1023.77 134.564L1008.03 136.458L988.789 131.212L970.864 119.699L965.752 110.58Z" fill="#F16134"/>
<path d="M967.981 114.556L973.083 111.12L994.031 116.45L1014.42 127.792L1017.59 135.307L1008.03 136.458L988.789 131.212L970.864 119.699L967.981 114.556Z" fill="#F3911B"/>
<path d="M967.981 114.556L973.083 111.12L994.031 116.45L1014.42 127.792L1017.59 135.307L1008.03 136.458L988.789 131.212L970.864 119.699L967.981 114.556Z" fill="url(#paint10_linear_102_24240)"/>
<path d="M967.466 113.638L972.854 110.369L974.362 105.417L965.752 110.58L967.466 113.638Z" fill="#E9540D"/>
<path d="M974.362 105.417L973.9 110.274L993.976 115.412L995.784 110.081L974.362 105.417Z" fill="#E9540D"/>
<path d="M995.784 110.081L994.814 115.713L1014.62 126.639L1017.94 121.885L995.784 110.081Z" fill="#F3911B"/>
<path d="M1017.94 121.885L1015.37 127.15L1018.36 135.214L1023.77 134.564L1017.94 121.885Z" fill="#FEC905"/>
<path d="M951.627 104.98L946 117.367L958.869 134.855L963.022 123.53L951.627 104.98Z" fill="#FEEA14"/>
<path d="M952.104 105.756L948.959 111.74L946.919 117.432L958.782 134.168L960.925 129.248L962.606 122.854L952.104 105.756Z" fill="#FEC905"/>
<path d="M1015.68 145.773L1012.25 156.203L983.98 150.886L987.211 139.3L1015.68 145.773Z" fill="#FEEA14"/>
<path d="M963.022 123.531L987.211 139.3L983.98 150.886L958.869 134.855L963.022 123.531Z" fill="#FEEA14"/>
<path d="M963.799 124.037L986.377 138.756L985.131 145.061L983.592 149.728L959.521 134.633L961.143 129.945L963.799 124.037Z" fill="#F3911B"/>
<path d="M1014.7 145.55L1014.05 149.571L1012.07 155.63L984.093 150.48L985.824 144.271L988.089 139.499L1014.7 145.55Z" fill="#E9521E"/>
<path d="M1038 141.705L1032.65 152.926L1012.25 156.203L1015.68 145.773L1038 141.705Z" fill="#FEEA14"/>
<path d="M1036.98 141.891L1032.38 152.385L1013.3 155.63L1014.7 149.723L1016.28 145.664L1036.98 141.891Z" fill="#E9540D"/>
<path opacity="0.3" d="M1016.6 132.967H1009.52L989.774 127.792L975.422 116.511L979.899 112.854L973.083 111.12L967.981 114.556L968.513 115.505L970.864 119.699L988.789 131.212L1008.03 136.458L1017.59 135.307L1016.6 132.967Z" fill="url(#paint11_linear_102_24240)"/>
<path opacity="0.25" d="M967.466 113.638L970.864 119.699L988.789 131.212L1008.03 136.458L1018.36 135.214L1017.97 134.168L1008.05 135.214L989.019 130.342L971.322 118.925L967.981 113.325L967.466 113.638Z" fill="#D03017"/>
<path opacity="0.85" d="M961.6 121.216L952.104 105.756L948.959 111.74L946.919 117.432L955.846 130.027L961.6 121.216Z" fill="url(#paint12_linear_102_24240)"/>
<path opacity="0.85" d="M971.655 99.856L953.146 105.417L962.23 120.618L967.847 116.047L964.947 110.214L974.486 104.48L981.953 106.11L987.211 103.279L971.655 99.856Z" fill="url(#paint13_linear_102_24240)"/>
<path d="M974.362 105.417L965.752 110.58L967.466 113.638L973.9 110.274L980.473 111.956L981.506 106.972L974.362 105.417Z" fill="url(#paint14_linear_102_24240)"/>
<path opacity="0.45" d="M1016.6 132.967H1023.03L1023.77 134.564L1017.59 135.307L1016.6 132.967Z" fill="url(#paint15_linear_102_24240)"/>
<path d="M1014.7 149.723L1018.17 145.319L1036.98 141.891L1032.38 152.385L1013.3 155.63L1014.7 149.723Z" fill="#D14216"/>
<path opacity="0.85" d="M1018.59 144.424L1037.11 141.374L1027.14 125.571L1018.59 144.424Z" fill="url(#paint16_linear_102_24240)"/>
<path d="M1013.93 149.927L1012.25 155.63L1005.05 154.338L1013.93 149.927Z" fill="#D14216"/>
</g>
<g clip-path="url(#clip3_102_24240)">
<path d="M401.178 249.795L421.01 228.819L451.567 218.615L458.404 224.625L466.199 236.594L458.404 265.387L437.626 286.638L412.02 292.38L400.424 283.924L393.13 275.134L401.178 249.795Z" fill="#FFEF72"/>
<path d="M395.048 242.826L414.88 221.85L444.473 212.38L458.404 224.625L449.574 255.087L428.06 277.121L400.424 283.924L387 268.165L395.048 242.826Z" fill="#FEEA14"/>
<path d="M395.048 242.826L414.88 221.85L444.473 212.38L458.404 224.625L449.574 255.087L428.06 277.121L400.424 283.924L387 268.165L395.048 242.826Z" fill="#F9F08D"/>
<path d="M395.078 245.796L389.418 263.936V268.78L398.681 279.753L403.821 281.64L422.308 277.432L429.035 274.384L446.594 256.348L449.787 249.597L455.446 229.688V223.303L445.869 214.886L442.232 214.305L418.006 221.851L412.714 225.044L398.681 240.016L395.078 245.796Z" fill="#FEEA14"/>
<path d="M395.078 245.796L389.418 263.936V268.78L398.681 279.753L403.821 281.64L422.308 277.432L429.035 274.384L446.594 256.348L449.787 249.597L455.446 229.688V223.303L445.869 214.886L442.232 214.305L418.006 221.851L412.714 225.044L398.681 240.016L395.078 245.796Z" fill="url(#paint17_linear_102_24240)"/>
<path opacity="0.45" d="M426.594 219.176L450.506 247.066L455.446 229.688V223.303L445.869 214.886L442.232 214.305L426.594 219.176Z" fill="url(#paint18_linear_102_24240)"/>
<path opacity="0.75" d="M398.681 240.017L402.652 250.763L414.071 279.307L403.512 281.527L398.681 279.754L389.418 268.78V263.936L395.078 245.796L398.681 240.017Z" fill="url(#paint19_linear_102_24240)"/>
<path d="M404.7 271.42L422.308 267.342L440.319 249.112L445.72 228.56L439.53 223.065L419.559 229.169L402.652 247.067L397.998 263.52L404.7 271.42Z" fill="#F9F08D"/>
<path d="M444.532 228.569L438.726 248.6L421.804 265.932L404.917 270.088L398.681 263.265L403.821 247.082L419.559 230.436L439.534 224.044L444.532 228.569Z" fill="#FECE48"/>
<path d="M444.532 228.569L438.726 248.6L421.804 265.932L404.917 270.088L398.681 263.265L403.821 247.082L419.559 230.436L439.534 224.044L444.532 228.569Z" fill="#D03017"/>
<path d="M401.518 266.22L398.681 263.265L403.821 247.082L419.559 230.436L439.534 224.044L442.669 226.883L422.317 233.188L406.877 249.611L401.518 266.22Z" fill="#D03017"/>
<path d="M427.974 277.177L437.626 286.638L458.404 265.387L449.488 255.143L427.974 277.177Z" fill="#FCEA15"/>
<path d="M403.821 247.082L406.869 249.597L422.308 233.174L419.559 230.436L403.821 247.082Z" fill="#D03017"/>
<path d="M442.01 227.296L422.702 233.652L407.17 249.97L402.652 265.865L405.113 268.78L421.136 264.743L437.308 248.152L443.56 228.689L442.01 227.296Z" fill="#FEC905"/>
<path d="M442.01 227.296L422.702 233.652L407.17 249.97L402.652 265.865L403.877 268.95L404.917 270.088L421.803 265.932L438.726 248.6L444.532 228.57L442.01 227.296Z" fill="#FEC905"/>
<path opacity="0.45" d="M442.578 235.309L444.532 228.569L442.01 227.296L436.393 229.145L442.578 235.309Z" fill="url(#paint20_linear_102_24240)"/>
<path opacity="0.5" d="M404.917 270.088L412.778 268.153L407.033 250.451L402.652 265.864L403.877 268.95L404.917 270.088Z" fill="url(#paint21_linear_102_24240)"/>
<path opacity="0.45" d="M403.877 268.95L409.353 252.192L425.695 238.477L442.713 234.845L444.532 228.569L442.232 226.504L422.308 233.174L406.869 249.597L401.518 266.22L403.877 268.95Z" fill="#E22E13"/>
<path d="M401.176 265.865L405.724 249.893L403.821 247.082L398.681 263.265L401.176 265.865Z" fill="#EE720A"/>
<path d="M403.821 247.082L406.781 248.844L414.587 240.9L421.607 233.346L419.559 230.436L403.821 247.082Z" fill="#E9521E"/>
<path d="M419.559 230.436L422.702 232.228L442.232 226.504L439.534 224.044L419.559 230.436Z" fill="#F3911B"/>
<path d="M415.132 281.052L403.511 284.458L408.61 289.412L412.355 291.931L425.082 289.451L437.626 286.638L431.572 281.588L426.99 278.503L415.132 281.052Z" fill="#F3911B"/>
<path opacity="0.75" d="M412.355 291.931L419.718 290.496L415.132 281.052L403.511 284.458L408.61 289.412" fill="url(#paint22_linear_102_24240)"/>
<path d="M450.943 257.438H448.373L437.992 267.486L430.975 277.258L432.308 281.052L437.626 286.638L448.556 275.61L458.404 265.387L450.943 257.438Z" fill="#E9521E"/>
<path d="M462.641 233.512C462.394 233.141 459.299 228.56 459.299 228.56L454.263 241.091L450.943 254.728L454.245 259.669L458.474 265.129L462.634 249.761L465.172 237.711L462.641 233.512Z" fill="#FEC905"/>
<path opacity="0.45" d="M452.452 248.53L461.85 251.991L462.634 249.761L465.172 237.711L459.299 228.56L454.263 241.091L452.452 248.53Z" fill="url(#paint23_linear_102_24240)"/>
</g>
<g clip-path="url(#clip4_102_24240)">
<path d="M1302.43 147.748L1327.37 142.144L1346.88 134.38L1350 146.713L1347.69 152.517L1327.58 162.384L1299.08 169.349L1279.12 171.38L1276 159.047L1283.85 154.785L1302.43 147.748Z" fill="#FEEA14"/>
<path d="M1299.86 169.157L1297.82 159.047L1303.48 156.243L1312.03 153.582L1322.62 152.074L1324.46 152.915L1327.13 162.493L1299.86 169.157Z" fill="#F3911B"/>
<path d="M1298.86 143.376L1326.34 135.831L1346.88 134.38L1344.57 140.184L1324.46 150.05L1295.96 157.015L1276 159.047L1278.75 152.952L1298.86 143.376Z" fill="#FEEA14"/>
<path d="M1298.86 143.376L1326.34 135.831L1346.88 134.38L1344.57 140.184L1324.46 150.05L1295.96 157.015L1276 159.047L1278.75 152.952L1298.86 143.376Z" fill="#F9F08D"/>
<path d="M1299.08 143.872L1326.19 136.457L1343.29 135.115L1345.86 135.353L1344.3 139.425L1342.27 140.834L1326.44 148.333L1319.05 150.868L1298.48 155.886L1294.46 156.378L1278.88 158.217L1277.33 157.577L1279.63 153.298L1299.08 143.872Z" fill="url(#paint24_linear_102_24240)"/>
<path d="M1323.75 145.889L1295.06 152.739L1289.08 152.985L1300.31 147.369L1327.13 140.141L1335.8 139.556L1323.75 145.889Z" fill="#FEEA14"/>
<path d="M1334.29 139.973L1322.85 145.598L1295.17 152.365L1289.77 152.915L1300.49 147.806L1327.13 140.493L1334.29 139.988" fill="#FEC905"/>
<path d="M1327.13 140.493L1327.72 143.162L1334.29 139.973L1327.13 140.493Z" fill="#FEC905"/>
<path d="M1346.88 134.38L1344.57 140.184L1324.46 150.05L1327.58 162.384L1347.69 152.517L1350 146.713L1346.88 134.38Z" fill="#FEEA14"/>
<path d="M1346.88 134.38L1345.58 139.761L1345.74 142.288L1347.69 152.517L1350 146.713L1346.88 134.38Z" fill="#D03017"/>
<path d="M1344.6 142.494L1342.71 141.722L1327.5 149.807L1326.19 152.517L1328.15 162.102L1347.69 152.517L1344.6 142.494Z" fill="#E9521E"/>
<path d="M1276 159.047L1279.12 171.38L1299.08 169.348L1295.96 157.015L1276 159.047Z" fill="#FEEA14"/>
<path d="M1277.33 160.057L1279.12 171.38L1299.08 169.348L1294.89 158.455L1277.33 160.057Z" fill="#FEC905"/>
<path opacity="0.75" d="M1277.33 160.057L1294.89 158.455L1293.2 169.53L1280.15 170.626L1278.89 169.915L1277.33 160.057Z" fill="url(#paint25_linear_102_24240)"/>
<path d="M1327.13 140.493L1327.72 143.162L1327.47 143.335L1301.25 150.338L1300.49 147.806L1327.13 140.493Z" fill="#F3911B"/>
<path d="M1325.22 141.018L1325.95 143.74L1322.85 145.598L1334.29 139.973L1327.13 140.493L1325.22 141.018Z" fill="url(#paint26_linear_102_24240)"/>
<path d="M1301.25 150.338L1298.25 151.613L1295.17 152.365L1289.77 152.915L1300.49 147.806L1301.25 150.338Z" fill="#E9540D"/>
<path opacity="0.75" d="M1295.06 152.739L1289.08 152.985L1300.31 147.369L1300.93 147.203L1304.38 142.424L1299.08 143.872L1279.63 153.298L1277.33 157.577L1278.88 158.217L1294.46 156.378L1295.28 156.278L1297.85 152.074L1295.06 152.739Z" fill="url(#paint27_linear_102_24240)"/>
<path d="M1343.08 135.115L1334.29 135.821L1332.09 139.806L1335.8 139.556L1330.77 142.197L1327.72 147.724L1342.27 140.834L1344.3 139.424L1345.86 135.353L1343.08 135.115Z" fill="url(#paint28_linear_102_24240)"/>
</g>
<g clip-path="url(#clip5_102_24240)">
<path d="M1242.14 178.48L1261.92 184.658L1278.77 187.116L1275.96 197.04L1271.98 200.177L1253.86 198.954L1231.03 192.291L1216.19 185.625L1219 175.7L1226.24 175.889L1242.14 178.48Z" fill="#FEEA14"/>
<path d="M1231.66 192.474L1234.32 184.545L1239.43 184.871L1246.51 186.469L1254.57 189.706L1255.51 191.041L1253.51 198.85L1231.66 192.474Z" fill="#F3911B"/>
<path d="M1241.4 173.963L1263.76 179.807L1278.77 187.116L1274.79 190.253L1256.67 189.029L1233.84 182.367L1219 175.7L1223.4 172.535L1241.4 173.963Z" fill="#FEEA14"/>
<path d="M1241.4 173.963L1263.76 179.807L1278.77 187.116L1274.79 190.253L1256.67 189.029L1233.84 182.367L1219 175.7L1223.4 172.535L1241.4 173.963Z" fill="#F9F08D"/>
<path d="M1241.36 174.402L1263.4 180.186L1275.95 186.177L1277.66 187.386L1274.92 189.612L1272.92 189.78L1258.76 188.626L1252.54 187.41L1236.07 182.595L1233.04 181.31L1221.36 176.283L1220.53 175.207L1223.88 173.135L1241.36 174.402Z" fill="url(#paint29_linear_102_24240)"/>
<path d="M1257.86 185.82L1234.94 178.999L1230.64 176.746L1240.81 177.357L1262.57 183.154L1268.89 186.256L1257.86 185.82Z" fill="#FEEA14"/>
<path d="M1267.66 185.938L1257.35 185.252L1235.17 178.779L1231.15 176.976L1240.76 177.738L1262.43 183.402L1267.66 185.948" fill="#FEC905"/>
<path d="M1262.43 183.402L1261.76 185.516L1267.66 185.938L1262.43 183.402Z" fill="#FEC905"/>
<path d="M1278.77 187.116L1274.79 190.253L1256.67 189.029L1253.86 198.954L1271.98 200.177L1275.96 197.04L1278.77 187.116Z" fill="#FEEA14"/>
<path d="M1278.77 187.116L1275.67 190.365L1274.76 192.205L1271.98 200.177L1275.96 197.04L1278.77 187.116Z" fill="#D03017"/>
<path d="M1273.88 191.886L1272.86 190.579L1258.91 190.091L1256.89 191.464L1254.38 198.989L1271.98 200.177L1273.88 191.886Z" fill="#E9521E"/>
<path d="M1219 175.7L1216.19 185.625L1231.03 192.291L1233.84 182.367L1219 175.7Z" fill="#FEEA14"/>
<path d="M1219.52 176.948L1216.19 185.625L1231.03 192.291L1232.5 182.943L1219.52 176.948Z" fill="#FEC905"/>
<path opacity="0.75" d="M1219.52 176.948L1232.5 182.943L1226.83 190.033L1217.22 185.515L1216.62 184.502L1219.52 176.948Z" fill="url(#paint30_linear_102_24240)"/>
<path d="M1262.43 183.402L1261.76 185.516L1261.51 185.533L1240.26 179.823L1240.76 177.738L1262.43 183.402Z" fill="#F3911B"/>
<path d="M1260.87 182.995L1260.28 185.203L1257.35 185.253L1267.66 185.938L1262.43 183.402L1260.87 182.995Z" fill="url(#paint31_linear_102_24240)"/>
<path d="M1240.26 179.823L1237.63 179.499L1235.17 178.779L1231.15 176.976L1240.76 177.737L1240.26 179.823Z" fill="#E9540D"/>
<path opacity="0.75" d="M1234.94 178.999L1230.64 176.746L1240.81 177.357L1241.31 177.491L1245.66 175.532L1241.36 174.402L1223.88 173.135L1220.53 175.207L1221.36 176.283L1233.04 181.31L1233.66 181.571L1237.17 179.661L1234.94 178.999Z" fill="url(#paint32_linear_102_24240)"/>
<path d="M1275.8 186.091L1269.34 183.023L1266.19 184.93L1268.89 186.256L1264.29 186.074L1259.91 188.719L1272.92 189.78L1274.92 189.612L1277.66 187.386L1275.8 186.091Z" fill="url(#paint33_linear_102_24240)"/>
</g>
<g clip-path="url(#clip6_102_24240)">
<path d="M196.123 105.075L189 126.419L194.534 146.569L213.533 159.1L235.667 152.38L242.778 149.713L251.222 128.38L244.41 107.842L225.889 97.2688L196.123 105.075Z" fill="#FFEF72"/>
<path d="M197.122 105.354L189 126.419L194.534 146.569L213.533 159.1L235.371 152.463L245.024 131.206L237.59 110.677L217.975 99.1758L197.122 105.354Z" fill="#F9F08D"/>
<path d="M199.088 104.772L196.409 107.205L190.584 124.003L190.268 128.914L194.407 143.69L196.829 147.266L211.632 156.878L217.921 157.187L232.724 152.463L235.322 150.7L244.446 131.07L238.09 114.417L235.322 110.677L219.351 101.273L214.762 100.95L199.088 104.772Z" fill="url(#paint34_linear_102_24240)"/>
<path d="M232.724 152.463L235.322 150.7L244.446 131.07L238.09 114.417L238.041 114.351L223.148 155.519L232.724 152.463Z" fill="url(#paint35_linear_102_24240)"/>
<path opacity="0.8" d="M196.409 107.205L190.584 124.003L190.268 128.914L194.407 143.689L196.829 147.266L203.64 151.688L210.017 102.107L199.088 104.772L196.409 107.205Z" fill="url(#paint36_linear_102_24240)"/>
<path d="M251.222 128.38L245.024 131.206L235.371 152.463L242.778 149.713L251.222 128.38Z" fill="#FCEA15"/>
<path d="M245.024 131.986L238.762 145.513L236.762 151.082L240.111 150.157L242.778 148.38L249.444 132.38L250.333 129.269L248.111 130.157L245.024 131.986Z" fill="#E9521E"/>
<path d="M229.055 116.625L234.243 130.952L227.679 145.407L213.826 149.617L201.097 141.221L197.152 126.856L202.711 112.439L215.468 108.659L229.055 116.625Z" fill="#D03017"/>
<path d="M229.937 115.975L235.302 130.925L228.573 146.322L213.75 150.48L200.334 141.571L196.11 126.856L202.278 111.913L215.844 108.014L229.937 115.975Z" fill="#F9F08D"/>
<path d="M229.055 116.625L234.243 130.952L227.679 145.407L213.826 149.617L201.097 141.221L197.152 126.856L202.711 112.439L215.468 108.659L229.055 116.625Z" fill="#D03017"/>
<path d="M229.055 116.625L234.243 130.952L227.679 145.407L218.222 147.745L205.545 139.823L201.6 125.458L207.306 111.817L215.468 108.659L229.055 116.625Z" fill="#FEC905"/>
<path opacity="0.5" d="M207.306 111.817L201.6 125.459L205.545 139.823L207.783 141.222L213.153 109.554L207.306 111.817Z" fill="url(#paint37_linear_102_24240)"/>
<path opacity="0.25" d="M208.053 138.096L204.451 124.884L209.304 110.643L215.472 108.656L206.404 111.345L200.334 125.684L204.283 140.043L217.538 148.489L220.22 147.653L208.053 138.096Z" fill="#D03017"/>
<path opacity="0.25" d="M204.28 140.046L200.334 125.681L205.793 111.526L202.711 112.439L197.152 126.856L201.097 141.221L213.826 149.617L217.225 148.584L204.28 140.046Z" fill="#D03017"/>
<path d="M197.152 126.856L200.566 125.081L206.404 111.344L202.711 112.439L197.152 126.856Z" fill="#E9521E"/>
<path d="M201.097 141.221L204.815 140.393L217.537 148.489L213.826 149.617L201.097 141.221Z" fill="#F3911B"/>
<path d="M225.889 97.2688L217.889 99.0466L237.59 110.677L244.413 107.838L225.889 97.2688Z" fill="#FFEF72"/>
<path d="M242.778 109.269L238.762 110.968L240.769 119.456L245.493 129.615L249 128.824L250.778 127.935L244.464 108.713L242.778 109.269Z" fill="#F3911B"/>
<path d="M225 97.7131L223.158 98.118L220.192 99.5524L226.976 104.453L237.927 109.773L242.951 108.278L244.111 107.935L225 97.7131Z" fill="#FEC905"/>
<path d="M197.152 126.856L200.523 126.36L204.189 139.495L201.097 141.039L197.152 126.856Z" fill="#EE720A"/>
</g>
<g clip-path="url(#clip7_102_24240)">
<path d="M585.421 73.1668L572.619 80.2923L567 86.3632L568.939 94.6903L577.665 106.522L598.627 105.581L612.332 95.8021L613.689 82.7601V74.433L604.246 72.1973L585.421 73.1668Z" fill="#F3911B"/>
<path d="M596.688 97.2538L598.627 105.581L612.332 95.8023L615 82.8143L613.689 74.4331L610.27 88.6507L596.688 97.2538Z" fill="#E9540D"/>
<path d="M596.688 97.2538L598.627 105.581L612.332 95.8022L610.27 88.6506L596.688 97.2538Z" fill="#FCEA15"/>
<path d="M597.336 98.5295L598.627 105.581L612.332 95.8022L610.098 90.7811L608.317 90.3816L603.345 93.35L599.823 95.8362L597.336 98.5295Z" fill="#E9521E"/>
<path d="M575.726 98.1951L577.665 106.522L568.939 94.6904L567 86.3633L575.726 98.1951Z" fill="#FFEF72"/>
<path d="M575.154 97.4202L577.665 106.522L568.939 94.6903L567.574 87.5325L575.154 97.4202Z" fill="#FEC905"/>
<path d="M613.689 74.4331L610.271 88.6506L612.332 95.8023L615 82.8143L613.689 74.4331Z" fill="#D64415"/>
<path d="M608.317 90.3816L602.964 93.5775L604.834 101.152L612.332 95.8022L610.099 90.781L608.317 90.3816Z" fill="#D64415"/>
<path d="M567.574 87.5325L574.267 96.2627L573.639 101.063L568.939 94.6903L567.574 87.5325Z" fill="url(#paint38_linear_102_24240)"/>
<path d="M585.421 67.3495L572.619 74.4749L567 86.3633L575.726 98.195L596.688 97.2538L610.27 88.6506L613.689 74.433L604.246 66.3799L585.421 67.3495Z" fill="#FEEA14"/>
<path d="M585.421 67.3495L572.619 74.4749L567 86.3633L575.726 98.195L596.688 97.2538L610.27 88.6506L613.689 74.433L604.246 66.3799L585.421 67.3495Z" fill="#FEEA14"/>
<path d="M585.421 67.3495L572.619 74.4749L567 86.3633L575.726 98.195L596.688 97.2538L610.27 88.6506L613.689 74.433L604.246 66.3799L585.421 67.3495Z" fill="#F9F08D"/>
<path d="M588.193 67.4019L584.032 68.4338L573.315 74.7078L568.806 84.1774L568.941 87.2464L574.621 95.6242L577.051 97.5411L593.846 96.769L598.987 94.9749L608.344 89.0025L610.303 86.3631L612.495 77.0785V74.1504L605.723 67.9213L602.715 66.7527L588.193 67.4019Z" fill="url(#paint39_linear_102_24240)"/>
<path opacity="0.7" d="M602.846 92.5118L608.344 89.0026L610.303 86.3632L612.495 77.0785V74.1504L605.723 67.9214L602.846 92.5118Z" fill="url(#paint40_linear_102_24240)"/>
<path opacity="0.8" d="M588.193 67.402L584.032 68.4338L573.315 74.7079L568.806 84.1774L568.941 87.2464L574.621 95.6242L574.648 95.6459L591.721 67.2505L588.193 67.402Z" fill="url(#paint41_linear_102_24240)"/>
<path d="M607.511 76.1404L605.016 84.9933L594.837 91.4981L578.689 92.2297L573.639 85.3203L577.167 77.0498L586.773 72.0232L601.448 70.7212L607.511 76.1404Z" fill="#F9F08D"/>
<path d="M606.718 76.4433L604.34 84.8067L594.638 90.9518L579.245 91.643L574.431 85.1156L577.794 77.3024L586.951 72.5537L601.003 71.5959L606.718 76.4433Z" fill="#D03017"/>
<path d="M606.462 77.3432L604.34 84.8067L594.638 90.9518L579.245 91.643L576.242 86.3633L579.405 79.6071L587.92 75.0803L601.967 73.9856L606.462 77.3432Z" fill="#FEC905"/>
<path opacity="0.45" d="M587.92 75.0801L579.405 79.607L576.242 86.3631L579.245 91.6428L581.054 91.5616L589.544 74.9536L587.92 75.0801Z" fill="url(#paint42_linear_102_24240)"/>
<path opacity="0.25" d="M606.718 76.4433L604.34 84.8067L594.638 90.9518L579.245 91.643L574.431 85.1156L577.794 77.3024L586.951 72.5537L601.003 71.5959L606.718 76.4433Z" fill="url(#paint43_linear_102_24240)"/>
<path opacity="0.25" d="M577.938 86.5761L581.028 80.1761L588.849 76.1199L602.031 75.1099L606.171 78.3692L606.718 76.4434L601.003 71.5959L586.951 72.5537L577.794 77.3025L574.431 85.1156L579.245 91.643L580.323 91.5946L577.938 86.5761Z" fill="#D03017"/>
<path d="M578.764 79.2417L587.92 74.4929L601.972 73.5351L606.462 77.3432L606.718 76.4434L601.003 71.5959L586.951 72.5537L577.794 77.3025L574.431 85.1156L575.57 86.6605L578.764 79.2417Z" fill="#D03017"/>
<path d="M586.951 72.5537L588.263 74.4695L601.483 73.5684L600.993 71.5537L586.951 72.5537Z" fill="#F3911B"/>
<path d="M586.951 72.5537L587.397 74.7643L578.764 79.2416L575.57 86.6604L574.431 85.1156L577.794 77.3025L586.951 72.5537Z" fill="#E9540D"/>
<path d="M601.003 71.5959L601.972 73.5351L606.462 77.3432L606.718 76.4434L601.003 71.5959Z" fill="#FEC905"/>
<path d="M575.726 98.1949L577.665 106.522L598.627 105.581L596.688 97.2537L575.726 98.1949Z" fill="#FCEA15"/>
<path d="M576.784 99.1003L577.057 102.162L577.665 106.522L598.627 105.581L596.778 99.9448L595.166 98.195L586.516 98.0068L576.784 99.1003Z" fill="#F3911B"/>
</g>
<g clip-path="url(#clip8_102_24240)">
<path d="M895.425 162.38L888 173.309L899.291 183.206L907.786 169.495L895.425 162.38Z" fill="#FCEB40"/>
<path d="M896.093 163.225L894.251 164.798L892.055 167.916L889.553 171.866L889.165 173.583L898.963 181.953L901.089 179.602L906.21 171.74L907.028 169.789L901.623 166.622L896.093 163.225Z" fill="#FEEA14"/>
<path d="M907.786 169.495L907.618 169.767L899.291 183.206L915.746 194.411L925.13 181.251L907.786 169.495Z" fill="#FCEB40"/>
<path d="M908.265 170.737L906.531 172.117L901.59 180.18L900.482 183.206L907.786 188.147L915.746 193.591L924.13 181.251L918.14 177.146L908.265 170.737Z" fill="#FEC905"/>
<path d="M925.129 181.25L915.745 194.411L933.904 207.297L942.547 193.104L925.129 181.25Z" fill="#FCEB40"/>
<path d="M924.751 181.781L921.597 184.978L917.787 191.809L916.435 194.059L925.13 200.378L933.584 206.013L936.138 203.078L941.031 195.535L941.992 193.735L933.263 187.683L924.751 181.781Z" fill="#F3911B"/>
<path d="M942.547 193.104L933.904 207.297L947.556 215.38L956 203.491L942.547 193.104Z" fill="#FAEB4F"/>
<path d="M942.547 193.984L940.37 196.679L935.764 204.242L934.535 206.762L946.58 214.237L948.432 213.445L953.865 205.622L954.318 203.107L942.547 193.984Z" fill="#E9521E"/>
<path opacity="0.6" d="M901.59 180.18L920.258 178.597L908.265 170.737L906.531 172.117L901.59 180.18Z" fill="url(#paint44_linear_102_24240)"/>
<path d="M899.694 182.556L899.917 182.741L901.59 180.18L904.091 175.458L901.225 179.393L899.694 182.556Z" fill="#F8F9E9"/>
<path d="M915.745 193.591L916.435 194.059L918.019 191.423L920.521 186.702L917.654 190.636L915.745 193.591Z" fill="#F8F9E9"/>
<path d="M933.584 206.013L936.138 203.078L938.067 200.104L934.534 206.762L933.584 206.013Z" fill="#F8F9E9"/>
<path opacity="0.6" d="M937.181 208.404L949.848 199.642L954.318 203.107L953.865 205.622L948.431 213.445L946.58 214.237L937.181 208.404Z" fill="#D03017"/>
</g>
<g clip-path="url(#clip9_102_24240)">
<path d="M1064.06 206.135L1052 239.88L1065.36 268.443L1100.29 279.269L1130.43 266.391L1144 235.943L1130.43 202.001L1098.01 192.38L1064.06 206.135Z" fill="#EEE419"/>
<path d="M1070.73 204.802L1062.9 211.379L1055.03 239.634L1064.96 263.221L1080.64 271.942L1103.07 276.731L1128.79 265.706L1139.06 242.187L1140.69 232.506L1129.67 203.999L1114.46 199.545L1097.35 193.884L1070.73 204.802Z" fill="url(#paint45_linear_102_24240)"/>
<path d="M1098.49 202.5L1071.96 213.577L1064.01 240.584L1075.53 260.218L1099.61 267.205L1124.06 257.56L1132.97 235.182L1124.06 211.262L1098.49 202.5Z" fill="#F4EB69"/>
<path d="M1098.49 203.999L1073.19 214.563L1065.61 240.318L1076.59 259.043L1099.56 265.706L1122.88 256.508L1131.38 235.167L1122.88 212.355L1098.49 203.999Z" fill="#E9521E"/>
<path d="M1098.25 205.842L1083.25 212.981L1075.42 216.758L1070.9 227L1067.71 240.456L1072.13 246.82L1078.71 257.208L1090.17 262.027L1099.69 263.661L1110.98 260.413L1120.2 254.375L1124.95 248.83L1129.67 234.853L1124.53 220.12L1120.5 212.899L1098.25 205.842Z" fill="#FFD914"/>
<path opacity="0.75" d="M1072.13 246.821L1074.23 250.135L1090.45 209.558L1083.25 212.981L1075.42 216.758L1070.9 227L1067.71 240.456L1072.13 246.821Z" fill="#F59B1B"/>
<path opacity="0.25" d="M1122.88 212.355L1111.34 212.588L1098.76 209.523L1078.58 218.511L1072.52 238.756L1080.26 255.376L1092.46 259.502L1099.56 265.706L1076.59 259.043L1065.61 240.318L1073.19 214.563L1098.49 203.999L1122.88 212.355Z" fill="#D03017"/>
<path opacity="0.75" d="M1064.01 240.584L1071.96 213.577L1081.09 209.766L1085.08 198.958L1064.6 207.299L1062.9 211.379L1056.39 234.752L1056.69 243.596L1064.96 263.221L1065.61 263.584L1070.11 250.973L1064.01 240.584Z" fill="#F59B1B"/>
<path opacity="0.75" d="M1130.64 206.508L1126.16 216.887L1132.97 235.182L1124.06 257.56L1115.46 260.953C1114.17 263.659 1111.66 268.912 1109.19 274.106L1128.79 265.706L1139.06 242.187L1140.69 232.505L1130.64 206.508Z" fill="#F59B1B"/>
</g>
<g clip-path="url(#clip10_102_24240)">
<path d="M535.388 142.949L527 166.423L536.294 186.293L560.594 193.824L581.562 184.866L591 163.684L581.562 140.073L559.007 133.38L535.388 142.949Z" fill="#EEE419"/>
<path d="M540.03 142.022L534.58 146.596L529.105 166.252L536.013 182.661L546.923 188.728L562.526 192.059L580.422 184.389L587.566 168.028L588.697 161.293L581.029 141.463L570.448 138.364L558.546 134.426L540.03 142.022Z" fill="url(#paint46_linear_102_24240)"/>
<path d="M559.344 140.42L540.886 148.125L535.358 166.913L543.366 180.572L560.118 185.432L577.131 178.722L583.329 163.156L577.131 146.515L559.344 140.42Z" fill="#F4EB69"/>
<path d="M559.344 141.463L541.742 148.811L536.47 166.728L544.106 179.754L560.082 184.39L576.307 177.991L582.218 163.145L576.307 147.276L559.344 141.463Z" fill="#E9521E"/>
<path d="M559.177 142.745L548.74 147.711L543.294 150.339L540.147 157.463L537.931 166.824L541.006 171.252L545.581 178.478L553.555 181.83L560.177 182.967L568.031 180.707L574.446 176.507L577.747 172.649L581.03 162.926L577.456 152.678L574.651 147.654L559.177 142.745Z" fill="#FFD914"/>
<path opacity="0.75" d="M541.006 171.252L542.466 173.557L553.745 145.33L548.74 147.711L543.294 150.339L540.147 157.463L537.931 166.824L541.006 171.252Z" fill="#F59B1B"/>
<path opacity="0.25" d="M576.307 147.276L568.277 147.437L559.527 145.305L545.49 151.558L541.275 165.641L546.659 177.203L555.143 180.073L560.082 184.39L544.106 179.754L536.47 166.728L541.742 148.811L559.344 141.463L576.307 147.276Z" fill="#D03017"/>
<path opacity="0.75" d="M535.358 166.913L540.886 148.126L547.236 145.475L550.009 137.956L535.767 143.759L534.58 146.597L530.051 162.856L530.266 169.008L536.013 182.661L536.467 182.913L539.595 174.14L535.358 166.913Z" fill="#F59B1B"/>
<path opacity="0.75" d="M581.704 143.208L578.588 150.428L583.329 163.156L577.131 178.722L571.145 181.083C570.246 182.965 568.502 186.62 566.788 190.233L580.422 184.389L587.566 168.028L588.697 161.293L581.704 143.208Z" fill="#F59B1B"/>
</g>
<g clip-path="url(#clip11_102_24240)">
<path d="M359.926 136.092L343.591 135.832L336.618 143.879L342.396 159.86L357.684 177.463L377.721 187.728L393.76 189.796L400.262 182.56L394.957 163.627L381.502 147.993L359.926 136.092Z" fill="#FEC905"/>
<path d="M359.926 136.092L343.59 135.832L348.025 152.282L362.679 169.484L382.61 180.661L400.262 182.56L394.957 163.627L381.502 147.993L359.926 136.092Z" fill="#FEEA14"/>
<path d="M359.758 136.43L344.633 136.496L348.625 152.054L363.254 169.129L382.632 179.987L399.671 182.115L394.521 163.915L381.144 148.228L359.758 136.43Z" fill="#FBCE12"/>
<path d="M360.856 140.529L352.425 142.715L354.046 151.946L365.059 164.515L378.987 172.907L391.418 174.409L390.521 162.809L375.891 148.79L360.856 140.529Z" fill="#F9F08D"/>
<path d="M352.948 143.169L360.555 141.205L375.598 149.459L389.603 163.234L391.164 174.042L378.931 171.971L365.659 163.765L354.761 151.147L352.948 143.169Z" fill="#D03017"/>
<path d="M353.739 146.648L358.33 145.201L372.868 153.85L385.652 166.886L386.367 173.23L378.931 171.971L365.659 163.765L354.761 151.147L353.739 146.648Z" fill="#F3911B"/>
<path d="M353.739 146.648L358.33 145.201L372.868 153.85L385.652 166.886L386.367 173.23L378.931 171.971L365.659 163.765L354.761 151.147L353.739 146.648Z" fill="#FFC01F"/>
<path d="M353.556 145.844L358.325 144.587L360.555 141.205L352.948 143.169L353.556 145.844Z" fill="#F3911B"/>
<path d="M360.555 141.205L359.131 144.747L373.057 153.058L375.598 149.459L360.555 141.205Z" fill="#EE720A"/>
<path d="M375.598 149.459L373.619 153.47L386.061 166.066L389.603 163.233L375.598 149.459Z" fill="#F0AD00"/>
<path d="M389.603 163.233L386.509 166.616L386.963 173.331L391.164 174.042L389.603 163.233Z" fill="#F3911B"/>
<path d="M343.591 135.832L336.618 143.879L342.396 159.86L348.025 152.282L343.591 135.832Z" fill="#FEEA14"/>
<path d="M343.776 136.52L340.088 140.312L337.294 144.132L342.483 159.324L345.183 156.107L347.864 151.682L343.776 136.52Z" fill="#FEE811"/>
<path d="M382.611 180.661L377.721 187.728L357.684 177.463L362.679 169.484L382.611 180.661Z" fill="#FEEA14"/>
<path d="M348.025 152.282L362.679 169.484L357.684 177.463L342.396 159.859L348.025 152.282Z" fill="#FEEA14"/>
<path d="M348.496 152.835L362.174 168.891L359.84 173.347L357.649 176.508L342.934 159.838L345.191 156.679L348.496 152.835Z" fill="#FEC905"/>
<path d="M381.924 180.275L380.543 183.15L377.71 187.256L357.859 177.183L360.536 172.908L363.294 169.829L381.924 180.275Z" fill="#F3911B"/>
<path d="M400.262 182.56L393.761 189.796L377.721 187.727L382.611 180.661L400.262 182.56Z" fill="#FEEA14"/>
<path d="M399.454 182.473L393.545 189.702L377.956 187.755L380.997 183.408L383.081 180.711L399.454 182.473Z" fill="#E9540D"/>
<path d="M386.5 173.304L385.641 166.849L372.742 153.642L363.061 148.015L358.33 145.201L353.739 146.648L353.927 147.478L354.281 148.491L357.568 147.207L371.339 155.647L383.155 168.694L383.878 172.784L386.5 173.304Z" fill="url(#paint47_linear_102_24240)" fill-opacity="0.85"/>
<path d="M347.472 150.229L343.776 136.52L340.088 140.312L337.294 144.132L341.199 155.565L347.472 150.229Z" fill="url(#paint48_linear_102_24240)"/>
<path opacity="0.7" d="M359.758 136.43L344.633 136.496L348.077 149.92L353.307 147.737L352.425 142.715L360.856 140.529L366.099 143.409L370.673 142.451L359.758 136.43Z" fill="url(#paint49_linear_102_24240)"/>
<path d="M360.555 141.205L352.948 143.169L353.556 145.844L359.131 144.748L363.691 147.469L365.572 143.958L360.555 141.205Z" fill="#E9540D"/>
<path opacity="0.45" d="M386.145 171.254L390.967 172.68L391.164 174.042L386.367 173.23L386.145 171.254Z" fill="url(#paint50_linear_102_24240)"/>
<path opacity="0.2" d="M380.997 183.408L384.577 180.872L399.454 182.473L393.675 189.328L378.635 187.529L380.997 183.408Z" fill="#D14216"/>
<path opacity="0.7" d="M385.095 180.295L399.671 182.115L395.689 168.041L385.095 180.295Z" fill="url(#paint51_linear_102_24240)"/>
<path opacity="0.7" d="M380.377 183.391L377.849 187.297L372.732 184.73L380.377 183.391Z" fill="#D14216"/>
</g>
<path d="M725.193 140.352L725.794 142.156L726.155 146.365L731.927 139.03L774.257 138.308L786.523 156.587L789.489 153.829L810.018 152.979L820.263 102.054L822.254 65.7564H853.421L854.728 68.4357L856.509 69.2943L865.706 74.3287L867.351 106.568L866.203 109.175L867.594 112.583L866.273 149.574L864.952 151.416L864.903 188.764L864.361 192.665L865.336 195.807L867.079 241.915L875.519 283.357L870.645 319.106H645.81L632.266 292.784L631.29 225.388L628.481 210.435L630.965 201.983L633.286 154.793L654.045 145.639L671.822 150.634L673.965 134.34L673.724 110.649L676.37 87.5605L674.566 77.2186L675.068 48.4922L709.525 41.1343L711.484 43.7877L723.228 45.0505L728.801 85.5161L728.031 89.4405L728.68 93.2125L726.877 137.707L725.193 140.352Z" fill="#ED9977"/>
<path d="M671.923 149.865L673.965 134.34L673.724 110.649L675.798 85.9341L674.379 76.2428L675.068 48.4922L703.002 42.5272L709.525 41.1343L711.484 43.7877L723.228 45.0505L728.801 85.5161L728.031 89.4405L728.68 93.2125L726.877 137.707L725.193 140.352L725.794 142.156L726.155 146.365L724.727 189.465L801.547 195.138L811.948 143.372L820.263 102.054C820.263 102.054 819.832 88.5342 820.263 87.8251C820.694 87.1159 822.254 65.7564 822.254 65.7564H853.421L854.728 68.4357L865.706 74.3287L867.351 106.568L866.203 109.175L867.594 112.583L866.273 149.574L864.952 151.416L864.903 188.764L867.079 241.915L875.519 283.357L870.645 319.106H680.058L671.923 243.594L670.361 177.174L671.923 149.865Z" fill="url(#paint52_linear_102_24240)"/>
<path d="M825.883 70.4398L830.131 68.1152L837.982 69.2943L835.301 108.028L832.816 150.635L824.732 219.916L801.743 194.167L811.948 143.372L820.263 102.054L825.883 70.4398Z" fill="url(#paint53_linear_102_24240)"/>
<path d="M835.3 107.198V109.853H837.299L834.054 145.371H832.828L834.322 149.52L833.833 152.756L817.983 237.928L867.079 241.915L864.903 188.764L864.952 151.416L866.273 149.574L867.594 112.582L866.203 109.175L867.351 106.568L865.706 74.3286L854.167 69.7574L840.115 69.2942L836.484 107.15L835.3 107.198Z" fill="url(#paint54_linear_102_24240)"/>
<path d="M678.186 152.756L654.045 145.639L640.859 151.367L633.286 154.793L630.965 201.983L628.481 210.435L631.29 225.388L632.266 292.784L645.81 319.106H680.058H727.602H784.628L784.066 302.378L749.734 256.09L710.397 254.598L707.963 256.09L703.331 252.321V245.726L695.598 235.815L691.71 230.965L688.57 226.097L687.543 225.53L687.024 224.665V223.538L686.296 223.45L685.048 219.916L686.296 215.965L678.186 152.756Z" fill="#F2A98F"/>
<path d="M660.675 162.096L678.186 152.756L686.296 215.965L685.048 219.916L686.296 223.45L687.543 225.53L688.57 226.097L691.71 230.965L703.331 245.726V252.321L707.963 256.09L710.397 254.598L749.734 256.09L774.584 289.595L789.604 280.14L835.3 259.455L838.825 250.307V246.112L841.731 240.139L867.079 241.915L875.519 283.357L870.645 319.106H680.058L670.077 298.303L659.593 234.083L663.293 217.089L660.676 210.435L660.675 162.096Z" fill="url(#paint55_linear_102_24240)"/>
<path opacity="0.65" d="M854.167 69.7576L859.881 106.202L857.731 149.402L854.167 192.406L847.587 226.208L830.764 253.719L813.243 265.017L808.367 295.514L811.418 319.106H870.646L875.519 283.357L867.079 241.915L864.952 151.416L866.273 149.574L867.594 112.583L866.204 109.176L867.351 106.568L865.706 74.3287L854.167 69.7576Z" fill="#FFE1CA"/>
<path d="M654.045 145.639L633.286 154.793L659.823 160.649L674.943 153.144L654.045 145.639Z" fill="#F18967"/>
<path d="M633.286 154.793L659.681 161.697L658.434 211.183L663.293 217.089L658.642 234.47L670.077 298.303L680.058 319.106H645.81L632.266 292.784L631.29 225.388L628.481 210.435L630.965 201.983L633.286 154.793Z" fill="#F2A98F"/>
<path d="M633.286 154.793L658.434 162.656L658.029 210.5L660.594 216.509L657.199 234.501L670.077 298.303L680.058 319.106H645.81L632.266 292.784L631.29 225.388L628.481 210.435L630.965 201.983L633.286 154.793Z" fill="url(#paint56_linear_102_24240)"/>
<path opacity="0.25" d="M642.191 157.602L658.434 162.656V211.183L660.594 216.509L657.199 234.501L670.077 298.303L680.058 319.106H661.065L650.984 295.779L639.128 216.629L642.191 157.602Z" fill="#891212"/>
<path d="M670.077 298.303L683.795 296.168L687.462 291.856L709.591 257.391L707.963 256.09L710.397 254.598L749.734 256.09L784.066 302.378L784.628 319.106H680.058L670.077 298.303Z" fill="url(#paint57_linear_102_24240)"/>
<path d="M723.228 45.0504L711.484 43.7876L683.611 46.0369L680.058 49.7486L684.012 53.2352L685.234 88.1683L684.012 135.376L680.058 203.855L685.944 217.079L735.901 217.964L733.912 190.999L724.758 188.523L726.155 146.365L725.794 142.156L725.193 140.352L726.877 137.707L728.681 93.2123L728.031 89.4404L728.801 85.516L723.228 45.0504Z" fill="url(#paint58_linear_102_24240)"/>
<path d="M635.609 153.529L633.398 154.578L633.167 180.731L641.443 186.576L652.672 183.856L654.404 161.51L656.437 160.649V158.799L635.609 153.529Z" fill="#E48C47"/>
<path d="M643.084 181.314L647.896 178.01L648.904 165.483L650.026 158.586L654.546 159.676L652.672 183.856L641.443 186.576L643.084 181.314Z" fill="#D3641A"/>
<path d="M633.398 154.578L633.167 180.731L641.443 186.576L635.446 178.684L635.589 155.106L633.398 154.578Z" fill="#D3641A"/>
<path d="M632.266 292.784L670.077 298.303L680.058 319.106H645.81L632.266 292.784Z" fill="#9E3434"/>
<path d="M660.675 162.096L678.186 152.756L686.296 215.965L685.048 219.916L686.296 223.45H687.351L686.931 224.51L687.543 225.53L688.57 226.097L691.71 230.965L703.331 245.726V252.321L709.591 257.391L687.305 292.101L683.795 296.168L670.077 298.303L668.517 284.375L659.593 234.083L663.293 217.089L660.676 210.435L660.675 162.096Z" fill="url(#paint59_linear_102_24240)"/>
<path d="M660.675 162.096L678.186 152.756L686.296 215.965L685.048 219.916L686.296 223.45H687.351L686.931 224.51L687.543 225.53L688.57 226.097L691.71 230.965L703.331 245.726V252.321L709.591 257.391L687.305 292.101L683.795 296.168L670.077 298.303L668.517 284.375L659.593 234.083L663.293 217.089L660.676 210.435L660.675 162.096Z" fill="url(#paint60_linear_102_24240)"/>
<path d="M660.675 162.096L678.186 152.756L686.296 215.965L685.048 219.916L686.296 223.45H687.351L686.931 224.51L687.543 225.53L688.57 226.097L691.71 230.965L703.331 245.726V252.321L709.591 257.391L687.305 292.101L683.795 296.168L670.077 298.303L668.517 284.375L659.593 234.083L663.293 217.089L660.676 210.435L660.675 162.096Z" fill="url(#paint61_linear_102_24240)"/>
<path d="M677.669 52.2438L682.917 46.7622L689.166 47.5998L691.044 86.6173L690.371 136.309L686.774 190.999L684.834 204.568L678.187 152.756L671.822 150.634L673.965 134.34L673.724 110.649L675.798 85.934L677.669 52.2438Z" fill="url(#paint62_linear_102_24240)"/>
<path opacity="0.25" d="M682.917 46.7622L689.165 47.5998L691.044 86.6173L690.3 137.385L686.773 191.677L684.833 204.568L681.13 177.044L684.012 135.376L685.234 88.1683L682.917 46.7622Z" fill="#712323"/>
<path d="M721.664 45.7878L694.972 46.5752L690.738 47.5416L693.968 84.4136L698.599 88.5722L693.025 89.9148L691.694 135.081L699.885 138.308L691.079 139.14L687.97 190.999L685.554 210.183L685.944 217.079L735.901 217.964L734.372 190.999L724.758 188.523L726.155 146.365L725.794 142.156L725.193 140.352L726.877 137.707L728.681 93.2123L728.045 89.3821L728.801 85.516L721.664 45.7878Z" fill="url(#paint63_linear_102_24240)"/>
<path opacity="0.45" d="M723.228 45.0505L709.461 46.1479L713.853 87.4704H711.484L714.615 90.5193L713.363 138.114H709.591L712.424 140.641L726.155 146.365L725.794 142.156L725.193 140.352L726.877 137.707L728.681 93.2125L728.031 89.4405L728.801 85.5162L723.228 45.0505Z" fill="#FFE1CA"/>
<path d="M685.944 217.079L734.241 219.228L741.628 231.178L748.127 247.376L746.855 248.937L701.379 236.95L692.991 232.562L688.57 226.097L687.543 225.53L687.024 224.665L687.351 223.45H686.295L685.048 219.916L685.944 217.079Z" fill="url(#paint64_linear_102_24240)"/>
<path d="M695.598 235.815L701.545 238.647L744.863 249.933L749.734 256.09L710.397 254.598L707.963 256.09L703.331 252.321V245.726L695.598 235.815Z" fill="url(#paint65_linear_102_24240)"/>
<path opacity="0.15" d="M688.347 188.026L689.927 186.366L707.022 187.362L713.528 189.095L733.912 190.999L735.901 216.509L742.363 233.008L748.127 246.743L746.559 249.52L749.734 256.09L710.397 254.598L707.963 256.09L703.331 252.321V245.127L695.598 235.815L688.57 226.097L687.024 224.665L687.351 223.45H686.296L685.048 219.916L685.944 217.079L685.185 207.305L684.833 204.568L688.347 188.026Z" fill="url(#paint66_linear_102_24240)"/>
<path opacity="0.25" d="M734.241 219.228L730.964 244.748L746.855 248.937L787.674 306.718L789.604 280.14L779.511 266.031L748.127 242.835L741.628 231.178L734.241 219.228Z" fill="url(#paint67_linear_102_24240)"/>
<path opacity="0.15" d="M779.511 266.031L789.604 280.14L797.493 275.174L830.764 253.719L833.867 247.884L838.825 246.112L832.866 236.95L779.511 266.031Z" fill="url(#paint68_linear_102_24240)"/>
<path opacity="0.65" d="M779.511 266.031L832.866 236.95L802.095 242.104L772.534 250.307L742.363 233.008L748.127 242.835L779.511 266.031Z" fill="url(#paint69_linear_102_24240)"/>
<path d="M724.727 189.465L726.155 146.365L731.927 139.03L774.257 138.308L786.523 156.587L789.489 153.829L810.018 152.979L832.813 152.035L858.414 198.297L857.667 203.339L858.04 207.193L838.825 246.112L834.639 247.376L809.668 245.204L802.729 243.594L796.602 229.203L792.4 242.835L752 242.088L742.727 220.8L745.001 191.85L728.721 189.894L724.727 189.465Z" fill="#E08F73"/>
<path opacity="0.25" d="M670.077 298.303L688.029 295.444L766.976 294.622L784.066 302.378L791.57 303.054L802.257 296.771L849.374 286.852L875.519 283.357L870.645 319.106H680.058L670.077 298.303Z" fill="#C47345"/>
<path opacity="0.25" d="M670.077 298.303L688.029 295.444L766.976 294.622L784.066 302.378L791.57 303.054L802.257 296.771L849.374 286.852L875.519 283.357L870.645 319.106H680.058L670.077 298.303Z" fill="url(#paint70_linear_102_24240)"/>
<path opacity="0.75" d="M727.66 189.308L729.926 189.187L741.788 181.795L745.693 190.847L744.923 192.838L742.726 220.8L752 242.088L757.56 242.191L792.4 242.835L796.602 229.203L802.095 242.104L772.534 250.307L748.127 242.835L734.958 219.916L735.901 216.509L734.372 190.999L727.66 189.308Z" fill="#510723"/>
<path d="M789.489 153.829L832.813 152.035L858.414 198.297L857.667 203.339L858.04 207.193L838.825 246.112L834.64 247.376L809.668 245.204L802.729 243.594L819.871 200.971L789.489 153.829Z" fill="#FFD8AE"/>
<path opacity="0.25" d="M692.991 232.562L701.379 236.95L730.964 244.748L746.855 248.937L776.686 288.272L783.148 296.889L770.437 271.65L748.127 247.376L731.928 237.615L700.691 234.083L690.481 228.892L692.991 232.562Z" fill="#62240C"/>
<path d="M731.927 139.03L766.976 191.677L753.861 237.928L752 242.088L792.4 242.835L807.103 196.388L808.367 189.685L774.257 138.308L731.927 139.03Z" fill="#FCCDA6"/>
<path d="M792.594 154.775L832.813 152.035L858.414 198.297L857.667 203.339L856.813 207.117L838.825 244.34L834.639 247.376L809.668 245.204L804.963 242.09L821.501 201.074L792.594 154.775Z" fill="url(#paint71_linear_102_24240)"/>
<path opacity="0.65" d="M858.414 198.297L851.048 202.105L831.915 247.139L834.639 247.376L838.825 246.112L858.04 207.193L857.667 203.339L858.414 198.297Z" fill="url(#paint72_linear_102_24240)"/>
<path d="M735.901 141.554L744.033 139.728H769.427L775.07 141.554L807.102 189.685L806.893 193.24L803.506 191.14L796.643 189.882L776.959 189.636L768.288 191.677L735.901 141.554Z" fill="url(#paint73_linear_102_24240)"/>
<path d="M736.119 141.554L741.966 150.941L768.288 191.677L767.795 193.42L754.535 238.075L756.392 241.052L791.57 241.527L806.779 195.176L807.102 189.685L773.559 139.728L736.119 141.554Z" fill="url(#paint74_linear_102_24240)"/>
<path opacity="0.65" d="M807.331 195.177L794.831 194.642L788.503 220.598L786.542 242.835H792.4L807.625 195.807" fill="url(#paint75_linear_102_24240)"/>
<path d="M792.594 154.775L832.813 152.035L858.414 198.297L851.048 202.105L821.501 201.074L792.594 154.775Z" fill="url(#paint76_linear_102_24240)"/>
<path d="M781.105 148.622L774.5 138.308H761.843L775.815 159.601L787.924 181.387L808.367 189.685L794.032 168.095L781.105 148.622Z" fill="#FFE1CA"/>
<path d="M735.901 141.554L744.033 139.728H769.427H773.559L807.102 189.685L806.893 193.24L803.506 191.14L796.643 189.882L776.959 189.636L768.288 191.677L735.901 141.554Z" fill="url(#paint77_linear_102_24240)"/>
<path d="M781.105 148.622L774.5 138.308H761.843L775.815 159.601L796.643 189.882L803.506 191.14L807.521 194.167L808.367 189.685L794.032 168.095L781.105 148.622Z" fill="#FFE1CA"/>
<path d="M838.526 162.307L832.784 152.035L819.627 152.562L848.77 202.047L851.048 202.105L858.414 198.297L848.081 179.777L838.526 162.307Z" fill="#FFE1CA"/>
<path d="M782.52 216.087L765.857 217.623L758.53 240.963L758.932 242.187L764.697 243.544L765.997 242.835L766.352 243.966L773.088 246.152L773.856 245.679L774.388 246.743L779.706 247.925L780.592 246.979L781.183 248.338L788.251 242.736L792.624 226.487L793.51 220.164L782.52 216.087Z" fill="#F4873D"/>
<path d="M782.641 218.4L787.614 223.377L785.826 241.449L785.01 245.304L781.183 248.338L780.592 246.979L779.706 247.925L774.388 246.743L777.779 225.935L779.511 218.561L782.641 218.4Z" fill="#F7E96D"/>
<path d="M782.641 218.4L787.614 223.377L786.081 240.28L785.01 245.304L788.251 242.736L791.04 232.372L791.57 226.524L791.15 221.59L782.641 218.4Z" fill="#EA9B65"/>
<path d="M816.259 222.654L824.058 221.59L828.431 222.654L837.235 223.245L841.844 223.481L843.853 225.313L833.867 247.884L831.915 250.055L830.122 251.038L828.855 250.701L821.031 249.875L819.318 248.575L818.904 248.871L811.665 247.61L809.91 245.225L816.259 222.654Z" fill="#F4873D"/>
<path d="M832.866 224.56L839.374 227.076L832.644 245.304L830.123 251.038L823.738 250.307L830.849 231.852L830.745 225.529L832.866 224.56Z" fill="#F7E96D"/>
<path d="M773.448 218.874L768.854 224.56L764.877 242.326L763.497 243.262L758.932 242.187L758.53 240.963L762.049 229.754L766.587 219.228L773.448 218.874Z" fill="#BF7340"/>
<path d="M822.311 223.498L817.115 223.937L814.36 229.403L809.91 245.225L811.971 248.338L816.111 248.384L819.046 232.213L821.594 227.076L823.738 223.377L822.311 223.498Z" fill="#BF7340"/>
<path d="M831.915 250.055L833.867 247.884L840.645 232.562L842.789 226.365L841.048 224.316L832.866 224.56L839.374 227.076L834.135 241.915L830.123 251.038L831.915 250.055Z" fill="#EA9B65"/>
<path opacity="0.25" d="M685.695 209.061L697.75 214.083L735.623 214.199L735.901 217.964L685.944 217.079L685.695 209.061Z" fill="#62240C"/>
<path opacity="0.35" d="M710.397 254.598L701.545 238.647L695.598 235.815L703.331 245.726V252.321L707.963 256.09L710.397 254.598Z" fill="#62240C"/>
<path d="M675.798 85.9341L674.566 77.2186L675.068 48.4922L709.525 41.1343L711.484 43.7877L683.611 46.0371L677.669 52.2438L675.798 85.9341Z" fill="#E48C47"/>
<path d="M853.421 65.7563H822.254L819.871 90.1588L820.263 102.054L825.883 70.4398L830.131 68.1152L854.728 68.4357L853.421 65.7563Z" fill="#E48C47"/>
<path d="M632.297 183.965L638.343 192.838L651.691 190.247L655.303 185.536L651.298 188.402L638.736 190.09L632.297 183.965Z" fill="#9E3434"/>
<path d="M632.297 206.814L655.624 216.236L665.51 217.336L654.91 217.964L632.297 206.814Z" fill="#9E3434"/>
<path d="M628.481 210.435L637.244 214.195L650.984 217.964L639.128 216.629L628.481 210.435Z" fill="#9E3434"/>
<path d="M629.706 216.236L637.244 221.183L640.777 222.204L654.27 221.026L641.405 224.01H637.715L629.706 216.236Z" fill="#9E3434"/>
<path opacity="0.3" d="M678.466 220.555L685.048 219.916L685.778 221.985L678.466 220.555Z" fill="#8A3231"/>
<path opacity="0.3" d="M666.374 221.968L680.058 224.009L686.296 223.45H687.351L687.024 224.665L687.543 225.529L680.058 226.208L666.374 221.968Z" fill="#8A3231"/>
<path opacity="0.3" d="M680.058 278.917L689.674 267.675L695.13 260.897L703.331 245.726V252.321L695.957 263.459L692.981 268.006L680.058 278.917Z" fill="#8A3231"/>
<path opacity="0.3" d="M683.795 296.168L687.462 291.856L701.259 270.367L709.182 257.921L707.963 256.09L710.397 254.598L712.654 256.433L710.174 261.393L728.029 264.203L752 266.518L772.94 288.671L748.032 268.502L718.109 268.171L710.009 264.534L706.537 266.518L694.799 284.042L689.159 295.432L688.029 295.444L683.795 296.168Z" fill="#8A3231"/>
<path opacity="0.7" d="M692.991 232.562L701.379 236.95L730.258 244.456L746.855 248.937L764.614 272.173L783.148 296.889L790.504 301.975L801.791 296.903L849.374 286.852L803.119 297.898L791.57 304.205L786.467 307.496L784.628 319.106L784.066 302.379L775.075 290.256L758.53 266.032L744.863 249.933L701.545 238.647L695.258 235.653L692.991 232.562Z" fill="#8A3231"/>
<path d="M731.752 141.554L733.577 166.449L744.033 191.179L729.926 189.187L724.727 189.465L744.923 192.838L758.53 194.166L745.693 190.847L734.739 165.454L731.752 141.554Z" fill="#62240C"/>
<path opacity="0.3" d="M763.286 192.842L776.959 189.636L796.643 189.882L803.506 191.14L807.102 192.922L808.367 189.685L807.331 195.176L777.56 193.337L763.286 192.842Z" fill="#8A3231"/>
<path d="M763.286 212.423L779.219 206.282H788.514L798.306 214.083L784.53 207.942L763.286 212.423Z" fill="#E07852"/>
<path opacity="0.3" d="M766.976 188.026L776.02 181.387H794.323L798.306 183.71L793.51 182.383L776.02 183.046L766.976 188.026Z" fill="#8A3231"/>
<path opacity="0.3" d="M766.976 189.685L776.02 186.366H800.63L806.107 190.681L798.306 187.362L776.02 188.026L766.976 189.685Z" fill="#8A3231"/>
<path opacity="0.3" d="M735.901 141.554L742.875 140.595L775.07 141.554L769.427 139.728H744.033L735.901 141.554Z" fill="#8A3231"/>
<path opacity="0.3" d="M813.243 199.478L817.891 197.486L857.358 196.388L818.554 198.648L813.243 199.478Z" fill="#8A3231"/>
<path opacity="0.3" d="M814.903 202.133L819.871 200.971L851.048 202.105L858.414 198.297V201.11L857.667 203.339L845.276 205.121L819.871 203.793L814.903 202.133Z" fill="#8A3231"/>
<path d="M815.733 219.228L828.679 214.083L843.853 216.509L848.097 221.59L841.79 217.837L827.849 216.509L815.733 219.228Z" fill="#F18967"/>
<path opacity="0.35" d="M788.514 273.501L825.821 291.273L862.869 301.55L827.517 289.766L788.514 273.501Z" fill="#9E3434"/>
<path opacity="0.15" d="M828.562 310.097L859.383 309.516L867.079 305.945L858.816 312.089L828.562 310.097Z" fill="#9E3434"/>
<path opacity="0.35" d="M783.369 287.525L801.791 296.903L811.418 319.106L800.298 297.898L783.369 287.525Z" fill="#9E3434"/>
<path opacity="0.15" d="M810.754 304.371L817.932 314.581L848.097 315.823L819.863 313.125L810.754 304.371Z" fill="#9E3434"/>
<path opacity="0.15" d="M851.915 289.932H868.346L874.984 288.438L874.155 291.26L868.18 292.753L851.915 289.932Z" fill="#9E3434"/>
<path d="M685.944 217.079C686.442 216.479 735.901 217.964 735.901 217.964L741.628 231.178L734.241 219.228L685.944 217.079Z" fill="#8A3231"/>
<path d="M682.775 188.524L687.769 189.519L713.528 189.095L707.022 187.362L689.927 186.366L708.848 185.702L724.727 187.611L724.758 188.524L733.912 190.999H686.774L682.775 188.524Z" fill="#8A3231"/>
<path opacity="0.3" d="M676.649 134.417C677.645 134.417 691.694 135.081 691.694 135.081L703.331 137.404L725.193 140.352L700.493 139.728L689.919 139.31L676.649 134.417Z" fill="#8A3231"/>
<path opacity="0.3" d="M685.944 85.9341C686.442 85.4556 693.025 82.8 693.025 82.8L724.453 83.6563L728.801 85.5161L724.727 85.9341L693.025 84.3671L685.944 85.9341Z" fill="#8A3231"/>
<path opacity="0.3" d="M681.13 88.1112L693.025 86.6174L728.303 88.0621L728.031 89.4405L728.68 93.2125L707.597 89.1756L693.025 88.2771L681.13 88.1112Z" fill="#8A3231"/>
<path opacity="0.3" d="M824.529 109.189L835.3 107.198L859.881 106.202L867.351 106.568L866.203 109.175L836.313 109.853L824.529 109.189Z" fill="#8A3231"/>
<path opacity="0.3" d="M823.202 148.193L831.168 147.197L832.828 145.371C832.828 145.371 865.524 150.586 864.694 150.634C863.865 150.682 834.322 149.52 834.322 149.52L823.202 148.193Z" fill="#8A3231"/>
<path opacity="0.3" d="M791.57 155.91L831.915 153.836L793.51 157.985L791.57 155.91Z" fill="#8A3231"/>
<path opacity="0.15" d="M705.694 279.642L748.183 280.969L758.53 285.346L747.187 282.795L705.694 279.642Z" fill="#9E3434"/>
<path opacity="0.15" d="M733.912 288.438L761.626 293.417L778.389 312.089L759.469 295.779L733.912 288.438Z" fill="#9E3434"/>
<path opacity="0.15" d="M755.154 308.022L771.282 310.225L783.924 319.106H780.075L770.569 311.763L755.154 308.022Z" fill="#9E3434"/>
<path opacity="0.15" d="M702.998 304.33L755.154 319.626L745.029 319.106L702.998 304.33Z" fill="#9E3434"/>
<path opacity="0.15" d="M670.077 298.303L727.602 319.106H720.3L670.077 298.303Z" fill="#9E3434"/>
<path opacity="0.3" d="M852.73 188.026L864.903 188.764L853.66 189.706L852.73 188.026Z" fill="#8A3231"/>
<path opacity="0.3" d="M855.302 192.673H863.533L864.903 188.764L865.336 195.807L856.679 195.162L855.302 192.673Z" fill="#8A3231"/>
<path opacity="0.3" d="M845.162 233.033L864.71 234.501L843.853 235.998L845.162 233.033Z" fill="#8A3231"/>
<path opacity="0.3" d="M842.694 238.645L867.079 241.915L841.889 240.281L842.694 238.645Z" fill="#8A3231"/>
<path d="M772.94 269.084L809.168 248.937L802.095 248.338L808.366 244.902L809.668 245.204L811.449 248.338L816.721 248.491L772.94 269.084Z" fill="#8A3231"/>
<path d="M689.159 295.432L693.202 284.997L705.694 266.094L709.591 260.641L712.072 257.596L708.682 263.671L710.009 264.534L718.405 267.306L748.093 267.912L772.94 288.671L748.032 268.502L718.109 268.171L708.682 265.292L706.537 266.518L694.799 284.042L689.159 295.432Z" fill="#8A3231"/>
<path opacity="0.45" d="M749.063 235.346L755.485 193.869L748.813 164.394L731.927 139.03L725.817 155.984L724.727 187.611L707.015 190.999H734L734.5 201.88L735.623 214.199L735.901 216.509L735.498 217.964L749.063 235.346Z" fill="#600D2B"/>
<path opacity="0.65" d="M831.915 72.2397L837.982 69.2942L832.828 145.371L832.813 152.035L822.305 152.29L828.854 109.853L831.915 72.2397Z" fill="#AB4E46"/>
<path d="M837.982 108.796L860.885 108.028L866.204 109.175L837.982 108.796Z" fill="#8A3231"/>
<path d="M827.997 148.239L832.823 147.337L850.575 149.561L832.821 148.617L827.997 148.239Z" fill="#8A3231"/>
<path d="M855.302 192.673L863.317 193.149L865.005 193.314L860.64 193.808L855.302 192.673Z" fill="#8A3231"/>
<path d="M728.303 88.0622L699.402 86.8787L728.217 90.5193L728.031 89.4406L728.303 88.0622Z" fill="#8A3231"/>
<path d="M687.744 136.516L691.717 135.532L710.985 139.242L693.824 137.774L687.744 136.516Z" fill="#8A3231"/>
<path opacity="0.65" d="M713.364 187.507L724.758 188.523L727.932 189.341L713.364 187.507Z" fill="#600D2B"/>
<path opacity="0.85" d="M772.94 192.041L779.033 190.999L795.397 191.282L803.254 192.842L807.625 193.616L807.331 195.177L802.669 193.859L795.137 192.406L779.098 191.911L772.94 192.041Z" fill="#8A3231"/>
<path opacity="0.85" d="M826.739 202.717L850.275 203.924L858.414 201.11V198.297L851.048 202.105L836.692 201.738L826.739 202.717Z" fill="#8A3231"/>
<path d="M844.839 233.764L857.662 234.343L844.141 235.346L844.839 233.764Z" fill="#8A3231"/>
<path d="M633.286 176.051L633.167 180.731L641.443 186.576L652.672 183.856L654.404 161.51L651.694 181.795L640.768 183.965L633.909 179.844L633.286 176.051Z" fill="#661124"/>
<path d="M635.609 153.529L633.398 154.578L654.547 159.676L656.437 158.799L635.609 153.529Z" fill="#D8A675"/>
<path d="M758.53 240.963L765.857 217.623L782.52 216.087L793.51 220.164L792.624 226.487L790.862 233.033L791.57 226.524L791.151 221.59L782.641 218.4L766.587 219.228L758.53 240.963Z" fill="#661124"/>
<path d="M809.91 245.225L816.259 222.654L824.058 221.59L828.431 222.654L841.844 223.481L843.853 225.313L840.645 232.562L841.889 226.409L840.763 225.103L828.029 224.777L823.738 223.377L817.115 223.937L809.91 245.225Z" fill="#661124"/>
<path d="M636.355 181.314L640.768 183.966L644.802 183.164L643.084 181.314L639.128 180.832L636.355 181.314Z" fill="#EAAD96"/>
<path d="M773.448 218.874L782.641 218.4L787.614 220.264L784.266 221.59L777.779 220.889L773.448 218.874Z" fill="#F4B7A2"/>
<path d="M822.312 223.498L823.738 223.377L828.03 224.777L836.659 224.998L834.861 226.66L827.744 227.512L822.67 224.949L822.312 223.498Z" fill="#F4B7A2"/>
<path opacity="0.25" d="M726.142 146.764L731.752 141.554L765.658 191.607L753.861 237.928L766.976 191.677L731.927 139.03L726.142 146.764Z" fill="white"/>
<path opacity="0.25" d="M786.523 156.587L789.489 153.829L819.87 200.971L802.729 243.594L817.983 201.11L788.869 155.605L786.523 156.587Z" fill="white"/>
<path d="M635.589 155.106V178.05L636.355 179.881L640.768 183.965L638.179 178.671V164.394L639.753 156.11L635.589 155.106Z" fill="#FFDA8F"/>
<path opacity="0.75" d="M765.997 242.835L766.856 241.267L766.976 243.367L766.352 243.966L765.997 242.835Z" fill="#661124"/>
<path opacity="0.75" d="M773.856 245.68L776.02 236.314L775.664 244.471L774.388 246.743L773.856 245.68Z" fill="#661124"/>
<path opacity="0.75" d="M780.592 246.979L781.179 243.721L781.655 245.917L781.183 248.338L780.592 246.979Z" fill="#661124"/>
<path opacity="0.75" d="M819.318 248.575L821.012 241.915L820.196 249.241L819.318 248.575Z" fill="#661124"/>
<path opacity="0.75" d="M830.123 251.038L833.562 243.262L831.276 250.604L830.123 251.038Z" fill="#661124"/>
<path d="M641.845 155.106L639.753 156.11L638.179 164.394L641.324 156.489L643.8 155.601L641.845 155.106Z" fill="url(#paint78_linear_102_24240)"/>
<path d="M649.168 158.38L648.904 165.483L650.026 158.587L651.582 157.57L650.453 157.285L649.168 158.38Z" fill="url(#paint79_linear_102_24240)"/>
<path d="M635.589 155.106L637.827 154.09L636.708 153.807L634.918 154.968L635.576 157.285L635.589 155.106Z" fill="url(#paint80_linear_102_24240)"/>
<path opacity="0.1" d="M691.044 139.728L725.193 140.352L725.794 142.156L726.155 146.365L724.727 187.611L709.591 185.702L689.927 186.366L688.347 184.706L691.044 139.728Z" fill="url(#paint81_linear_102_24240)"/>
<path opacity="0.15" d="M698.599 88.5723L693.025 89.9149V134.417L723.735 139.999L726.877 137.707L728.381 93.1551L707.597 89.1755L698.599 88.5723Z" fill="url(#paint82_linear_102_24240)"/>
<path opacity="0.35" d="M725.643 161.807L733.68 156.984L734.805 165.873L745.693 190.847L744.923 192.838L727.932 189.341L724.758 188.523L725.643 161.807Z" fill="#510723"/>
<path d="M822.254 65.7563L825.713 67.0803L825.501 72.5842C825.501 72.5842 820.096 102.992 820.263 102.054C820.429 101.117 819.871 89.7096 819.871 89.7096L822.254 65.7563Z" fill="#BF7340"/>
<path d="M675.068 48.4922L679.217 50.6269L677.669 52.2439L675.798 85.9341L674.566 77.2186L675.068 48.4922Z" fill="#BF7340"/>
<path d="M825.532 71.797V69.898L830.144 67.4058H854.225L854.728 68.4357L830.131 68.1152L825.883 70.4398L825.532 71.797Z" fill="#8A3231"/>
<path opacity="0.75" d="M692.991 232.562L701.379 236.95L746.855 248.937L759.677 267.084L744.863 249.933L701.545 238.647L695.258 235.653L692.991 232.562Z" fill="#510723"/>
<path opacity="0.65" d="M866.665 224.316L862.869 241.35L855.302 286.06L851.915 319.106H870.645L875.519 283.357L867.079 241.915L866.665 224.316Z" fill="#FFE1CA"/>
<defs>
<linearGradient id="paint0_linear_102_24240" x1="484.965" y1="95.4313" x2="429.637" y2="138.246" gradientUnits="userSpaceOnUse">
<stop stop-color="#F3911B"/>
<stop offset="0.71587" stop-color="#FEE60F"/>
<stop offset="1" stop-color="#FEEA14"/>
</linearGradient>
<linearGradient id="paint1_linear_102_24240" x1="438.666" y1="150.253" x2="454.499" y2="140.665" gradientUnits="userSpaceOnUse">
<stop stop-color="#F3911B" stop-opacity="0.75"/>
<stop offset="1" stop-color="#E9540D"/>
</linearGradient>
<linearGradient id="paint2_linear_102_24240" x1="467.835" y1="105.78" x2="478.143" y2="99.5373" gradientUnits="userSpaceOnUse">
<stop stop-color="#F3911B" stop-opacity="0.75"/>
<stop offset="1" stop-color="#E9540D"/>
</linearGradient>
<linearGradient id="paint3_linear_102_24240" x1="430.901" y1="137.432" x2="455.287" y2="122.664" gradientUnits="userSpaceOnUse">
<stop stop-color="#F3911B" stop-opacity="0.75"/>
<stop offset="1" stop-color="#E9540D"/>
</linearGradient>
<linearGradient id="paint4_linear_102_24240" x1="471.479" y1="101.889" x2="487.834" y2="91.985" gradientUnits="userSpaceOnUse">
<stop stop-color="#F3911B" stop-opacity="0.75"/>
<stop offset="1" stop-color="#E9540D"/>
</linearGradient>
<linearGradient id="paint5_linear_102_24240" x1="1145.74" y1="127.347" x2="1199.93" y2="70.7955" gradientUnits="userSpaceOnUse">
<stop stop-color="#F3911B"/>
<stop offset="0.72146" stop-color="#FEE60F"/>
<stop offset="1" stop-color="#FEEA14"/>
</linearGradient>
<linearGradient id="paint6_linear_102_24240" x1="1154.36" y1="97.6857" x2="1188.93" y2="97.6857" gradientUnits="userSpaceOnUse">
<stop stop-color="#F3911B" stop-opacity="0.75"/>
<stop offset="1" stop-color="#E9540D"/>
</linearGradient>
<linearGradient id="paint7_linear_102_24240" x1="1134.78" y1="122.388" x2="1169.27" y2="122.388" gradientUnits="userSpaceOnUse">
<stop stop-color="#F3911B" stop-opacity="0.75"/>
<stop offset="1" stop-color="#E9540D"/>
</linearGradient>
<linearGradient id="paint8_linear_102_24240" x1="1143.36" y1="107.7" x2="1174.6" y2="107.7" gradientUnits="userSpaceOnUse">
<stop stop-color="#F3911B"/>
<stop offset="0.72146" stop-color="#FEE60F"/>
<stop offset="1" stop-color="#FEEA14"/>
</linearGradient>
<linearGradient id="paint9_linear_102_24240" x1="1161.02" y1="97.9856" x2="1175.77" y2="97.9856" gradientUnits="userSpaceOnUse">
<stop stop-color="#F3911B" stop-opacity="0.75"/>
<stop offset="1" stop-color="#E9540D"/>
</linearGradient>
<linearGradient id="paint10_linear_102_24240" x1="985.797" y1="129.47" x2="995.504" y2="117.822" gradientUnits="userSpaceOnUse">
<stop stop-color="#FEA905"/>
<stop offset="1" stop-color="#FFD600"/>
</linearGradient>
<linearGradient id="paint11_linear_102_24240" x1="967.981" y1="123.789" x2="1017.59" y2="123.789" gradientUnits="userSpaceOnUse">
<stop stop-color="#F3911B" stop-opacity="0.75"/>
<stop offset="1" stop-color="#E9540D"/>
</linearGradient>
<linearGradient id="paint12_linear_102_24240" x1="946.919" y1="117.892" x2="961.6" y2="117.892" gradientUnits="userSpaceOnUse">
<stop stop-color="#F3911B" stop-opacity="0.75"/>
<stop offset="1" stop-color="#E9540D"/>
</linearGradient>
<linearGradient id="paint13_linear_102_24240" x1="953.146" y1="110.237" x2="987.211" y2="110.237" gradientUnits="userSpaceOnUse">
<stop stop-color="#F3911B" stop-opacity="0.75"/>
<stop offset="1" stop-color="#E9540D"/>
</linearGradient>
<linearGradient id="paint14_linear_102_24240" x1="965.752" y1="109.527" x2="981.506" y2="109.527" gradientUnits="userSpaceOnUse">
<stop stop-color="#F3911B" stop-opacity="0.75"/>
<stop offset="1" stop-color="#E9540D"/>
</linearGradient>
<linearGradient id="paint15_linear_102_24240" x1="1016.6" y1="134.137" x2="1023.77" y2="134.137" gradientUnits="userSpaceOnUse">
<stop stop-color="#F3911B" stop-opacity="0.75"/>
<stop offset="1" stop-color="#E9540D"/>
</linearGradient>
<linearGradient id="paint16_linear_102_24240" x1="1018.59" y1="134.997" x2="1037.11" y2="134.997" gradientUnits="userSpaceOnUse">
<stop stop-color="#F3911B" stop-opacity="0.75"/>
<stop offset="1" stop-color="#E9540D"/>
</linearGradient>
<linearGradient id="paint17_linear_102_24240" x1="426.704" y1="280.757" x2="418.64" y2="215.223" gradientUnits="userSpaceOnUse">
<stop stop-color="#F3911B"/>
<stop offset="0.71587" stop-color="#FEE60F" stop-opacity="0"/>
<stop offset="1" stop-color="#FEEA14" stop-opacity="0"/>
</linearGradient>
<linearGradient id="paint18_linear_102_24240" x1="426.594" y1="230.686" x2="455.446" y2="230.686" gradientUnits="userSpaceOnUse">
<stop stop-color="#F3911B" stop-opacity="0.75"/>
<stop offset="1" stop-color="#E9540D"/>
</linearGradient>
<linearGradient id="paint19_linear_102_24240" x1="402.835" y1="282.909" x2="397.413" y2="238.838" gradientUnits="userSpaceOnUse">
<stop stop-color="#F3911B" stop-opacity="0.75"/>
<stop offset="1" stop-color="#E9540D"/>
</linearGradient>
<linearGradient id="paint20_linear_102_24240" x1="436.393" y1="231.303" x2="444.532" y2="231.303" gradientUnits="userSpaceOnUse">
<stop stop-color="#F3911B" stop-opacity="0.75"/>
<stop offset="1" stop-color="#E9540D"/>
</linearGradient>
<linearGradient id="paint21_linear_102_24240" x1="402.652" y1="260.269" x2="412.778" y2="260.269" gradientUnits="userSpaceOnUse">
<stop stop-color="#F3911B" stop-opacity="0.75"/>
<stop offset="1" stop-color="#E9540D"/>
</linearGradient>
<linearGradient id="paint22_linear_102_24240" x1="403.511" y1="286.491" x2="419.718" y2="286.491" gradientUnits="userSpaceOnUse">
<stop stop-color="#F3911B" stop-opacity="0.75"/>
<stop offset="1" stop-color="#E9540D"/>
</linearGradient>
<linearGradient id="paint23_linear_102_24240" x1="452.452" y1="240.276" x2="465.172" y2="240.276" gradientUnits="userSpaceOnUse">
<stop stop-color="#F3911B" stop-opacity="0.75"/>
<stop offset="1" stop-color="#E9540D"/>
</linearGradient>
<linearGradient id="paint24_linear_102_24240" x1="1341.84" y1="142.806" x2="1275.9" y2="150.36" gradientUnits="userSpaceOnUse">
<stop stop-color="#F3911B"/>
<stop offset="0.71587" stop-color="#FEE60F"/>
<stop offset="1" stop-color="#FEEA14"/>
</linearGradient>
<linearGradient id="paint25_linear_102_24240" x1="1277.33" y1="164.541" x2="1294.89" y2="164.541" gradientUnits="userSpaceOnUse">
<stop stop-color="#F3911B" stop-opacity="0.75"/>
<stop offset="1" stop-color="#E9540D"/>
</linearGradient>
<linearGradient id="paint26_linear_102_24240" x1="1322.85" y1="142.786" x2="1334.29" y2="142.786" gradientUnits="userSpaceOnUse">
<stop stop-color="#F3911B" stop-opacity="0.75"/>
<stop offset="1" stop-color="#E9540D"/>
</linearGradient>
<linearGradient id="paint27_linear_102_24240" x1="1277.33" y1="150.32" x2="1304.38" y2="150.32" gradientUnits="userSpaceOnUse">
<stop stop-color="#F3911B" stop-opacity="0.75"/>
<stop offset="1" stop-color="#E9540D"/>
</linearGradient>
<linearGradient id="paint28_linear_102_24240" x1="1327.72" y1="141.419" x2="1345.86" y2="141.419" gradientUnits="userSpaceOnUse">
<stop stop-color="#F3911B" stop-opacity="0.75"/>
<stop offset="1" stop-color="#E9540D"/>
</linearGradient>
<linearGradient id="paint29_linear_102_24240" x1="1271.82" y1="190.99" x2="1222.45" y2="169.561" gradientUnits="userSpaceOnUse">
<stop stop-color="#F3911B"/>
<stop offset="0.71587" stop-color="#FEE60F"/>
<stop offset="1" stop-color="#FEEA14"/>
</linearGradient>
<linearGradient id="paint30_linear_102_24240" x1="1217.71" y1="180.097" x2="1230.04" y2="187.216" gradientUnits="userSpaceOnUse">
<stop stop-color="#F3911B" stop-opacity="0.75"/>
<stop offset="1" stop-color="#E9540D"/>
</linearGradient>
<linearGradient id="paint31_linear_102_24240" x1="1258.49" y1="183.278" x2="1266.52" y2="187.913" gradientUnits="userSpaceOnUse">
<stop stop-color="#F3911B" stop-opacity="0.75"/>
<stop offset="1" stop-color="#E9540D"/>
</linearGradient>
<linearGradient id="paint32_linear_102_24240" x1="1223.47" y1="170.111" x2="1242.46" y2="181.077" gradientUnits="userSpaceOnUse">
<stop stop-color="#F3911B" stop-opacity="0.75"/>
<stop offset="1" stop-color="#E9540D"/>
</linearGradient>
<linearGradient id="paint33_linear_102_24240" x1="1262.47" y1="184.293" x2="1275.2" y2="191.646" gradientUnits="userSpaceOnUse">
<stop stop-color="#F3911B" stop-opacity="0.75"/>
<stop offset="1" stop-color="#E9540D"/>
</linearGradient>
<linearGradient id="paint34_linear_102_24240" x1="243.463" y1="119.929" x2="192.314" y2="136.513" gradientUnits="userSpaceOnUse">
<stop stop-color="#F3911B"/>
<stop offset="0.71587" stop-color="#FEE60F"/>
<stop offset="1" stop-color="#FEEA14"/>
</linearGradient>
<linearGradient id="paint35_linear_102_24240" x1="223.148" y1="134.935" x2="244.446" y2="134.935" gradientUnits="userSpaceOnUse">
<stop stop-color="#F3911B" stop-opacity="0.75"/>
<stop offset="1" stop-color="#E9540D"/>
</linearGradient>
<linearGradient id="paint36_linear_102_24240" x1="190.268" y1="126.897" x2="210.017" y2="126.897" gradientUnits="userSpaceOnUse">
<stop stop-color="#F3911B" stop-opacity="0.75"/>
<stop offset="1" stop-color="#E9540D"/>
</linearGradient>
<linearGradient id="paint37_linear_102_24240" x1="201.6" y1="125.388" x2="213.153" y2="125.388" gradientUnits="userSpaceOnUse">
<stop stop-color="#F3911B" stop-opacity="0.75"/>
<stop offset="1" stop-color="#E9540D"/>
</linearGradient>
<linearGradient id="paint38_linear_102_24240" x1="567.574" y1="94.2976" x2="574.267" y2="94.2976" gradientUnits="userSpaceOnUse">
<stop stop-color="#F3911B" stop-opacity="0.75"/>
<stop offset="1" stop-color="#E9540D"/>
</linearGradient>
<linearGradient id="paint39_linear_102_24240" x1="568.806" y1="82.1469" x2="612.495" y2="82.1469" gradientUnits="userSpaceOnUse">
<stop stop-color="#FEEA14"/>
<stop offset="0.28413" stop-color="#FEE60F"/>
<stop offset="1" stop-color="#F3911B"/>
</linearGradient>
<linearGradient id="paint40_linear_102_24240" x1="602.846" y1="80.2166" x2="612.495" y2="80.2166" gradientUnits="userSpaceOnUse">
<stop stop-color="#F3911B" stop-opacity="0.75"/>
<stop offset="1" stop-color="#E9540D"/>
</linearGradient>
<linearGradient id="paint41_linear_102_24240" x1="568.806" y1="81.4482" x2="591.721" y2="81.4482" gradientUnits="userSpaceOnUse">
<stop stop-color="#F3911B" stop-opacity="0.75"/>
<stop offset="1" stop-color="#E9540D"/>
</linearGradient>
<linearGradient id="paint42_linear_102_24240" x1="576.242" y1="83.2982" x2="589.544" y2="83.2982" gradientUnits="userSpaceOnUse">
<stop stop-color="#F3911B" stop-opacity="0.75"/>
<stop offset="1" stop-color="#E9540D"/>
</linearGradient>
<linearGradient id="paint43_linear_102_24240" x1="578.985" y1="74.4975" x2="601.743" y2="89.0484" gradientUnits="userSpaceOnUse">
<stop stop-color="#F3911B"/>
<stop offset="0.71587" stop-color="#FEE60F" stop-opacity="0"/>
<stop offset="1" stop-color="#FEEA14" stop-opacity="0"/>
</linearGradient>
<linearGradient id="paint44_linear_102_24240" x1="914.822" y1="180.971" x2="905.032" y2="175.672" gradientUnits="userSpaceOnUse">
<stop stop-color="#F3911B" stop-opacity="0.75"/>
<stop offset="1" stop-color="#E9540D"/>
</linearGradient>
<linearGradient id="paint45_linear_102_24240" x1="1055.03" y1="235.307" x2="1140.69" y2="235.307" gradientUnits="userSpaceOnUse">
<stop stop-color="#FEEA14"/>
<stop offset="0.28413" stop-color="#FEE60F"/>
<stop offset="1" stop-color="#F3911B"/>
</linearGradient>
<linearGradient id="paint46_linear_102_24240" x1="529.105" y1="163.242" x2="588.697" y2="163.242" gradientUnits="userSpaceOnUse">
<stop stop-color="#FEEA14"/>
<stop offset="0.28413" stop-color="#FEE60F"/>
<stop offset="1" stop-color="#F3911B"/>
</linearGradient>
<linearGradient id="paint47_linear_102_24240" x1="351.69" y1="153.577" x2="388.923" y2="164.586" gradientUnits="userSpaceOnUse">
<stop stop-color="#F3911B" stop-opacity="0.75"/>
<stop offset="1" stop-color="#E9540D"/>
</linearGradient>
<linearGradient id="paint48_linear_102_24240" x1="337.192" y1="144.476" x2="348.21" y2="147.734" gradientUnits="userSpaceOnUse">
<stop stop-color="#E83400"/>
<stop offset="1" stop-color="#F3911B" stop-opacity="0.75"/>
</linearGradient>
<linearGradient id="paint49_linear_102_24240" x1="343.563" y1="140.113" x2="369.129" y2="147.673" gradientUnits="userSpaceOnUse">
<stop stop-color="#F3911B" stop-opacity="0.75"/>
<stop offset="1" stop-color="#E9540D"/>
</linearGradient>
<linearGradient id="paint50_linear_102_24240" x1="385.885" y1="172.133" x2="391.259" y2="173.722" gradientUnits="userSpaceOnUse">
<stop stop-color="#F3911B" stop-opacity="0.75"/>
<stop offset="1" stop-color="#E9540D"/>
</linearGradient>
<linearGradient id="paint51_linear_102_24240" x1="387.187" y1="173.22" x2="401.086" y2="177.33" gradientUnits="userSpaceOnUse">
<stop stop-color="#F3911B" stop-opacity="0.75"/>
<stop offset="1" stop-color="#E9540D"/>
</linearGradient>
<linearGradient id="paint52_linear_102_24240" x1="698.856" y1="219.354" x2="854.511" y2="144.567" gradientUnits="userSpaceOnUse">
<stop stop-color="#ED9977"/>
<stop offset="1" stop-color="#FFB987"/>
</linearGradient>
<linearGradient id="paint53_linear_102_24240" x1="819.549" y1="152.927" x2="828.948" y2="72.29" gradientUnits="userSpaceOnUse">
<stop stop-color="#D25757"/>
<stop offset="1" stop-color="#F8B987"/>
</linearGradient>
<linearGradient id="paint54_linear_102_24240" x1="834.849" y1="154.222" x2="866.413" y2="156.199" gradientUnits="userSpaceOnUse">
<stop stop-color="#ED9977"/>
<stop offset="1" stop-color="#FFB987"/>
</linearGradient>
<linearGradient id="paint55_linear_102_24240" x1="659.593" y1="235.931" x2="875.519" y2="235.931" gradientUnits="userSpaceOnUse">
<stop stop-color="#ED9977"/>
<stop offset="1" stop-color="#FFB987"/>
</linearGradient>
<linearGradient id="paint56_linear_102_24240" x1="628.481" y1="236.95" x2="680.058" y2="236.95" gradientUnits="userSpaceOnUse">
<stop stop-color="#D46B5E"/>
<stop offset="1" stop-color="#AD533E"/>
</linearGradient>
<linearGradient id="paint57_linear_102_24240" x1="670.077" y1="286.852" x2="784.628" y2="286.852" gradientUnits="userSpaceOnUse">
<stop stop-color="#DB8979"/>
<stop offset="1" stop-color="#FF9971"/>
</linearGradient>
<linearGradient id="paint58_linear_102_24240" x1="700.458" y1="214.626" x2="711.561" y2="95.3997" gradientUnits="userSpaceOnUse">
<stop stop-color="#A24733"/>
<stop offset="1" stop-color="#FFB987"/>
</linearGradient>
<linearGradient id="paint59_linear_102_24240" x1="677.805" y1="281.265" x2="689.576" y2="166.375" gradientUnits="userSpaceOnUse">
<stop stop-color="#DB8979"/>
<stop offset="1" stop-color="#FCAA76"/>
</linearGradient>
<linearGradient id="paint60_linear_102_24240" x1="660.209" y1="226.894" x2="687.192" y2="224.25" gradientUnits="userSpaceOnUse">
<stop offset="0.00559" stop-color="#CC7A56"/>
<stop offset="1" stop-color="#ED9977" stop-opacity="0"/>
</linearGradient>
<linearGradient id="paint61_linear_102_24240" x1="689.631" y1="283.385" x2="671.567" y2="148.424" gradientUnits="userSpaceOnUse">
<stop offset="0.00559" stop-color="#CD7868"/>
<stop offset="1" stop-color="#ED9977" stop-opacity="0"/>
</linearGradient>
<linearGradient id="paint62_linear_102_24240" x1="678.656" y1="166.719" x2="687.865" y2="50.2378" gradientUnits="userSpaceOnUse">
<stop stop-color="#9E3434"/>
<stop offset="1" stop-color="#E17868"/>
</linearGradient>
<linearGradient id="paint63_linear_102_24240" x1="697.578" y1="215.029" x2="728.285" y2="54.5331" gradientUnits="userSpaceOnUse">
<stop stop-color="#9E3434"/>
<stop offset="1" stop-color="#FCAA88"/>
</linearGradient>
<linearGradient id="paint64_linear_102_24240" x1="695.301" y1="224.924" x2="742.31" y2="234.439" gradientUnits="userSpaceOnUse">
<stop stop-color="#9E3434"/>
<stop offset="1" stop-color="#DF7751"/>
</linearGradient>
<linearGradient id="paint65_linear_102_24240" x1="705.935" y1="245.952" x2="748.118" y2="245.952" gradientUnits="userSpaceOnUse">
<stop stop-color="#9E3434"/>
<stop offset="1" stop-color="#E07852"/>
</linearGradient>
<linearGradient id="paint66_linear_102_24240" x1="684.833" y1="221.228" x2="749.734" y2="221.228" gradientUnits="userSpaceOnUse">
<stop stop-color="#F7BE98"/>
<stop offset="1" stop-color="#FFD5AE"/>
</linearGradient>
<linearGradient id="paint67_linear_102_24240" x1="730.964" y1="262.973" x2="789.604" y2="262.973" gradientUnits="userSpaceOnUse">
<stop stop-color="#6A000E"/>
<stop offset="1" stop-color="#7F0027"/>
</linearGradient>
<linearGradient id="paint68_linear_102_24240" x1="779.511" y1="258.545" x2="838.825" y2="258.545" gradientUnits="userSpaceOnUse">
<stop stop-color="#AB4E46"/>
<stop offset="1" stop-color="#661124" stop-opacity="0.45"/>
</linearGradient>
<linearGradient id="paint69_linear_102_24240" x1="793.623" y1="261.934" x2="788.226" y2="237.723" gradientUnits="userSpaceOnUse">
<stop stop-color="#AB4E46"/>
<stop offset="1" stop-color="#661124"/>
</linearGradient>
<linearGradient id="paint70_linear_102_24240" x1="676.814" y1="301.232" x2="803.8" y2="301.232" gradientUnits="userSpaceOnUse">
<stop offset="0.00559" stop-color="#CD7868"/>
<stop offset="1" stop-color="#ED9977" stop-opacity="0"/>
</linearGradient>
<linearGradient id="paint71_linear_102_24240" x1="817.263" y1="243.738" x2="822.11" y2="204.216" gradientUnits="userSpaceOnUse">
<stop stop-color="#FCAA76"/>
<stop offset="1" stop-color="#FF9971"/>
</linearGradient>
<linearGradient id="paint72_linear_102_24240" x1="842.528" y1="247.139" x2="845.158" y2="225.696" gradientUnits="userSpaceOnUse">
<stop stop-color="#F7BE98"/>
<stop offset="1" stop-color="#FFD5AE"/>
</linearGradient>
<linearGradient id="paint73_linear_102_24240" x1="756.358" y1="141.107" x2="786.483" y2="189.869" gradientUnits="userSpaceOnUse">
<stop stop-color="#F7BE98"/>
<stop offset="1" stop-color="#FFD5AE"/>
</linearGradient>
<linearGradient id="paint74_linear_102_24240" x1="759.779" y1="237.689" x2="767.101" y2="194.194" gradientUnits="userSpaceOnUse">
<stop stop-color="#FCAA76"/>
<stop offset="1" stop-color="#FF9971"/>
</linearGradient>
<linearGradient id="paint75_linear_102_24240" x1="786.542" y1="218.739" x2="807.625" y2="218.739" gradientUnits="userSpaceOnUse">
<stop stop-color="#F7BE98"/>
<stop offset="1" stop-color="#FFD5AE"/>
</linearGradient>
<linearGradient id="paint76_linear_102_24240" x1="792.594" y1="177.07" x2="858.414" y2="177.07" gradientUnits="userSpaceOnUse">
<stop stop-color="#F7BE98"/>
<stop offset="1" stop-color="#FFD5AE"/>
</linearGradient>
<linearGradient id="paint77_linear_102_24240" x1="756.358" y1="141.107" x2="786.483" y2="189.869" gradientUnits="userSpaceOnUse">
<stop stop-color="#F7BE98"/>
<stop offset="1" stop-color="#FFD5AE"/>
</linearGradient>
<linearGradient id="paint78_linear_102_24240" x1="641.749" y1="163.403" x2="640.642" y2="158.438" gradientUnits="userSpaceOnUse">
<stop stop-color="#AB4E46"/>
<stop offset="1" stop-color="#661124"/>
</linearGradient>
<linearGradient id="paint79_linear_102_24240" x1="650.981" y1="164.839" x2="649.955" y2="160.236" gradientUnits="userSpaceOnUse">
<stop stop-color="#AB4E46"/>
<stop offset="1" stop-color="#661124"/>
</linearGradient>
<linearGradient id="paint80_linear_102_24240" x1="636.904" y1="156.914" x2="636.483" y2="155.023" gradientUnits="userSpaceOnUse">
<stop stop-color="#AB4E46"/>
<stop offset="1" stop-color="#661124"/>
</linearGradient>
<linearGradient id="paint81_linear_102_24240" x1="688.347" y1="163.669" x2="726.155" y2="163.669" gradientUnits="userSpaceOnUse">
<stop stop-color="#F7BE98"/>
<stop offset="1" stop-color="#FFD5AE"/>
</linearGradient>
<linearGradient id="paint82_linear_102_24240" x1="693.025" y1="114.285" x2="728.381" y2="114.285" gradientUnits="userSpaceOnUse">
<stop stop-color="#F7BE98"/>
<stop offset="1" stop-color="#FFD5AE"/>
</linearGradient>
<clipPath id="clip0_102_24240">
<rect width="78" height="39" fill="white" transform="translate(421 123.785) rotate(-31.1993)"/>
</clipPath>
<clipPath id="clip1_102_24240">
<rect width="62.6268" height="59.3646" fill="white" transform="translate(1127 78.3799)"/>
</clipPath>
<clipPath id="clip2_102_24240">
<rect width="92" height="56.8235" fill="white" transform="translate(946 99.3799)"/>
</clipPath>
<clipPath id="clip3_102_24240">
<rect width="79.1992" height="80" fill="white" transform="translate(387 212.38)"/>
</clipPath>
<clipPath id="clip4_102_24240">
<rect width="74" height="37" fill="white" transform="translate(1276 134.38)"/>
</clipPath>
<clipPath id="clip5_102_24240">
<rect width="60" height="30" fill="white" transform="translate(1229 158.38) rotate(30)"/>
</clipPath>
<clipPath id="clip6_102_24240">
<rect width="64" height="62.72" fill="white" transform="translate(189 96.3799)"/>
</clipPath>
<clipPath id="clip7_102_24240">
<rect width="48" height="40.1423" fill="white" transform="translate(567 66.3799)"/>
</clipPath>
<clipPath id="clip8_102_24240">
<rect width="68" height="53" fill="white" transform="translate(888 162.38)"/>
</clipPath>
<clipPath id="clip9_102_24240">
<rect width="92" height="86.8889" fill="white" transform="translate(1052 192.38)"/>
</clipPath>
<clipPath id="clip10_102_24240">
<rect width="64" height="60.4444" fill="white" transform="translate(527 133.38)"/>
</clipPath>
<clipPath id="clip11_102_24240">
<rect width="72" height="44.4706" fill="white" transform="translate(340.61 130.38) rotate(16.4728)"/>
</clipPath>
</defs>
</svg>
